<svg width="400" height="60" viewBox="0 0 400 60" fill="none" xmlns="http://www.w3.org/2000/svg">
<rect x="0.5" y="0.5" width="399" height="59" rx="29.5" stroke="white" stroke-opacity="0.2"/>
<g clip-path="url(#clip0_304_1191)">
<path d="M124.805 30.2303C124.805 29.5506 124.75 28.8671 124.633 28.1984H115.2V32.0492H120.602C120.377 33.2911 119.657 34.3898 118.603 35.0879V37.5866H121.825C123.718 35.8449 124.805 33.2728 124.805 30.2303Z" fill="#4285F4"/>
<path d="M115.2 40.0006C117.897 40.0006 120.171 39.1151 121.829 37.5865L118.606 35.0879C117.71 35.6979 116.552 36.0433 115.204 36.0433C112.595 36.0433 110.383 34.2832 109.589 31.9169H106.264V34.4927C107.961 37.8695 111.419 40.0006 115.2 40.0006V40.0006Z" fill="#34A853"/>
<path d="M109.586 31.9169C109.167 30.675 109.167 29.3301 109.586 28.0882V25.5124H106.264C104.846 28.338 104.846 31.6671 106.264 34.4927L109.586 31.9169V31.9169Z" fill="#FBBC04"/>
<path d="M115.2 23.958C116.626 23.936 118.004 24.4725 119.036 25.4572L121.891 22.6022C120.083 20.9046 117.684 19.9713 115.2 20.0007C111.419 20.0007 107.961 22.1319 106.264 25.5123L109.585 28.0881C110.375 25.7181 112.591 23.958 115.2 23.958V23.958Z" fill="#EA4335"/>
</g>
<path d="M144.108 27.7898H141.983C141.922 27.4413 141.811 27.1326 141.648 26.8636C141.485 26.5909 141.282 26.3598 141.04 26.1705C140.797 25.9811 140.521 25.839 140.21 25.7443C139.903 25.6458 139.572 25.5966 139.216 25.5966C138.583 25.5966 138.023 25.7557 137.534 26.0739C137.045 26.3883 136.663 26.8504 136.386 27.4602C136.11 28.0663 135.972 28.8068 135.972 29.6818C135.972 30.572 136.11 31.322 136.386 31.9318C136.667 32.5379 137.049 32.9962 137.534 33.3068C138.023 33.6136 138.581 33.767 139.21 33.767C139.559 33.767 139.884 33.7216 140.188 33.6307C140.494 33.536 140.769 33.3977 141.011 33.2159C141.258 33.0341 141.464 32.8106 141.631 32.5455C141.801 32.2803 141.919 31.9773 141.983 31.6364L144.108 31.6477C144.028 32.2008 143.856 32.7197 143.591 33.2045C143.33 33.6894 142.987 34.1174 142.562 34.4886C142.138 34.8561 141.642 35.1439 141.074 35.3523C140.506 35.5568 139.875 35.6591 139.182 35.6591C138.159 35.6591 137.246 35.4223 136.443 34.9489C135.64 34.4754 135.008 33.7917 134.545 32.8977C134.083 32.0038 133.852 30.9318 133.852 29.6818C133.852 28.428 134.085 27.3561 134.551 26.4659C135.017 25.572 135.652 24.8883 136.455 24.4148C137.258 23.9413 138.167 23.7045 139.182 23.7045C139.83 23.7045 140.432 23.7955 140.989 23.9773C141.545 24.1591 142.042 24.4261 142.477 24.7784C142.913 25.1269 143.271 25.5549 143.551 26.0625C143.835 26.5663 144.021 27.142 144.108 27.7898ZM149.434 35.6705C148.582 35.6705 147.843 35.483 147.218 35.108C146.593 34.733 146.109 34.2083 145.764 33.5341C145.423 32.8598 145.252 32.072 145.252 31.1705C145.252 30.2689 145.423 29.4792 145.764 28.8011C146.109 28.1231 146.593 27.5966 147.218 27.2216C147.843 26.8466 148.582 26.6591 149.434 26.6591C150.287 26.6591 151.025 26.8466 151.65 27.2216C152.275 27.5966 152.758 28.1231 153.099 28.8011C153.444 29.4792 153.616 30.2689 153.616 31.1705C153.616 32.072 153.444 32.8598 153.099 33.5341C152.758 34.2083 152.275 34.733 151.65 35.108C151.025 35.483 150.287 35.6705 149.434 35.6705ZM149.446 34.0227C149.908 34.0227 150.294 33.8958 150.605 33.642C150.915 33.3845 151.146 33.0398 151.298 32.608C151.453 32.1761 151.531 31.6951 151.531 31.1648C151.531 30.6307 151.453 30.1477 151.298 29.7159C151.146 29.2803 150.915 28.9337 150.605 28.6761C150.294 28.4186 149.908 28.2898 149.446 28.2898C148.972 28.2898 148.578 28.4186 148.264 28.6761C147.953 28.9337 147.72 29.2803 147.565 29.7159C147.413 30.1477 147.338 30.6307 147.338 31.1648C147.338 31.6951 147.413 32.1761 147.565 32.608C147.72 33.0398 147.953 33.3845 148.264 33.642C148.578 33.8958 148.972 34.0227 149.446 34.0227ZM157.099 30.3864V35.5H155.042V26.7727H157.008V28.2557H157.11C157.311 27.767 157.631 27.3788 158.07 27.0909C158.513 26.803 159.061 26.6591 159.712 26.6591C160.315 26.6591 160.839 26.7879 161.286 27.0455C161.737 27.303 162.085 27.6761 162.332 28.1648C162.582 28.6534 162.705 29.2462 162.701 29.9432V35.5H160.644V30.2614C160.644 29.678 160.493 29.2216 160.19 28.892C159.89 28.5625 159.476 28.3977 158.945 28.3977C158.585 28.3977 158.265 28.4773 157.985 28.6364C157.708 28.7917 157.491 29.017 157.332 29.3125C157.176 29.608 157.099 29.9659 157.099 30.3864ZM168.83 26.7727V28.3636H163.813V26.7727H168.83ZM165.051 24.6818H167.108V32.875C167.108 33.1515 167.15 33.3636 167.233 33.5114C167.32 33.6553 167.434 33.7538 167.574 33.8068C167.714 33.8598 167.87 33.8864 168.04 33.8864C168.169 33.8864 168.286 33.8769 168.392 33.858C168.502 33.839 168.585 33.822 168.642 33.8068L168.989 35.4148C168.879 35.4527 168.722 35.4943 168.517 35.5398C168.317 35.5852 168.07 35.6117 167.779 35.6193C167.263 35.6345 166.799 35.5568 166.387 35.3864C165.974 35.2121 165.646 34.9432 165.404 34.5795C165.165 34.2159 165.048 33.7614 165.051 33.2159V24.6818ZM170.23 35.5V26.7727H172.287V35.5H170.23ZM171.264 25.5341C170.938 25.5341 170.658 25.4261 170.423 25.2102C170.188 24.9905 170.071 24.7273 170.071 24.4205C170.071 24.1098 170.188 23.8466 170.423 23.6307C170.658 23.411 170.938 23.3011 171.264 23.3011C171.594 23.3011 171.874 23.411 172.105 23.6307C172.34 23.8466 172.457 24.1098 172.457 24.4205C172.457 24.7273 172.34 24.9905 172.105 25.2102C171.874 25.4261 171.594 25.5341 171.264 25.5341ZM176.139 30.3864V35.5H174.082V26.7727H176.048V28.2557H176.15C176.351 27.767 176.671 27.3788 177.11 27.0909C177.553 26.803 178.101 26.6591 178.752 26.6591C179.355 26.6591 179.879 26.7879 180.326 27.0455C180.777 27.303 181.125 27.6761 181.372 28.1648C181.622 28.6534 181.745 29.2462 181.741 29.9432V35.5H179.684V30.2614C179.684 29.678 179.533 29.2216 179.23 28.892C178.93 28.5625 178.516 28.3977 177.985 28.3977C177.625 28.3977 177.305 28.4773 177.025 28.6364C176.748 28.7917 176.531 29.017 176.372 29.3125C176.216 29.608 176.139 29.9659 176.139 30.3864ZM189.074 31.8295V26.7727H191.131V35.5H189.137V33.9489H189.046C188.849 34.4375 188.525 34.8371 188.074 35.1477C187.627 35.4583 187.076 35.6136 186.421 35.6136C185.849 35.6136 185.343 35.4867 184.904 35.233C184.468 34.9754 184.127 34.6023 183.881 34.1136C183.635 33.6212 183.512 33.0265 183.512 32.3295V26.7727H185.569V32.0114C185.569 32.5644 185.72 33.0038 186.023 33.3295C186.326 33.6553 186.724 33.8182 187.216 33.8182C187.519 33.8182 187.813 33.7443 188.097 33.5966C188.381 33.4489 188.614 33.2292 188.796 32.9375C188.982 32.642 189.074 32.2727 189.074 31.8295ZM196.79 35.6705C195.915 35.6705 195.159 35.4886 194.523 35.125C193.89 34.7576 193.403 34.2386 193.063 33.5682C192.722 32.8939 192.551 32.1004 192.551 31.1875C192.551 30.2898 192.722 29.5019 193.063 28.8239C193.407 28.142 193.888 27.6117 194.506 27.233C195.123 26.8504 195.849 26.6591 196.682 26.6591C197.22 26.6591 197.727 26.7462 198.205 26.9205C198.686 27.0909 199.11 27.3561 199.477 27.7159C199.849 28.0758 200.14 28.5341 200.352 29.0909C200.564 29.6439 200.671 30.303 200.671 31.0682V31.6989H193.517V30.3125H198.699C198.695 29.9186 198.61 29.5682 198.443 29.2614C198.277 28.9508 198.044 28.7064 197.744 28.5284C197.449 28.3504 197.104 28.2614 196.71 28.2614C196.29 28.2614 195.921 28.3636 195.602 28.5682C195.284 28.7689 195.036 29.0341 194.858 29.3636C194.684 29.6894 194.595 30.0473 194.591 30.4375V31.6477C194.591 32.1553 194.684 32.5909 194.869 32.9545C195.055 33.3144 195.314 33.5909 195.648 33.7841C195.981 33.9735 196.371 34.0682 196.818 34.0682C197.117 34.0682 197.388 34.0265 197.631 33.9432C197.873 33.8561 198.083 33.7292 198.261 33.5625C198.439 33.3958 198.574 33.1894 198.665 32.9432L200.585 33.1591C200.464 33.6667 200.233 34.1098 199.892 34.4886C199.555 34.8636 199.123 35.1553 198.597 35.3636C198.07 35.5682 197.468 35.6705 196.79 35.6705ZM207.54 35.5L205.075 26.7727H207.171L208.705 32.9091H208.785L210.353 26.7727H212.427L213.995 32.875H214.08L215.592 26.7727H217.694L215.222 35.5H213.08L211.444 29.6023H211.325L209.688 35.5H207.54ZM218.81 35.5V26.7727H220.867V35.5H218.81ZM219.844 25.5341C219.518 25.5341 219.238 25.4261 219.003 25.2102C218.768 24.9905 218.651 24.7273 218.651 24.4205C218.651 24.1098 218.768 23.8466 219.003 23.6307C219.238 23.411 219.518 23.3011 219.844 23.3011C220.174 23.3011 220.454 23.411 220.685 23.6307C220.92 23.8466 221.037 24.1098 221.037 24.4205C221.037 24.7273 220.92 24.9905 220.685 25.2102C220.454 25.4261 220.174 25.5341 219.844 25.5341ZM227.02 26.7727V28.3636H222.003V26.7727H227.02ZM223.241 24.6818H225.298V32.875C225.298 33.1515 225.34 33.3636 225.423 33.5114C225.51 33.6553 225.624 33.7538 225.764 33.8068C225.904 33.8598 226.06 33.8864 226.23 33.8864C226.359 33.8864 226.476 33.8769 226.582 33.858C226.692 33.839 226.775 33.822 226.832 33.8068L227.179 35.4148C227.069 35.4527 226.912 35.4943 226.707 35.5398C226.507 35.5852 226.26 35.6117 225.969 35.6193C225.453 35.6345 224.989 35.5568 224.577 35.3864C224.164 35.2121 223.836 34.9432 223.594 34.5795C223.355 34.2159 223.238 33.7614 223.241 33.2159V24.6818ZM230.664 30.3864V35.5H228.607V23.8636H230.619V28.2557H230.721C230.926 27.7633 231.242 27.375 231.67 27.0909C232.102 26.803 232.651 26.6591 233.318 26.6591C233.924 26.6591 234.452 26.786 234.903 27.0398C235.354 27.2936 235.702 27.6648 235.948 28.1534C236.198 28.642 236.323 29.2386 236.323 29.9432V35.5H234.267V30.2614C234.267 29.6742 234.115 29.2178 233.812 28.892C233.513 28.5625 233.092 28.3977 232.551 28.3977C232.187 28.3977 231.861 28.4773 231.573 28.6364C231.289 28.7917 231.066 29.017 230.903 29.3125C230.744 29.608 230.664 29.9659 230.664 30.3864ZM249.635 27.5795C249.54 27.2727 249.41 26.9981 249.243 26.7557C249.08 26.5095 248.883 26.2992 248.652 26.125C248.425 25.9508 248.163 25.8201 247.868 25.733C247.573 25.642 247.251 25.5966 246.902 25.5966C246.277 25.5966 245.72 25.7538 245.232 26.0682C244.743 26.3826 244.359 26.8447 244.078 27.4545C243.802 28.0606 243.663 28.7992 243.663 29.6705C243.663 30.5492 243.802 31.2936 244.078 31.9034C244.355 32.5133 244.739 32.9773 245.232 33.2955C245.724 33.6098 246.296 33.767 246.948 33.767C247.538 33.767 248.05 33.6534 248.482 33.4261C248.917 33.1989 249.252 32.8769 249.487 32.4602C249.722 32.0398 249.84 31.5473 249.84 30.983L250.317 31.0568H247.158V29.4091H251.879V30.8068C251.879 31.803 251.667 32.6648 251.243 33.392C250.819 34.1193 250.235 34.6799 249.493 35.0739C248.751 35.464 247.898 35.6591 246.936 35.6591C245.864 35.6591 244.923 35.4186 244.112 34.9375C243.306 34.4527 242.675 33.7652 242.22 32.875C241.77 31.9811 241.544 30.9205 241.544 29.6932C241.544 28.7538 241.677 27.9148 241.942 27.1761C242.211 26.4375 242.586 25.8106 243.067 25.2955C243.548 24.7765 244.112 24.3826 244.76 24.1136C245.408 23.8409 246.112 23.7045 246.874 23.7045C247.518 23.7045 248.118 23.7992 248.675 23.9886C249.232 24.1742 249.726 24.4394 250.158 24.7841C250.593 25.1288 250.951 25.5379 251.232 26.0114C251.512 26.4848 251.696 27.0076 251.783 27.5795H249.635ZM257.314 35.6705C256.461 35.6705 255.723 35.483 255.098 35.108C254.473 34.733 253.988 34.2083 253.643 33.5341C253.302 32.8598 253.132 32.072 253.132 31.1705C253.132 30.2689 253.302 29.4792 253.643 28.8011C253.988 28.1231 254.473 27.5966 255.098 27.2216C255.723 26.8466 256.461 26.6591 257.314 26.6591C258.166 26.6591 258.905 26.8466 259.53 27.2216C260.155 27.5966 260.637 28.1231 260.978 28.8011C261.323 29.4792 261.495 30.2689 261.495 31.1705C261.495 32.072 261.323 32.8598 260.978 33.5341C260.637 34.2083 260.155 34.733 259.53 35.108C258.905 35.483 258.166 35.6705 257.314 35.6705ZM257.325 34.0227C257.787 34.0227 258.173 33.8958 258.484 33.642C258.795 33.3845 259.026 33.0398 259.177 32.608C259.333 32.1761 259.41 31.6951 259.41 31.1648C259.41 30.6307 259.333 30.1477 259.177 29.7159C259.026 29.2803 258.795 28.9337 258.484 28.6761C258.173 28.4186 257.787 28.2898 257.325 28.2898C256.852 28.2898 256.458 28.4186 256.143 28.6761C255.833 28.9337 255.6 29.2803 255.444 29.7159C255.293 30.1477 255.217 30.6307 255.217 31.1648C255.217 31.6951 255.293 32.1761 255.444 32.608C255.6 33.0398 255.833 33.3845 256.143 33.642C256.458 33.8958 256.852 34.0227 257.325 34.0227ZM266.728 35.6705C265.876 35.6705 265.137 35.483 264.512 35.108C263.887 34.733 263.402 34.2083 263.058 33.5341C262.717 32.8598 262.546 32.072 262.546 31.1705C262.546 30.2689 262.717 29.4792 263.058 28.8011C263.402 28.1231 263.887 27.5966 264.512 27.2216C265.137 26.8466 265.876 26.6591 266.728 26.6591C267.58 26.6591 268.319 26.8466 268.944 27.2216C269.569 27.5966 270.052 28.1231 270.393 28.8011C270.737 29.4792 270.91 30.2689 270.91 31.1705C270.91 32.072 270.737 32.8598 270.393 33.5341C270.052 34.2083 269.569 34.733 268.944 35.108C268.319 35.483 267.58 35.6705 266.728 35.6705ZM266.739 34.0227C267.202 34.0227 267.588 33.8958 267.898 33.642C268.209 33.3845 268.44 33.0398 268.592 32.608C268.747 32.1761 268.825 31.6951 268.825 31.1648C268.825 30.6307 268.747 30.1477 268.592 29.7159C268.44 29.2803 268.209 28.9337 267.898 28.6761C267.588 28.4186 267.202 28.2898 266.739 28.2898C266.266 28.2898 265.872 28.4186 265.558 28.6761C265.247 28.9337 265.014 29.2803 264.859 29.7159C264.707 30.1477 264.631 30.6307 264.631 31.1648C264.631 31.6951 264.707 32.1761 264.859 32.608C265.014 33.0398 265.247 33.3845 265.558 33.642C265.872 33.8958 266.266 34.0227 266.739 34.0227ZM276.131 38.9545C275.392 38.9545 274.758 38.8542 274.228 38.6534C273.697 38.4564 273.271 38.1913 272.949 37.858C272.627 37.5246 272.404 37.1553 272.279 36.75L274.131 36.3011C274.214 36.4716 274.336 36.6402 274.495 36.8068C274.654 36.9773 274.868 37.1174 275.137 37.2273C275.409 37.3409 275.752 37.3977 276.165 37.3977C276.748 37.3977 277.231 37.2557 277.614 36.9716C277.997 36.6913 278.188 36.2292 278.188 35.5852V33.9318H278.086C277.98 34.1439 277.824 34.3617 277.62 34.5852C277.419 34.8087 277.152 34.9962 276.819 35.1477C276.489 35.2992 276.074 35.375 275.574 35.375C274.904 35.375 274.296 35.2178 273.75 34.9034C273.209 34.5852 272.777 34.1117 272.455 33.483C272.137 32.8504 271.978 32.0587 271.978 31.108C271.978 30.1496 272.137 29.3409 272.455 28.6818C272.777 28.0189 273.211 27.517 273.756 27.1761C274.301 26.8314 274.909 26.6591 275.58 26.6591C276.091 26.6591 276.512 26.7462 276.841 26.9205C277.175 27.0909 277.44 27.2973 277.637 27.5398C277.834 27.7784 277.983 28.0038 278.086 28.2159H278.199V26.7727H280.228V35.642C280.228 36.3883 280.05 37.0057 279.694 37.4943C279.337 37.983 278.851 38.3485 278.233 38.5909C277.616 38.8333 276.915 38.9545 276.131 38.9545ZM276.148 33.7614C276.584 33.7614 276.955 33.6553 277.262 33.4432C277.569 33.2311 277.801 32.9261 277.961 32.5284C278.12 32.1307 278.199 31.6534 278.199 31.0966C278.199 30.5473 278.12 30.0663 277.961 29.6534C277.805 29.2405 277.574 28.9205 277.267 28.6932C276.964 28.4621 276.591 28.3466 276.148 28.3466C275.69 28.3466 275.307 28.4659 275 28.7045C274.694 28.9432 274.462 29.2708 274.307 29.6875C274.152 30.1004 274.074 30.5701 274.074 31.0966C274.074 31.6307 274.152 32.0985 274.307 32.5C274.466 32.8977 274.699 33.2083 275.006 33.4318C275.317 33.6515 275.697 33.7614 276.148 33.7614ZM284.072 23.8636V35.5H282.016V23.8636H284.072ZM289.731 35.6705C288.856 35.6705 288.1 35.4886 287.464 35.125C286.831 34.7576 286.345 34.2386 286.004 33.5682C285.663 32.8939 285.492 32.1004 285.492 31.1875C285.492 30.2898 285.663 29.5019 286.004 28.8239C286.349 28.142 286.83 27.6117 287.447 27.233C288.064 26.8504 288.79 26.6591 289.623 26.6591C290.161 26.6591 290.669 26.7462 291.146 26.9205C291.627 27.0909 292.051 27.3561 292.419 27.7159C292.79 28.0758 293.081 28.5341 293.294 29.0909C293.506 29.6439 293.612 30.303 293.612 31.0682V31.6989H286.458V30.3125H291.64C291.636 29.9186 291.551 29.5682 291.384 29.2614C291.218 28.9508 290.985 28.7064 290.686 28.5284C290.39 28.3504 290.045 28.2614 289.652 28.2614C289.231 28.2614 288.862 28.3636 288.544 28.5682C288.225 28.7689 287.977 29.0341 287.799 29.3636C287.625 29.6894 287.536 30.0473 287.532 30.4375V31.6477C287.532 32.1553 287.625 32.5909 287.811 32.9545C287.996 33.3144 288.256 33.5909 288.589 33.7841C288.922 33.9735 289.313 34.0682 289.759 34.0682C290.059 34.0682 290.33 34.0265 290.572 33.9432C290.814 33.8561 291.025 33.7292 291.203 33.5625C291.381 33.3958 291.515 33.1894 291.606 32.9432L293.527 33.1591C293.405 33.6667 293.174 34.1098 292.833 34.4886C292.496 34.8636 292.064 35.1553 291.538 35.3636C291.011 35.5682 290.409 35.6705 289.731 35.6705Z" fill="white"/>
<defs>
<clipPath id="clip0_304_1191">
<rect width="20" height="20" fill="white" transform="translate(105 20)"/>
</clipPath>
</defs>
</svg>
