<svg width="400" height="67" viewBox="0 0 400 67" fill="none" xmlns="http://www.w3.org/2000/svg">
<path fill-rule="evenodd" clip-rule="evenodd" d="M162.188 0.677395C162.109 0.774977 160.908 2.01786 159.521 3.43926C152.621 10.5083 153.004 10.022 153.004 11.7093C153.004 12.6612 153.027 12.7747 153.329 13.3372C153.952 14.493 155.09 15.3174 156.399 15.5596C156.705 15.6164 157.805 15.6628 158.843 15.6628C159.881 15.6628 160.73 15.6868 160.73 15.7162C160.73 15.7455 160.179 16.3403 159.505 17.0379C158.712 17.859 158.166 18.5207 157.955 18.9147C157.652 19.4806 157.629 19.5951 157.629 20.5465C157.629 21.5053 157.65 21.6095 157.966 22.1999C158.347 22.9111 159.188 23.7182 159.867 24.0251C160.823 24.4566 161.293 24.5 165.007 24.5H168.504L169.058 23.9116C169.691 23.2392 173.055 19.7596 175.408 17.3437L177 15.7093L168.97 15.6855C164.553 15.6724 160.94 15.6398 160.94 15.6132C160.94 15.5866 161.664 14.8229 162.549 13.9162C163.435 13.0094 165.197 11.1993 166.465 9.89395C167.733 8.58865 169.622 6.6466 170.663 5.57851C171.704 4.51042 172.905 3.27609 173.332 2.83572C173.76 2.39526 174.338 1.80074 174.618 1.51451C174.898 1.22837 175.226 0.882977 175.347 0.74707L175.566 0.5H168.949C162.56 0.5 162.327 0.506139 162.188 0.677395Z" fill="url(#paint0_radial_218_935)"/>
<path fill-rule="evenodd" clip-rule="evenodd" d="M162.188 0.677395C162.109 0.774977 160.908 2.01786 159.521 3.43926C152.621 10.5083 153.004 10.022 153.004 11.7093C153.004 12.6612 153.027 12.7747 153.329 13.3372C153.952 14.493 155.09 15.3174 156.399 15.5596C156.705 15.6164 157.805 15.6628 158.843 15.6628C159.881 15.6628 160.73 15.6868 160.73 15.7162C160.73 15.7455 160.179 16.3403 159.505 17.0379C158.712 17.859 158.166 18.5207 157.955 18.9147C157.652 19.4806 157.629 19.5951 157.629 20.5465C157.629 21.5053 157.65 21.6095 157.966 22.1999C158.347 22.9111 159.188 23.7182 159.867 24.0251C160.823 24.4566 161.293 24.5 165.007 24.5H168.504L169.058 23.9116C169.691 23.2392 173.055 19.7596 175.408 17.3437L177 15.7093L168.97 15.6855C164.553 15.6724 160.94 15.6398 160.94 15.6132C160.94 15.5866 161.664 14.8229 162.549 13.9162C163.435 13.0094 165.197 11.1993 166.465 9.89395C167.733 8.58865 169.622 6.6466 170.663 5.57851C171.704 4.51042 172.905 3.27609 173.332 2.83572C173.76 2.39526 174.338 1.80074 174.618 1.51451C174.898 1.22837 175.226 0.882977 175.347 0.74707L175.566 0.5H168.949C162.56 0.5 162.327 0.506139 162.188 0.677395Z" fill="white" fill-opacity="0.2"/>
<path d="M190.294 19.5V6.40909H195.203C196.209 6.40909 197.053 6.58381 197.735 6.93324C198.421 7.28267 198.938 7.77273 199.288 8.40341C199.642 9.02983 199.818 9.76065 199.818 10.5959C199.818 11.4354 199.639 12.1641 199.282 12.782C198.928 13.3956 198.406 13.8707 197.715 14.2074C197.025 14.5398 196.177 14.706 195.171 14.706H191.675V12.7372H194.852C195.44 12.7372 195.921 12.6562 196.296 12.4943C196.671 12.3281 196.948 12.0874 197.127 11.772C197.311 11.4524 197.402 11.0604 197.402 10.5959C197.402 10.1314 197.311 9.73509 197.127 9.40696C196.944 9.07457 196.665 8.82315 196.29 8.6527C195.915 8.47798 195.431 8.39062 194.839 8.39062H192.666V19.5H190.294ZM197.057 13.5682L200.298 19.5H197.652L194.468 13.5682H197.057ZM205.385 19.6918C204.401 19.6918 203.551 19.4872 202.835 19.0781C202.123 18.6648 201.575 18.081 201.192 17.3267C200.808 16.5682 200.617 15.6754 200.617 14.6484C200.617 13.6385 200.808 12.7521 201.192 11.9893C201.58 11.2223 202.121 10.6257 202.815 10.1996C203.51 9.76918 204.326 9.55398 205.264 9.55398C205.869 9.55398 206.44 9.65199 206.977 9.84801C207.518 10.0398 207.995 10.3381 208.408 10.7429C208.826 11.1477 209.154 11.6634 209.393 12.2898C209.631 12.9119 209.751 13.6534 209.751 14.5142V15.2237H201.703V13.6641H207.533C207.529 13.2209 207.433 12.8267 207.245 12.4815C207.058 12.1321 206.796 11.8572 206.459 11.657C206.127 11.4567 205.739 11.3565 205.296 11.3565C204.823 11.3565 204.407 11.4716 204.049 11.7017C203.691 11.9276 203.412 12.2259 203.212 12.5966C203.016 12.9631 202.916 13.3658 202.911 13.8047V15.1662C202.911 15.7372 203.016 16.2273 203.225 16.6364C203.433 17.0412 203.725 17.3523 204.1 17.5696C204.475 17.7827 204.914 17.8892 205.417 17.8892C205.754 17.8892 206.058 17.8423 206.331 17.7486C206.604 17.6506 206.84 17.5078 207.041 17.3203C207.241 17.1328 207.392 16.9006 207.494 16.6236L209.655 16.8665C209.519 17.4375 209.259 17.9361 208.875 18.3622C208.496 18.7841 208.01 19.1122 207.418 19.3466C206.825 19.5767 206.148 19.6918 205.385 19.6918ZM210.988 23.1818V9.68182H213.264V11.3054H213.398C213.517 11.0668 213.686 10.8132 213.903 10.5447C214.12 10.272 214.415 10.0398 214.785 9.84801C215.156 9.65199 215.629 9.55398 216.204 9.55398C216.963 9.55398 217.647 9.74787 218.256 10.1357C218.87 10.5192 219.356 11.0881 219.714 11.8423C220.076 12.5923 220.257 13.5128 220.257 14.6037C220.257 15.6818 220.08 16.598 219.726 17.3523C219.373 18.1065 218.891 18.6818 218.282 19.0781C217.672 19.4744 216.982 19.6726 216.211 19.6726C215.648 19.6726 215.182 19.5788 214.811 19.3913C214.44 19.2038 214.142 18.978 213.916 18.7138C213.694 18.4453 213.522 18.1918 213.398 17.9531H213.302V23.1818H210.988ZM213.258 14.5909C213.258 15.2259 213.347 15.782 213.526 16.2592C213.709 16.7365 213.971 17.1094 214.312 17.3778C214.657 17.642 215.075 17.7741 215.565 17.7741C216.076 17.7741 216.505 17.6378 216.85 17.3651C217.195 17.0881 217.455 16.7109 217.63 16.2337C217.809 15.7521 217.898 15.2045 217.898 14.5909C217.898 13.9815 217.811 13.4403 217.636 12.9673C217.461 12.4943 217.201 12.1236 216.856 11.8551C216.511 11.5866 216.081 11.4524 215.565 11.4524C215.071 11.4524 214.651 11.5824 214.306 11.8423C213.961 12.1023 213.699 12.4666 213.52 12.9354C213.345 13.4041 213.258 13.956 213.258 14.5909ZM221.621 19.5V6.40909H230.135V8.39702H223.992V11.951H229.694V13.9389H223.992V17.5121H230.186V19.5H221.621ZM234.557 19.6982C233.935 19.6982 233.375 19.5874 232.876 19.3658C232.382 19.1399 231.99 18.8075 231.7 18.3686C231.414 17.9297 231.272 17.3885 231.272 16.745C231.272 16.1911 231.374 15.733 231.579 15.3707C231.783 15.0085 232.062 14.7188 232.416 14.5014C232.77 14.2841 233.168 14.12 233.611 14.0092C234.059 13.8942 234.521 13.8111 234.998 13.7599C235.574 13.7003 236.04 13.647 236.398 13.6001C236.756 13.549 237.016 13.4723 237.178 13.37C237.344 13.2635 237.427 13.0994 237.427 12.8778V12.8395C237.427 12.358 237.285 11.9851 236.999 11.7209C236.713 11.4567 236.302 11.3246 235.765 11.3246C235.199 11.3246 234.749 11.4482 234.417 11.6953C234.088 11.9425 233.867 12.2344 233.752 12.571L231.591 12.2642C231.762 11.6676 232.043 11.169 232.435 10.7685C232.827 10.3636 233.307 10.0611 233.873 9.8608C234.44 9.65625 235.066 9.55398 235.753 9.55398C236.226 9.55398 236.696 9.60938 237.165 9.72017C237.634 9.83097 238.062 10.0142 238.45 10.2699C238.838 10.5213 239.149 10.8643 239.383 11.299C239.622 11.7337 239.741 12.277 239.741 12.929V19.5H237.517V18.1513H237.44C237.299 18.424 237.101 18.6797 236.846 18.9183C236.594 19.1527 236.277 19.3423 235.893 19.4872C235.514 19.6278 235.069 19.6982 234.557 19.6982ZM235.158 17.9979C235.623 17.9979 236.025 17.9062 236.366 17.723C236.707 17.5355 236.969 17.2884 237.152 16.9815C237.34 16.6747 237.434 16.3402 237.434 15.978V14.821C237.361 14.8807 237.238 14.9361 237.063 14.9872C236.892 15.0384 236.701 15.0831 236.488 15.1214C236.275 15.1598 236.064 15.1939 235.855 15.2237C235.646 15.2536 235.465 15.2791 235.312 15.3004C234.966 15.3473 234.657 15.424 234.385 15.5305C234.112 15.6371 233.897 15.7862 233.739 15.978C233.581 16.1655 233.503 16.4084 233.503 16.7067C233.503 17.1328 233.658 17.4545 233.969 17.6719C234.28 17.8892 234.677 17.9979 235.158 17.9979ZM246.251 9.68182V11.4716H240.606V9.68182H246.251ZM242 7.32955H244.314V16.5469C244.314 16.858 244.361 17.0966 244.454 17.2628C244.552 17.4247 244.68 17.5355 244.838 17.5952C244.996 17.6548 245.17 17.6847 245.362 17.6847C245.507 17.6847 245.639 17.674 245.758 17.6527C245.882 17.6314 245.976 17.6122 246.04 17.5952L246.43 19.4041C246.306 19.4467 246.129 19.4936 245.899 19.5447C245.673 19.5959 245.396 19.6257 245.068 19.6342C244.489 19.6513 243.967 19.5639 243.502 19.3722C243.038 19.1761 242.669 18.8736 242.396 18.4645C242.128 18.0554 241.996 17.544 242 16.9304V7.32955Z" fill="white"/>
<path d="M66.0085 59.5V39.1364H69.6974V56.4077H78.6662V59.5H66.0085ZM87.2507 59.7983C85.7593 59.7983 84.4666 59.4702 83.3729 58.8139C82.2791 58.1577 81.4307 57.2396 80.8274 56.0597C80.2309 54.8797 79.9326 53.5009 79.9326 51.9233C79.9326 50.3456 80.2309 48.9635 80.8274 47.777C81.4307 46.5904 82.2791 45.669 83.3729 45.0128C84.4666 44.3565 85.7593 44.0284 87.2507 44.0284C88.7422 44.0284 90.0348 44.3565 91.1286 45.0128C92.2223 45.669 93.0675 46.5904 93.6641 47.777C94.2673 48.9635 94.5689 50.3456 94.5689 51.9233C94.5689 53.5009 94.2673 54.8797 93.6641 56.0597C93.0675 57.2396 92.2223 58.1577 91.1286 58.8139C90.0348 59.4702 88.7422 59.7983 87.2507 59.7983ZM87.2706 56.9148C88.0793 56.9148 88.7555 56.6927 89.299 56.2486C89.8426 55.7978 90.247 55.1946 90.5121 54.4389C90.7839 53.6832 90.9198 52.8414 90.9198 51.9134C90.9198 50.9787 90.7839 50.1335 90.5121 49.3778C90.247 48.6155 89.8426 48.009 89.299 47.5582C88.7555 47.1075 88.0793 46.8821 87.2706 46.8821C86.442 46.8821 85.7526 47.1075 85.2024 47.5582C84.6589 48.009 84.2512 48.6155 83.9794 49.3778C83.7143 50.1335 83.5817 50.9787 83.5817 51.9134C83.5817 52.8414 83.7143 53.6832 83.9794 54.4389C84.2512 55.1946 84.6589 55.7978 85.2024 56.2486C85.7526 56.6927 86.442 56.9148 87.2706 56.9148ZM103.146 65.5455C101.853 65.5455 100.743 65.3698 99.815 65.0185C98.887 64.6738 98.1413 64.2098 97.5778 63.6264C97.0144 63.0431 96.6233 62.3968 96.4045 61.6875L99.646 60.902C99.7918 61.2003 100.004 61.4953 100.282 61.7869C100.561 62.0852 100.935 62.3305 101.406 62.5227C101.883 62.7216 102.483 62.821 103.206 62.821C104.227 62.821 105.072 62.5724 105.741 62.0753C106.411 61.5848 106.745 60.776 106.745 59.6491V56.7557H106.566C106.381 57.1269 106.109 57.508 105.751 57.8991C105.4 58.2902 104.932 58.6184 104.349 58.8835C103.772 59.1487 103.047 59.2812 102.172 59.2812C100.998 59.2812 99.9344 59.0062 98.9798 58.456C98.0319 57.8991 97.2762 57.0705 96.7128 55.9702C96.156 54.8632 95.8775 53.4777 95.8775 51.8139C95.8775 50.1368 96.156 48.7216 96.7128 47.5682C97.2762 46.4081 98.0352 45.5298 98.9898 44.9332C99.9443 44.33 101.008 44.0284 102.182 44.0284C103.076 44.0284 103.812 44.1809 104.389 44.4858C104.972 44.7841 105.436 45.1454 105.781 45.5696C106.126 45.9872 106.387 46.3816 106.566 46.7528H106.765V44.2273H110.315V59.7486C110.315 61.0545 110.003 62.1349 109.38 62.9901C108.757 63.8452 107.905 64.4848 106.825 64.9091C105.744 65.3333 104.518 65.5455 103.146 65.5455ZM103.176 56.4574C103.938 56.4574 104.588 56.2718 105.125 55.9006C105.662 55.5294 106.069 54.9957 106.348 54.2997C106.626 53.6037 106.765 52.7685 106.765 51.794C106.765 50.8329 106.626 49.991 106.348 49.2685C106.076 48.5459 105.672 47.9858 105.135 47.5881C104.604 47.1837 103.951 46.9815 103.176 46.9815C102.374 46.9815 101.704 47.1903 101.167 47.608C100.63 48.0256 100.226 48.599 99.9542 49.3281C99.6825 50.0507 99.5466 50.8726 99.5466 51.794C99.5466 52.7287 99.6825 53.5473 99.9542 54.25C100.233 54.946 100.64 55.4896 101.177 55.8807C101.721 56.2652 102.387 56.4574 103.176 56.4574ZM112.884 59.5V44.2273H116.483V59.5H112.884ZM114.694 42.0597C114.124 42.0597 113.633 41.8707 113.222 41.4929C112.811 41.1084 112.606 40.6477 112.606 40.1108C112.606 39.5672 112.811 39.1065 113.222 38.7287C113.633 38.3442 114.124 38.152 114.694 38.152C115.27 38.152 115.761 38.3442 116.165 38.7287C116.576 39.1065 116.782 39.5672 116.782 40.1108C116.782 40.6477 116.576 41.1084 116.165 41.4929C115.761 41.8707 115.27 42.0597 114.694 42.0597ZM122.664 50.5511V59.5H119.065V44.2273H122.505V46.8224H122.684C123.035 45.9673 123.596 45.2879 124.364 44.7841C125.14 44.2803 126.098 44.0284 127.238 44.0284C128.292 44.0284 129.21 44.2538 129.992 44.7045C130.781 45.1553 131.391 45.8082 131.822 46.6634C132.259 47.5185 132.475 48.5559 132.468 49.7756V59.5H128.869V50.3324C128.869 49.3116 128.604 48.5128 128.073 47.9361C127.55 47.3594 126.824 47.071 125.896 47.071C125.266 47.071 124.706 47.2102 124.215 47.4886C123.731 47.7604 123.35 48.1548 123.072 48.6719C122.8 49.1889 122.664 49.8153 122.664 50.5511ZM148.459 44.2273V47.0114H139.679V44.2273H148.459ZM141.847 40.5682H145.446V54.9062C145.446 55.3902 145.519 55.7614 145.665 56.0199C145.817 56.2718 146.016 56.4441 146.262 56.5369C146.507 56.6297 146.779 56.6761 147.077 56.6761C147.302 56.6761 147.508 56.6596 147.693 56.6264C147.886 56.5933 148.031 56.5634 148.131 56.5369L148.737 59.3509C148.545 59.4171 148.27 59.4901 147.912 59.5696C147.561 59.6491 147.13 59.6955 146.619 59.7088C145.718 59.7353 144.906 59.5994 144.183 59.3011C143.461 58.9962 142.887 58.5256 142.463 57.8892C142.046 57.2528 141.84 56.4574 141.847 55.5028V40.5682ZM156.847 59.7983C155.356 59.7983 154.063 59.4702 152.969 58.8139C151.876 58.1577 151.027 57.2396 150.424 56.0597C149.827 54.8797 149.529 53.5009 149.529 51.9233C149.529 50.3456 149.827 48.9635 150.424 47.777C151.027 46.5904 151.876 45.669 152.969 45.0128C154.063 44.3565 155.356 44.0284 156.847 44.0284C158.339 44.0284 159.631 44.3565 160.725 45.0128C161.819 45.669 162.664 46.5904 163.261 47.777C163.864 48.9635 164.165 50.3456 164.165 51.9233C164.165 53.5009 163.864 54.8797 163.261 56.0597C162.664 57.2396 161.819 58.1577 160.725 58.8139C159.631 59.4702 158.339 59.7983 156.847 59.7983ZM156.867 56.9148C157.676 56.9148 158.352 56.6927 158.895 56.2486C159.439 55.7978 159.843 55.1946 160.109 54.4389C160.38 53.6832 160.516 52.8414 160.516 51.9134C160.516 50.9787 160.38 50.1335 160.109 49.3778C159.843 48.6155 159.439 48.009 158.895 47.5582C158.352 47.1075 157.676 46.8821 156.867 46.8821C156.038 46.8821 155.349 47.1075 154.799 47.5582C154.255 48.009 153.848 48.6155 153.576 49.3778C153.311 50.1335 153.178 50.9787 153.178 51.9134C153.178 52.8414 153.311 53.6832 153.576 54.4389C153.848 55.1946 154.255 55.7978 154.799 56.2486C155.349 56.6927 156.038 56.9148 156.867 56.9148ZM174.163 65.2273C173.672 65.2273 173.218 65.1875 172.801 65.108C172.39 65.035 172.062 64.9489 171.816 64.8494L172.652 62.0455C173.175 62.1979 173.643 62.2708 174.054 62.2642C174.465 62.2576 174.826 62.1283 175.137 61.8764C175.456 61.6312 175.724 61.2202 175.943 60.6435L176.251 59.8182L170.713 44.2273H174.531L178.051 55.7614H178.21L181.74 44.2273H185.568L179.453 61.3494C179.168 62.1581 178.79 62.8509 178.319 63.4276C177.849 64.0109 177.272 64.455 176.589 64.7599C175.913 65.0715 175.104 65.2273 174.163 65.2273ZM193.081 59.7983C191.589 59.7983 190.297 59.4702 189.203 58.8139C188.109 58.1577 187.261 57.2396 186.658 56.0597C186.061 54.8797 185.763 53.5009 185.763 51.9233C185.763 50.3456 186.061 48.9635 186.658 47.777C187.261 46.5904 188.109 45.669 189.203 45.0128C190.297 44.3565 191.589 44.0284 193.081 44.0284C194.572 44.0284 195.865 44.3565 196.959 45.0128C198.052 45.669 198.898 46.5904 199.494 47.777C200.097 48.9635 200.399 50.3456 200.399 51.9233C200.399 53.5009 200.097 54.8797 199.494 56.0597C198.898 57.2396 198.052 58.1577 196.959 58.8139C195.865 59.4702 194.572 59.7983 193.081 59.7983ZM193.101 56.9148C193.909 56.9148 194.586 56.6927 195.129 56.2486C195.673 55.7978 196.077 55.1946 196.342 54.4389C196.614 53.6832 196.75 52.8414 196.75 51.9134C196.75 50.9787 196.614 50.1335 196.342 49.3778C196.077 48.6155 195.673 48.009 195.129 47.5582C194.586 47.1075 193.909 46.8821 193.101 46.8821C192.272 46.8821 191.583 47.1075 191.033 47.5582C190.489 48.009 190.081 48.6155 189.81 49.3778C189.544 50.1335 189.412 50.9787 189.412 51.9134C189.412 52.8414 189.544 53.6832 189.81 54.4389C190.081 55.1946 190.489 55.7978 191.033 56.2486C191.583 56.6927 192.272 56.9148 193.101 56.9148ZM212.068 53.0767V44.2273H215.668V59.5H212.178V56.7855H212.019C211.674 57.6406 211.107 58.34 210.318 58.8835C209.536 59.4271 208.572 59.6989 207.425 59.6989C206.424 59.6989 205.539 59.4768 204.77 59.0327C204.008 58.5819 203.411 57.929 202.98 57.0739C202.55 56.2121 202.334 55.1714 202.334 53.9517V44.2273H205.934V53.3949C205.934 54.3627 206.199 55.1316 206.729 55.7017C207.259 56.2718 207.955 56.5568 208.817 56.5568C209.347 56.5568 209.861 56.4276 210.358 56.169C210.855 55.9105 211.263 55.526 211.581 55.0156C211.906 54.4986 212.068 53.8523 212.068 53.0767ZM218.249 59.5V44.2273H221.739V46.7727H221.898C222.177 45.8911 222.654 45.2116 223.33 44.7344C224.013 44.2505 224.792 44.0085 225.667 44.0085C225.866 44.0085 226.088 44.0185 226.333 44.0384C226.585 44.0516 226.794 44.0748 226.96 44.108V47.419C226.807 47.366 226.565 47.3196 226.234 47.2798C225.909 47.2334 225.594 47.2102 225.289 47.2102C224.633 47.2102 224.043 47.3527 223.519 47.6378C223.002 47.9162 222.594 48.304 222.296 48.8011C221.998 49.2983 221.849 49.8717 221.849 50.5213V59.5H218.249ZM238.451 59.8082C237.483 59.8082 236.612 59.6359 235.836 59.2912C235.067 58.9399 234.457 58.4228 234.006 57.7401C233.562 57.0573 233.34 56.2154 233.34 55.2145C233.34 54.3527 233.499 53.6402 233.818 53.0767C234.136 52.5133 234.57 52.0625 235.12 51.7244C235.67 51.3864 236.29 51.1312 236.979 50.9588C237.675 50.7798 238.395 50.6506 239.137 50.571C240.032 50.4782 240.758 50.3954 241.315 50.3224C241.871 50.2429 242.276 50.1236 242.528 49.9645C242.786 49.7988 242.916 49.5436 242.916 49.1989V49.1392C242.916 48.3902 242.693 47.8101 242.249 47.3991C241.805 46.9882 241.166 46.7827 240.33 46.7827C239.449 46.7827 238.749 46.9749 238.232 47.3594C237.722 47.7438 237.377 48.1979 237.198 48.7216L233.837 48.2443C234.103 47.3163 234.54 46.5407 235.15 45.9176C235.76 45.2879 236.505 44.8172 237.387 44.5057C238.269 44.1875 239.243 44.0284 240.31 44.0284C241.046 44.0284 241.779 44.1146 242.508 44.2869C243.237 44.4593 243.903 44.7443 244.506 45.142C245.11 45.5331 245.594 46.0668 245.958 46.7429C246.329 47.419 246.515 48.2642 246.515 49.2784V59.5H243.055V57.402H242.935C242.717 57.8262 242.408 58.224 242.011 58.5952C241.62 58.9598 241.126 59.2547 240.529 59.4801C239.939 59.6989 239.246 59.8082 238.451 59.8082ZM239.386 57.1634C240.108 57.1634 240.735 57.0208 241.265 56.7358C241.795 56.4441 242.203 56.0597 242.488 55.5824C242.78 55.1051 242.925 54.5848 242.925 54.0213V52.2216C242.813 52.3144 242.621 52.4006 242.349 52.4801C242.084 52.5597 241.785 52.6293 241.454 52.6889C241.122 52.7486 240.794 52.8016 240.47 52.848C240.145 52.8944 239.863 52.9342 239.624 52.9673C239.087 53.0402 238.607 53.1596 238.183 53.3253C237.758 53.491 237.424 53.723 237.178 54.0213C236.933 54.313 236.81 54.6908 236.81 55.1548C236.81 55.8177 237.052 56.3182 237.536 56.6562C238.02 56.9943 238.637 57.1634 239.386 57.1634ZM255.676 59.7983C254.152 59.7983 252.842 59.4635 251.749 58.794C250.662 58.1245 249.823 57.1998 249.233 56.0199C248.65 54.8333 248.358 53.4678 248.358 51.9233C248.358 50.3722 248.656 49.0033 249.253 47.8168C249.849 46.6236 250.691 45.6955 251.778 45.0327C252.872 44.3632 254.165 44.0284 255.656 44.0284C256.896 44.0284 257.993 44.2571 258.948 44.7145C259.909 45.1652 260.674 45.8049 261.244 46.6335C261.814 47.4555 262.139 48.4167 262.219 49.517H258.778C258.639 48.7812 258.308 48.1681 257.784 47.6776C257.267 47.1804 256.574 46.9318 255.706 46.9318C254.97 46.9318 254.324 47.1307 253.767 47.5284C253.21 47.9195 252.776 48.483 252.465 49.2188C252.16 49.9545 252.007 50.8362 252.007 51.8636C252.007 52.9044 252.16 53.7992 252.465 54.5483C252.769 55.2907 253.197 55.8641 253.747 56.2685C254.304 56.6662 254.957 56.8651 255.706 56.8651C256.236 56.8651 256.71 56.7656 257.128 56.5668C257.552 56.3613 257.907 56.0663 258.192 55.6818C258.477 55.2973 258.672 54.83 258.778 54.2798H262.219C262.133 55.3603 261.814 56.3182 261.264 57.1534C260.714 57.982 259.965 58.6316 259.017 59.1023C258.069 59.5663 256.956 59.7983 255.676 59.7983ZM270.716 59.7983C269.192 59.7983 267.883 59.4635 266.789 58.794C265.702 58.1245 264.863 57.1998 264.273 56.0199C263.69 54.8333 263.398 53.4678 263.398 51.9233C263.398 50.3722 263.696 49.0033 264.293 47.8168C264.89 46.6236 265.732 45.6955 266.819 45.0327C267.912 44.3632 269.205 44.0284 270.696 44.0284C271.936 44.0284 273.033 44.2571 273.988 44.7145C274.949 45.1652 275.714 45.8049 276.285 46.6335C276.855 47.4555 277.179 48.4167 277.259 49.517H273.819C273.679 48.7812 273.348 48.1681 272.824 47.6776C272.307 47.1804 271.615 46.9318 270.746 46.9318C270.01 46.9318 269.364 47.1307 268.807 47.5284C268.25 47.9195 267.816 48.483 267.505 49.2188C267.2 49.9545 267.047 50.8362 267.047 51.8636C267.047 52.9044 267.2 53.7992 267.505 54.5483C267.81 55.2907 268.237 55.8641 268.787 56.2685C269.344 56.6662 269.997 56.8651 270.746 56.8651C271.276 56.8651 271.75 56.7656 272.168 56.5668C272.592 56.3613 272.947 56.0663 273.232 55.6818C273.517 55.2973 273.713 54.83 273.819 54.2798H277.259C277.173 55.3603 276.855 56.3182 276.304 57.1534C275.754 57.982 275.005 58.6316 274.057 59.1023C273.109 59.5663 271.996 59.7983 270.716 59.7983ZM285.757 59.7983C284.265 59.7983 282.972 59.4702 281.879 58.8139C280.785 58.1577 279.936 57.2396 279.333 56.0597C278.737 54.8797 278.438 53.5009 278.438 51.9233C278.438 50.3456 278.737 48.9635 279.333 47.777C279.936 46.5904 280.785 45.669 281.879 45.0128C282.972 44.3565 284.265 44.0284 285.757 44.0284C287.248 44.0284 288.541 44.3565 289.634 45.0128C290.728 45.669 291.573 46.5904 292.17 47.777C292.773 48.9635 293.075 50.3456 293.075 51.9233C293.075 53.5009 292.773 54.8797 292.17 56.0597C291.573 57.2396 290.728 58.1577 289.634 58.8139C288.541 59.4702 287.248 59.7983 285.757 59.7983ZM285.776 56.9148C286.585 56.9148 287.261 56.6927 287.805 56.2486C288.348 55.7978 288.753 55.1946 289.018 54.4389C289.29 53.6832 289.426 52.8414 289.426 51.9134C289.426 50.9787 289.29 50.1335 289.018 49.3778C288.753 48.6155 288.348 48.009 287.805 47.5582C287.261 47.1075 286.585 46.8821 285.776 46.8821C284.948 46.8821 284.258 47.1075 283.708 47.5582C283.165 48.009 282.757 48.6155 282.485 49.3778C282.22 50.1335 282.087 50.9787 282.087 51.9134C282.087 52.8414 282.22 53.6832 282.485 54.4389C282.757 55.1946 283.165 55.7978 283.708 56.2486C284.258 56.6927 284.948 56.9148 285.776 56.9148ZM304.744 53.0767V44.2273H308.344V59.5H304.853V56.7855H304.694C304.35 57.6406 303.783 58.34 302.994 58.8835C302.212 59.4271 301.247 59.6989 300.101 59.6989C299.1 59.6989 298.215 59.4768 297.446 59.0327C296.684 58.5819 296.087 57.929 295.656 57.0739C295.225 56.2121 295.01 55.1714 295.01 53.9517V44.2273H298.609V53.3949C298.609 54.3627 298.874 55.1316 299.405 55.7017C299.935 56.2718 300.631 56.5568 301.493 56.5568C302.023 56.5568 302.537 56.4276 303.034 56.169C303.531 55.9105 303.939 55.526 304.257 55.0156C304.582 54.4986 304.744 53.8523 304.744 53.0767ZM314.524 50.5511V59.5H310.925V44.2273H314.365V46.8224H314.544C314.896 45.9673 315.456 45.2879 316.225 44.7841C317 44.2803 317.958 44.0284 319.098 44.0284C320.152 44.0284 321.07 44.2538 321.852 44.7045C322.641 45.1553 323.251 45.8082 323.682 46.6634C324.12 47.5185 324.335 48.5559 324.328 49.7756V59.5H320.729V50.3324C320.729 49.3116 320.464 48.5128 319.933 47.9361C319.41 47.3594 318.684 47.071 317.756 47.071C317.126 47.071 316.566 47.2102 316.075 47.4886C315.592 47.7604 315.21 48.1548 314.932 48.6719C314.66 49.1889 314.524 49.8153 314.524 50.5511ZM334.494 44.2273V47.0114H325.714V44.2273H334.494ZM327.882 40.5682H331.481V54.9062C331.481 55.3902 331.554 55.7614 331.7 56.0199C331.852 56.2718 332.051 56.4441 332.296 56.5369C332.542 56.6297 332.813 56.6761 333.112 56.6761C333.337 56.6761 333.543 56.6596 333.728 56.6264C333.92 56.5933 334.066 56.5634 334.166 56.5369L334.772 59.3509C334.58 59.4171 334.305 59.4901 333.947 59.5696C333.596 59.6491 333.165 59.6955 332.654 59.7088C331.753 59.7353 330.941 59.5994 330.218 59.3011C329.496 58.9962 328.922 58.5256 328.498 57.8892C328.08 57.2528 327.875 56.4574 327.882 55.5028V40.5682Z" fill="white"/>
<defs>
<radialGradient id="paint0_radial_218_935" cx="0" cy="0" r="1" gradientUnits="userSpaceOnUse" gradientTransform="translate(165 12.5) scale(25.8)">
<stop stop-color="white" stop-opacity="0.24"/>
<stop offset="1" stop-color="white" stop-opacity="0"/>
</radialGradient>
</defs>
</svg>
