<svg width="400" height="62" viewBox="0 0 400 62" fill="none" xmlns="http://www.w3.org/2000/svg">
<rect width="400" height="62" rx="31" fill="url(#paint0_radial_304_1189)"/>
<rect x="0.5" y="0.5" width="399" height="61" rx="30.5" stroke="white" stroke-opacity="0.2"/>
<path d="M178.702 38V24.9091H181.073V36.0121H186.839V38H178.702ZM192.358 38.1918C191.399 38.1918 190.568 37.9808 189.865 37.5589C189.162 37.1371 188.616 36.5469 188.228 35.7884C187.845 35.0298 187.653 34.1435 187.653 33.1293C187.653 32.1151 187.845 31.2266 188.228 30.4638C188.616 29.701 189.162 29.1087 189.865 28.6868C190.568 28.2649 191.399 28.054 192.358 28.054C193.316 28.054 194.147 28.2649 194.851 28.6868C195.554 29.1087 196.097 29.701 196.48 30.4638C196.868 31.2266 197.062 32.1151 197.062 33.1293C197.062 34.1435 196.868 35.0298 196.48 35.7884C196.097 36.5469 195.554 37.1371 194.851 37.5589C194.147 37.9808 193.316 38.1918 192.358 38.1918ZM192.37 36.3381C192.89 36.3381 193.325 36.1953 193.674 35.9098C194.024 35.62 194.284 35.2322 194.454 34.7464C194.629 34.2607 194.716 33.7195 194.716 33.1229C194.716 32.522 194.629 31.9787 194.454 31.4929C194.284 31.0028 194.024 30.6129 193.674 30.3232C193.325 30.0334 192.89 29.8885 192.37 29.8885C191.838 29.8885 191.395 30.0334 191.041 30.3232C190.691 30.6129 190.429 31.0028 190.255 31.4929C190.084 31.9787 189.999 32.522 189.999 33.1229C189.999 33.7195 190.084 34.2607 190.255 34.7464C190.429 35.2322 190.691 35.62 191.041 35.9098C191.395 36.1953 191.838 36.3381 192.37 36.3381ZM202.576 41.8864C201.745 41.8864 201.031 41.7734 200.435 41.5476C199.838 41.326 199.359 41.0277 198.996 40.6527C198.634 40.2777 198.383 39.8622 198.242 39.4062L200.326 38.9013C200.42 39.093 200.556 39.2827 200.735 39.4702C200.914 39.6619 201.155 39.8196 201.457 39.9432C201.764 40.071 202.15 40.1349 202.614 40.1349C203.271 40.1349 203.814 39.9751 204.244 39.6555C204.675 39.3402 204.89 38.8203 204.89 38.0959V36.2358H204.775C204.656 36.4744 204.481 36.7195 204.251 36.9709C204.025 37.2223 203.724 37.4332 203.349 37.6037C202.979 37.7741 202.512 37.8594 201.95 37.8594C201.195 37.8594 200.511 37.6825 199.898 37.3288C199.288 36.9709 198.803 36.4382 198.44 35.7308C198.082 35.0192 197.903 34.1286 197.903 33.0589C197.903 31.9808 198.082 31.071 198.44 30.3295C198.803 29.5838 199.29 29.0192 199.904 28.6357C200.518 28.2479 201.202 28.054 201.956 28.054C202.531 28.054 203.004 28.152 203.375 28.348C203.75 28.5398 204.048 28.772 204.27 29.0447C204.491 29.3132 204.66 29.5668 204.775 29.8054H204.903V28.1818H207.185V38.1598C207.185 38.9993 206.984 39.6939 206.584 40.2436C206.183 40.7933 205.636 41.2045 204.941 41.4773C204.246 41.75 203.458 41.8864 202.576 41.8864ZM202.595 36.044C203.085 36.044 203.503 35.9247 203.848 35.6861C204.193 35.4474 204.455 35.1044 204.634 34.657C204.813 34.2095 204.903 33.6726 204.903 33.0462C204.903 32.4283 204.813 31.8871 204.634 31.4226C204.46 30.9581 204.2 30.598 203.854 30.3423C203.513 30.0824 203.094 29.9524 202.595 29.9524C202.08 29.9524 201.649 30.0866 201.304 30.3551C200.959 30.6236 200.699 30.9922 200.524 31.4609C200.349 31.9254 200.262 32.4538 200.262 33.0462C200.262 33.647 200.349 34.1733 200.524 34.625C200.703 35.0724 200.965 35.4219 201.31 35.6733C201.66 35.9205 202.088 36.044 202.595 36.044ZM208.836 38V28.1818H211.15V38H208.836ZM209.999 26.7884C209.633 26.7884 209.318 26.6669 209.053 26.424C208.789 26.1768 208.657 25.8807 208.657 25.5355C208.657 25.1861 208.789 24.8899 209.053 24.647C209.318 24.3999 209.633 24.2763 209.999 24.2763C210.37 24.2763 210.686 24.3999 210.945 24.647C211.21 24.8899 211.342 25.1861 211.342 25.5355C211.342 25.8807 211.21 26.1768 210.945 26.424C210.686 26.6669 210.37 26.7884 209.999 26.7884ZM215.123 32.2472V38H212.809V28.1818H215.021V29.8501H215.136C215.362 29.3004 215.722 28.8636 216.216 28.5398C216.715 28.2159 217.331 28.054 218.064 28.054C218.741 28.054 219.331 28.1989 219.834 28.4886C220.341 28.7784 220.733 29.1982 221.01 29.7479C221.292 30.2976 221.43 30.9645 221.426 31.7486V38H219.112V32.1065C219.112 31.4503 218.942 30.9368 218.601 30.5661C218.264 30.1953 217.797 30.0099 217.201 30.0099C216.796 30.0099 216.436 30.0994 216.121 30.2784C215.809 30.4531 215.564 30.7067 215.385 31.0391C215.211 31.3714 215.123 31.7741 215.123 32.2472Z" fill="url(#paint1_linear_304_1189)"/>
<defs>
<radialGradient id="paint0_radial_304_1189" cx="0" cy="0" r="1" gradientUnits="userSpaceOnUse" gradientTransform="translate(200 31) scale(430 66.65)">
<stop stop-color="white" stop-opacity="0.24"/>
<stop offset="1" stop-color="white" stop-opacity="0"/>
</radialGradient>
<linearGradient id="paint1_linear_304_1189" x1="200" y1="20" x2="200" y2="42" gradientUnits="userSpaceOnUse">
<stop stop-color="white" stop-opacity="0.3"/>
<stop offset="0.525" stop-color="white"/>
</linearGradient>
</defs>
</svg>
