<svg width="36" height="36" viewBox="0 0 36 36" fill="none" xmlns="http://www.w3.org/2000/svg">
<mask id="mask0_143_339" style="mask-type:alpha" maskUnits="userSpaceOnUse" x="0" y="0" width="36" height="36">
<rect width="36" height="36" fill="#D9D9D9"/>
</mask>
<g mask="url(#mask0_143_339)">
<path d="M9.03467 25.9385C10.3097 24.9923 11.6986 24.2452 13.2015 23.6971C14.7044 23.149 16.3039 22.875 18 22.875C19.6962 22.875 21.2957 23.149 22.7986 23.6971C24.3014 24.2452 25.6904 24.9923 26.9654 25.9385C27.8981 24.9135 28.637 23.7269 29.1822 22.3788C29.7274 21.0307 30 19.5711 30 18C30 14.675 28.8313 11.8437 26.4938 9.50621C24.1563 7.16871 21.325 5.99996 18 5.99996C14.675 5.99996 11.8438 7.16871 9.50627 9.50621C7.16877 11.8437 6.00002 14.675 6.00002 18C6.00002 19.5711 6.27262 21.0307 6.81782 22.3788C7.36302 23.7269 8.10197 24.9135 9.03467 25.9385ZM18 19.1249C16.6308 19.1249 15.476 18.6547 14.5356 17.7144C13.5952 16.774 13.1251 15.6192 13.1251 14.25C13.1251 12.8807 13.5952 11.7259 14.5356 10.7856C15.476 9.84519 16.6308 9.375 18 9.375C19.3692 9.375 20.524 9.84519 21.4644 10.7856C22.4048 11.7259 22.875 12.8807 22.875 14.25C22.875 15.6192 22.4048 16.774 21.4644 17.7144C20.524 18.6547 19.3692 19.1249 18 19.1249ZM18 32.2499C16.0212 32.2499 14.1649 31.8778 12.4313 31.1336C10.6977 30.3893 9.18949 29.3759 7.90679 28.0932C6.62411 26.8105 5.61066 25.3023 4.86644 23.5687C4.12219 21.8351 3.75006 19.9788 3.75006 18C3.75006 16.0211 4.12219 14.1649 4.86644 12.4313C5.61066 10.6976 6.62411 9.18943 7.90679 7.90673C9.18949 6.62405 10.6977 5.6106 12.4313 4.86638C14.1649 4.12213 16.0212 3.75 18 3.75C19.9789 3.75 21.8351 4.12213 23.5687 4.86638C25.3024 5.6106 26.8106 6.62405 28.0933 7.90673C29.3759 9.18943 30.3894 10.6976 31.1336 12.4313C31.8779 14.1649 32.25 16.0211 32.25 18C32.25 19.9788 31.8779 21.8351 31.1336 23.5687C30.3894 25.3023 29.3759 26.8105 28.0933 28.0932C26.8106 29.3759 25.3024 30.3893 23.5687 31.1336C21.8351 31.8778 19.9789 32.2499 18 32.2499Z" fill="url(#paint0_radial_143_339)"/>
<path d="M9.03467 25.9385C10.3097 24.9923 11.6986 24.2452 13.2015 23.6971C14.7044 23.149 16.3039 22.875 18 22.875C19.6962 22.875 21.2957 23.149 22.7986 23.6971C24.3014 24.2452 25.6904 24.9923 26.9654 25.9385C27.8981 24.9135 28.637 23.7269 29.1822 22.3788C29.7274 21.0307 30 19.5711 30 18C30 14.675 28.8313 11.8437 26.4938 9.50621C24.1563 7.16871 21.325 5.99996 18 5.99996C14.675 5.99996 11.8438 7.16871 9.50627 9.50621C7.16877 11.8437 6.00002 14.675 6.00002 18C6.00002 19.5711 6.27262 21.0307 6.81782 22.3788C7.36302 23.7269 8.10197 24.9135 9.03467 25.9385ZM18 19.1249C16.6308 19.1249 15.476 18.6547 14.5356 17.7144C13.5952 16.774 13.1251 15.6192 13.1251 14.25C13.1251 12.8807 13.5952 11.7259 14.5356 10.7856C15.476 9.84519 16.6308 9.375 18 9.375C19.3692 9.375 20.524 9.84519 21.4644 10.7856C22.4048 11.7259 22.875 12.8807 22.875 14.25C22.875 15.6192 22.4048 16.774 21.4644 17.7144C20.524 18.6547 19.3692 19.1249 18 19.1249ZM18 32.2499C16.0212 32.2499 14.1649 31.8778 12.4313 31.1336C10.6977 30.3893 9.18949 29.3759 7.90679 28.0932C6.62411 26.8105 5.61066 25.3023 4.86644 23.5687C4.12219 21.8351 3.75006 19.9788 3.75006 18C3.75006 16.0211 4.12219 14.1649 4.86644 12.4313C5.61066 10.6976 6.62411 9.18943 7.90679 7.90673C9.18949 6.62405 10.6977 5.6106 12.4313 4.86638C14.1649 4.12213 16.0212 3.75 18 3.75C19.9789 3.75 21.8351 4.12213 23.5687 4.86638C25.3024 5.6106 26.8106 6.62405 28.0933 7.90673C29.3759 9.18943 30.3894 10.6976 31.1336 12.4313C31.8779 14.1649 32.25 16.0211 32.25 18C32.25 19.9788 31.8779 21.8351 31.1336 23.5687C30.3894 25.3023 29.3759 26.8105 28.0933 28.0932C26.8106 29.3759 25.3024 30.3893 23.5687 31.1336C21.8351 31.8778 19.9789 32.2499 18 32.2499Z" fill="white" fill-opacity="0.8"/>
</g>
<defs>
<radialGradient id="paint0_radial_143_339" cx="0" cy="0" r="1" gradientUnits="userSpaceOnUse" gradientTransform="translate(18 18) scale(30.6374)">
<stop stop-color="white" stop-opacity="0.24"/>
<stop offset="1" stop-color="white" stop-opacity="0"/>
</radialGradient>
</defs>
</svg>
