<svg width="480" height="50" viewBox="0 0 480 50" fill="none" xmlns="http://www.w3.org/2000/svg">
<g filter="url(#filter0_b_167_1822)">
<rect y="0.5" width="480" height="49" rx="24.5" fill="white" fill-opacity="0.08"/>
<rect x="0.5" y="1" width="479" height="48" rx="24" stroke="white" stroke-opacity="0.2"/>
<path d="M26.8011 22.3636C26.7415 21.8598 26.4995 21.4688 26.0753 21.1903C25.651 20.9119 25.1307 20.7727 24.5142 20.7727C24.0634 20.7727 23.669 20.8456 23.331 20.9915C22.9962 21.1373 22.7344 21.3378 22.5455 21.593C22.3598 21.8482 22.267 22.1383 22.267 22.4631C22.267 22.7348 22.3317 22.9685 22.4609 23.1641C22.5935 23.3563 22.7625 23.517 22.968 23.6463C23.1735 23.7723 23.389 23.8767 23.6143 23.9595C23.8397 24.0391 24.0469 24.1037 24.2358 24.1534L25.2699 24.4318C25.535 24.5014 25.83 24.5975 26.1548 24.7202C26.483 24.8428 26.7962 25.0102 27.0945 25.2223C27.3961 25.4311 27.6446 25.6996 27.8402 26.0277C28.0357 26.3558 28.1335 26.7585 28.1335 27.2358C28.1335 27.786 27.9893 28.2831 27.701 28.7273C27.416 29.1714 26.9983 29.5244 26.4482 29.7862C25.9013 30.0481 25.2367 30.179 24.4545 30.179C23.7254 30.179 23.094 30.0613 22.5604 29.826C22.0301 29.5907 21.6125 29.2625 21.3075 28.8416C21.0059 28.4207 20.8352 27.9318 20.7955 27.375H22.0682C22.1013 27.7595 22.2306 28.0777 22.456 28.3295C22.6847 28.5781 22.973 28.7637 23.321 28.8864C23.6723 29.0057 24.0502 29.0653 24.4545 29.0653C24.9252 29.0653 25.3478 28.9891 25.7223 28.8366C26.0968 28.6809 26.3935 28.4654 26.6122 28.1903C26.831 27.9119 26.9403 27.5871 26.9403 27.2159C26.9403 26.8778 26.8459 26.6027 26.657 26.3906C26.468 26.1785 26.2195 26.0062 25.9112 25.8736C25.603 25.741 25.2699 25.625 24.9119 25.5256L23.6591 25.1676C22.8636 24.9389 22.2339 24.6125 21.7699 24.1882C21.3059 23.764 21.0739 23.2088 21.0739 22.5227C21.0739 21.9527 21.228 21.4555 21.5362 21.0312C21.8478 20.6037 22.2654 20.2723 22.7891 20.0369C23.3161 19.7983 23.9044 19.679 24.554 19.679C25.2102 19.679 25.7936 19.7966 26.304 20.032C26.8144 20.264 27.2188 20.5821 27.517 20.9865C27.8187 21.3909 27.9777 21.8499 27.9943 22.3636H26.8011ZM32.9233 30.1591C32.1875 30.1591 31.5528 29.9967 31.0192 29.6719C30.4889 29.3438 30.0796 28.8864 29.7912 28.2997C29.5062 27.7098 29.3636 27.0237 29.3636 26.2415C29.3636 25.4593 29.5062 24.7699 29.7912 24.1733C30.0796 23.5734 30.4806 23.1061 30.9943 22.7713C31.5114 22.4332 32.1146 22.2642 32.804 22.2642C33.2017 22.2642 33.5945 22.3305 33.9823 22.4631C34.37 22.5956 34.723 22.8111 35.0412 23.1094C35.3594 23.4044 35.6129 23.7955 35.8019 24.2827C35.9908 24.7699 36.0852 25.3698 36.0852 26.0824V26.5795H30.1989V25.5653H34.8921C34.8921 25.1345 34.8059 24.75 34.6335 24.4119C34.4645 24.0739 34.2225 23.8071 33.9077 23.6115C33.5961 23.416 33.2282 23.3182 32.804 23.3182C32.3367 23.3182 31.9323 23.4342 31.5909 23.6662C31.2528 23.8949 30.9927 24.1932 30.8104 24.5611C30.6281 24.929 30.5369 25.3234 30.5369 25.7443V26.4205C30.5369 26.9972 30.6364 27.486 30.8352 27.8871C31.0374 28.2848 31.3175 28.5881 31.6754 28.7969C32.0334 29.0024 32.4493 29.1051 32.9233 29.1051C33.2315 29.1051 33.51 29.062 33.7585 28.9759C34.0104 28.8864 34.2275 28.7538 34.4098 28.5781C34.5921 28.3991 34.733 28.1771 34.8324 27.9119L35.9659 28.2301C35.8466 28.6146 35.6461 28.9527 35.3644 29.2443C35.0826 29.5327 34.7346 29.758 34.3203 29.9205C33.906 30.0795 33.4403 30.1591 32.9233 30.1591ZM39.8372 30.179C39.3533 30.179 38.9141 30.0878 38.5197 29.9055C38.1253 29.7199 37.8121 29.4531 37.5801 29.1051C37.3481 28.7538 37.2321 28.3295 37.2321 27.8324C37.2321 27.3949 37.3183 27.0402 37.4906 26.7685C37.663 26.4934 37.8933 26.2779 38.1817 26.1222C38.47 25.9664 38.7882 25.8504 39.1362 25.7741C39.4875 25.6946 39.8405 25.6316 40.1951 25.5852C40.6592 25.5256 41.0353 25.4808 41.3237 25.451C41.6154 25.4179 41.8275 25.3632 41.9601 25.2869C42.096 25.2107 42.1639 25.0781 42.1639 24.8892V24.8494C42.1639 24.3589 42.0297 23.9777 41.7612 23.706C41.496 23.4342 41.0934 23.2983 40.5531 23.2983C39.993 23.2983 39.5538 23.4209 39.2356 23.6662C38.9175 23.9115 38.6937 24.1733 38.5645 24.4517L37.4508 24.054C37.6497 23.59 37.9148 23.2287 38.2463 22.9702C38.581 22.7083 38.9456 22.526 39.34 22.4233C39.7378 22.3172 40.1289 22.2642 40.5133 22.2642C40.7586 22.2642 41.0403 22.294 41.3585 22.3537C41.68 22.41 41.9899 22.5277 42.2882 22.7067C42.5898 22.8857 42.84 23.1558 43.0389 23.517C43.2378 23.8783 43.3372 24.3622 43.3372 24.9688V30H42.1639V28.9659H42.1042C42.0247 29.1316 41.8921 29.3089 41.7065 29.4979C41.5209 29.6868 41.274 29.8475 40.9657 29.9801C40.6575 30.1127 40.2813 30.179 39.8372 30.179ZM40.0162 29.125C40.4802 29.125 40.8713 29.0339 41.1895 28.8516C41.511 28.6693 41.7529 28.4339 41.9153 28.1456C42.081 27.8572 42.1639 27.554 42.1639 27.2358V26.1619C42.1142 26.2216 42.0048 26.2763 41.8358 26.326C41.6701 26.3724 41.4778 26.4138 41.2591 26.4503C41.0436 26.4834 40.8332 26.5133 40.6277 26.5398C40.4255 26.563 40.2614 26.5829 40.1355 26.5994C39.8306 26.6392 39.5455 26.7038 39.2804 26.7933C39.0185 26.8795 38.8064 27.0104 38.644 27.1861C38.4849 27.3584 38.4054 27.5937 38.4054 27.892C38.4054 28.2997 38.5562 28.608 38.8578 28.8168C39.1627 29.0223 39.5488 29.125 40.0162 29.125ZM45.1987 30V22.3636H46.3322V23.517H46.4118C46.551 23.1392 46.8029 22.8326 47.1675 22.5973C47.532 22.362 47.943 22.2443 48.4004 22.2443C48.4866 22.2443 48.5943 22.246 48.7236 22.2493C48.8528 22.2526 48.9506 22.2576 49.0169 22.2642V23.4574C48.9771 23.4474 48.886 23.4325 48.7435 23.4126C48.6042 23.3894 48.4568 23.3778 48.301 23.3778C47.9298 23.3778 47.5983 23.4557 47.3067 23.6115C47.0183 23.764 46.7896 23.9761 46.6206 24.2479C46.4549 24.5163 46.372 24.8229 46.372 25.1676V30H45.1987ZM52.9975 30.1591C52.2816 30.1591 51.6652 29.9901 51.1481 29.652C50.6311 29.3139 50.2333 28.8482 49.9549 28.255C49.6765 27.6617 49.5373 26.9839 49.5373 26.2216C49.5373 25.446 49.6798 24.7616 49.9649 24.1683C50.2532 23.5717 50.6543 23.1061 51.168 22.7713C51.685 22.4332 52.2883 22.2642 52.9777 22.2642C53.5146 22.2642 53.9985 22.3636 54.4294 22.5625C54.8602 22.7614 55.2132 23.0398 55.4883 23.3977C55.7634 23.7557 55.9341 24.1733 56.0004 24.6506H54.8271C54.7376 24.3026 54.5387 23.9943 54.2305 23.7259C53.9256 23.4541 53.5146 23.3182 52.9975 23.3182C52.5402 23.3182 52.1391 23.4375 51.7944 23.6761C51.453 23.9115 51.1862 24.2446 50.994 24.6754C50.8051 25.103 50.7106 25.6051 50.7106 26.1818C50.7106 26.7718 50.8034 27.2855 50.989 27.723C51.1779 28.1605 51.4431 28.5002 51.7845 28.7422C52.1292 28.9841 52.5335 29.1051 52.9975 29.1051C53.3025 29.1051 53.5792 29.0521 53.8278 28.946C54.0764 28.84 54.2868 28.6875 54.4592 28.4886C54.6315 28.2898 54.7542 28.0511 54.8271 27.7727H56.0004C55.9341 28.2235 55.77 28.6295 55.5082 28.9908C55.2497 29.3487 54.9066 29.6338 54.4791 29.8459C54.0548 30.0547 53.561 30.1591 52.9975 30.1591ZM58.6089 25.4062V30H57.4356V19.8182H58.6089V23.5568H58.7083C58.8873 23.1624 59.1558 22.8492 59.5137 22.6172C59.875 22.3819 60.3556 22.2642 60.9555 22.2642C61.4758 22.2642 61.9316 22.3686 62.3227 22.5774C62.7138 22.7829 63.017 23.0994 63.2325 23.527C63.4512 23.9512 63.5606 24.4915 63.5606 25.1477V30H62.3873V25.2273C62.3873 24.6207 62.2299 24.1518 61.915 23.8203C61.6034 23.4856 61.1709 23.3182 60.6174 23.3182C60.2329 23.3182 59.8882 23.3994 59.5833 23.5618C59.2817 23.7242 59.0431 23.9612 58.8674 24.2727C58.6951 24.5843 58.6089 24.9621 58.6089 25.4062ZM72.4851 22.3636V23.358H68.3687V22.3636H72.4851ZM69.6016 30V21.3097C69.6016 20.8722 69.7044 20.5076 69.9099 20.2159C70.1153 19.9242 70.3822 19.7055 70.7103 19.5597C71.0384 19.4138 71.3848 19.3409 71.7493 19.3409C72.0377 19.3409 72.273 19.3641 72.4553 19.4105C72.6376 19.4569 72.7735 19.5 72.863 19.5398L72.5249 20.554C72.4652 20.5341 72.3824 20.5092 72.2763 20.4794C72.1736 20.4496 72.0377 20.4347 71.8687 20.4347C71.4809 20.4347 71.2008 20.5324 71.0285 20.728C70.8594 20.9235 70.7749 21.2102 70.7749 21.5881V30H69.6016ZM76.6373 30.1591C75.9479 30.1591 75.343 29.995 74.8227 29.6669C74.3056 29.3388 73.9013 28.8797 73.6096 28.2898C73.3213 27.6998 73.1771 27.0104 73.1771 26.2216C73.1771 25.4261 73.3213 24.7318 73.6096 24.1385C73.9013 23.5452 74.3056 23.0845 74.8227 22.7564C75.343 22.4283 75.9479 22.2642 76.6373 22.2642C77.3267 22.2642 77.9299 22.4283 78.447 22.7564C78.9673 23.0845 79.3717 23.5452 79.66 24.1385C79.9517 24.7318 80.0975 25.4261 80.0975 26.2216C80.0975 27.0104 79.9517 27.6998 79.66 28.2898C79.3717 28.8797 78.9673 29.3388 78.447 29.6669C77.9299 29.995 77.3267 30.1591 76.6373 30.1591ZM76.6373 29.1051C77.161 29.1051 77.5919 28.9709 77.9299 28.7024C78.268 28.4339 78.5182 28.081 78.6806 27.6435C78.843 27.206 78.9242 26.732 78.9242 26.2216C78.9242 25.7112 78.843 25.2356 78.6806 24.7947C78.5182 24.3539 78.268 23.9976 77.9299 23.7259C77.5919 23.4541 77.161 23.3182 76.6373 23.3182C76.1136 23.3182 75.6828 23.4541 75.3447 23.7259C75.0066 23.9976 74.7564 24.3539 74.594 24.7947C74.4316 25.2356 74.3504 25.7112 74.3504 26.2216C74.3504 26.732 74.4316 27.206 74.594 27.6435C74.7564 28.081 75.0066 28.4339 75.3447 28.7024C75.6828 28.9709 76.1136 29.1051 76.6373 29.1051ZM81.6086 30V22.3636H82.7421V23.517H82.8216C82.9608 23.1392 83.2127 22.8326 83.5773 22.5973C83.9419 22.362 84.3529 22.2443 84.8103 22.2443C84.8964 22.2443 85.0041 22.246 85.1334 22.2493C85.2627 22.2526 85.3604 22.2576 85.4267 22.2642V23.4574C85.387 23.4474 85.2958 23.4325 85.1533 23.4126C85.0141 23.3894 84.8666 23.3778 84.7108 23.3778C84.3396 23.3778 84.0082 23.4557 83.7165 23.6115C83.4282 23.764 83.1995 23.9761 83.0304 24.2479C82.8647 24.5163 82.7818 24.8229 82.7818 25.1676V30H81.6086ZM90.195 30V22.3636H91.3683V30H90.195ZM90.7916 21.0909C90.5629 21.0909 90.3657 21.013 90.2 20.8572C90.0376 20.7015 89.9564 20.5142 89.9564 20.2955C89.9564 20.0767 90.0376 19.8894 90.2 19.7337C90.3657 19.5779 90.5629 19.5 90.7916 19.5C91.0203 19.5 91.2159 19.5779 91.3783 19.7337C91.544 19.8894 91.6269 20.0767 91.6269 20.2955C91.6269 20.5142 91.544 20.7015 91.3783 20.8572C91.2159 21.013 91.0203 21.0909 90.7916 21.0909ZM94.4106 25.4062V30H93.2373V22.3636H94.3708V23.5568H94.4703C94.6492 23.169 94.921 22.8575 95.2856 22.6222C95.6502 22.3835 96.1208 22.2642 96.6975 22.2642C97.2146 22.2642 97.667 22.3703 98.0548 22.5824C98.4426 22.7912 98.7442 23.1094 98.9596 23.5369C99.175 23.9612 99.2828 24.4981 99.2828 25.1477V30H98.1095V25.2273C98.1095 24.6274 97.9537 24.16 97.6421 23.8253C97.3306 23.4872 96.903 23.3182 96.3595 23.3182C95.9849 23.3182 95.6502 23.3994 95.3552 23.5618C95.0635 23.7242 94.8332 23.9612 94.6641 24.2727C94.4951 24.5843 94.4106 24.9621 94.4106 25.4062ZM104.229 33.0227C103.662 33.0227 103.175 32.9498 102.767 32.804C102.36 32.6615 102.02 32.4725 101.748 32.2372C101.48 32.0052 101.266 31.7566 101.107 31.4915L102.042 30.8352C102.148 30.9744 102.282 31.1335 102.444 31.3125C102.607 31.4948 102.829 31.6522 103.111 31.7848C103.396 31.9207 103.768 31.9886 104.229 31.9886C104.846 31.9886 105.354 31.8395 105.755 31.5412C106.156 31.2429 106.357 30.7756 106.357 30.1392V28.5881H106.258C106.171 28.7273 106.049 28.8996 105.89 29.1051C105.734 29.3073 105.508 29.4879 105.214 29.647C104.922 29.8028 104.527 29.8807 104.03 29.8807C103.414 29.8807 102.86 29.7348 102.37 29.4432C101.883 29.1515 101.496 28.7273 101.211 28.1705C100.93 27.6136 100.789 26.9375 100.789 26.142C100.789 25.3598 100.926 24.6787 101.201 24.0987C101.477 23.5154 101.859 23.0646 102.35 22.7464C102.84 22.425 103.407 22.2642 104.05 22.2642C104.547 22.2642 104.942 22.3471 105.233 22.5128C105.528 22.6752 105.754 22.8608 105.91 23.0696C106.069 23.2751 106.191 23.4441 106.277 23.5767H106.397V22.3636H107.53V30.2188C107.53 30.875 107.381 31.4086 107.083 31.8196C106.788 32.2339 106.39 32.5372 105.89 32.7294C105.392 32.925 104.839 33.0227 104.229 33.0227ZM104.189 28.8267C104.66 28.8267 105.058 28.719 105.383 28.5036C105.707 28.2881 105.954 27.9782 106.123 27.5739C106.292 27.1695 106.377 26.6856 106.377 26.1222C106.377 25.572 106.294 25.0864 106.128 24.6655C105.963 24.2446 105.717 23.9148 105.392 23.6761C105.068 23.4375 104.667 23.3182 104.189 23.3182C103.692 23.3182 103.278 23.4441 102.946 23.696C102.618 23.9479 102.371 24.286 102.206 24.7102C102.043 25.1345 101.962 25.6051 101.962 26.1222C101.962 26.6525 102.045 27.1214 102.211 27.5291C102.38 27.9335 102.628 28.2517 102.956 28.4837C103.288 28.7124 103.699 28.8267 104.189 28.8267ZM109.398 30V22.3636H110.532V23.517H110.611C110.75 23.1392 111.002 22.8326 111.367 22.5973C111.731 22.362 112.142 22.2443 112.6 22.2443C112.686 22.2443 112.794 22.246 112.923 22.2493C113.052 22.2526 113.15 22.2576 113.216 22.2642V23.4574C113.176 23.4474 113.085 23.4325 112.943 23.4126C112.804 23.3894 112.656 23.3778 112.5 23.3778C112.129 23.3778 111.798 23.4557 111.506 23.6115C111.218 23.764 110.989 23.9761 110.82 24.2479C110.654 24.5163 110.571 24.8229 110.571 25.1676V30H109.398ZM117.296 30.1591C116.56 30.1591 115.926 29.9967 115.392 29.6719C114.862 29.3438 114.453 28.8864 114.164 28.2997C113.879 27.7098 113.737 27.0237 113.737 26.2415C113.737 25.4593 113.879 24.7699 114.164 24.1733C114.453 23.5734 114.854 23.1061 115.367 22.7713C115.884 22.4332 116.488 22.2642 117.177 22.2642C117.575 22.2642 117.967 22.3305 118.355 22.4631C118.743 22.5956 119.096 22.8111 119.414 23.1094C119.732 23.4044 119.986 23.7955 120.175 24.2827C120.364 24.7699 120.458 25.3698 120.458 26.0824V26.5795H114.572V25.5653H119.265C119.265 25.1345 119.179 24.75 119.007 24.4119C118.837 24.0739 118.596 23.8071 118.281 23.6115C117.969 23.416 117.601 23.3182 117.177 23.3182C116.71 23.3182 116.305 23.4342 115.964 23.6662C115.626 23.8949 115.366 24.1932 115.183 24.5611C115.001 24.929 114.91 25.3234 114.91 25.7443V26.4205C114.91 26.9972 115.009 27.486 115.208 27.8871C115.41 28.2848 115.69 28.5881 116.048 28.7969C116.406 29.0024 116.822 29.1051 117.296 29.1051C117.605 29.1051 117.883 29.062 118.132 28.9759C118.383 28.8864 118.6 28.7538 118.783 28.5781C118.965 28.3991 119.106 28.1771 119.205 27.9119L120.339 28.2301C120.22 28.6146 120.019 28.9527 119.737 29.2443C119.456 29.5327 119.108 29.758 118.693 29.9205C118.279 30.0795 117.813 30.1591 117.296 30.1591ZM124.847 30.1591C124.21 30.1591 123.648 29.9983 123.161 29.6768C122.674 29.352 122.293 28.8946 122.018 28.3047C121.743 27.7114 121.605 27.0104 121.605 26.2017C121.605 25.3996 121.743 24.7036 122.018 24.1136C122.293 23.5237 122.676 23.0679 123.166 22.7464C123.657 22.425 124.223 22.2642 124.866 22.2642C125.364 22.2642 125.756 22.3471 126.045 22.5128C126.336 22.6752 126.558 22.8608 126.711 23.0696C126.867 23.2751 126.988 23.4441 127.074 23.5767H127.173V19.8182H128.347V30H127.213V28.8267H127.074C126.988 28.9659 126.865 29.1416 126.706 29.3537C126.547 29.5625 126.32 29.7498 126.025 29.9155C125.73 30.0779 125.337 30.1591 124.847 30.1591ZM125.006 29.1051C125.476 29.1051 125.874 28.9825 126.199 28.7372C126.524 28.4886 126.771 28.1456 126.94 27.7081C127.109 27.2673 127.193 26.7585 127.193 26.1818C127.193 25.6117 127.11 25.1129 126.945 24.6854C126.779 24.2545 126.534 23.9197 126.209 23.6811C125.884 23.4392 125.483 23.3182 125.006 23.3182C124.508 23.3182 124.094 23.4458 123.763 23.701C123.435 23.9529 123.188 24.2959 123.022 24.7301C122.86 25.161 122.778 25.6449 122.778 26.1818C122.778 26.7254 122.861 27.2192 123.027 27.6634C123.196 28.1042 123.445 28.4555 123.773 28.7173C124.104 28.9759 124.515 29.1051 125.006 29.1051ZM130.378 30V22.3636H131.552V30H130.378ZM130.975 21.0909C130.746 21.0909 130.549 21.013 130.383 20.8572C130.221 20.7015 130.14 20.5142 130.14 20.2955C130.14 20.0767 130.221 19.8894 130.383 19.7337C130.549 19.5779 130.746 19.5 130.975 19.5C131.204 19.5 131.399 19.5779 131.562 19.7337C131.727 19.8894 131.81 20.0767 131.81 20.2955C131.81 20.5142 131.727 20.7015 131.562 20.8572C131.399 21.013 131.204 21.0909 130.975 21.0909ZM136.622 30.1591C135.886 30.1591 135.252 29.9967 134.718 29.6719C134.188 29.3438 133.779 28.8864 133.49 28.2997C133.205 27.7098 133.063 27.0237 133.063 26.2415C133.063 25.4593 133.205 24.7699 133.49 24.1733C133.779 23.5734 134.18 23.1061 134.693 22.7713C135.21 22.4332 135.814 22.2642 136.503 22.2642C136.901 22.2642 137.293 22.3305 137.681 22.4631C138.069 22.5956 138.422 22.8111 138.74 23.1094C139.058 23.4044 139.312 23.7955 139.501 24.2827C139.69 24.7699 139.784 25.3698 139.784 26.0824V26.5795H133.898V25.5653H138.591C138.591 25.1345 138.505 24.75 138.333 24.4119C138.163 24.0739 137.922 23.8071 137.607 23.6115C137.295 23.416 136.927 23.3182 136.503 23.3182C136.036 23.3182 135.631 23.4342 135.29 23.6662C134.952 23.8949 134.692 24.1932 134.509 24.5611C134.327 24.929 134.236 25.3234 134.236 25.7443V26.4205C134.236 26.9972 134.335 27.486 134.534 27.8871C134.736 28.2848 135.016 28.5881 135.374 28.7969C135.732 29.0024 136.148 29.1051 136.622 29.1051C136.931 29.1051 137.209 29.062 137.458 28.9759C137.709 28.8864 137.927 28.7538 138.109 28.5781C138.291 28.3991 138.432 28.1771 138.531 27.9119L139.665 28.2301C139.546 28.6146 139.345 28.9527 139.063 29.2443C138.782 29.5327 138.434 29.758 138.019 29.9205C137.605 30.0795 137.139 30.1591 136.622 30.1591ZM142.462 25.4062V30H141.289V22.3636H142.423V23.5568H142.522C142.701 23.169 142.973 22.8575 143.337 22.6222C143.702 22.3835 144.173 22.2642 144.749 22.2642C145.266 22.2642 145.719 22.3703 146.106 22.5824C146.494 22.7912 146.796 23.1094 147.011 23.5369C147.227 23.9612 147.334 24.4981 147.334 25.1477V30H146.161V25.2273C146.161 24.6274 146.005 24.16 145.694 23.8253C145.382 23.4872 144.955 23.3182 144.411 23.3182C144.037 23.3182 143.702 23.3994 143.407 23.5618C143.115 23.7242 142.885 23.9612 142.716 24.2727C142.547 24.5843 142.462 24.9621 142.462 25.4062ZM152.519 22.3636V23.358H148.562V22.3636H152.519ZM149.716 20.5341H150.889V27.8125C150.889 28.1439 150.937 28.3925 151.033 28.5582C151.132 28.7206 151.258 28.83 151.411 28.8864C151.567 28.9394 151.731 28.9659 151.903 28.9659C152.032 28.9659 152.138 28.9593 152.221 28.946C152.304 28.9295 152.37 28.9162 152.42 28.9062L152.659 29.9602C152.579 29.9901 152.468 30.0199 152.326 30.0497C152.183 30.0829 152.002 30.0994 151.784 30.0994C151.452 30.0994 151.127 30.0282 150.809 29.8857C150.494 29.7431 150.233 29.526 150.024 29.2344C149.818 28.9427 149.716 28.5748 149.716 28.1307V20.5341ZM159.277 24.0739L158.223 24.3722C158.157 24.1965 158.059 24.0258 157.929 23.8601C157.804 23.6911 157.631 23.5518 157.412 23.4425C157.194 23.3331 156.914 23.2784 156.572 23.2784C156.105 23.2784 155.715 23.3861 155.404 23.6016C155.096 23.8137 154.942 24.0838 154.942 24.4119C154.942 24.7036 155.048 24.9339 155.26 25.103C155.472 25.272 155.803 25.4129 156.254 25.5256L157.388 25.804C158.07 25.9697 158.579 26.2232 158.914 26.5646C159.249 26.9027 159.416 27.3385 159.416 27.8722C159.416 28.3097 159.29 28.7008 159.038 29.0455C158.79 29.3902 158.442 29.6619 157.994 29.8608C157.547 30.0597 157.026 30.1591 156.433 30.1591C155.654 30.1591 155.009 29.9901 154.499 29.652C153.989 29.3139 153.666 28.8201 153.53 28.1705L154.643 27.892C154.749 28.303 154.95 28.6113 155.245 28.8168C155.543 29.0223 155.933 29.125 156.413 29.125C156.96 29.125 157.394 29.009 157.716 28.777C158.041 28.5417 158.203 28.2599 158.203 27.9318C158.203 27.6667 158.11 27.4446 157.925 27.2656C157.739 27.0833 157.454 26.9474 157.069 26.858L155.797 26.5597C155.097 26.3939 154.584 26.1371 154.255 25.7891C153.931 25.4377 153.768 24.9986 153.768 24.4716C153.768 24.0407 153.889 23.6596 154.131 23.3281C154.376 22.9967 154.71 22.7365 155.13 22.5476C155.555 22.3587 156.035 22.2642 156.572 22.2642C157.328 22.2642 157.921 22.4299 158.352 22.7614C158.786 23.0928 159.094 23.5303 159.277 24.0739ZM162.652 28.608L162.573 29.1449C162.516 29.5227 162.43 29.9271 162.314 30.358C162.201 30.7888 162.084 31.1948 161.961 31.576C161.838 31.9571 161.737 32.2604 161.658 32.4858H160.763C160.806 32.2737 160.862 31.9936 160.932 31.6456C161.002 31.2976 161.071 30.9081 161.141 30.4773C161.214 30.0497 161.273 29.6122 161.32 29.1648L161.379 28.608H162.652ZM168.203 30V22.3636H169.337V23.517H169.417C169.556 23.1392 169.808 22.8326 170.172 22.5973C170.537 22.362 170.948 22.2443 171.405 22.2443C171.491 22.2443 171.599 22.246 171.728 22.2493C171.858 22.2526 171.955 22.2576 172.022 22.2642V23.4574C171.982 23.4474 171.891 23.4325 171.748 23.4126C171.609 23.3894 171.462 23.3778 171.306 23.3778C170.935 23.3778 170.603 23.4557 170.311 23.6115C170.023 23.764 169.794 23.9761 169.625 24.2479C169.46 24.5163 169.377 24.8229 169.377 25.1676V30H168.203ZM176.102 30.1591C175.366 30.1591 174.731 29.9967 174.198 29.6719C173.667 29.3438 173.258 28.8864 172.97 28.2997C172.685 27.7098 172.542 27.0237 172.542 26.2415C172.542 25.4593 172.685 24.7699 172.97 24.1733C173.258 23.5734 173.659 23.1061 174.173 22.7713C174.69 22.4332 175.293 22.2642 175.982 22.2642C176.38 22.2642 176.773 22.3305 177.161 22.4631C177.548 22.5956 177.901 22.8111 178.22 23.1094C178.538 23.4044 178.791 23.7955 178.98 24.2827C179.169 24.7699 179.264 25.3698 179.264 26.0824V26.5795H173.377V25.5653H178.07C178.07 25.1345 177.984 24.75 177.812 24.4119C177.643 24.0739 177.401 23.8071 177.086 23.6115C176.775 23.416 176.407 23.3182 175.982 23.3182C175.515 23.3182 175.111 23.4342 174.769 23.6662C174.431 23.8949 174.171 24.1932 173.989 24.5611C173.807 24.929 173.715 25.3234 173.715 25.7443V26.4205C173.715 26.9972 173.815 27.486 174.014 27.8871C174.216 28.2848 174.496 28.5881 174.854 28.7969C175.212 29.0024 175.628 29.1051 176.102 29.1051C176.41 29.1051 176.688 29.062 176.937 28.9759C177.189 28.8864 177.406 28.7538 177.588 28.5781C177.771 28.3991 177.911 28.1771 178.011 27.9119L179.144 28.2301C179.025 28.6146 178.825 28.9527 178.543 29.2443C178.261 29.5327 177.913 29.758 177.499 29.9205C177.084 30.0795 176.619 30.1591 176.102 30.1591ZM183.871 30.1591C183.155 30.1591 182.538 29.9901 182.021 29.652C181.504 29.3139 181.107 28.8482 180.828 28.255C180.55 27.6617 180.411 26.9839 180.411 26.2216C180.411 25.446 180.553 24.7616 180.838 24.1683C181.126 23.5717 181.527 23.1061 182.041 22.7713C182.558 22.4332 183.161 22.2642 183.851 22.2642C184.388 22.2642 184.872 22.3636 185.303 22.5625C185.733 22.7614 186.086 23.0398 186.362 23.3977C186.637 23.7557 186.807 24.1733 186.874 24.6506H185.7C185.611 24.3026 185.412 23.9943 185.104 23.7259C184.799 23.4541 184.388 23.3182 183.871 23.3182C183.413 23.3182 183.012 23.4375 182.668 23.6761C182.326 23.9115 182.059 24.2446 181.867 24.6754C181.678 25.103 181.584 25.6051 181.584 26.1818C181.584 26.7718 181.677 27.2855 181.862 27.723C182.051 28.1605 182.316 28.5002 182.658 28.7422C183.002 28.9841 183.407 29.1051 183.871 29.1051C184.176 29.1051 184.452 29.0521 184.701 28.946C184.95 28.84 185.16 28.6875 185.332 28.4886C185.505 28.2898 185.627 28.0511 185.7 27.7727H186.874C186.807 28.2235 186.643 28.6295 186.381 28.9908C186.123 29.3487 185.78 29.6338 185.352 29.8459C184.928 30.0547 184.434 30.1591 183.871 30.1591ZM188.309 30V22.3636H189.482V30H188.309ZM188.905 21.0909C188.677 21.0909 188.479 21.013 188.314 20.8572C188.151 20.7015 188.07 20.5142 188.07 20.2955C188.07 20.0767 188.151 19.8894 188.314 19.7337C188.479 19.5779 188.677 19.5 188.905 19.5C189.134 19.5 189.33 19.5779 189.492 19.7337C189.658 19.8894 189.741 20.0767 189.741 20.2955C189.741 20.5142 189.658 20.7015 189.492 20.8572C189.33 21.013 189.134 21.0909 188.905 21.0909ZM191.351 32.8636V22.3636H192.485V23.5767H192.624C192.71 23.4441 192.829 23.2751 192.982 23.0696C193.138 22.8608 193.36 22.6752 193.648 22.5128C193.94 22.3471 194.334 22.2642 194.831 22.2642C195.474 22.2642 196.041 22.425 196.531 22.7464C197.022 23.0679 197.405 23.5237 197.68 24.1136C197.955 24.7036 198.093 25.3996 198.093 26.2017C198.093 27.0104 197.955 27.7114 197.68 28.3047C197.405 28.8946 197.024 29.352 196.536 29.6768C196.049 29.9983 195.487 30.1591 194.851 30.1591C194.361 30.1591 193.968 30.0779 193.673 29.9155C193.378 29.7498 193.151 29.5625 192.992 29.3537C192.833 29.1416 192.71 28.9659 192.624 28.8267H192.524V32.8636H191.351ZM192.504 26.1818C192.504 26.7585 192.589 27.2673 192.758 27.7081C192.927 28.1456 193.174 28.4886 193.499 28.7372C193.824 28.9825 194.221 29.1051 194.692 29.1051C195.182 29.1051 195.592 28.9759 195.92 28.7173C196.251 28.4555 196.5 28.1042 196.666 27.6634C196.835 27.2192 196.919 26.7254 196.919 26.1818C196.919 25.6449 196.836 25.161 196.671 24.7301C196.508 24.2959 196.261 23.9529 195.93 23.701C195.602 23.4458 195.189 23.3182 194.692 23.3182C194.215 23.3182 193.814 23.4392 193.489 23.6811C193.164 23.9197 192.919 24.2545 192.753 24.6854C192.587 25.1129 192.504 25.6117 192.504 26.1818ZM202.804 30.1591C202.068 30.1591 201.434 29.9967 200.9 29.6719C200.37 29.3438 199.96 28.8864 199.672 28.2997C199.387 27.7098 199.244 27.0237 199.244 26.2415C199.244 25.4593 199.387 24.7699 199.672 24.1733C199.96 23.5734 200.361 23.1061 200.875 22.7713C201.392 22.4332 201.995 22.2642 202.685 22.2642C203.082 22.2642 203.475 22.3305 203.863 22.4631C204.251 22.5956 204.604 22.8111 204.922 23.1094C205.24 23.4044 205.494 23.7955 205.683 24.2827C205.871 24.7699 205.966 25.3698 205.966 26.0824V26.5795H200.08V25.5653H204.773C204.773 25.1345 204.687 24.75 204.514 24.4119C204.345 24.0739 204.103 23.8071 203.788 23.6115C203.477 23.416 203.109 23.3182 202.685 23.3182C202.217 23.3182 201.813 23.4342 201.472 23.6662C201.134 23.8949 200.873 24.1932 200.691 24.5611C200.509 24.929 200.418 25.3234 200.418 25.7443V26.4205C200.418 26.9972 200.517 27.486 200.716 27.8871C200.918 28.2848 201.198 28.5881 201.556 28.7969C201.914 29.0024 202.33 29.1051 202.804 29.1051C203.112 29.1051 203.391 29.062 203.639 28.9759C203.891 28.8864 204.108 28.7538 204.291 28.5781C204.473 28.3991 204.614 28.1771 204.713 27.9119L205.847 28.2301C205.727 28.6146 205.527 28.9527 205.245 29.2443C204.963 29.5327 204.615 29.758 204.201 29.9205C203.787 30.0795 203.321 30.1591 202.804 30.1591ZM212.88 24.0739L211.826 24.3722C211.76 24.1965 211.662 24.0258 211.533 23.8601C211.407 23.6911 211.234 23.5518 211.015 23.4425C210.797 23.3331 210.517 23.2784 210.175 23.2784C209.708 23.2784 209.319 23.3861 209.007 23.6016C208.699 23.8137 208.545 24.0838 208.545 24.4119C208.545 24.7036 208.651 24.9339 208.863 25.103C209.075 25.272 209.406 25.4129 209.857 25.5256L210.991 25.804C211.673 25.9697 212.182 26.2232 212.517 26.5646C212.852 26.9027 213.019 27.3385 213.019 27.8722C213.019 28.3097 212.893 28.7008 212.641 29.0455C212.393 29.3902 212.045 29.6619 211.597 29.8608C211.15 30.0597 210.629 30.1591 210.036 30.1591C209.257 30.1591 208.613 29.9901 208.102 29.652C207.592 29.3139 207.269 28.8201 207.133 28.1705L208.246 27.892C208.352 28.303 208.553 28.6113 208.848 28.8168C209.146 29.0223 209.536 29.125 210.016 29.125C210.563 29.125 210.997 29.009 211.319 28.777C211.644 28.5417 211.806 28.2599 211.806 27.9318C211.806 27.6667 211.713 27.4446 211.528 27.2656C211.342 27.0833 211.057 26.9474 210.672 26.858L209.4 26.5597C208.7 26.3939 208.187 26.1371 207.859 25.7891C207.534 25.4377 207.371 24.9986 207.371 24.4716C207.371 24.0407 207.492 23.6596 207.734 23.3281C207.98 22.9967 208.313 22.7365 208.734 22.5476C209.158 22.3587 209.638 22.2642 210.175 22.2642C210.931 22.2642 211.524 22.4299 211.955 22.7614C212.389 23.0928 212.698 23.5303 212.88 24.0739ZM216.255 28.608L216.176 29.1449C216.119 29.5227 216.033 29.9271 215.917 30.358C215.804 30.7888 215.687 31.1948 215.564 31.576C215.442 31.9571 215.34 32.2604 215.261 32.4858H214.366C214.409 32.2737 214.465 31.9936 214.535 31.6456C214.605 31.2976 214.674 30.9081 214.744 30.4773C214.817 30.0497 214.876 29.6122 214.923 29.1648L214.982 28.608H216.255ZM224.054 30.179C223.57 30.179 223.131 30.0878 222.736 29.9055C222.342 29.7199 222.029 29.4531 221.797 29.1051C221.565 28.7538 221.449 28.3295 221.449 27.8324C221.449 27.3949 221.535 27.0402 221.707 26.7685C221.879 26.4934 222.11 26.2779 222.398 26.1222C222.686 25.9664 223.005 25.8504 223.353 25.7741C223.704 25.6946 224.057 25.6316 224.412 25.5852C224.876 25.5256 225.252 25.4808 225.54 25.451C225.832 25.4179 226.044 25.3632 226.177 25.2869C226.312 25.2107 226.38 25.0781 226.38 24.8892V24.8494C226.38 24.3589 226.246 23.9777 225.978 23.706C225.713 23.4342 225.31 23.2983 224.77 23.2983C224.209 23.2983 223.77 23.4209 223.452 23.6662C223.134 23.9115 222.91 24.1733 222.781 24.4517L221.667 24.054C221.866 23.59 222.131 23.2287 222.463 22.9702C222.798 22.7083 223.162 22.526 223.557 22.4233C223.954 22.3172 224.345 22.2642 224.73 22.2642C224.975 22.2642 225.257 22.294 225.575 22.3537C225.896 22.41 226.206 22.5277 226.505 22.7067C226.806 22.8857 227.057 23.1558 227.255 23.517C227.454 23.8783 227.554 24.3622 227.554 24.9688V30H226.38V28.9659H226.321C226.241 29.1316 226.109 29.3089 225.923 29.4979C225.737 29.6868 225.49 29.8475 225.182 29.9801C224.874 30.1127 224.498 30.179 224.054 30.179ZM224.233 29.125C224.697 29.125 225.088 29.0339 225.406 28.8516C225.727 28.6693 225.969 28.4339 226.132 28.1456C226.298 27.8572 226.38 27.554 226.38 27.2358V26.1619C226.331 26.2216 226.221 26.2763 226.052 26.326C225.887 26.3724 225.694 26.4138 225.476 26.4503C225.26 26.4834 225.05 26.5133 224.844 26.5398C224.642 26.563 224.478 26.5829 224.352 26.5994C224.047 26.6392 223.762 26.7038 223.497 26.7933C223.235 26.8795 223.023 27.0104 222.86 27.1861C222.701 27.3584 222.622 27.5937 222.622 27.892C222.622 28.2997 222.773 28.608 223.074 28.8168C223.379 29.0223 223.765 29.125 224.233 29.125ZM230.588 25.4062V30H229.415V22.3636H230.549V23.5568H230.648C230.827 23.169 231.099 22.8575 231.463 22.6222C231.828 22.3835 232.299 22.2642 232.875 22.2642C233.392 22.2642 233.845 22.3703 234.233 22.5824C234.62 22.7912 234.922 23.1094 235.137 23.5369C235.353 23.9612 235.461 24.4981 235.461 25.1477V30H234.287V25.2273C234.287 24.6274 234.132 24.16 233.82 23.8253C233.508 23.4872 233.081 23.3182 232.537 23.3182C232.163 23.3182 231.828 23.3994 231.533 23.5618C231.241 23.7242 231.011 23.9612 230.842 24.2727C230.673 24.5843 230.588 24.9621 230.588 25.4062ZM240.208 30.1591C239.572 30.1591 239.01 29.9983 238.523 29.6768C238.036 29.352 237.654 28.8946 237.379 28.3047C237.104 27.7114 236.967 27.0104 236.967 26.2017C236.967 25.3996 237.104 24.7036 237.379 24.1136C237.654 23.5237 238.037 23.0679 238.528 22.7464C239.018 22.425 239.585 22.2642 240.228 22.2642C240.725 22.2642 241.118 22.3471 241.406 22.5128C241.698 22.6752 241.92 22.8608 242.073 23.0696C242.228 23.2751 242.349 23.4441 242.435 23.5767H242.535V19.8182H243.708V30H242.575V28.8267H242.435C242.349 28.9659 242.227 29.1416 242.068 29.3537C241.908 29.5625 241.681 29.7498 241.386 29.9155C241.091 30.0779 240.699 30.1591 240.208 30.1591ZM240.367 29.1051C240.838 29.1051 241.236 28.9825 241.56 28.7372C241.885 28.4886 242.132 28.1456 242.301 27.7081C242.47 27.2673 242.555 26.7585 242.555 26.1818C242.555 25.6117 242.472 25.1129 242.306 24.6854C242.14 24.2545 241.895 23.9197 241.57 23.6811C241.246 23.4392 240.845 23.3182 240.367 23.3182C239.87 23.3182 239.456 23.4458 239.124 23.701C238.796 23.9529 238.549 24.2959 238.384 24.7301C238.221 25.161 238.14 25.6449 238.14 26.1818C238.14 26.7254 238.223 27.2192 238.389 27.6634C238.558 28.1042 238.806 28.4555 239.134 28.7173C239.466 28.9759 239.877 29.1051 240.367 29.1051ZM249.397 30V22.3636H250.531V23.5568H250.63C250.79 23.1491 251.046 22.8326 251.401 22.6072C251.756 22.3786 252.182 22.2642 252.679 22.2642C253.182 22.2642 253.602 22.3786 253.937 22.6072C254.275 22.8326 254.538 23.1491 254.727 23.5568H254.807C255.002 23.1624 255.295 22.8492 255.687 22.6172C256.078 22.3819 256.547 22.2642 257.093 22.2642C257.776 22.2642 258.335 22.478 258.769 22.9055C259.203 23.3298 259.42 23.991 259.42 24.8892V30H258.247V24.8892C258.247 24.3258 258.093 23.9231 257.785 23.6811C257.476 23.4392 257.113 23.3182 256.696 23.3182C256.159 23.3182 255.743 23.4806 255.448 23.8054C255.153 24.1269 255.005 24.5346 255.005 25.0284V30H253.812V24.7699C253.812 24.3357 253.671 23.986 253.39 23.7209C253.108 23.4524 252.745 23.3182 252.301 23.3182C251.996 23.3182 251.711 23.3994 251.446 23.5618C251.184 23.7242 250.972 23.9496 250.809 24.2379C250.65 24.523 250.571 24.8527 250.571 25.2273V30H249.397ZM264.388 30.1591C263.698 30.1591 263.093 29.995 262.573 29.6669C262.056 29.3388 261.652 28.8797 261.36 28.2898C261.072 27.6998 260.927 27.0104 260.927 26.2216C260.927 25.4261 261.072 24.7318 261.36 24.1385C261.652 23.5452 262.056 23.0845 262.573 22.7564C263.093 22.4283 263.698 22.2642 264.388 22.2642C265.077 22.2642 265.68 22.4283 266.197 22.7564C266.718 23.0845 267.122 23.5452 267.41 24.1385C267.702 24.7318 267.848 25.4261 267.848 26.2216C267.848 27.0104 267.702 27.6998 267.41 28.2898C267.122 28.8797 266.718 29.3388 266.197 29.6669C265.68 29.995 265.077 30.1591 264.388 30.1591ZM264.388 29.1051C264.911 29.1051 265.342 28.9709 265.68 28.7024C266.018 28.4339 266.269 28.081 266.431 27.6435C266.593 27.206 266.675 26.732 266.675 26.2216C266.675 25.7112 266.593 25.2356 266.431 24.7947C266.269 24.3539 266.018 23.9976 265.68 23.7259C265.342 23.4541 264.911 23.3182 264.388 23.3182C263.864 23.3182 263.433 23.4541 263.095 23.7259C262.757 23.9976 262.507 24.3539 262.344 24.7947C262.182 25.2356 262.101 25.7112 262.101 26.2216C262.101 26.732 262.182 27.206 262.344 27.6435C262.507 28.081 262.757 28.4339 263.095 28.7024C263.433 28.9709 263.864 29.1051 264.388 29.1051ZM269.359 30V22.3636H270.492V23.517H270.572C270.711 23.1392 270.963 22.8326 271.328 22.5973C271.692 22.362 272.103 22.2443 272.561 22.2443C272.647 22.2443 272.755 22.246 272.884 22.2493C273.013 22.2526 273.111 22.2576 273.177 22.2642V23.4574C273.137 23.4474 273.046 23.4325 272.904 23.4126C272.764 23.3894 272.617 23.3778 272.461 23.3778C272.09 23.3778 271.759 23.4557 271.467 23.6115C271.179 23.764 270.95 23.9761 270.781 24.2479C270.615 24.5163 270.532 24.8229 270.532 25.1676V30H269.359ZM277.257 30.1591C276.521 30.1591 275.887 29.9967 275.353 29.6719C274.823 29.3438 274.413 28.8864 274.125 28.2997C273.84 27.7098 273.698 27.0237 273.698 26.2415C273.698 25.4593 273.84 24.7699 274.125 24.1733C274.413 23.5734 274.815 23.1061 275.328 22.7713C275.845 22.4332 276.448 22.2642 277.138 22.2642C277.536 22.2642 277.928 22.3305 278.316 22.4631C278.704 22.5956 279.057 22.8111 279.375 23.1094C279.693 23.4044 279.947 23.7955 280.136 24.2827C280.325 24.7699 280.419 25.3698 280.419 26.0824V26.5795H274.533V25.5653H279.226C279.226 25.1345 279.14 24.75 278.967 24.4119C278.798 24.0739 278.556 23.8071 278.242 23.6115C277.93 23.416 277.562 23.3182 277.138 23.3182C276.671 23.3182 276.266 23.4342 275.925 23.6662C275.587 23.8949 275.327 24.1932 275.144 24.5611C274.962 24.929 274.871 25.3234 274.871 25.7443V26.4205C274.871 26.9972 274.97 27.486 275.169 27.8871C275.371 28.2848 275.651 28.5881 276.009 28.7969C276.367 29.0024 276.783 29.1051 277.257 29.1051C277.565 29.1051 277.844 29.062 278.092 28.9759C278.344 28.8864 278.561 28.7538 278.744 28.5781C278.926 28.3991 279.067 28.1771 279.166 27.9119L280.3 28.2301C280.181 28.6146 279.98 28.9527 279.698 29.2443C279.417 29.5327 279.069 29.758 278.654 29.9205C278.24 30.0795 277.774 30.1591 277.257 30.1591Z" fill="white" fill-opacity="0.2"/>
<rect x="382" y="4.5" width="94" height="41" rx="20.5" fill="url(#paint0_radial_167_1822)"/>
<rect x="382.5" y="5" width="93" height="40" rx="20" stroke="white" stroke-opacity="0.2"/>
<path d="M412.572 23.1172C412.525 22.683 412.33 22.3449 411.985 22.103C411.644 21.861 411.199 21.7401 410.653 21.7401C410.268 21.7401 409.938 21.7981 409.663 21.9141C409.388 22.0301 409.178 22.1875 409.032 22.3864C408.886 22.5852 408.811 22.8123 408.808 23.0675C408.808 23.2796 408.856 23.4635 408.952 23.6193C409.052 23.7751 409.186 23.9077 409.355 24.017C409.524 24.1231 409.711 24.2126 409.917 24.2855C410.122 24.3584 410.329 24.4197 410.538 24.4695L411.493 24.7081C411.877 24.7976 412.247 24.9186 412.601 25.071C412.959 25.2235 413.279 25.4157 413.561 25.6477C413.846 25.8797 414.071 26.1598 414.237 26.4879C414.403 26.8161 414.486 27.2005 414.486 27.6413C414.486 28.2379 414.333 28.7633 414.028 29.2173C413.723 29.6681 413.283 30.0211 412.706 30.2763C412.132 30.5282 411.438 30.6541 410.623 30.6541C409.831 30.6541 409.143 30.5315 408.56 30.2862C407.98 30.041 407.525 29.683 407.197 29.2124C406.873 28.7417 406.697 28.1683 406.67 27.4922H408.485C408.511 27.8468 408.621 28.1418 408.813 28.3771C409.005 28.6125 409.256 28.7881 409.564 28.9041C409.875 29.0201 410.223 29.0781 410.608 29.0781C411.009 29.0781 411.36 29.0185 411.662 28.8991C411.967 28.7765 412.205 28.6075 412.378 28.392C412.55 28.1733 412.638 27.9181 412.641 27.6264C412.638 27.3613 412.56 27.1425 412.408 26.9702C412.255 26.7945 412.041 26.6487 411.766 26.5327C411.494 26.4134 411.176 26.3073 410.812 26.2145L409.653 25.9162C408.815 25.7008 408.152 25.3743 407.665 24.9368C407.181 24.496 406.939 23.911 406.939 23.1818C406.939 22.5819 407.101 22.0566 407.426 21.6058C407.754 21.1551 408.2 20.8054 408.763 20.5568C409.327 20.3049 409.965 20.179 410.677 20.179C411.4 20.179 412.033 20.3049 412.577 20.5568C413.123 20.8054 413.553 21.1518 413.864 21.5959C414.176 22.0367 414.337 22.5438 414.346 23.1172H412.572ZM419.151 30.6491C418.386 30.6491 417.724 30.4901 417.168 30.1719C416.614 29.8504 416.188 29.3963 415.89 28.8097C415.592 28.2197 415.442 27.5253 415.442 26.7266C415.442 25.9411 415.592 25.2517 415.89 24.6584C416.191 24.0618 416.612 23.5978 417.153 23.2663C417.693 22.9316 418.328 22.7642 419.057 22.7642C419.527 22.7642 419.971 22.8404 420.389 22.9929C420.81 23.142 421.181 23.3741 421.503 23.6889C421.828 24.0038 422.083 24.4048 422.268 24.892C422.454 25.3759 422.547 25.9527 422.547 26.6222V27.174H416.288V25.9609H420.822C420.818 25.6162 420.744 25.3097 420.598 25.0412C420.452 24.7694 420.248 24.5556 419.986 24.3999C419.728 24.2441 419.426 24.1662 419.082 24.1662C418.714 24.1662 418.391 24.2557 418.112 24.4347C417.834 24.6103 417.617 24.8423 417.461 25.1307C417.308 25.4157 417.23 25.7289 417.227 26.0703V27.1293C417.227 27.5734 417.308 27.9545 417.471 28.2727C417.633 28.5876 417.86 28.8295 418.152 28.9986C418.444 29.1643 418.785 29.2472 419.176 29.2472C419.438 29.2472 419.675 29.2107 419.887 29.1378C420.099 29.0616 420.283 28.9505 420.439 28.8047C420.595 28.6589 420.712 28.4782 420.792 28.2628L422.472 28.4517C422.366 28.8958 422.164 29.2836 421.866 29.6151C421.571 29.9432 421.193 30.1984 420.732 30.3807C420.271 30.5597 419.744 30.6491 419.151 30.6491ZM425.987 30.6541C425.503 30.6541 425.067 30.5679 424.679 30.3956C424.295 30.2199 423.99 29.9614 423.764 29.62C423.542 29.2786 423.431 28.8577 423.431 28.3572C423.431 27.9264 423.511 27.5701 423.67 27.2884C423.829 27.0066 424.046 26.7812 424.321 26.6122C424.596 26.4432 424.906 26.3156 425.251 26.2294C425.599 26.1399 425.959 26.0753 426.33 26.0355C426.777 25.9891 427.14 25.9477 427.419 25.9112C427.697 25.8714 427.899 25.8118 428.025 25.7322C428.154 25.6494 428.219 25.5218 428.219 25.3494V25.3196C428.219 24.9451 428.108 24.6551 427.886 24.4496C427.664 24.2441 427.344 24.1413 426.926 24.1413C426.486 24.1413 426.136 24.2375 425.877 24.4297C425.622 24.6219 425.45 24.849 425.36 25.1108L423.68 24.8722C423.813 24.4081 424.031 24.0204 424.336 23.7088C424.641 23.3939 425.014 23.1586 425.455 23.0028C425.896 22.8438 426.383 22.7642 426.916 22.7642C427.284 22.7642 427.651 22.8073 428.015 22.8935C428.38 22.9796 428.713 23.1222 429.014 23.321C429.316 23.5166 429.558 23.7834 429.74 24.1214C429.926 24.4595 430.019 24.8821 430.019 25.3892V30.5H428.289V29.451H428.229C428.12 29.6631 427.965 29.862 427.767 30.0476C427.571 30.2299 427.324 30.3774 427.026 30.4901C426.731 30.5994 426.384 30.6541 425.987 30.6541ZM426.454 29.3317C426.815 29.3317 427.129 29.2604 427.394 29.1179C427.659 28.9721 427.863 28.7798 428.005 28.5412C428.151 28.3026 428.224 28.0424 428.224 27.7607V26.8608C428.168 26.9072 428.072 26.9503 427.936 26.9901C427.803 27.0298 427.654 27.0646 427.488 27.0945C427.322 27.1243 427.158 27.1508 426.996 27.174C426.834 27.1972 426.693 27.2171 426.573 27.2337C426.305 27.2701 426.065 27.3298 425.853 27.4126C425.64 27.4955 425.473 27.6115 425.35 27.7607C425.228 27.9065 425.166 28.0954 425.166 28.3274C425.166 28.6589 425.287 28.9091 425.529 29.0781C425.771 29.2472 426.08 29.3317 426.454 29.3317ZM431.548 30.5V22.8636H433.293V24.1364H433.373C433.512 23.6955 433.751 23.3558 434.089 23.1172C434.43 22.8752 434.82 22.7543 435.257 22.7543C435.357 22.7543 435.468 22.7592 435.59 22.7692C435.716 22.7758 435.821 22.7874 435.904 22.804V24.4595C435.827 24.433 435.706 24.4098 435.541 24.3899C435.378 24.3667 435.221 24.3551 435.068 24.3551C434.74 24.3551 434.445 24.4264 434.183 24.5689C433.925 24.7081 433.721 24.902 433.572 25.1506C433.423 25.3991 433.348 25.6858 433.348 26.0107V30.5H431.548ZM439.836 30.6491C439.073 30.6491 438.419 30.4818 437.872 30.147C437.328 29.8123 436.909 29.3499 436.614 28.7599C436.322 28.1667 436.177 27.4839 436.177 26.7116C436.177 25.9361 436.326 25.2517 436.624 24.6584C436.922 24.0618 437.343 23.5978 437.887 23.2663C438.434 22.9316 439.08 22.7642 439.826 22.7642C440.446 22.7642 440.994 22.8786 441.471 23.1072C441.952 23.3326 442.335 23.6525 442.62 24.0668C442.905 24.4777 443.067 24.9583 443.107 25.5085H441.387C441.317 25.1406 441.151 24.834 440.89 24.5888C440.631 24.3402 440.285 24.2159 439.851 24.2159C439.483 24.2159 439.16 24.3153 438.881 24.5142C438.603 24.7098 438.386 24.9915 438.23 25.3594C438.077 25.7273 438.001 26.1681 438.001 26.6818C438.001 27.2022 438.077 27.6496 438.23 28.0241C438.382 28.3954 438.596 28.6821 438.871 28.8842C439.15 29.0831 439.476 29.1825 439.851 29.1825C440.116 29.1825 440.353 29.1328 440.562 29.0334C440.774 28.9306 440.951 28.7831 441.093 28.5909C441.236 28.3987 441.334 28.165 441.387 27.8899H443.107C443.064 28.4302 442.905 28.9091 442.63 29.3267C442.355 29.741 441.98 30.0658 441.506 30.3011C441.032 30.5331 440.475 30.6491 439.836 30.6491ZM446.105 26.0256V30.5H444.305V20.3182H446.065V24.1612H446.154C446.333 23.7304 446.61 23.3906 446.984 23.142C447.362 22.8902 447.843 22.7642 448.426 22.7642C448.957 22.7642 449.419 22.8752 449.813 23.0973C450.208 23.3194 450.513 23.6442 450.728 24.0717C450.947 24.4993 451.056 25.0213 451.056 25.6378V30.5H449.256V25.9162C449.256 25.4025 449.124 25.0031 448.859 24.718C448.597 24.4297 448.229 24.2855 447.755 24.2855C447.437 24.2855 447.152 24.3551 446.9 24.4943C446.651 24.6302 446.456 24.8274 446.313 25.0859C446.174 25.3445 446.105 25.6577 446.105 26.0256Z" fill="url(#paint1_linear_167_1822)"/>
</g>
<defs>
<filter id="filter0_b_167_1822" x="-4" y="-3.5" width="488" height="57" filterUnits="userSpaceOnUse" color-interpolation-filters="sRGB">
<feFlood flood-opacity="0" result="BackgroundImageFix"/>
<feGaussianBlur in="BackgroundImageFix" stdDeviation="2"/>
<feComposite in2="SourceAlpha" operator="in" result="effect1_backgroundBlur_167_1822"/>
<feBlend mode="normal" in="SourceGraphic" in2="effect1_backgroundBlur_167_1822" result="shape"/>
</filter>
<radialGradient id="paint0_radial_167_1822" cx="0" cy="0" r="1" gradientUnits="userSpaceOnUse" gradientTransform="translate(429 25) scale(101.05 44.075)">
<stop stop-color="white" stop-opacity="0.24"/>
<stop offset="1" stop-color="white" stop-opacity="0"/>
</radialGradient>
<linearGradient id="paint1_linear_167_1822" x1="429" y1="16.5" x2="429" y2="33.5" gradientUnits="userSpaceOnUse">
<stop stop-color="white" stop-opacity="0.3"/>
<stop offset="0.525" stop-color="white"/>
</linearGradient>
</defs>
</svg>
