<svg width="1310" height="26" viewBox="0 0 1310 26" fill="none" xmlns="http://www.w3.org/2000/svg">
<mask id="mask0_167_349" style="mask-type:alpha" maskUnits="userSpaceOnUse" x="0" y="2" width="24" height="24">
<rect y="2" width="24" height="24" fill="#D9D9D9"/>
</mask>
<g mask="url(#mask0_167_349)">
<path d="M10.2789 19.5V18H13.7115V19.5H10.2789ZM6.40388 14.75V13.25H17.5865V14.75H6.40388ZM3.50003 9.99998V8.5H20.5V9.99998H3.50003Z" fill="white" fill-opacity="0.6"/>
</g>
<path d="M37.1477 19.5V7.86364H44.6023V9.63068H39.2557V12.7898H44.0909V14.5568H39.2557V19.5H37.1477ZM46.1118 19.5V10.7727H48.1686V19.5H46.1118ZM47.1459 9.53409C46.8202 9.53409 46.5398 9.42614 46.305 9.21023C46.0702 8.99053 45.9527 8.72727 45.9527 8.42045C45.9527 8.10985 46.0702 7.84659 46.305 7.63068C46.5398 7.41098 46.8202 7.30114 47.1459 7.30114C47.4755 7.30114 47.7558 7.41098 47.9868 7.63068C48.2217 7.84659 48.3391 8.10985 48.3391 8.42045C48.3391 8.72727 48.2217 8.99053 47.9868 9.21023C47.7558 9.42614 47.4755 9.53409 47.1459 9.53409ZM52.0205 7.86364V19.5H49.9637V7.86364H52.0205ZM58.1735 10.7727V12.3636H53.1565V10.7727H58.1735ZM54.3951 8.68182H56.4519V16.875C56.4519 17.1515 56.4936 17.3636 56.5769 17.5114C56.6641 17.6553 56.7777 17.7538 56.9178 17.8068C57.058 17.8598 57.2133 17.8864 57.3838 17.8864C57.5125 17.8864 57.63 17.8769 57.736 17.858C57.8459 17.839 57.9292 17.822 57.986 17.8068L58.3326 19.4148C58.2228 19.4527 58.0656 19.4943 57.861 19.5398C57.6603 19.5852 57.4141 19.6117 57.1224 19.6193C56.6072 19.6345 56.1432 19.5568 55.7303 19.3864C55.3175 19.2121 54.9898 18.9432 54.7474 18.5795C54.5088 18.2159 54.3913 17.7614 54.3951 17.2159V8.68182ZM63.3436 19.6705C62.4686 19.6705 61.7129 19.4886 61.0765 19.125C60.444 18.7576 59.9572 18.2386 59.6163 17.5682C59.2754 16.8939 59.1049 16.1004 59.1049 15.1875C59.1049 14.2898 59.2754 13.5019 59.6163 12.8239C59.961 12.142 60.4421 11.6117 61.0595 11.233C61.6769 10.8504 62.4023 10.6591 63.2356 10.6591C63.7735 10.6591 64.2811 10.7462 64.7584 10.9205C65.2394 11.0909 65.6637 11.3561 66.0311 11.7159C66.4023 12.0758 66.694 12.5341 66.9061 13.0909C67.1182 13.6439 67.2243 14.303 67.2243 15.0682V15.6989H60.0709V14.3125H65.2527C65.2489 13.9186 65.1637 13.5682 64.997 13.2614C64.8303 12.9508 64.5974 12.7064 64.2981 12.5284C64.0027 12.3504 63.658 12.2614 63.264 12.2614C62.8436 12.2614 62.4743 12.3636 62.1561 12.5682C61.8379 12.7689 61.5898 13.0341 61.4118 13.3636C61.2375 13.6894 61.1485 14.0473 61.1447 14.4375V15.6477C61.1447 16.1553 61.2375 16.5909 61.4231 16.9545C61.6087 17.3144 61.8682 17.5909 62.2015 17.7841C62.5349 17.9735 62.925 18.0682 63.372 18.0682C63.6712 18.0682 63.9421 18.0265 64.1845 17.9432C64.4269 17.8561 64.6371 17.7292 64.8152 17.5625C64.9932 17.3958 65.1277 17.1894 65.2186 16.9432L67.139 17.1591C67.0178 17.6667 66.7868 18.1098 66.4459 18.4886C66.1087 18.8636 65.6769 19.1553 65.1504 19.3636C64.6239 19.5682 64.0216 19.6705 63.3436 19.6705ZM68.6443 19.5V10.7727H70.6386V12.2273H70.7295C70.8886 11.7235 71.1614 11.3352 71.5477 11.0625C71.9379 10.786 72.383 10.6477 72.883 10.6477C72.9966 10.6477 73.1235 10.6534 73.2636 10.6648C73.4076 10.6723 73.5269 10.6856 73.6216 10.7045V12.5966C73.5345 12.5663 73.3962 12.5398 73.2068 12.517C73.0212 12.4905 72.8413 12.4773 72.667 12.4773C72.292 12.4773 71.9549 12.5587 71.6557 12.7216C71.3602 12.8807 71.1273 13.1023 70.9568 13.3864C70.7864 13.6705 70.7011 13.9981 70.7011 14.3693V19.5H68.6443Z" fill="white" fill-opacity="0.6"/>
<path d="M200.636 8.63068V6.86364H209.92V8.63068H206.324V18.5H204.233V8.63068H200.636ZM211.578 21.7727C211.297 21.7727 211.038 21.75 210.799 21.7045C210.564 21.6629 210.377 21.6136 210.237 21.5568L210.714 19.9545C211.013 20.0417 211.28 20.0833 211.515 20.0795C211.75 20.0758 211.957 20.0019 212.135 19.858C212.316 19.7178 212.47 19.483 212.595 19.1534L212.771 18.6818L209.606 9.77273H211.788L213.799 16.3636H213.89L215.907 9.77273H218.095L214.6 19.5568C214.438 20.0189 214.222 20.4148 213.953 20.7443C213.684 21.0777 213.354 21.3314 212.964 21.5057C212.578 21.6837 212.116 21.7727 211.578 21.7727ZM219.198 21.7727V9.77273H221.221V11.2159H221.34C221.446 11.0038 221.596 10.7784 221.789 10.5398C221.982 10.2973 222.244 10.0909 222.573 9.92045C222.903 9.74621 223.323 9.65909 223.834 9.65909C224.509 9.65909 225.117 9.83144 225.658 10.1761C226.204 10.517 226.636 11.0227 226.954 11.6932C227.276 12.3598 227.437 13.178 227.437 14.1477C227.437 15.1061 227.28 15.9205 226.965 16.5909C226.651 17.2614 226.223 17.7727 225.681 18.125C225.139 18.4773 224.526 18.6534 223.84 18.6534C223.34 18.6534 222.925 18.5701 222.596 18.4034C222.266 18.2367 222.001 18.036 221.8 17.8011C221.603 17.5625 221.45 17.3371 221.34 17.125H221.255V21.7727H219.198ZM221.215 14.1364C221.215 14.7008 221.295 15.1951 221.454 15.6193C221.617 16.0436 221.85 16.375 222.153 16.6136C222.459 16.8485 222.831 16.9659 223.266 16.9659C223.721 16.9659 224.101 16.8447 224.408 16.6023C224.715 16.3561 224.946 16.0208 225.101 15.5966C225.261 15.1686 225.34 14.6818 225.34 14.1364C225.34 13.5947 225.262 13.1136 225.107 12.6932C224.952 12.2727 224.721 11.9432 224.414 11.7045C224.107 11.4659 223.725 11.3466 223.266 11.3466C222.827 11.3466 222.454 11.4621 222.147 11.6932C221.84 11.9242 221.607 12.2481 221.448 12.6648C221.293 13.0814 221.215 13.572 221.215 14.1364ZM232.742 18.6705C231.867 18.6705 231.111 18.4886 230.475 18.125C229.842 17.7576 229.355 17.2386 229.014 16.5682C228.674 15.8939 228.503 15.1004 228.503 14.1875C228.503 13.2898 228.674 12.5019 229.014 11.8239C229.359 11.142 229.84 10.6117 230.458 10.233C231.075 9.85038 231.8 9.65909 232.634 9.65909C233.172 9.65909 233.679 9.74621 234.156 9.92045C234.638 10.0909 235.062 10.3561 235.429 10.7159C235.8 11.0758 236.092 11.5341 236.304 12.0909C236.516 12.6439 236.622 13.303 236.622 14.0682V14.6989H229.469V13.3125H234.651C234.647 12.9186 234.562 12.5682 234.395 12.2614C234.228 11.9508 233.995 11.7064 233.696 11.5284C233.401 11.3504 233.056 11.2614 232.662 11.2614C232.242 11.2614 231.872 11.3636 231.554 11.5682C231.236 11.7689 230.988 12.0341 230.81 12.3636C230.636 12.6894 230.547 13.0473 230.543 13.4375V14.6477C230.543 15.1553 230.636 15.5909 230.821 15.9545C231.007 16.3144 231.266 16.5909 231.6 16.7841C231.933 16.9735 232.323 17.0682 232.77 17.0682C233.069 17.0682 233.34 17.0265 233.583 16.9432C233.825 16.8561 234.035 16.7292 234.213 16.5625C234.391 16.3958 234.526 16.1894 234.617 15.9432L236.537 16.1591C236.416 16.6667 236.185 17.1098 235.844 17.4886C235.507 17.8636 235.075 18.1553 234.549 18.3636C234.022 18.5682 233.42 18.6705 232.742 18.6705Z" fill="white"/>
<path d="M251.886 19H250.409L254.682 7.36364H256.136L260.409 19H258.932L255.455 9.20455H255.364L251.886 19ZM252.432 14.4545H258.386V15.7045H252.432V14.4545ZM263.061 7.36364V19H261.72V7.36364H263.061ZM266.538 7.36364V19H265.197V7.36364H266.538Z" fill="white" fill-opacity="0.6"/>
<mask id="mask1_167_349" style="mask-type:alpha" maskUnits="userSpaceOnUse" x="398" y="1" width="24" height="24">
<rect x="398" y="1" width="24" height="24" fill="#D9D9D9"/>
</mask>
<g mask="url(#mask1_167_349)">
<path d="M410 16.0384L404.346 10.3846L405.4 9.33081L410 13.9308L414.6 9.33081L415.654 10.3846L410 16.0384Z" fill="white" fill-opacity="0.6"/>
</g>
<path d="M463.091 18.5H459.148V6.86364H463.17C464.326 6.86364 465.318 7.09659 466.148 7.5625C466.981 8.02462 467.621 8.68939 468.068 9.55682C468.515 10.4242 468.739 11.4621 468.739 12.6705C468.739 13.8826 468.513 14.9242 468.062 15.7955C467.616 16.6667 466.97 17.3352 466.125 17.8011C465.284 18.267 464.273 18.5 463.091 18.5ZM461.256 16.6761H462.989C463.799 16.6761 464.475 16.5284 465.017 16.233C465.559 15.9337 465.966 15.4886 466.239 14.8977C466.511 14.303 466.648 13.5606 466.648 12.6705C466.648 11.7803 466.511 11.0417 466.239 10.4545C465.966 9.86364 465.563 9.42235 465.028 9.13068C464.498 8.83523 463.839 8.6875 463.051 8.6875H461.256V16.6761ZM470.331 18.5V9.77273H472.387V18.5H470.331ZM471.365 8.53409C471.039 8.53409 470.759 8.42614 470.524 8.21023C470.289 7.99053 470.171 7.72727 470.171 7.42045C470.171 7.10985 470.289 6.84659 470.524 6.63068C470.759 6.41098 471.039 6.30114 471.365 6.30114C471.694 6.30114 471.975 6.41098 472.206 6.63068C472.44 6.84659 472.558 7.10985 472.558 7.42045C472.558 7.72727 472.44 7.99053 472.206 8.21023C471.975 8.42614 471.694 8.53409 471.365 8.53409ZM478.046 18.6705C477.171 18.6705 476.415 18.4886 475.779 18.125C475.146 17.7576 474.66 17.2386 474.319 16.5682C473.978 15.8939 473.807 15.1004 473.807 14.1875C473.807 13.2898 473.978 12.5019 474.319 11.8239C474.664 11.142 475.145 10.6117 475.762 10.233C476.379 9.85038 477.105 9.65909 477.938 9.65909C478.476 9.65909 478.984 9.74621 479.461 9.92045C479.942 10.0909 480.366 10.3561 480.734 10.7159C481.105 11.0758 481.396 11.5341 481.609 12.0909C481.821 12.6439 481.927 13.303 481.927 14.0682V14.6989H474.773V13.3125H479.955C479.951 12.9186 479.866 12.5682 479.699 12.2614C479.533 11.9508 479.3 11.7064 479.001 11.5284C478.705 11.3504 478.36 11.2614 477.967 11.2614C477.546 11.2614 477.177 11.3636 476.859 11.5682C476.54 11.7689 476.292 12.0341 476.114 12.3636C475.94 12.6894 475.851 13.0473 475.847 13.4375V14.6477C475.847 15.1553 475.94 15.5909 476.126 15.9545C476.311 16.3144 476.571 16.5909 476.904 16.7841C477.237 16.9735 477.628 17.0682 478.074 17.0682C478.374 17.0682 478.645 17.0265 478.887 16.9432C479.129 16.8561 479.34 16.7292 479.518 16.5625C479.696 16.3958 479.83 16.1894 479.921 15.9432L481.842 16.1591C481.72 16.6667 481.489 17.1098 481.148 17.4886C480.811 17.8636 480.379 18.1553 479.853 18.3636C479.326 18.5682 478.724 18.6705 478.046 18.6705ZM487.705 9.77273V11.3636H482.688V9.77273H487.705ZM483.926 7.68182H485.983V15.875C485.983 16.1515 486.025 16.3636 486.108 16.5114C486.195 16.6553 486.309 16.7538 486.449 16.8068C486.589 16.8598 486.745 16.8864 486.915 16.8864C487.044 16.8864 487.161 16.8769 487.267 16.858C487.377 16.839 487.46 16.822 487.517 16.8068L487.864 18.4148C487.754 18.4527 487.597 18.4943 487.392 18.5398C487.192 18.5852 486.945 18.6117 486.654 18.6193C486.138 18.6345 485.674 18.5568 485.262 18.3864C484.849 18.2121 484.521 17.9432 484.279 17.5795C484.04 17.2159 483.923 16.7614 483.926 16.2159V7.68182Z" fill="white"/>
<path d="M502.886 19H501.409L505.682 7.36364H507.136L511.409 19H509.932L506.455 9.20455H506.364L502.886 19ZM503.432 14.4545H509.386V15.7045H503.432V14.4545ZM514.061 7.36364V19H512.72V7.36364H514.061ZM517.538 7.36364V19H516.197V7.36364H517.538Z" fill="white" fill-opacity="0.6"/>
<mask id="mask2_167_349" style="mask-type:alpha" maskUnits="userSpaceOnUse" x="649" y="1" width="24" height="24">
<rect x="649" y="1" width="24" height="24" fill="#D9D9D9"/>
</mask>
<g mask="url(#mask2_167_349)">
<path d="M661 16.0384L655.346 10.3846L656.4 9.33081L661 13.9308L665.6 9.33081L666.654 10.3846L661 16.0384Z" fill="white" fill-opacity="0.6"/>
</g>
<path d="M711.642 18.5H709.392L713.489 6.86364H716.091L720.193 18.5H717.943L714.835 9.25H714.744L711.642 18.5ZM711.716 13.9375H717.852V15.6307H711.716V13.9375ZM728.017 9.77273L724.909 18.5H722.636L719.528 9.77273H721.721L723.727 16.2557H723.818L725.829 9.77273H728.017ZM731.381 18.6761C730.828 18.6761 730.33 18.5777 729.887 18.3807C729.448 18.1799 729.099 17.8845 728.842 17.4943C728.588 17.1042 728.461 16.6231 728.461 16.0511C728.461 15.5587 728.552 15.1515 728.734 14.8295C728.915 14.5076 729.164 14.25 729.478 14.0568C729.792 13.8636 730.146 13.7178 730.54 13.6193C730.938 13.517 731.349 13.4432 731.773 13.3977C732.285 13.3447 732.699 13.2973 733.018 13.2557C733.336 13.2102 733.567 13.142 733.711 13.0511C733.859 12.9564 733.932 12.8106 733.932 12.6136V12.5795C733.932 12.1515 733.806 11.8201 733.552 11.5852C733.298 11.3504 732.932 11.233 732.455 11.233C731.951 11.233 731.552 11.3428 731.256 11.5625C730.965 11.7822 730.768 12.0417 730.665 12.3409L728.745 12.0682C728.896 11.5379 729.146 11.0947 729.495 10.7386C729.843 10.3788 730.27 10.1098 730.773 9.93182C731.277 9.75 731.834 9.65909 732.444 9.65909C732.864 9.65909 733.283 9.70833 733.699 9.80682C734.116 9.9053 734.497 10.0682 734.842 10.2955C735.186 10.5189 735.463 10.8239 735.671 11.2102C735.883 11.5966 735.989 12.0795 735.989 12.6591V18.5H734.012V17.3011H733.944C733.819 17.5436 733.643 17.7708 733.415 17.983C733.192 18.1913 732.91 18.3598 732.569 18.4886C732.232 18.6136 731.836 18.6761 731.381 18.6761ZM731.915 17.1648C732.328 17.1648 732.686 17.0833 732.989 16.9205C733.292 16.7538 733.525 16.5341 733.688 16.2614C733.855 15.9886 733.938 15.6913 733.938 15.3693V14.3409C733.874 14.3939 733.764 14.4432 733.609 14.4886C733.457 14.5341 733.287 14.5739 733.097 14.608C732.908 14.642 732.72 14.6723 732.535 14.6989C732.349 14.7254 732.188 14.7481 732.052 14.767C731.745 14.8087 731.47 14.8769 731.228 14.9716C730.985 15.0663 730.794 15.1989 730.654 15.3693C730.514 15.536 730.444 15.7519 730.444 16.017C730.444 16.3958 730.582 16.6818 730.859 16.875C731.135 17.0682 731.487 17.1648 731.915 17.1648ZM737.737 18.5V9.77273H739.794V18.5H737.737ZM738.772 8.53409C738.446 8.53409 738.165 8.42614 737.931 8.21023C737.696 7.99053 737.578 7.72727 737.578 7.42045C737.578 7.10985 737.696 6.84659 737.931 6.63068C738.165 6.41098 738.446 6.30114 738.772 6.30114C739.101 6.30114 739.381 6.41098 739.612 6.63068C739.847 6.84659 739.965 7.10985 739.965 7.42045C739.965 7.72727 739.847 7.99053 739.612 8.21023C739.381 8.42614 739.101 8.53409 738.772 8.53409ZM743.646 6.86364V18.5H741.589V6.86364H743.646ZM747.953 18.6761C747.4 18.6761 746.901 18.5777 746.458 18.3807C746.019 18.1799 745.67 17.8845 745.413 17.4943C745.159 17.1042 745.032 16.6231 745.032 16.0511C745.032 15.5587 745.123 15.1515 745.305 14.8295C745.487 14.5076 745.735 14.25 746.049 14.0568C746.364 13.8636 746.718 13.7178 747.112 13.6193C747.509 13.517 747.92 13.4432 748.345 13.3977C748.856 13.3447 749.271 13.2973 749.589 13.2557C749.907 13.2102 750.138 13.142 750.282 13.0511C750.43 12.9564 750.504 12.8106 750.504 12.6136V12.5795C750.504 12.1515 750.377 11.8201 750.123 11.5852C749.869 11.3504 749.504 11.233 749.026 11.233C748.523 11.233 748.123 11.3428 747.828 11.5625C747.536 11.7822 747.339 12.0417 747.237 12.3409L745.316 12.0682C745.468 11.5379 745.718 11.0947 746.066 10.7386C746.415 10.3788 746.841 10.1098 747.345 9.93182C747.848 9.75 748.405 9.65909 749.015 9.65909C749.436 9.65909 749.854 9.70833 750.271 9.80682C750.687 9.9053 751.068 10.0682 751.413 10.2955C751.757 10.5189 752.034 10.8239 752.242 11.2102C752.454 11.5966 752.561 12.0795 752.561 12.6591V18.5H750.583V17.3011H750.515C750.39 17.5436 750.214 17.7708 749.987 17.983C749.763 18.1913 749.481 18.3598 749.14 18.4886C748.803 18.6136 748.407 18.6761 747.953 18.6761ZM748.487 17.1648C748.9 17.1648 749.257 17.0833 749.561 16.9205C749.864 16.7538 750.096 16.5341 750.259 16.2614C750.426 15.9886 750.509 15.6913 750.509 15.3693V14.3409C750.445 14.3939 750.335 14.4432 750.18 14.4886C750.028 14.5341 749.858 14.5739 749.668 14.608C749.479 14.642 749.292 14.6723 749.106 14.6989C748.92 14.7254 748.759 14.7481 748.623 14.767C748.316 14.8087 748.042 14.8769 747.799 14.9716C747.557 15.0663 747.365 15.1989 747.225 15.3693C747.085 15.536 747.015 15.7519 747.015 16.017C747.015 16.3958 747.153 16.6818 747.43 16.875C747.706 17.0682 748.059 17.1648 748.487 17.1648ZM754.4 18.5V6.86364H756.456V11.2159H756.542C756.648 11.0038 756.797 10.7784 756.991 10.5398C757.184 10.2973 757.445 10.0909 757.775 9.92045C758.104 9.74621 758.525 9.65909 759.036 9.65909C759.71 9.65909 760.318 9.83144 760.86 10.1761C761.405 10.517 761.837 11.0227 762.155 11.6932C762.477 12.3598 762.638 13.178 762.638 14.1477C762.638 15.1061 762.481 15.9205 762.167 16.5909C761.852 17.2614 761.424 17.7727 760.883 18.125C760.341 18.4773 759.727 18.6534 759.042 18.6534C758.542 18.6534 758.127 18.5701 757.797 18.4034C757.468 18.2367 757.203 18.036 757.002 17.8011C756.805 17.5625 756.651 17.3371 756.542 17.125H756.422V18.5H754.4ZM756.417 14.1364C756.417 14.7008 756.496 15.1951 756.655 15.6193C756.818 16.0436 757.051 16.375 757.354 16.6136C757.661 16.8485 758.032 16.9659 758.468 16.9659C758.922 16.9659 759.303 16.8447 759.61 16.6023C759.917 16.3561 760.148 16.0208 760.303 15.5966C760.462 15.1686 760.542 14.6818 760.542 14.1364C760.542 13.5947 760.464 13.1136 760.309 12.6932C760.153 12.2727 759.922 11.9432 759.616 11.7045C759.309 11.4659 758.926 11.3466 758.468 11.3466C758.028 11.3466 757.655 11.4621 757.348 11.6932C757.042 11.9242 756.809 12.2481 756.65 12.6648C756.494 13.0814 756.417 13.572 756.417 14.1364ZM764.067 18.5V9.77273H766.124V18.5H764.067ZM765.101 8.53409C764.775 8.53409 764.495 8.42614 764.26 8.21023C764.025 7.99053 763.908 7.72727 763.908 7.42045C763.908 7.10985 764.025 6.84659 764.26 6.63068C764.495 6.41098 764.775 6.30114 765.101 6.30114C765.43 6.30114 765.711 6.41098 765.942 6.63068C766.177 6.84659 766.294 7.10985 766.294 7.42045C766.294 7.72727 766.177 7.99053 765.942 8.21023C765.711 8.42614 765.43 8.53409 765.101 8.53409ZM769.976 6.86364V18.5H767.919V6.86364H769.976ZM771.771 18.5V9.77273H773.827V18.5H771.771ZM772.805 8.53409C772.479 8.53409 772.199 8.42614 771.964 8.21023C771.729 7.99053 771.611 7.72727 771.611 7.42045C771.611 7.10985 771.729 6.84659 771.964 6.63068C772.199 6.41098 772.479 6.30114 772.805 6.30114C773.134 6.30114 773.415 6.41098 773.646 6.63068C773.88 6.84659 773.998 7.10985 773.998 7.42045C773.998 7.72727 773.88 7.99053 773.646 8.21023C773.415 8.42614 773.134 8.53409 772.805 8.53409ZM779.98 9.77273V11.3636H774.963V9.77273H779.98ZM776.202 7.68182H778.259V15.875C778.259 16.1515 778.3 16.3636 778.384 16.5114C778.471 16.6553 778.585 16.7538 778.725 16.8068C778.865 16.8598 779.02 16.8864 779.191 16.8864C779.319 16.8864 779.437 16.8769 779.543 16.858C779.653 16.839 779.736 16.822 779.793 16.8068L780.139 18.4148C780.03 18.4527 779.872 18.4943 779.668 18.5398C779.467 18.5852 779.221 18.6117 778.929 18.6193C778.414 18.6345 777.95 18.5568 777.537 18.3864C777.124 18.2121 776.797 17.9432 776.554 17.5795C776.316 17.2159 776.198 16.7614 776.202 16.2159V7.68182ZM782.659 21.7727C782.379 21.7727 782.119 21.75 781.881 21.7045C781.646 21.6629 781.458 21.6136 781.318 21.5568L781.795 19.9545C782.095 20.0417 782.362 20.0833 782.596 20.0795C782.831 20.0758 783.038 20.0019 783.216 19.858C783.398 19.7178 783.551 19.483 783.676 19.1534L783.852 18.6818L780.687 9.77273H782.869L784.881 16.3636H784.971L786.989 9.77273H789.176L785.682 19.5568C785.519 20.0189 785.303 20.4148 785.034 20.7443C784.765 21.0777 784.435 21.3314 784.045 21.5057C783.659 21.6837 783.197 21.7727 782.659 21.7727Z" fill="white"/>
<path d="M811.045 7.36364H812.455V15.0682C812.455 15.8636 812.267 16.5739 811.892 17.1989C811.521 17.8201 810.996 18.3106 810.318 18.6705C809.64 19.0265 808.845 19.2045 807.932 19.2045C807.019 19.2045 806.223 19.0265 805.545 18.6705C804.867 18.3106 804.341 17.8201 803.966 17.1989C803.595 16.5739 803.409 15.8636 803.409 15.0682V7.36364H804.818V14.9545C804.818 15.5227 804.943 16.0284 805.193 16.4716C805.443 16.911 805.799 17.2576 806.261 17.5114C806.727 17.7614 807.284 17.8864 807.932 17.8864C808.58 17.8864 809.136 17.7614 809.602 17.5114C810.068 17.2576 810.424 16.911 810.67 16.4716C810.92 16.0284 811.045 15.5227 811.045 14.9545V7.36364ZM820.948 12.2273L819.744 12.5682C819.668 12.3674 819.556 12.1723 819.409 11.983C819.265 11.7898 819.068 11.6307 818.818 11.5057C818.568 11.3807 818.248 11.3182 817.858 11.3182C817.323 11.3182 816.878 11.4413 816.522 11.6875C816.17 11.9299 815.994 12.2386 815.994 12.6136C815.994 12.947 816.115 13.2102 816.358 13.4034C816.6 13.5966 816.979 13.7576 817.494 13.8864L818.789 14.2045C819.57 14.3939 820.151 14.6837 820.534 15.0739C820.916 15.4602 821.108 15.9583 821.108 16.5682C821.108 17.0682 820.964 17.5152 820.676 17.9091C820.392 18.303 819.994 18.6136 819.483 18.8409C818.971 19.0682 818.376 19.1818 817.698 19.1818C816.808 19.1818 816.072 18.9886 815.488 18.6023C814.905 18.2159 814.536 17.6515 814.38 16.9091L815.653 16.5909C815.774 17.0606 816.003 17.4129 816.341 17.6477C816.681 17.8826 817.126 18 817.676 18C818.301 18 818.797 17.8674 819.164 17.6023C819.536 17.3333 819.721 17.0114 819.721 16.6364C819.721 16.3333 819.615 16.0795 819.403 15.875C819.191 15.6667 818.865 15.5114 818.426 15.4091L816.971 15.0682C816.172 14.8788 815.585 14.5852 815.21 14.1875C814.839 13.786 814.653 13.2841 814.653 12.6818C814.653 12.1894 814.791 11.7538 815.068 11.375C815.348 10.9962 815.729 10.6989 816.21 10.483C816.695 10.267 817.244 10.1591 817.858 10.1591C818.721 10.1591 819.399 10.3485 819.892 10.7273C820.388 11.1061 820.74 11.6061 820.948 12.2273ZM826.465 19.1818C825.624 19.1818 824.899 18.9962 824.289 18.625C823.683 18.25 823.215 17.7273 822.886 17.0568C822.56 16.3826 822.397 15.5985 822.397 14.7045C822.397 13.8106 822.56 13.0227 822.886 12.3409C823.215 11.6553 823.673 11.1212 824.261 10.7386C824.851 10.3523 825.541 10.1591 826.329 10.1591C826.783 10.1591 827.232 10.2348 827.675 10.3864C828.119 10.5379 828.522 10.7841 828.886 11.125C829.249 11.4621 829.539 11.9091 829.755 12.4659C829.971 13.0227 830.079 13.7083 830.079 14.5227V15.0909H823.351V13.9318H828.715C828.715 13.4394 828.617 13 828.42 12.6136C828.226 12.2273 827.95 11.9223 827.59 11.6989C827.234 11.4754 826.814 11.3636 826.329 11.3636C825.795 11.3636 825.333 11.4962 824.942 11.7614C824.556 12.0227 824.259 12.3636 824.05 12.7841C823.842 13.2045 823.738 13.6553 823.738 14.1364V14.9091C823.738 15.5682 823.851 16.1269 824.079 16.5852C824.31 17.0398 824.63 17.3864 825.039 17.625C825.448 17.8598 825.923 17.9773 826.465 17.9773C826.817 17.9773 827.136 17.928 827.42 17.8295C827.708 17.7273 827.956 17.5758 828.164 17.375C828.372 17.1705 828.533 16.9167 828.647 16.6136L829.942 16.9773C829.806 17.4167 829.577 17.803 829.255 18.1364C828.933 18.4659 828.535 18.7235 828.062 18.9091C827.588 19.0909 827.056 19.1818 826.465 19.1818ZM839.524 19.1818C838.736 19.1818 838.045 18.9943 837.45 18.6193C836.859 18.2443 836.397 17.7197 836.064 17.0455C835.734 16.3712 835.569 15.5833 835.569 14.6818C835.569 13.7727 835.734 12.9792 836.064 12.3011C836.397 11.6231 836.859 11.0966 837.45 10.7216C838.045 10.3466 838.736 10.1591 839.524 10.1591C840.312 10.1591 841.001 10.3466 841.592 10.7216C842.187 11.0966 842.649 11.6231 842.979 12.3011C843.312 12.9792 843.479 13.7727 843.479 14.6818C843.479 15.5833 843.312 16.3712 842.979 17.0455C842.649 17.7197 842.187 18.2443 841.592 18.6193C841.001 18.9943 840.312 19.1818 839.524 19.1818ZM839.524 17.9773C840.122 17.9773 840.615 17.8239 841.001 17.517C841.388 17.2102 841.674 16.8068 841.859 16.3068C842.045 15.8068 842.138 15.2652 842.138 14.6818C842.138 14.0985 842.045 13.5549 841.859 13.0511C841.674 12.5473 841.388 12.1402 841.001 11.8295C840.615 11.5189 840.122 11.3636 839.524 11.3636C838.925 11.3636 838.433 11.5189 838.047 11.8295C837.66 12.1402 837.374 12.5473 837.189 13.0511C837.003 13.5549 836.91 14.0985 836.91 14.6818C836.91 15.2652 837.003 15.8068 837.189 16.3068C837.374 16.8068 837.66 17.2102 838.047 17.517C838.433 17.8239 838.925 17.9773 839.524 17.9773ZM846.546 13.75V19H845.205V10.2727H846.501V11.6364H846.614C846.819 11.1932 847.13 10.8371 847.546 10.5682C847.963 10.2955 848.501 10.1591 849.16 10.1591C849.751 10.1591 850.268 10.2803 850.711 10.5227C851.154 10.7614 851.499 11.125 851.745 11.6136C851.991 12.0985 852.114 12.7121 852.114 13.4545V19H850.774V13.5455C850.774 12.8598 850.596 12.3258 850.239 11.9432C849.883 11.5568 849.395 11.3636 848.774 11.3636C848.346 11.3636 847.963 11.4564 847.626 11.642C847.293 11.8277 847.029 12.0985 846.836 12.4545C846.643 12.8106 846.546 13.2424 846.546 13.75ZM855.586 7.36364V19H854.245V7.36364H855.586ZM858.585 22.2727C858.358 22.2727 858.155 22.2538 857.977 22.2159C857.799 22.1818 857.676 22.1477 857.608 22.1136L857.949 20.9318C858.275 21.0152 858.563 21.0455 858.813 21.0227C859.063 21 859.284 20.8883 859.477 20.6875C859.674 20.4905 859.854 20.1705 860.017 19.7273L860.267 19.0455L857.04 10.2727H858.494L860.903 17.2273H860.994L863.403 10.2727H864.858L861.153 20.2727C860.987 20.7235 860.78 21.0966 860.534 21.392C860.288 21.6913 860.002 21.9129 859.676 22.0568C859.354 22.2008 858.991 22.2727 858.585 22.2727ZM872.465 19L869.806 10.2727H871.215L873.102 16.9545H873.192L875.056 10.2727H876.488L878.329 16.9318H878.42L880.306 10.2727H881.715L879.056 19H877.738L875.829 12.2955H875.692L873.783 19H872.465ZM884.509 13.75V19H883.168V7.36364H884.509V11.6364H884.622C884.827 11.1856 885.134 10.8277 885.543 10.5625C885.956 10.2936 886.505 10.1591 887.191 10.1591C887.785 10.1591 888.306 10.2784 888.753 10.517C889.2 10.7519 889.547 11.1136 889.793 11.6023C890.043 12.0871 890.168 12.7045 890.168 13.4545V19H888.827V13.5455C888.827 12.8523 888.647 12.3163 888.287 11.9375C887.931 11.5549 887.437 11.3636 886.804 11.3636C886.365 11.3636 885.971 11.4564 885.622 11.642C885.278 11.8277 885.005 12.0985 884.804 12.4545C884.607 12.8106 884.509 13.2424 884.509 13.75ZM894.869 19.2045C894.316 19.2045 893.814 19.1004 893.364 18.892C892.913 18.6799 892.555 18.375 892.29 17.9773C892.025 17.5758 891.892 17.0909 891.892 16.5227C891.892 16.0227 891.99 15.6174 892.187 15.3068C892.384 14.9924 892.648 14.7462 892.977 14.5682C893.307 14.3902 893.67 14.2576 894.068 14.1705C894.47 14.0795 894.873 14.0076 895.278 13.9545C895.809 13.8864 896.239 13.8352 896.568 13.8011C896.901 13.7633 897.144 13.7008 897.295 13.6136C897.451 13.5265 897.528 13.375 897.528 13.1591V13.1136C897.528 12.553 897.375 12.1174 897.068 11.8068C896.765 11.4962 896.305 11.3409 895.687 11.3409C895.047 11.3409 894.545 11.4811 894.182 11.7614C893.818 12.0417 893.562 12.3409 893.415 12.6591L892.142 12.2045C892.369 11.6742 892.672 11.2614 893.051 10.9659C893.434 10.6667 893.85 10.4583 894.301 10.3409C894.756 10.2197 895.203 10.1591 895.642 10.1591C895.922 10.1591 896.244 10.1932 896.608 10.2614C896.975 10.3258 897.329 10.4602 897.67 10.6648C898.015 10.8693 898.301 11.178 898.528 11.5909C898.756 12.0038 898.869 12.5568 898.869 13.25V19H897.528V17.8182H897.46C897.369 18.0076 897.218 18.2102 897.006 18.4261C896.793 18.642 896.511 18.8258 896.159 18.9773C895.807 19.1288 895.377 19.2045 894.869 19.2045ZM895.074 18C895.604 18 896.051 17.8958 896.415 17.6875C896.782 17.4792 897.059 17.2102 897.244 16.8807C897.434 16.5511 897.528 16.2045 897.528 15.8409V14.6136C897.471 14.6818 897.346 14.7443 897.153 14.8011C896.964 14.8542 896.744 14.9015 896.494 14.9432C896.248 14.9811 896.007 15.0152 895.773 15.0455C895.542 15.072 895.354 15.0947 895.21 15.1136C894.862 15.1591 894.536 15.233 894.233 15.3352C893.934 15.4337 893.691 15.5833 893.506 15.7841C893.324 15.9811 893.233 16.25 893.233 16.5909C893.233 17.0568 893.405 17.4091 893.75 17.6477C894.098 17.8826 894.54 18 895.074 18ZM904.792 10.2727V11.4091H900.269V10.2727H904.792ZM901.588 8.18182H902.928V16.5C902.928 16.8788 902.983 17.1629 903.093 17.3523C903.207 17.5379 903.351 17.6629 903.525 17.7273C903.703 17.7879 903.891 17.8182 904.088 17.8182C904.235 17.8182 904.357 17.8106 904.451 17.7955C904.546 17.7765 904.622 17.7614 904.678 17.75L904.951 18.9545C904.86 18.9886 904.733 19.0227 904.571 19.0568C904.408 19.0947 904.201 19.1136 903.951 19.1136C903.572 19.1136 903.201 19.0322 902.838 18.8693C902.478 18.7064 902.178 18.4583 901.94 18.125C901.705 17.7917 901.588 17.3712 901.588 16.8636V8.18182ZM912.26 7.36364V19H910.851V7.36364H912.26ZM920.104 13.75V19H918.764V7.36364H920.104V11.6364H920.218C920.423 11.1856 920.729 10.8277 921.139 10.5625C921.551 10.2936 922.101 10.1591 922.786 10.1591C923.381 10.1591 923.902 10.2784 924.349 10.517C924.796 10.7519 925.142 11.1136 925.389 11.6023C925.639 12.0871 925.764 12.7045 925.764 13.4545V19H924.423V13.5455C924.423 12.8523 924.243 12.3163 923.883 11.9375C923.527 11.5549 923.032 11.3636 922.4 11.3636C921.96 11.3636 921.567 11.4564 921.218 11.642C920.873 11.8277 920.601 12.0985 920.4 12.4545C920.203 12.8106 920.104 13.2424 920.104 13.75ZM930.465 19.2045C929.912 19.2045 929.41 19.1004 928.959 18.892C928.508 18.6799 928.15 18.375 927.885 17.9773C927.62 17.5758 927.488 17.0909 927.488 16.5227C927.488 16.0227 927.586 15.6174 927.783 15.3068C927.98 14.9924 928.243 14.7462 928.573 14.5682C928.902 14.3902 929.266 14.2576 929.664 14.1705C930.065 14.0795 930.469 14.0076 930.874 13.9545C931.404 13.8864 931.834 13.8352 932.164 13.8011C932.497 13.7633 932.739 13.7008 932.891 13.6136C933.046 13.5265 933.124 13.375 933.124 13.1591V13.1136C933.124 12.553 932.971 12.1174 932.664 11.8068C932.361 11.4962 931.9 11.3409 931.283 11.3409C930.643 11.3409 930.141 11.4811 929.777 11.7614C929.414 12.0417 929.158 12.3409 929.01 12.6591L927.738 12.2045C927.965 11.6742 928.268 11.2614 928.647 10.9659C929.029 10.6667 929.446 10.4583 929.897 10.3409C930.351 10.2197 930.798 10.1591 931.238 10.1591C931.518 10.1591 931.84 10.1932 932.203 10.2614C932.571 10.3258 932.925 10.4602 933.266 10.6648C933.611 10.8693 933.897 11.178 934.124 11.5909C934.351 12.0038 934.465 12.5568 934.465 13.25V19H933.124V17.8182H933.056C932.965 18.0076 932.813 18.2102 932.601 18.4261C932.389 18.642 932.107 18.8258 931.755 18.9773C931.402 19.1288 930.972 19.2045 930.465 19.2045ZM930.669 18C931.2 18 931.647 17.8958 932.01 17.6875C932.378 17.4792 932.654 17.2102 932.84 16.8807C933.029 16.5511 933.124 16.2045 933.124 15.8409V14.6136C933.067 14.6818 932.942 14.7443 932.749 14.8011C932.56 14.8542 932.34 14.9015 932.09 14.9432C931.844 14.9811 931.603 15.0152 931.368 15.0455C931.137 15.072 930.95 15.0947 930.806 15.1136C930.457 15.1591 930.131 15.233 929.828 15.3352C929.529 15.4337 929.287 15.5833 929.101 15.7841C928.919 15.9811 928.828 16.25 928.828 16.5909C928.828 17.0568 929.001 17.4091 929.346 17.6477C929.694 17.8826 930.135 18 930.669 18ZM943.416 10.2727L940.189 19H938.825L935.598 10.2727H937.053L939.462 17.2273H939.553L941.962 10.2727H943.416ZM948.213 19.1818C947.372 19.1818 946.646 18.9962 946.036 18.625C945.43 18.25 944.963 17.7273 944.633 17.0568C944.307 16.3826 944.144 15.5985 944.144 14.7045C944.144 13.8106 944.307 13.0227 944.633 12.3409C944.963 11.6553 945.421 11.1212 946.008 10.7386C946.599 10.3523 947.288 10.1591 948.076 10.1591C948.531 10.1591 948.98 10.2348 949.423 10.3864C949.866 10.5379 950.269 10.7841 950.633 11.125C950.997 11.4621 951.286 11.9091 951.502 12.4659C951.718 13.0227 951.826 13.7083 951.826 14.5227V15.0909H945.099V13.9318H950.463C950.463 13.4394 950.364 13 950.167 12.6136C949.974 12.2273 949.697 11.9223 949.338 11.6989C948.982 11.4754 948.561 11.3636 948.076 11.3636C947.542 11.3636 947.08 11.4962 946.69 11.7614C946.304 12.0227 946.006 12.3636 945.798 12.7841C945.59 13.2045 945.485 13.6553 945.485 14.1364V14.9091C945.485 15.5682 945.599 16.1269 945.826 16.5852C946.057 17.0398 946.377 17.3864 946.786 17.625C947.196 17.8598 947.671 17.9773 948.213 17.9773C948.565 17.9773 948.883 17.928 949.167 17.8295C949.455 17.7273 949.703 17.5758 949.911 17.375C950.12 17.1705 950.281 16.9167 950.394 16.6136L951.69 16.9773C951.554 17.4167 951.324 17.803 951.002 18.1364C950.68 18.4659 950.283 18.7235 949.809 18.9091C949.336 19.0909 948.804 19.1818 948.213 19.1818ZM960.294 19.2045C959.741 19.2045 959.239 19.1004 958.789 18.892C958.338 18.6799 957.98 18.375 957.715 17.9773C957.45 17.5758 957.317 17.0909 957.317 16.5227C957.317 16.0227 957.415 15.6174 957.612 15.3068C957.809 14.9924 958.073 14.7462 958.402 14.5682C958.732 14.3902 959.095 14.2576 959.493 14.1705C959.895 14.0795 960.298 14.0076 960.703 13.9545C961.234 13.8864 961.664 13.8352 961.993 13.8011C962.326 13.7633 962.569 13.7008 962.72 13.6136C962.876 13.5265 962.953 13.375 962.953 13.1591V13.1136C962.953 12.553 962.8 12.1174 962.493 11.8068C962.19 11.4962 961.73 11.3409 961.112 11.3409C960.472 11.3409 959.97 11.4811 959.607 11.7614C959.243 12.0417 958.987 12.3409 958.84 12.6591L957.567 12.2045C957.794 11.6742 958.097 11.2614 958.476 10.9659C958.859 10.6667 959.275 10.4583 959.726 10.3409C960.181 10.2197 960.628 10.1591 961.067 10.1591C961.347 10.1591 961.669 10.1932 962.033 10.2614C962.4 10.3258 962.754 10.4602 963.095 10.6648C963.44 10.8693 963.726 11.178 963.953 11.5909C964.181 12.0038 964.294 12.5568 964.294 13.25V19H962.953V17.8182H962.885C962.794 18.0076 962.643 18.2102 962.431 18.4261C962.218 18.642 961.936 18.8258 961.584 18.9773C961.232 19.1288 960.802 19.2045 960.294 19.2045ZM960.499 18C961.029 18 961.476 17.8958 961.84 17.6875C962.207 17.4792 962.484 17.2102 962.669 16.8807C962.859 16.5511 962.953 16.2045 962.953 15.8409V14.6136C962.896 14.6818 962.771 14.7443 962.578 14.8011C962.389 14.8542 962.169 14.9015 961.919 14.9432C961.673 14.9811 961.432 15.0152 961.198 15.0455C960.967 15.072 960.779 15.0947 960.635 15.1136C960.287 15.1591 959.961 15.233 959.658 15.3352C959.359 15.4337 959.116 15.5833 958.931 15.7841C958.749 15.9811 958.658 16.25 958.658 16.5909C958.658 17.0568 958.83 17.4091 959.175 17.6477C959.523 17.8826 959.965 18 960.499 18ZM973.246 10.2727L970.018 19H968.655L965.427 10.2727H966.882L969.291 17.2273H969.382L971.791 10.2727H973.246ZM976.998 19.2045C976.445 19.2045 975.943 19.1004 975.492 18.892C975.042 18.6799 974.684 18.375 974.418 17.9773C974.153 17.5758 974.021 17.0909 974.021 16.5227C974.021 16.0227 974.119 15.6174 974.316 15.3068C974.513 14.9924 974.776 14.7462 975.106 14.5682C975.435 14.3902 975.799 14.2576 976.197 14.1705C976.598 14.0795 977.002 14.0076 977.407 13.9545C977.937 13.8864 978.367 13.8352 978.697 13.8011C979.03 13.7633 979.273 13.7008 979.424 13.6136C979.579 13.5265 979.657 13.375 979.657 13.1591V13.1136C979.657 12.553 979.504 12.1174 979.197 11.8068C978.894 11.4962 978.434 11.3409 977.816 11.3409C977.176 11.3409 976.674 11.4811 976.31 11.7614C975.947 12.0417 975.691 12.3409 975.543 12.6591L974.271 12.2045C974.498 11.6742 974.801 11.2614 975.18 10.9659C975.562 10.6667 975.979 10.4583 976.43 10.3409C976.884 10.2197 977.331 10.1591 977.771 10.1591C978.051 10.1591 978.373 10.1932 978.737 10.2614C979.104 10.3258 979.458 10.4602 979.799 10.6648C980.144 10.8693 980.43 11.178 980.657 11.5909C980.884 12.0038 980.998 12.5568 980.998 13.25V19H979.657V17.8182H979.589C979.498 18.0076 979.346 18.2102 979.134 18.4261C978.922 18.642 978.64 18.8258 978.288 18.9773C977.935 19.1288 977.506 19.2045 976.998 19.2045ZM977.202 18C977.733 18 978.18 17.8958 978.543 17.6875C978.911 17.4792 979.187 17.2102 979.373 16.8807C979.562 16.5511 979.657 16.2045 979.657 15.8409V14.6136C979.6 14.6818 979.475 14.7443 979.282 14.8011C979.093 14.8542 978.873 14.9015 978.623 14.9432C978.377 14.9811 978.136 15.0152 977.901 15.0455C977.67 15.072 977.483 15.0947 977.339 15.1136C976.99 15.1591 976.665 15.233 976.362 15.3352C976.062 15.4337 975.82 15.5833 975.634 15.7841C975.452 15.9811 975.362 16.25 975.362 16.5909C975.362 17.0568 975.534 17.4091 975.879 17.6477C976.227 17.8826 976.668 18 977.202 18ZM983.125 19V10.2727H984.466V19H983.125ZM983.807 8.81818C983.546 8.81818 983.32 8.72917 983.131 8.55114C982.945 8.37311 982.853 8.15909 982.853 7.90909C982.853 7.65909 982.945 7.44508 983.131 7.26705C983.32 7.08902 983.546 7 983.807 7C984.069 7 984.292 7.08902 984.478 7.26705C984.667 7.44508 984.762 7.65909 984.762 7.90909C984.762 8.15909 984.667 8.37311 984.478 8.55114C984.292 8.72917 984.069 8.81818 983.807 8.81818ZM987.943 7.36364V19H986.602V7.36364H987.943ZM992.647 19.2045C992.094 19.2045 991.592 19.1004 991.142 18.892C990.691 18.6799 990.333 18.375 990.068 17.9773C989.803 17.5758 989.67 17.0909 989.67 16.5227C989.67 16.0227 989.769 15.6174 989.966 15.3068C990.162 14.9924 990.426 14.7462 990.755 14.5682C991.085 14.3902 991.448 14.2576 991.846 14.1705C992.248 14.0795 992.651 14.0076 993.056 13.9545C993.587 13.8864 994.017 13.8352 994.346 13.8011C994.68 13.7633 994.922 13.7008 995.073 13.6136C995.229 13.5265 995.306 13.375 995.306 13.1591V13.1136C995.306 12.553 995.153 12.1174 994.846 11.8068C994.543 11.4962 994.083 11.3409 993.466 11.3409C992.825 11.3409 992.323 11.4811 991.96 11.7614C991.596 12.0417 991.341 12.3409 991.193 12.6591L989.92 12.2045C990.147 11.6742 990.45 11.2614 990.829 10.9659C991.212 10.6667 991.628 10.4583 992.079 10.3409C992.534 10.2197 992.981 10.1591 993.42 10.1591C993.7 10.1591 994.022 10.1932 994.386 10.2614C994.753 10.3258 995.108 10.4602 995.448 10.6648C995.793 10.8693 996.079 11.178 996.306 11.5909C996.534 12.0038 996.647 12.5568 996.647 13.25V19H995.306V17.8182H995.238C995.147 18.0076 994.996 18.2102 994.784 18.4261C994.572 18.642 994.289 18.8258 993.937 18.9773C993.585 19.1288 993.155 19.2045 992.647 19.2045ZM992.852 18C993.382 18 993.829 17.8958 994.193 17.6875C994.56 17.4792 994.837 17.2102 995.022 16.8807C995.212 16.5511 995.306 16.2045 995.306 15.8409V14.6136C995.25 14.6818 995.125 14.7443 994.931 14.8011C994.742 14.8542 994.522 14.9015 994.272 14.9432C994.026 14.9811 993.786 15.0152 993.551 15.0455C993.32 15.072 993.132 15.0947 992.988 15.1136C992.64 15.1591 992.314 15.233 992.011 15.3352C991.712 15.4337 991.469 15.5833 991.284 15.7841C991.102 15.9811 991.011 16.25 991.011 16.5909C991.011 17.0568 991.183 17.4091 991.528 17.6477C991.876 17.8826 992.318 18 992.852 18ZM998.957 19V7.36364H1000.3V11.6591H1000.41C1000.51 11.5076 1000.65 11.3144 1000.82 11.0795C1001 10.8409 1001.25 10.6288 1001.58 10.4432C1001.91 10.2538 1002.37 10.1591 1002.93 10.1591C1003.67 10.1591 1004.32 10.3428 1004.88 10.7102C1005.44 11.0777 1005.88 11.5985 1006.19 12.2727C1006.5 12.947 1006.66 13.7424 1006.66 14.6591C1006.66 15.5833 1006.5 16.3845 1006.19 17.0625C1005.88 17.7367 1005.44 18.2595 1004.88 18.6307C1004.33 18.9981 1003.68 19.1818 1002.96 19.1818C1002.4 19.1818 1001.95 19.089 1001.61 18.9034C1001.27 18.714 1001.01 18.5 1000.83 18.2614C1000.65 18.0189 1000.51 17.8182 1000.41 17.6591H1000.25V19H998.957ZM1000.27 14.6364C1000.27 15.2955 1000.37 15.8769 1000.56 16.3807C1000.76 16.8807 1001.04 17.2727 1001.41 17.5568C1001.78 17.8371 1002.24 17.9773 1002.77 17.9773C1003.34 17.9773 1003.8 17.8295 1004.18 17.5341C1004.56 17.2348 1004.84 16.8333 1005.03 16.3295C1005.22 15.822 1005.32 15.2576 1005.32 14.6364C1005.32 14.0227 1005.23 13.4697 1005.04 12.9773C1004.85 12.4811 1004.57 12.089 1004.19 11.8011C1003.81 11.5095 1003.34 11.3636 1002.77 11.3636C1002.23 11.3636 1001.77 11.5019 1001.4 11.7784C1001.03 12.0511 1000.75 12.4337 1000.56 12.9261C1000.37 13.4148 1000.27 13.9848 1000.27 14.6364ZM1009.73 7.36364V19H1008.39V7.36364H1009.73ZM1015.53 19.1818C1014.69 19.1818 1013.96 18.9962 1013.35 18.625C1012.75 18.25 1012.28 17.7273 1011.95 17.0568C1011.62 16.3826 1011.46 15.5985 1011.46 14.7045C1011.46 13.8106 1011.62 13.0227 1011.95 12.3409C1012.28 11.6553 1012.74 11.1212 1013.32 10.7386C1013.91 10.3523 1014.6 10.1591 1015.39 10.1591C1015.85 10.1591 1016.3 10.2348 1016.74 10.3864C1017.18 10.5379 1017.59 10.7841 1017.95 11.125C1018.31 11.4621 1018.6 11.9091 1018.82 12.4659C1019.03 13.0227 1019.14 13.7083 1019.14 14.5227V15.0909H1012.41V13.9318H1017.78C1017.78 13.4394 1017.68 13 1017.48 12.6136C1017.29 12.2273 1017.01 11.9223 1016.65 11.6989C1016.3 11.4754 1015.88 11.3636 1015.39 11.3636C1014.86 11.3636 1014.4 11.4962 1014.01 11.7614C1013.62 12.0227 1013.32 12.3636 1013.11 12.7841C1012.91 13.2045 1012.8 13.6553 1012.8 14.1364V14.9091C1012.8 15.5682 1012.91 16.1269 1013.14 16.5852C1013.37 17.0398 1013.69 17.3864 1014.1 17.625C1014.51 17.8598 1014.99 17.9773 1015.53 17.9773C1015.88 17.9773 1016.2 17.928 1016.48 17.8295C1016.77 17.7273 1017.02 17.5758 1017.23 17.375C1017.44 17.1705 1017.6 16.9167 1017.71 16.6136L1019.01 16.9773C1018.87 17.4167 1018.64 17.803 1018.32 18.1364C1018 18.4659 1017.6 18.7235 1017.12 18.9091C1016.65 19.0909 1016.12 19.1818 1015.53 19.1818Z" fill="white" fill-opacity="0.6"/>
<mask id="mask3_167_349" style="mask-type:alpha" maskUnits="userSpaceOnUse" x="1028" y="1" width="24" height="24">
<rect x="1028" y="1" width="24" height="24" fill="#D9D9D9"/>
</mask>
<g mask="url(#mask3_167_349)">
<path d="M1040 16.0384L1034.35 10.3846L1035.4 9.33081L1040 13.9308L1044.6 9.33081L1045.65 10.3846L1040 16.0384Z" fill="white" fill-opacity="0.6"/>
</g>
<path d="M1088.64 8.63068V6.86364H1097.92V8.63068H1094.32V18.5H1092.23V8.63068H1088.64ZM1099.3 18.5V9.77273H1101.36V18.5H1099.3ZM1100.33 8.53409C1100.01 8.53409 1099.73 8.42614 1099.49 8.21023C1099.26 7.99053 1099.14 7.72727 1099.14 7.42045C1099.14 7.10985 1099.26 6.84659 1099.49 6.63068C1099.73 6.41098 1100.01 6.30114 1100.33 6.30114C1100.66 6.30114 1100.94 6.41098 1101.17 6.63068C1101.41 6.84659 1101.53 7.10985 1101.53 7.42045C1101.53 7.72727 1101.41 7.99053 1101.17 8.21023C1100.94 8.42614 1100.66 8.53409 1100.33 8.53409ZM1103.15 18.5V9.77273H1105.12V11.2557H1105.22C1105.4 10.7557 1105.7 10.3655 1106.12 10.0852C1106.54 9.80114 1107.05 9.65909 1107.63 9.65909C1108.22 9.65909 1108.72 9.80303 1109.12 10.0909C1109.53 10.375 1109.82 10.7633 1109.99 11.2557H1110.08C1110.27 10.7708 1110.6 10.3845 1111.05 10.0966C1111.52 9.80492 1112.06 9.65909 1112.7 9.65909C1113.5 9.65909 1114.15 9.91288 1114.66 10.4205C1115.17 10.928 1115.42 11.6686 1115.42 12.642V18.5H1113.36V12.9602C1113.36 12.4186 1113.22 12.0227 1112.93 11.7727C1112.64 11.5189 1112.29 11.392 1111.87 11.392C1111.38 11.392 1110.99 11.5473 1110.71 11.858C1110.43 12.1648 1110.29 12.5644 1110.29 13.0568V18.5H1108.28V12.875C1108.28 12.4242 1108.14 12.0644 1107.87 11.7955C1107.6 11.5265 1107.25 11.392 1106.81 11.392C1106.51 11.392 1106.25 11.4678 1106 11.6193C1105.76 11.767 1105.57 11.9773 1105.42 12.25C1105.28 12.5189 1105.21 12.8333 1105.21 13.1932V18.5H1103.15ZM1121.05 18.6705C1120.18 18.6705 1119.42 18.4886 1118.79 18.125C1118.15 17.7576 1117.67 17.2386 1117.33 16.5682C1116.99 15.8939 1116.82 15.1004 1116.82 14.1875C1116.82 13.2898 1116.99 12.5019 1117.33 11.8239C1117.67 11.142 1118.15 10.6117 1118.77 10.233C1119.39 9.85038 1120.11 9.65909 1120.95 9.65909C1121.48 9.65909 1121.99 9.74621 1122.47 9.92045C1122.95 10.0909 1123.37 10.3561 1123.74 10.7159C1124.11 11.0758 1124.4 11.5341 1124.62 12.0909C1124.83 12.6439 1124.93 13.303 1124.93 14.0682V14.6989H1117.78V13.3125H1122.96C1122.96 12.9186 1122.87 12.5682 1122.71 12.2614C1122.54 11.9508 1122.31 11.7064 1122.01 11.5284C1121.71 11.3504 1121.37 11.2614 1120.97 11.2614C1120.55 11.2614 1120.18 11.3636 1119.87 11.5682C1119.55 11.7689 1119.3 12.0341 1119.12 12.3636C1118.95 12.6894 1118.86 13.0473 1118.86 13.4375V14.6477C1118.86 15.1553 1118.95 15.5909 1119.13 15.9545C1119.32 16.3144 1119.58 16.5909 1119.91 16.7841C1120.25 16.9735 1120.64 17.0682 1121.08 17.0682C1121.38 17.0682 1121.65 17.0265 1121.9 16.9432C1122.14 16.8561 1122.35 16.7292 1122.53 16.5625C1122.7 16.3958 1122.84 16.1894 1122.93 15.9432L1124.85 16.1591C1124.73 16.6667 1124.5 17.1098 1124.16 17.4886C1123.82 17.8636 1123.39 18.1553 1122.86 18.3636C1122.33 18.5682 1121.73 18.6705 1121.05 18.6705Z" fill="white"/>
<path d="M1139.41 19V7.36364H1140.82V17.75H1146.23V19H1139.41ZM1151.57 19.1818C1150.73 19.1818 1150 18.9962 1149.39 18.625C1148.78 18.25 1148.32 17.7273 1147.99 17.0568C1147.66 16.3826 1147.5 15.5985 1147.5 14.7045C1147.5 13.8106 1147.66 13.0227 1147.99 12.3409C1148.32 11.6553 1148.77 11.1212 1149.36 10.7386C1149.95 10.3523 1150.64 10.1591 1151.43 10.1591C1151.88 10.1591 1152.33 10.2348 1152.78 10.3864C1153.22 10.5379 1153.62 10.7841 1153.99 11.125C1154.35 11.4621 1154.64 11.9091 1154.86 12.4659C1155.07 13.0227 1155.18 13.7083 1155.18 14.5227V15.0909H1148.45V13.9318H1153.82C1153.82 13.4394 1153.72 13 1153.52 12.6136C1153.33 12.2273 1153.05 11.9223 1152.69 11.6989C1152.34 11.4754 1151.91 11.3636 1151.43 11.3636C1150.9 11.3636 1150.43 11.4962 1150.04 11.7614C1149.66 12.0227 1149.36 12.3636 1149.15 12.7841C1148.94 13.2045 1148.84 13.6553 1148.84 14.1364V14.9091C1148.84 15.5682 1148.95 16.1269 1149.18 16.5852C1149.41 17.0398 1149.73 17.3864 1150.14 17.625C1150.55 17.8598 1151.02 17.9773 1151.57 17.9773C1151.92 17.9773 1152.24 17.928 1152.52 17.8295C1152.81 17.7273 1153.06 17.5758 1153.27 17.375C1153.47 17.1705 1153.63 16.9167 1153.75 16.6136L1155.04 16.9773C1154.91 17.4167 1154.68 17.803 1154.36 18.1364C1154.03 18.4659 1153.64 18.7235 1153.16 18.9091C1152.69 19.0909 1152.16 19.1818 1151.57 19.1818ZM1163.08 12.2273L1161.88 12.5682C1161.8 12.3674 1161.69 12.1723 1161.54 11.983C1161.4 11.7898 1161.2 11.6307 1160.95 11.5057C1160.7 11.3807 1160.38 11.3182 1159.99 11.3182C1159.46 11.3182 1159.01 11.4413 1158.66 11.6875C1158.3 11.9299 1158.13 12.2386 1158.13 12.6136C1158.13 12.947 1158.25 13.2102 1158.49 13.4034C1158.73 13.5966 1159.11 13.7576 1159.63 13.8864L1160.92 14.2045C1161.7 14.3939 1162.28 14.6837 1162.67 15.0739C1163.05 15.4602 1163.24 15.9583 1163.24 16.5682C1163.24 17.0682 1163.1 17.5152 1162.81 17.9091C1162.52 18.303 1162.13 18.6136 1161.62 18.8409C1161.1 19.0682 1160.51 19.1818 1159.83 19.1818C1158.94 19.1818 1158.2 18.9886 1157.62 18.6023C1157.04 18.2159 1156.67 17.6515 1156.51 16.9091L1157.79 16.5909C1157.91 17.0606 1158.14 17.4129 1158.47 17.6477C1158.81 17.8826 1159.26 18 1159.81 18C1160.43 18 1160.93 17.8674 1161.3 17.6023C1161.67 17.3333 1161.85 17.0114 1161.85 16.6364C1161.85 16.3333 1161.75 16.0795 1161.54 15.875C1161.32 15.6667 1161 15.5114 1160.56 15.4091L1159.1 15.0682C1158.31 14.8788 1157.72 14.5852 1157.34 14.1875C1156.97 13.786 1156.79 13.2841 1156.79 12.6818C1156.79 12.1894 1156.92 11.7538 1157.2 11.375C1157.48 10.9962 1157.86 10.6989 1158.34 10.483C1158.83 10.267 1159.38 10.1591 1159.99 10.1591C1160.85 10.1591 1161.53 10.3485 1162.02 10.7273C1162.52 11.1061 1162.87 11.6061 1163.08 12.2273ZM1171.12 12.2273L1169.92 12.5682C1169.84 12.3674 1169.73 12.1723 1169.58 11.983C1169.44 11.7898 1169.24 11.6307 1168.99 11.5057C1168.74 11.3807 1168.42 11.3182 1168.03 11.3182C1167.5 11.3182 1167.05 11.4413 1166.69 11.6875C1166.34 11.9299 1166.17 12.2386 1166.17 12.6136C1166.17 12.947 1166.29 13.2102 1166.53 13.4034C1166.77 13.5966 1167.15 13.7576 1167.67 13.8864L1168.96 14.2045C1169.74 14.3939 1170.32 14.6837 1170.71 15.0739C1171.09 15.4602 1171.28 15.9583 1171.28 16.5682C1171.28 17.0682 1171.14 17.5152 1170.85 17.9091C1170.56 18.303 1170.17 18.6136 1169.66 18.8409C1169.14 19.0682 1168.55 19.1818 1167.87 19.1818C1166.98 19.1818 1166.24 18.9886 1165.66 18.6023C1165.08 18.2159 1164.71 17.6515 1164.55 16.9091L1165.83 16.5909C1165.95 17.0606 1166.18 17.4129 1166.51 17.6477C1166.85 17.8826 1167.3 18 1167.85 18C1168.47 18 1168.97 17.8674 1169.34 17.6023C1169.71 17.3333 1169.89 17.0114 1169.89 16.6364C1169.89 16.3333 1169.79 16.0795 1169.58 15.875C1169.36 15.6667 1169.04 15.5114 1168.6 15.4091L1167.14 15.0682C1166.34 14.8788 1165.76 14.5852 1165.38 14.1875C1165.01 13.786 1164.83 13.2841 1164.83 12.6818C1164.83 12.1894 1164.96 11.7538 1165.24 11.375C1165.52 10.9962 1165.9 10.6989 1166.38 10.483C1166.87 10.267 1167.42 10.1591 1168.03 10.1591C1168.89 10.1591 1169.57 10.3485 1170.06 10.7273C1170.56 11.1061 1170.91 11.6061 1171.12 12.2273ZM1180.95 10.2727V11.4091H1176.43V10.2727H1180.95ZM1177.75 8.18182H1179.09V16.5C1179.09 16.8788 1179.15 17.1629 1179.26 17.3523C1179.37 17.5379 1179.51 17.6629 1179.69 17.7273C1179.86 17.7879 1180.05 17.8182 1180.25 17.8182C1180.4 17.8182 1180.52 17.8106 1180.61 17.7955C1180.71 17.7765 1180.78 17.7614 1180.84 17.75L1181.11 18.9545C1181.02 18.9886 1180.9 19.0227 1180.73 19.0568C1180.57 19.0947 1180.36 19.1136 1180.11 19.1136C1179.73 19.1136 1179.36 19.0322 1179 18.8693C1178.64 18.7064 1178.34 18.4583 1178.1 18.125C1177.87 17.7917 1177.75 17.3712 1177.75 16.8636V8.18182ZM1184.18 13.75V19H1182.84V7.36364H1184.18V11.6364H1184.29C1184.5 11.1856 1184.8 10.8277 1185.21 10.5625C1185.63 10.2936 1186.18 10.1591 1186.86 10.1591C1187.46 10.1591 1187.98 10.2784 1188.42 10.517C1188.87 10.7519 1189.22 11.1136 1189.46 11.6023C1189.71 12.0871 1189.84 12.7045 1189.84 13.4545V19H1188.5V13.5455C1188.5 12.8523 1188.32 12.3163 1187.96 11.9375C1187.6 11.5549 1187.11 11.3636 1186.47 11.3636C1186.04 11.3636 1185.64 11.4564 1185.29 11.642C1184.95 11.8277 1184.68 12.0985 1184.47 12.4545C1184.28 12.8106 1184.18 13.2424 1184.18 13.75ZM1194.54 19.2045C1193.99 19.2045 1193.48 19.1004 1193.03 18.892C1192.58 18.6799 1192.23 18.375 1191.96 17.9773C1191.7 17.5758 1191.56 17.0909 1191.56 16.5227C1191.56 16.0227 1191.66 15.6174 1191.86 15.3068C1192.05 14.9924 1192.32 14.7462 1192.65 14.5682C1192.98 14.3902 1193.34 14.2576 1193.74 14.1705C1194.14 14.0795 1194.54 14.0076 1194.95 13.9545C1195.48 13.8864 1195.91 13.8352 1196.24 13.8011C1196.57 13.7633 1196.81 13.7008 1196.97 13.6136C1197.12 13.5265 1197.2 13.375 1197.2 13.1591V13.1136C1197.2 12.553 1197.05 12.1174 1196.74 11.8068C1196.44 11.4962 1195.98 11.3409 1195.36 11.3409C1194.72 11.3409 1194.22 11.4811 1193.85 11.7614C1193.49 12.0417 1193.23 12.3409 1193.09 12.6591L1191.81 12.2045C1192.04 11.6742 1192.34 11.2614 1192.72 10.9659C1193.1 10.6667 1193.52 10.4583 1193.97 10.3409C1194.43 10.2197 1194.87 10.1591 1195.31 10.1591C1195.59 10.1591 1195.91 10.1932 1196.28 10.2614C1196.65 10.3258 1197 10.4602 1197.34 10.6648C1197.69 10.8693 1197.97 11.178 1198.2 11.5909C1198.43 12.0038 1198.54 12.5568 1198.54 13.25V19H1197.2V17.8182H1197.13C1197.04 18.0076 1196.89 18.2102 1196.68 18.4261C1196.46 18.642 1196.18 18.8258 1195.83 18.9773C1195.48 19.1288 1195.05 19.2045 1194.54 19.2045ZM1194.74 18C1195.27 18 1195.72 17.8958 1196.09 17.6875C1196.45 17.4792 1196.73 17.2102 1196.91 16.8807C1197.1 16.5511 1197.2 16.2045 1197.2 15.8409V14.6136C1197.14 14.6818 1197.02 14.7443 1196.82 14.8011C1196.63 14.8542 1196.41 14.9015 1196.16 14.9432C1195.92 14.9811 1195.68 15.0152 1195.44 15.0455C1195.21 15.072 1195.02 15.0947 1194.88 15.1136C1194.53 15.1591 1194.21 15.233 1193.9 15.3352C1193.6 15.4337 1193.36 15.5833 1193.18 15.7841C1192.99 15.9811 1192.9 16.25 1192.9 16.5909C1192.9 17.0568 1193.08 17.4091 1193.42 17.6477C1193.77 17.8826 1194.21 18 1194.74 18ZM1202.01 13.75V19H1200.67V10.2727H1201.96V11.6364H1202.08C1202.28 11.1932 1202.59 10.8371 1203.01 10.5682C1203.42 10.2955 1203.96 10.1591 1204.62 10.1591C1205.21 10.1591 1205.73 10.2803 1206.17 10.5227C1206.62 10.7614 1206.96 11.125 1207.21 11.6136C1207.45 12.0985 1207.58 12.7121 1207.58 13.4545V19H1206.24V13.5455C1206.24 12.8598 1206.06 12.3258 1205.7 11.9432C1205.35 11.5568 1204.86 11.3636 1204.24 11.3636C1203.81 11.3636 1203.42 11.4564 1203.09 11.642C1202.75 11.8277 1202.49 12.0985 1202.3 12.4545C1202.1 12.8106 1202.01 13.2424 1202.01 13.75ZM1217.95 7.36364V19H1216.55V8.84091H1216.48L1213.64 10.7273V9.29545L1216.55 7.36364H1217.95ZM1226.53 13.75V19H1225.18V7.36364H1226.53V11.6364H1226.64C1226.84 11.1856 1227.15 10.8277 1227.56 10.5625C1227.97 10.2936 1228.52 10.1591 1229.21 10.1591C1229.8 10.1591 1230.32 10.2784 1230.77 10.517C1231.22 10.7519 1231.56 11.1136 1231.81 11.6023C1232.06 12.0871 1232.18 12.7045 1232.18 13.4545V19H1230.84V13.5455C1230.84 12.8523 1230.66 12.3163 1230.3 11.9375C1229.95 11.5549 1229.45 11.3636 1228.82 11.3636C1228.38 11.3636 1227.99 11.4564 1227.64 11.642C1227.29 11.8277 1227.02 12.0985 1226.82 12.4545C1226.62 12.8106 1226.53 13.2424 1226.53 13.75ZM1234.32 19V10.2727H1235.61V11.5909H1235.7C1235.86 11.1591 1236.15 10.8087 1236.57 10.5398C1236.98 10.2708 1237.45 10.1364 1237.98 10.1364C1238.07 10.1364 1238.2 10.1383 1238.35 10.142C1238.49 10.1458 1238.61 10.1515 1238.68 10.1591V11.5227C1238.64 11.5114 1238.53 11.4943 1238.37 11.4716C1238.21 11.4451 1238.04 11.4318 1237.86 11.4318C1237.44 11.4318 1237.06 11.5208 1236.73 11.6989C1236.4 11.8731 1236.14 12.1155 1235.94 12.4261C1235.75 12.733 1235.66 13.0833 1235.66 13.4773V19H1234.32Z" fill="white" fill-opacity="0.6"/>
<mask id="mask4_167_349" style="mask-type:alpha" maskUnits="userSpaceOnUse" x="1286" y="1" width="24" height="24">
<rect x="1286" y="1" width="24" height="24" fill="#D9D9D9"/>
</mask>
<g mask="url(#mask4_167_349)">
<path d="M1298 16.0384L1292.35 10.3846L1293.4 9.33081L1298 13.9308L1302.6 9.33081L1303.65 10.3846L1298 16.0384Z" fill="white" fill-opacity="0.6"/>
</g>
</svg>
