<svg width="221" height="220" viewBox="0 0 221 220" fill="none" xmlns="http://www.w3.org/2000/svg">
<rect width="221" height="220" rx="12" fill="white" fill-opacity="0.08"/>
<rect x="0.5" y="0.5" width="220" height="219" rx="11.5" stroke="white" stroke-opacity="0.2"/>
<rect x="0.5" y="0.5" width="220" height="219" rx="11.5" stroke="url(#paint0_angular_97_1704)" stroke-opacity="0.4"/>
<path d="M34.0611 31.0895C33.9545 30.7443 33.8075 30.4354 33.62 30.1626C33.4368 29.8857 33.2152 29.6491 32.9553 29.4531C32.6996 29.2571 32.4055 29.1101 32.0732 29.0121C31.7408 28.9098 31.3786 28.8587 30.9865 28.8587C30.2834 28.8587 29.657 29.0355 29.1072 29.3892C28.5575 29.7429 28.125 30.2628 27.8097 30.9489C27.4986 31.6307 27.343 32.4616 27.343 33.4418C27.343 34.4304 27.4986 35.2678 27.8097 35.9538C28.1207 36.6399 28.5533 37.1619 29.1072 37.5199C29.6612 37.8736 30.3047 38.0504 31.0376 38.0504C31.7024 38.0504 32.2777 37.9226 32.7635 37.6669C33.2536 37.4112 33.6307 37.049 33.8949 36.5803C34.1591 36.1072 34.2912 35.5533 34.2912 34.9183L34.8281 35.0014H31.2741V33.1477H36.5859V34.7202C36.5859 35.8409 36.3473 36.8104 35.87 37.6286C35.3928 38.4467 34.7365 39.0774 33.9013 39.5206C33.0661 39.9595 32.1072 40.179 31.0249 40.179C29.8189 40.179 28.7599 39.9084 27.848 39.3672C26.9403 38.8217 26.2308 38.0483 25.7195 37.0469C25.2124 36.0412 24.9588 34.848 24.9588 33.4673C24.9588 32.4105 25.108 31.4666 25.4062 30.6357C25.7088 29.8047 26.1307 29.0994 26.6719 28.5199C27.2131 27.9361 27.848 27.4929 28.5767 27.1903C29.3054 26.8835 30.098 26.7301 30.9545 26.7301C31.679 26.7301 32.3544 26.8366 32.9808 27.0497C33.6072 27.2585 34.1634 27.5568 34.6491 27.9446C35.1392 28.3324 35.5419 28.7926 35.8572 29.3253C36.1726 29.858 36.3793 30.446 36.4773 31.0895H34.0611ZM42.3395 40.1918C41.3807 40.1918 40.5497 39.9808 39.8466 39.5589C39.1435 39.1371 38.598 38.5469 38.2102 37.7884C37.8267 37.0298 37.6349 36.1435 37.6349 35.1293C37.6349 34.1151 37.8267 33.2266 38.2102 32.4638C38.598 31.701 39.1435 31.1087 39.8466 30.6868C40.5497 30.2649 41.3807 30.054 42.3395 30.054C43.2983 30.054 44.1293 30.2649 44.8324 30.6868C45.5355 31.1087 46.0788 31.701 46.4624 32.4638C46.8501 33.2266 47.044 34.1151 47.044 35.1293C47.044 36.1435 46.8501 37.0298 46.4624 37.7884C46.0788 38.5469 45.5355 39.1371 44.8324 39.5589C44.1293 39.9808 43.2983 40.1918 42.3395 40.1918ZM42.3523 38.3381C42.8722 38.3381 43.3068 38.1953 43.6562 37.9098C44.0057 37.62 44.2656 37.2322 44.4361 36.7464C44.6108 36.2607 44.6981 35.7195 44.6981 35.1229C44.6981 34.522 44.6108 33.9787 44.4361 33.4929C44.2656 33.0028 44.0057 32.6129 43.6562 32.3232C43.3068 32.0334 42.8722 31.8885 42.3523 31.8885C41.8196 31.8885 41.3764 32.0334 41.0227 32.3232C40.6733 32.6129 40.4112 33.0028 40.2365 33.4929C40.066 33.9787 39.9808 34.522 39.9808 35.1229C39.9808 35.7195 40.066 36.2607 40.2365 36.7464C40.4112 37.2322 40.6733 37.62 41.0227 37.9098C41.3764 38.1953 41.8196 38.3381 42.3523 38.3381ZM51.1133 40.1982C50.4911 40.1982 49.9307 40.0874 49.4322 39.8658C48.9378 39.6399 48.5458 39.3075 48.256 38.8686C47.9705 38.4297 47.8278 37.8885 47.8278 37.245C47.8278 36.6911 47.93 36.233 48.1346 35.8707C48.3391 35.5085 48.6182 35.2188 48.9719 35.0014C49.3256 34.7841 49.7241 34.62 50.1672 34.5092C50.6147 34.3942 51.077 34.3111 51.5543 34.2599C52.1296 34.2003 52.5962 34.147 52.9542 34.1001C53.3121 34.049 53.5721 33.9723 53.734 33.87C53.9002 33.7635 53.9833 33.5994 53.9833 33.3778V33.3395C53.9833 32.858 53.8405 32.4851 53.555 32.2209C53.2695 31.9567 52.8583 31.8246 52.3214 31.8246C51.7546 31.8246 51.305 31.9482 50.9726 32.1953C50.6445 32.4425 50.4229 32.7344 50.3079 33.071L48.1474 32.7642C48.3178 32.1676 48.5991 31.669 48.9911 31.2685C49.3832 30.8636 49.8626 30.5611 50.4293 30.3608C50.9961 30.1562 51.6225 30.054 52.3086 30.054C52.7816 30.054 53.2525 30.1094 53.7212 30.2202C54.19 30.331 54.6182 30.5142 55.006 30.7699C55.3938 31.0213 55.7049 31.3643 55.9393 31.799C56.1779 32.2337 56.2972 32.777 56.2972 33.429V40H54.0728V38.6513H53.9961C53.8555 38.924 53.6573 39.1797 53.4016 39.4183C53.1502 39.6527 52.8327 39.8423 52.4492 39.9872C52.0699 40.1278 51.6246 40.1982 51.1133 40.1982ZM51.7141 38.4979C52.1786 38.4979 52.5813 38.4062 52.9222 38.223C53.2631 38.0355 53.5252 37.7884 53.7084 37.4815C53.8959 37.1747 53.9897 36.8402 53.9897 36.478V35.321C53.9172 35.3807 53.7937 35.4361 53.6189 35.4872C53.4485 35.5384 53.2567 35.5831 53.0437 35.6214C52.8306 35.6598 52.6197 35.6939 52.4109 35.7237C52.202 35.7536 52.0209 35.7791 51.8675 35.8004C51.5224 35.8473 51.2134 35.924 50.9407 36.0305C50.668 36.1371 50.4528 36.2862 50.2951 36.478C50.1374 36.6655 50.0586 36.9084 50.0586 37.2067C50.0586 37.6328 50.2141 37.9545 50.5252 38.1719C50.8363 38.3892 51.2326 38.4979 51.7141 38.4979ZM60.2178 26.9091V40H57.9039V26.9091H60.2178ZM69.6372 32.777L67.5278 33.0071C67.4682 32.794 67.3638 32.5938 67.2146 32.4062C67.0698 32.2188 66.8737 32.0675 66.6266 31.9524C66.3794 31.8374 66.0769 31.7798 65.7189 31.7798C65.2374 31.7798 64.8325 31.8842 64.5044 32.093C64.1805 32.3018 64.0207 32.5724 64.025 32.9048C64.0207 33.1903 64.1251 33.4226 64.3382 33.6016C64.5555 33.7805 64.9135 33.9276 65.4121 34.0426L67.0868 34.4006C68.0158 34.6009 68.7061 34.9183 69.1578 35.353C69.6138 35.7876 69.8439 36.3565 69.8482 37.0597C69.8439 37.6776 69.6628 38.223 69.3048 38.696C68.9511 39.1648 68.459 39.5312 67.8283 39.7955C67.1976 40.0597 66.4732 40.1918 65.655 40.1918C64.4533 40.1918 63.4859 39.9403 62.753 39.4375C62.02 38.9304 61.5832 38.2251 61.4426 37.3217L63.699 37.1044C63.8013 37.5476 64.0186 37.8821 64.351 38.108C64.6834 38.3338 65.1159 38.4467 65.6486 38.4467C66.1983 38.4467 66.6394 38.3338 66.9717 38.108C67.3084 37.8821 67.4767 37.603 67.4767 37.2706C67.4767 36.9893 67.368 36.7571 67.1507 36.5739C66.9376 36.3906 66.6053 36.25 66.1536 36.152L64.4788 35.8004C63.5371 35.6044 62.8403 35.2741 62.3886 34.8097C61.9369 34.3409 61.7132 33.7486 61.7175 33.0327C61.7132 32.4276 61.8773 31.9034 62.2097 31.4602C62.5463 31.0128 63.0129 30.6676 63.6095 30.4247C64.2104 30.1776 64.9028 30.054 65.6869 30.054C66.8375 30.054 67.743 30.299 68.4036 30.7891C69.0683 31.2791 69.4796 31.9418 69.6372 32.777Z" fill="white"/>
<path opacity="0.6" d="M25.8864 77H24.4091L28.6818 65.3636H30.1364L34.4091 77H32.9318L29.4545 67.2045H29.3636L25.8864 77ZM26.4318 72.4545H32.3864V73.7045H26.4318V72.4545ZM41.9016 70.2273L40.697 70.5682C40.6213 70.3674 40.5095 70.1723 40.3618 69.983C40.2179 69.7898 40.0209 69.6307 39.7709 69.5057C39.5209 69.3807 39.2008 69.3182 38.8107 69.3182C38.2766 69.3182 37.8315 69.4413 37.4755 69.6875C37.1232 69.9299 36.947 70.2386 36.947 70.6136C36.947 70.947 37.0683 71.2102 37.3107 71.4034C37.5531 71.5966 37.9319 71.7576 38.447 71.8864L39.7425 72.2045C40.5228 72.3939 41.1042 72.6837 41.4868 73.0739C41.8694 73.4602 42.0607 73.9583 42.0607 74.5682C42.0607 75.0682 41.9167 75.5152 41.6289 75.9091C41.3448 76.303 40.947 76.6136 40.4357 76.8409C39.9243 77.0682 39.3296 77.1818 38.6516 77.1818C37.7614 77.1818 37.0247 76.9886 36.4414 76.6023C35.858 76.2159 35.4887 75.6515 35.3334 74.9091L36.6061 74.5909C36.7273 75.0606 36.9565 75.4129 37.2936 75.6477C37.6345 75.8826 38.0796 76 38.6289 76C39.2539 76 39.7501 75.8674 40.1175 75.6023C40.4887 75.3333 40.6743 75.0114 40.6743 74.6364C40.6743 74.3333 40.5683 74.0795 40.3561 73.875C40.144 73.6667 39.8183 73.5114 39.3789 73.4091L37.9243 73.0682C37.1251 72.8788 36.538 72.5852 36.163 72.1875C35.7917 71.786 35.6061 71.2841 35.6061 70.6818C35.6061 70.1894 35.7444 69.7538 36.0209 69.375C36.3012 68.9962 36.6819 68.6989 37.163 68.483C37.6478 68.267 38.197 68.1591 38.8107 68.1591C39.6743 68.1591 40.3523 68.3485 40.8448 68.7273C41.341 69.1061 41.6933 69.6061 41.9016 70.2273ZM45.0091 73.8182L44.9864 72.1591H45.2591L49.0773 68.2727H50.7364L46.6682 72.3864H46.5546L45.0091 73.8182ZM43.7591 77V65.3636H45.1001V77H43.7591ZM49.3046 77L45.8955 72.6818L46.8501 71.75L51.0091 77H49.3046ZM62.2768 80.2727V75.6591H62.1632C62.0647 75.8182 61.9245 76.0189 61.7427 76.2614C61.5609 76.5 61.3014 76.714 60.9643 76.9034C60.6272 77.089 60.1783 77.1818 59.6177 77.1818C58.8905 77.1818 58.2484 76.9981 57.6916 76.6307C57.1348 76.2595 56.6992 75.7367 56.3848 75.0625C56.0704 74.3845 55.9132 73.5833 55.9132 72.6591C55.9132 71.7424 56.0704 70.947 56.3848 70.2727C56.6992 69.5985 57.1367 69.0777 57.6973 68.7102C58.2579 68.3428 58.9056 68.1591 59.6405 68.1591C60.2086 68.1591 60.6575 68.2538 60.987 68.4432C61.3204 68.6288 61.5742 68.8409 61.7484 69.0795C61.9264 69.3144 62.0647 69.5076 62.1632 69.6591H62.3223V68.2727H63.6177V80.2727H62.2768ZM59.7995 75.9773C60.3374 75.9773 60.792 75.8371 61.1632 75.5568C61.5344 75.2727 61.8166 74.8807 62.0098 74.3807C62.203 73.8769 62.2995 73.2955 62.2995 72.6364C62.2995 71.9848 62.2048 71.4148 62.0155 70.9261C61.8261 70.4337 61.5458 70.0511 61.1745 69.7784C60.8033 69.5019 60.345 69.3636 59.7995 69.3636C59.2314 69.3636 58.7579 69.5095 58.3791 69.8011C58.0041 70.089 57.7219 70.4811 57.5325 70.9773C57.3469 71.4697 57.2541 72.0227 57.2541 72.6364C57.2541 73.2576 57.3488 73.822 57.5382 74.3295C57.7314 74.8333 58.0155 75.2348 58.3905 75.5341C58.7692 75.8295 59.2389 75.9773 59.7995 75.9773ZM71.2523 73.4318V68.2727H72.5932V77H71.2523V75.5227H71.1614C70.9568 75.9659 70.6386 76.3428 70.2068 76.6534C69.775 76.9602 69.2295 77.1136 68.5705 77.1136C68.025 77.1136 67.5402 76.9943 67.1159 76.7557C66.6917 76.5133 66.3583 76.1496 66.1159 75.6648C65.8735 75.1761 65.7523 74.5606 65.7523 73.8182V68.2727H67.0932V73.7273C67.0932 74.3636 67.2712 74.8712 67.6273 75.25C67.9871 75.6288 68.4455 75.8182 69.0023 75.8182C69.3356 75.8182 69.6746 75.733 70.0193 75.5625C70.3678 75.392 70.6595 75.1307 70.8943 74.7784C71.133 74.4261 71.2523 73.9773 71.2523 73.4318ZM78.3882 77.1818C77.5473 77.1818 76.822 76.9962 76.2121 76.625C75.606 76.25 75.1382 75.7273 74.8087 75.0568C74.4829 74.3826 74.3201 73.5985 74.3201 72.7045C74.3201 71.8106 74.4829 71.0227 74.8087 70.3409C75.1382 69.6553 75.5966 69.1212 76.1837 68.7386C76.7746 68.3523 77.464 68.1591 78.2519 68.1591C78.7064 68.1591 79.1553 68.2348 79.5985 68.3864C80.0416 68.5379 80.4451 68.7841 80.8087 69.125C81.1723 69.4621 81.4621 69.9091 81.678 70.4659C81.8939 71.0227 82.0019 71.7083 82.0019 72.5227V73.0909H75.2746V71.9318H80.6382C80.6382 71.4394 80.5398 71 80.3428 70.6136C80.1496 70.2273 79.8731 69.9223 79.5132 69.6989C79.1572 69.4754 78.7367 69.3636 78.2519 69.3636C77.7178 69.3636 77.2557 69.4962 76.8655 69.7614C76.4791 70.0227 76.1818 70.3636 75.9735 70.7841C75.7651 71.2045 75.661 71.6553 75.661 72.1364V72.9091C75.661 73.5682 75.7746 74.1269 76.0019 74.5852C76.2329 75.0398 76.553 75.3864 76.9621 75.625C77.3712 75.8598 77.8466 75.9773 78.3882 75.9773C78.7405 75.9773 79.0587 75.928 79.3428 75.8295C79.6307 75.7273 79.8788 75.5758 80.0871 75.375C80.2954 75.1705 80.4564 74.9167 80.5701 74.6136L81.8655 74.9773C81.7291 75.4167 81.5 75.803 81.178 76.1364C80.856 76.4659 80.4583 76.7235 79.9848 76.9091C79.5113 77.0909 78.9791 77.1818 78.3882 77.1818ZM89.9035 70.2273L88.6989 70.5682C88.6232 70.3674 88.5114 70.1723 88.3637 69.983C88.2198 69.7898 88.0228 69.6307 87.7728 69.5057C87.5228 69.3807 87.2027 69.3182 86.8126 69.3182C86.2785 69.3182 85.8334 69.4413 85.4773 69.6875C85.1251 69.9299 84.9489 70.2386 84.9489 70.6136C84.9489 70.947 85.0701 71.2102 85.3126 71.4034C85.555 71.5966 85.9338 71.7576 86.4489 71.8864L87.7444 72.2045C88.5247 72.3939 89.1061 72.6837 89.4887 73.0739C89.8713 73.4602 90.0626 73.9583 90.0626 74.5682C90.0626 75.0682 89.9186 75.5152 89.6307 75.9091C89.3466 76.303 88.9489 76.6136 88.4376 76.8409C87.9262 77.0682 87.3315 77.1818 86.6535 77.1818C85.7633 77.1818 85.0266 76.9886 84.4432 76.6023C83.8599 76.2159 83.4906 75.6515 83.3353 74.9091L84.608 74.5909C84.7292 75.0606 84.9584 75.4129 85.2955 75.6477C85.6364 75.8826 86.0815 76 86.6307 76C87.2557 76 87.7519 75.8674 88.1194 75.6023C88.4906 75.3333 88.6762 75.0114 88.6762 74.6364C88.6762 74.3333 88.5701 74.0795 88.358 73.875C88.1459 73.6667 87.8201 73.5114 87.3807 73.4091L85.9262 73.0682C85.1269 72.8788 84.5398 72.5852 84.1648 72.1875C83.7936 71.786 83.608 71.2841 83.608 70.6818C83.608 70.1894 83.7463 69.7538 84.0228 69.375C84.3031 68.9962 84.6838 68.6989 85.1648 68.483C85.6497 68.267 86.1989 68.1591 86.8126 68.1591C87.6762 68.1591 88.3542 68.3485 88.8466 68.7273C89.3429 69.1061 89.6951 69.6061 89.9035 70.2273ZM95.5565 68.2727V69.4091H91.0338V68.2727H95.5565ZM92.3519 66.1818H93.6928V74.5C93.6928 74.8788 93.7478 75.1629 93.8576 75.3523C93.9713 75.5379 94.1152 75.6629 94.2894 75.7273C94.4675 75.7879 94.655 75.8182 94.8519 75.8182C94.9997 75.8182 95.1209 75.8106 95.2156 75.7955C95.3103 75.7765 95.386 75.7614 95.4428 75.75L95.7156 76.9545C95.6247 76.9886 95.4978 77.0227 95.3349 77.0568C95.172 77.0947 94.9656 77.1136 94.7156 77.1136C94.3368 77.1136 93.9656 77.0322 93.6019 76.8693C93.2421 76.7064 92.9428 76.4583 92.7042 76.125C92.4694 75.7917 92.3519 75.3712 92.3519 74.8636V66.1818ZM97.2535 77V68.2727H98.5944V77H97.2535ZM97.9353 66.8182C97.674 66.8182 97.4486 66.7292 97.2592 66.5511C97.0736 66.3731 96.9808 66.1591 96.9808 65.9091C96.9808 65.6591 97.0736 65.4451 97.2592 65.267C97.4486 65.089 97.674 65 97.9353 65C98.1967 65 98.4202 65.089 98.6058 65.267C98.7952 65.4451 98.8899 65.6591 98.8899 65.9091C98.8899 66.1591 98.7952 66.3731 98.6058 66.5511C98.4202 66.7292 98.1967 66.8182 97.9353 66.8182ZM104.276 77.1818C103.488 77.1818 102.797 76.9943 102.202 76.6193C101.611 76.2443 101.149 75.7197 100.816 75.0455C100.486 74.3712 100.321 73.5833 100.321 72.6818C100.321 71.7727 100.486 70.9792 100.816 70.3011C101.149 69.6231 101.611 69.0966 102.202 68.7216C102.797 68.3466 103.488 68.1591 104.276 68.1591C105.064 68.1591 105.753 68.3466 106.344 68.7216C106.939 69.0966 107.401 69.6231 107.73 70.3011C108.064 70.9792 108.23 71.7727 108.23 72.6818C108.23 73.5833 108.064 74.3712 107.73 75.0455C107.401 75.7197 106.939 76.2443 106.344 76.6193C105.753 76.9943 105.064 77.1818 104.276 77.1818ZM104.276 75.9773C104.874 75.9773 105.367 75.8239 105.753 75.517C106.139 75.2102 106.425 74.8068 106.611 74.3068C106.797 73.8068 106.889 73.2652 106.889 72.6818C106.889 72.0985 106.797 71.5549 106.611 71.0511C106.425 70.5473 106.139 70.1402 105.753 69.8295C105.367 69.5189 104.874 69.3636 104.276 69.3636C103.677 69.3636 103.185 69.5189 102.799 69.8295C102.412 70.1402 102.126 70.5473 101.941 71.0511C101.755 71.5549 101.662 72.0985 101.662 72.6818C101.662 73.2652 101.755 73.8068 101.941 74.3068C102.126 74.8068 102.412 75.2102 102.799 75.517C103.185 75.8239 103.677 75.9773 104.276 75.9773ZM111.298 71.75V77H109.957V68.2727H111.253V69.6364H111.366C111.571 69.1932 111.882 68.8371 112.298 68.5682C112.715 68.2955 113.253 68.1591 113.912 68.1591C114.503 68.1591 115.02 68.2803 115.463 68.5227C115.906 68.7614 116.251 69.125 116.497 69.6136C116.743 70.0985 116.866 70.7121 116.866 71.4545V77H115.525V71.5455C115.525 70.8598 115.347 70.3258 114.991 69.9432C114.635 69.5568 114.147 69.3636 113.525 69.3636C113.097 69.3636 112.715 69.4564 112.378 69.642C112.044 69.8277 111.781 70.0985 111.588 70.4545C111.395 70.8106 111.298 71.2424 111.298 71.75ZM125.178 70.2273L123.974 70.5682C123.898 70.3674 123.786 70.1723 123.639 69.983C123.495 69.7898 123.298 69.6307 123.048 69.5057C122.798 69.3807 122.478 69.3182 122.088 69.3182C121.553 69.3182 121.108 69.4413 120.752 69.6875C120.4 69.9299 120.224 70.2386 120.224 70.6136C120.224 70.947 120.345 71.2102 120.588 71.4034C120.83 71.5966 121.209 71.7576 121.724 71.8864L123.019 72.2045C123.8 72.3939 124.381 72.6837 124.764 73.0739C125.146 73.4602 125.338 73.9583 125.338 74.5682C125.338 75.0682 125.194 75.5152 124.906 75.9091C124.622 76.303 124.224 76.6136 123.713 76.8409C123.201 77.0682 122.606 77.1818 121.928 77.1818C121.038 77.1818 120.302 76.9886 119.718 76.6023C119.135 76.2159 118.766 75.6515 118.61 74.9091L119.883 74.5909C120.004 75.0606 120.233 75.4129 120.571 75.6477C120.911 75.8826 121.356 76 121.906 76C122.531 76 123.027 75.8674 123.394 75.6023C123.766 75.3333 123.951 75.0114 123.951 74.6364C123.951 74.3333 123.845 74.0795 123.633 73.875C123.421 73.6667 123.095 73.5114 122.656 73.4091L121.201 73.0682C120.402 72.8788 119.815 72.5852 119.44 72.1875C119.069 71.786 118.883 71.2841 118.883 70.6818C118.883 70.1894 119.021 69.7538 119.298 69.375C119.578 68.9962 119.959 68.6989 120.44 68.483C120.925 68.267 121.474 68.1591 122.088 68.1591C122.951 68.1591 123.629 68.3485 124.122 68.7273C124.618 69.1061 124.97 69.6061 125.178 70.2273ZM132.557 65.3636V77H131.216V65.3636H132.557ZM134.693 77V68.2727H136.034V77H134.693ZM135.375 66.8182C135.113 66.8182 134.888 66.7292 134.699 66.5511C134.513 66.3731 134.42 66.1591 134.42 65.9091C134.42 65.6591 134.513 65.4451 134.699 65.267C134.888 65.089 135.113 65 135.375 65C135.636 65 135.86 65.089 136.045 65.267C136.235 65.4451 136.329 65.6591 136.329 65.9091C136.329 66.1591 136.235 66.3731 136.045 66.5511C135.86 66.7292 135.636 66.8182 135.375 66.8182ZM139.42 73.8182L139.397 72.1591H139.67L143.488 68.2727H145.147L141.079 72.3864H140.965L139.42 73.8182ZM138.17 77V65.3636H139.511V77H138.17ZM143.715 77L140.306 72.6818L141.261 71.75L145.42 77H143.715ZM149.853 77.1818C149.012 77.1818 148.286 76.9962 147.676 76.625C147.07 76.25 146.603 75.7273 146.273 75.0568C145.947 74.3826 145.784 73.5985 145.784 72.7045C145.784 71.8106 145.947 71.0227 146.273 70.3409C146.603 69.6553 147.061 69.1212 147.648 68.7386C148.239 68.3523 148.928 68.1591 149.716 68.1591C150.171 68.1591 150.62 68.2348 151.063 68.3864C151.506 68.5379 151.909 68.7841 152.273 69.125C152.637 69.4621 152.926 69.9091 153.142 70.4659C153.358 71.0227 153.466 71.7083 153.466 72.5227V73.0909H146.739V71.9318H152.103C152.103 71.4394 152.004 71 151.807 70.6136C151.614 70.2273 151.337 69.9223 150.978 69.6989C150.622 69.4754 150.201 69.3636 149.716 69.3636C149.182 69.3636 148.72 69.4962 148.33 69.7614C147.944 70.0227 147.646 70.3636 147.438 70.7841C147.23 71.2045 147.125 71.6553 147.125 72.1364V72.9091C147.125 73.5682 147.239 74.1269 147.466 74.5852C147.697 75.0398 148.017 75.3864 148.426 75.625C148.836 75.8598 149.311 75.9773 149.853 75.9773C150.205 75.9773 150.523 75.928 150.807 75.8295C151.095 75.7273 151.343 75.5758 151.551 75.375C151.76 75.1705 151.921 74.9167 152.034 74.6136L153.33 74.9773C153.194 75.4167 152.964 75.803 152.642 76.1364C152.32 76.4659 151.923 76.7235 151.449 76.9091C150.976 77.0909 150.444 77.1818 149.853 77.1818ZM156.163 77.0909C155.883 77.0909 155.642 76.9905 155.442 76.7898C155.241 76.589 155.141 76.3485 155.141 76.0682C155.141 75.7879 155.241 75.5473 155.442 75.3466C155.642 75.1458 155.883 75.0455 156.163 75.0455C156.444 75.0455 156.684 75.1458 156.885 75.3466C157.086 75.5473 157.186 75.7879 157.186 76.0682C157.186 76.2538 157.139 76.4242 157.044 76.5795C156.953 76.7348 156.83 76.8598 156.675 76.9545C156.523 77.0455 156.353 77.0909 156.163 77.0909ZM160.25 77.0909C159.969 77.0909 159.729 76.9905 159.528 76.7898C159.327 76.589 159.227 76.3485 159.227 76.0682C159.227 75.7879 159.327 75.5473 159.528 75.3466C159.729 75.1458 159.969 75.0455 160.25 75.0455C160.53 75.0455 160.77 75.1458 160.971 75.3466C161.172 75.5473 161.272 75.7879 161.272 76.0682C161.272 76.2538 161.225 76.4242 161.13 76.5795C161.039 76.7348 160.916 76.8598 160.761 76.9545C160.609 77.0455 160.439 77.0909 160.25 77.0909ZM164.336 77.0909C164.055 77.0909 163.815 76.9905 163.614 76.7898C163.413 76.589 163.313 76.3485 163.313 76.0682C163.313 75.7879 163.413 75.5473 163.614 75.3466C163.815 75.1458 164.055 75.0455 164.336 75.0455C164.616 75.0455 164.857 75.1458 165.057 75.3466C165.258 75.5473 165.359 75.7879 165.359 76.0682C165.359 76.2538 165.311 76.4242 165.216 76.5795C165.126 76.7348 165.002 76.8598 164.847 76.9545C164.696 77.0455 164.525 77.0909 164.336 77.0909ZM27.2045 103L24.5455 94.2727H25.9545L27.8409 100.955H27.9318L29.7955 94.2727H31.2273L33.0682 100.932H33.1591L35.0455 94.2727H36.4545L33.7955 103H32.4773L30.5682 96.2955H30.4318L28.5227 103H27.2045ZM39.2482 97.75V103H37.9073V91.3636H39.2482V95.6364H39.3618C39.5664 95.1856 39.8732 94.8277 40.2823 94.5625C40.6952 94.2936 41.2444 94.1591 41.93 94.1591C42.5247 94.1591 43.0455 94.2784 43.4925 94.517C43.9395 94.7519 44.2861 95.1136 44.5323 95.6023C44.7823 96.0871 44.9073 96.7045 44.9073 97.4545V103H43.5664V97.5455C43.5664 96.8523 43.3864 96.3163 43.0266 95.9375C42.6705 95.5549 42.1762 95.3636 41.5436 95.3636C41.1042 95.3636 40.7103 95.4564 40.3618 95.642C40.0171 95.8277 39.7444 96.0985 39.5436 96.4545C39.3467 96.8106 39.2482 97.2424 39.2482 97.75ZM49.6086 103.205C49.0556 103.205 48.5537 103.1 48.1029 102.892C47.6521 102.68 47.2942 102.375 47.029 101.977C46.7639 101.576 46.6313 101.091 46.6313 100.523C46.6313 100.023 46.7298 99.6174 46.9268 99.3068C47.1237 98.9924 47.387 98.7462 47.7165 98.5682C48.0461 98.3902 48.4097 98.2576 48.8074 98.1705C49.209 98.0795 49.6124 98.0076 50.0177 97.9545C50.548 97.8864 50.9779 97.8352 51.3074 97.8011C51.6408 97.7633 51.8832 97.7008 52.0347 97.6136C52.19 97.5265 52.2677 97.375 52.2677 97.1591V97.1136C52.2677 96.553 52.1143 96.1174 51.8074 95.8068C51.5044 95.4962 51.0442 95.3409 50.4268 95.3409C49.7866 95.3409 49.2847 95.4811 48.9211 95.7614C48.5574 96.0417 48.3018 96.3409 48.154 96.6591L46.8813 96.2045C47.1086 95.6742 47.4116 95.2614 47.7904 94.9659C48.173 94.6667 48.5896 94.4583 49.0404 94.3409C49.4949 94.2197 49.9419 94.1591 50.3813 94.1591C50.6616 94.1591 50.9836 94.1932 51.3472 94.2614C51.7146 94.3258 52.0688 94.4602 52.4097 94.6648C52.7544 94.8693 53.0404 95.178 53.2677 95.5909C53.4949 96.0038 53.6086 96.5568 53.6086 97.25V103H52.2677V101.818H52.1995C52.1086 102.008 51.9571 102.21 51.7449 102.426C51.5328 102.642 51.2506 102.826 50.8984 102.977C50.5461 103.129 50.1162 103.205 49.6086 103.205ZM49.8131 102C50.3434 102 50.7904 101.896 51.154 101.688C51.5215 101.479 51.798 101.21 51.9836 100.881C52.173 100.551 52.2677 100.205 52.2677 99.8409V98.6136C52.2109 98.6818 52.0859 98.7443 51.8927 98.8011C51.7033 98.8542 51.4836 98.9015 51.2336 98.9432C50.9874 98.9811 50.7468 99.0152 50.512 99.0455C50.2809 99.072 50.0934 99.0947 49.9495 99.1136C49.601 99.1591 49.2752 99.233 48.9722 99.3352C48.673 99.4337 48.4305 99.5833 48.2449 99.7841C48.0631 99.9811 47.9722 100.25 47.9722 100.591C47.9722 101.057 48.1446 101.409 48.4893 101.648C48.8377 101.883 49.279 102 49.8131 102ZM59.5315 94.2727V95.4091H55.0088V94.2727H59.5315ZM56.3269 92.1818H57.6678V100.5C57.6678 100.879 57.7228 101.163 57.8326 101.352C57.9463 101.538 58.0902 101.663 58.2644 101.727C58.4425 101.788 58.63 101.818 58.8269 101.818C58.9747 101.818 59.0959 101.811 59.1906 101.795C59.2853 101.777 59.361 101.761 59.4178 101.75L59.6906 102.955C59.5997 102.989 59.4728 103.023 59.3099 103.057C59.147 103.095 58.9406 103.114 58.6906 103.114C58.3118 103.114 57.9406 103.032 57.5769 102.869C57.2171 102.706 56.9178 102.458 56.6792 102.125C56.4444 101.792 56.3269 101.371 56.3269 100.864V92.1818ZM65.4085 103V94.2727H66.7494V103H65.4085ZM66.0903 92.8182C65.829 92.8182 65.6036 92.7292 65.4142 92.5511C65.2286 92.3731 65.1358 92.1591 65.1358 91.9091C65.1358 91.6591 65.2286 91.4451 65.4142 91.267C65.6036 91.089 65.829 91 66.0903 91C66.3517 91 66.5752 91.089 66.7608 91.267C66.9502 91.4451 67.0449 91.6591 67.0449 91.9091C67.0449 92.1591 66.9502 92.3731 66.7608 92.5511C66.5752 92.7292 66.3517 92.8182 66.0903 92.8182ZM70.2263 97.75V103H68.8854V94.2727H70.1809V95.6364H70.2945C70.499 95.1932 70.8096 94.8371 71.2263 94.5682C71.643 94.2955 72.1809 94.1591 72.8399 94.1591C73.4309 94.1591 73.9479 94.2803 74.3911 94.5227C74.8343 94.7614 75.179 95.125 75.4252 95.6136C75.6714 96.0985 75.7945 96.7121 75.7945 97.4545V103H74.4536V97.5455C74.4536 96.8598 74.2756 96.3258 73.9195 95.9432C73.5634 95.5568 73.0748 95.3636 72.4536 95.3636C72.0256 95.3636 71.643 95.4564 71.3059 95.642C70.9725 95.8277 70.7093 96.0985 70.5161 96.4545C70.3229 96.8106 70.2263 97.2424 70.2263 97.75ZM81.4475 106.455C80.7998 106.455 80.243 106.371 79.777 106.205C79.3111 106.042 78.9229 105.826 78.6123 105.557C78.3055 105.292 78.0611 105.008 77.8793 104.705L78.9475 103.955C79.0687 104.114 79.2221 104.295 79.4077 104.5C79.5933 104.708 79.8471 104.888 80.1691 105.04C80.4948 105.195 80.921 105.273 81.4475 105.273C82.152 105.273 82.7335 105.102 83.1918 104.761C83.6502 104.42 83.8793 103.886 83.8793 103.159V101.386H83.7657C83.6672 101.545 83.527 101.742 83.3452 101.977C83.1672 102.208 82.9096 102.415 82.5725 102.597C82.2392 102.775 81.7884 102.864 81.2202 102.864C80.5157 102.864 79.8831 102.697 79.3225 102.364C78.7657 102.03 78.3244 101.545 77.9986 100.909C77.6767 100.273 77.5157 99.5 77.5157 98.5909C77.5157 97.697 77.6729 96.9186 77.9873 96.2557C78.3017 95.589 78.7392 95.0739 79.2998 94.7102C79.8604 94.3428 80.5081 94.1591 81.243 94.1591C81.8111 94.1591 82.2619 94.2538 82.5952 94.4432C82.9323 94.6288 83.1899 94.8409 83.368 95.0795C83.5498 95.3144 83.6899 95.5076 83.7884 95.6591H83.9248V94.2727H85.2202V103.25C85.2202 104 85.0498 104.61 84.7089 105.08C84.3717 105.553 83.9172 105.9 83.3452 106.119C82.777 106.343 82.1445 106.455 81.4475 106.455ZM81.402 101.659C81.9399 101.659 82.3945 101.536 82.7657 101.29C83.1369 101.044 83.4191 100.689 83.6123 100.227C83.8055 99.7652 83.902 99.2121 83.902 98.5682C83.902 97.9394 83.8073 97.3845 83.618 96.9034C83.4286 96.4223 83.1483 96.0455 82.777 95.7727C82.4058 95.5 81.9475 95.3636 81.402 95.3636C80.8339 95.3636 80.3604 95.5076 79.9816 95.7955C79.6066 96.0833 79.3244 96.4697 79.135 96.9545C78.9494 97.4394 78.8566 97.9773 78.8566 98.5682C78.8566 99.1742 78.9513 99.7102 79.1407 100.176C79.3339 100.638 79.618 101.002 79.993 101.267C80.3717 101.528 80.8414 101.659 81.402 101.659ZM87.3548 103V94.2727H88.6502V95.5909H88.7411C88.9002 95.1591 89.1881 94.8087 89.6048 94.5398C90.0214 94.2708 90.4911 94.1364 91.0139 94.1364C91.1123 94.1364 91.2355 94.1383 91.3832 94.142C91.5309 94.1458 91.6427 94.1515 91.7184 94.1591V95.5227C91.673 95.5114 91.5688 95.4943 91.4059 95.4716C91.2468 95.4451 91.0783 95.4318 90.9002 95.4318C90.476 95.4318 90.0972 95.5208 89.7639 95.6989C89.4343 95.8731 89.173 96.1155 88.9798 96.4261C88.7904 96.733 88.6957 97.0833 88.6957 97.4773V103H87.3548ZM96.3814 103.182C95.5405 103.182 94.8151 102.996 94.2052 102.625C93.5992 102.25 93.1314 101.727 92.8018 101.057C92.4761 100.383 92.3132 99.5985 92.3132 98.7045C92.3132 97.8106 92.4761 97.0227 92.8018 96.3409C93.1314 95.6553 93.5897 95.1212 94.1768 94.7386C94.7677 94.3523 95.4571 94.1591 96.245 94.1591C96.6995 94.1591 97.1484 94.2348 97.5916 94.3864C98.0348 94.5379 98.4382 94.7841 98.8018 95.125C99.1655 95.4621 99.4552 95.9091 99.6711 96.4659C99.887 97.0227 99.995 97.7083 99.995 98.5227V99.0909H93.2677V97.9318H98.6314C98.6314 97.4394 98.5329 97 98.3359 96.6136C98.1427 96.2273 97.8662 95.9223 97.5064 95.6989C97.1503 95.4754 96.7299 95.3636 96.245 95.3636C95.7109 95.3636 95.2488 95.4962 94.8586 95.7614C94.4723 96.0227 94.1749 96.3636 93.9666 96.7841C93.7583 97.2045 93.6541 97.6553 93.6541 98.1364V98.9091C93.6541 99.5682 93.7677 100.127 93.995 100.585C94.2261 101.04 94.5461 101.386 94.9552 101.625C95.3643 101.86 95.8397 101.977 96.3814 101.977C96.7336 101.977 97.0518 101.928 97.3359 101.83C97.6238 101.727 97.8719 101.576 98.0802 101.375C98.2886 101.17 98.4495 100.917 98.5632 100.614L99.8586 100.977C99.7223 101.417 99.4931 101.803 99.1711 102.136C98.8492 102.466 98.4514 102.723 97.978 102.909C97.5045 103.091 96.9723 103.182 96.3814 103.182ZM105.01 103.182C104.283 103.182 103.641 102.998 103.084 102.631C102.527 102.259 102.092 101.737 101.777 101.062C101.463 100.384 101.306 99.5833 101.306 98.6591C101.306 97.7424 101.463 96.947 101.777 96.2727C102.092 95.5985 102.529 95.0777 103.09 94.7102C103.65 94.3428 104.298 94.1591 105.033 94.1591C105.601 94.1591 106.05 94.2538 106.38 94.4432C106.713 94.6288 106.967 94.8409 107.141 95.0795C107.319 95.3144 107.457 95.5076 107.556 95.6591H107.669V91.3636H109.01V103H107.715V101.659H107.556C107.457 101.818 107.317 102.019 107.135 102.261C106.953 102.5 106.694 102.714 106.357 102.903C106.02 103.089 105.571 103.182 105.01 103.182ZM105.192 101.977C105.73 101.977 106.184 101.837 106.556 101.557C106.927 101.273 107.209 100.881 107.402 100.381C107.595 99.8769 107.692 99.2955 107.692 98.6364C107.692 97.9848 107.597 97.4148 107.408 96.9261C107.219 96.4337 106.938 96.0511 106.567 95.7784C106.196 95.5019 105.738 95.3636 105.192 95.3636C104.624 95.3636 104.15 95.5095 103.772 95.8011C103.397 96.089 103.114 96.4811 102.925 96.9773C102.739 97.4697 102.647 98.0227 102.647 98.6364C102.647 99.2576 102.741 99.822 102.931 100.33C103.124 100.833 103.408 101.235 103.783 101.534C104.162 101.83 104.631 101.977 105.192 101.977ZM111.332 103V94.2727H112.673V103H111.332ZM112.014 92.8182C111.753 92.8182 111.527 92.7292 111.338 92.5511C111.152 92.3731 111.06 92.1591 111.06 91.9091C111.06 91.6591 111.152 91.4451 111.338 91.267C111.527 91.089 111.753 91 112.014 91C112.275 91 112.499 91.089 112.685 91.267C112.874 91.4451 112.969 91.6591 112.969 91.9091C112.969 92.1591 112.874 92.3731 112.685 92.5511C112.499 92.7292 112.275 92.8182 112.014 92.8182ZM118.468 103.182C117.627 103.182 116.902 102.996 116.292 102.625C115.686 102.25 115.218 101.727 114.889 101.057C114.563 100.383 114.4 99.5985 114.4 98.7045C114.4 97.8106 114.563 97.0227 114.889 96.3409C115.218 95.6553 115.677 95.1212 116.264 94.7386C116.855 94.3523 117.544 94.1591 118.332 94.1591C118.786 94.1591 119.235 94.2348 119.678 94.3864C120.122 94.5379 120.525 94.7841 120.889 95.125C121.252 95.4621 121.542 95.9091 121.758 96.4659C121.974 97.0227 122.082 97.7083 122.082 98.5227V99.0909H115.355V97.9318H120.718C120.718 97.4394 120.62 97 120.423 96.6136C120.23 96.2273 119.953 95.9223 119.593 95.6989C119.237 95.4754 118.817 95.3636 118.332 95.3636C117.798 95.3636 117.336 95.4962 116.946 95.7614C116.559 96.0227 116.262 96.3636 116.053 96.7841C115.845 97.2045 115.741 97.6553 115.741 98.1364V98.9091C115.741 99.5682 115.855 100.127 116.082 100.585C116.313 101.04 116.633 101.386 117.042 101.625C117.451 101.86 117.927 101.977 118.468 101.977C118.821 101.977 119.139 101.928 119.423 101.83C119.711 101.727 119.959 101.576 120.167 101.375C120.375 101.17 120.536 100.917 120.65 100.614L121.946 100.977C121.809 101.417 121.58 101.803 121.258 102.136C120.936 102.466 120.538 102.723 120.065 102.909C119.591 103.091 119.059 103.182 118.468 103.182ZM125.143 97.75V103H123.802V94.2727H125.097V95.6364H125.211C125.415 95.1932 125.726 94.8371 126.143 94.5682C126.559 94.2955 127.097 94.1591 127.756 94.1591C128.347 94.1591 128.864 94.2803 129.307 94.5227C129.751 94.7614 130.095 95.125 130.341 95.6136C130.588 96.0985 130.711 96.7121 130.711 97.4545V103H129.37V97.5455C129.37 96.8598 129.192 96.3258 128.836 95.9432C128.48 95.5568 127.991 95.3636 127.37 95.3636C126.942 95.3636 126.559 95.4564 126.222 95.642C125.889 95.8277 125.626 96.0985 125.432 96.4545C125.239 96.8106 125.143 97.2424 125.143 97.75ZM136.636 94.2727V95.4091H132.114V94.2727H136.636ZM133.432 92.1818H134.773V100.5C134.773 100.879 134.828 101.163 134.938 101.352C135.051 101.538 135.195 101.663 135.369 101.727C135.547 101.788 135.735 101.818 135.932 101.818C136.08 101.818 136.201 101.811 136.296 101.795C136.39 101.777 136.466 101.761 136.523 101.75L136.796 102.955C136.705 102.989 136.578 103.023 136.415 103.057C136.252 103.095 136.046 103.114 135.796 103.114C135.417 103.114 135.046 103.032 134.682 102.869C134.322 102.706 134.023 102.458 133.784 102.125C133.549 101.792 133.432 101.371 133.432 100.864V92.1818ZM144.359 96.2273L143.155 96.5682C143.079 96.3674 142.967 96.1723 142.819 95.983C142.675 95.7898 142.478 95.6307 142.228 95.5057C141.978 95.3807 141.658 95.3182 141.268 95.3182C140.734 95.3182 140.289 95.4413 139.933 95.6875C139.581 95.9299 139.405 96.2386 139.405 96.6136C139.405 96.947 139.526 97.2102 139.768 97.4034C140.011 97.5966 140.389 97.7576 140.905 97.8864L142.2 98.2045C142.98 98.3939 143.562 98.6837 143.944 99.0739C144.327 99.4602 144.518 99.9583 144.518 100.568C144.518 101.068 144.374 101.515 144.086 101.909C143.802 102.303 143.405 102.614 142.893 102.841C142.382 103.068 141.787 103.182 141.109 103.182C140.219 103.182 139.482 102.989 138.899 102.602C138.316 102.216 137.946 101.652 137.791 100.909L139.064 100.591C139.185 101.061 139.414 101.413 139.751 101.648C140.092 101.883 140.537 102 141.086 102C141.711 102 142.208 101.867 142.575 101.602C142.946 101.333 143.132 101.011 143.132 100.636C143.132 100.333 143.026 100.08 142.814 99.875C142.602 99.6667 142.276 99.5114 141.836 99.4091L140.382 99.0682C139.583 98.8788 138.995 98.5852 138.62 98.1875C138.249 97.786 138.064 97.2841 138.064 96.6818C138.064 96.1894 138.202 95.7538 138.478 95.375C138.759 94.9962 139.139 94.6989 139.62 94.483C140.105 94.267 140.655 94.1591 141.268 94.1591C142.132 94.1591 142.81 94.3485 143.302 94.7273C143.798 95.1061 144.151 95.6061 144.359 96.2273ZM31.4091 122.227L30.2045 122.568C30.1288 122.367 30.017 122.172 29.8693 121.983C29.7254 121.79 29.5284 121.631 29.2784 121.506C29.0284 121.381 28.7083 121.318 28.3182 121.318C27.7841 121.318 27.339 121.441 26.983 121.688C26.6307 121.93 26.4545 122.239 26.4545 122.614C26.4545 122.947 26.5758 123.21 26.8182 123.403C27.0606 123.597 27.4394 123.758 27.9545 123.886L29.25 124.205C30.0303 124.394 30.6117 124.684 30.9943 125.074C31.3769 125.46 31.5682 125.958 31.5682 126.568C31.5682 127.068 31.4242 127.515 31.1364 127.909C30.8523 128.303 30.4545 128.614 29.9432 128.841C29.4318 129.068 28.8371 129.182 28.1591 129.182C27.2689 129.182 26.5322 128.989 25.9489 128.602C25.3655 128.216 24.9962 127.652 24.8409 126.909L26.1136 126.591C26.2348 127.061 26.464 127.413 26.8011 127.648C27.142 127.883 27.5871 128 28.1364 128C28.7614 128 29.2576 127.867 29.625 127.602C29.9962 127.333 30.1818 127.011 30.1818 126.636C30.1818 126.333 30.0758 126.08 29.8636 125.875C29.6515 125.667 29.3258 125.511 28.8864 125.409L27.4318 125.068C26.6326 124.879 26.0455 124.585 25.6705 124.188C25.2992 123.786 25.1136 123.284 25.1136 122.682C25.1136 122.189 25.2519 121.754 25.5284 121.375C25.8087 120.996 26.1894 120.699 26.6705 120.483C27.1553 120.267 27.7045 120.159 28.3182 120.159C29.1818 120.159 29.8598 120.348 30.3523 120.727C30.8485 121.106 31.2008 121.606 31.4091 122.227ZM34.6076 123.75V129H33.2666V117.364H34.6076V121.636H34.7212C34.9257 121.186 35.2326 120.828 35.6416 120.562C36.0545 120.294 36.6038 120.159 37.2894 120.159C37.8841 120.159 38.4049 120.278 38.8519 120.517C39.2988 120.752 39.6454 121.114 39.8916 121.602C40.1416 122.087 40.2666 122.705 40.2666 123.455V129H38.9257V123.545C38.9257 122.852 38.7458 122.316 38.386 121.938C38.0299 121.555 37.5356 121.364 36.903 121.364C36.4636 121.364 36.0697 121.456 35.7212 121.642C35.3765 121.828 35.1038 122.098 34.903 122.455C34.706 122.811 34.6076 123.242 34.6076 123.75ZM45.9452 129.182C45.1573 129.182 44.4661 128.994 43.8714 128.619C43.2805 128.244 42.8183 127.72 42.485 127.045C42.1555 126.371 41.9907 125.583 41.9907 124.682C41.9907 123.773 42.1555 122.979 42.485 122.301C42.8183 121.623 43.2805 121.097 43.8714 120.722C44.4661 120.347 45.1573 120.159 45.9452 120.159C46.7331 120.159 47.4225 120.347 48.0134 120.722C48.6081 121.097 49.0702 121.623 49.3998 122.301C49.7331 122.979 49.8998 123.773 49.8998 124.682C49.8998 125.583 49.7331 126.371 49.3998 127.045C49.0702 127.72 48.6081 128.244 48.0134 128.619C47.4225 128.994 46.7331 129.182 45.9452 129.182ZM45.9452 127.977C46.5437 127.977 47.0361 127.824 47.4225 127.517C47.8089 127.21 48.0948 126.807 48.2805 126.307C48.4661 125.807 48.5589 125.265 48.5589 124.682C48.5589 124.098 48.4661 123.555 48.2805 123.051C48.0948 122.547 47.8089 122.14 47.4225 121.83C47.0361 121.519 46.5437 121.364 45.9452 121.364C45.3467 121.364 44.8543 121.519 44.468 121.83C44.0816 122.14 43.7956 122.547 43.61 123.051C43.4244 123.555 43.3316 124.098 43.3316 124.682C43.3316 125.265 43.4244 125.807 43.61 126.307C43.7956 126.807 44.0816 127.21 44.468 127.517C44.8543 127.824 45.3467 127.977 45.9452 127.977ZM57.1266 125.432V120.273H58.4676V129H57.1266V127.523H57.0357C56.8312 127.966 56.513 128.343 56.0812 128.653C55.6494 128.96 55.1039 129.114 54.4448 129.114C53.8994 129.114 53.4145 128.994 52.9903 128.756C52.566 128.513 52.2327 128.15 51.9903 127.665C51.7479 127.176 51.6266 126.561 51.6266 125.818V120.273H52.9676V125.727C52.9676 126.364 53.1456 126.871 53.5016 127.25C53.8615 127.629 54.3198 127.818 54.8766 127.818C55.21 127.818 55.549 127.733 55.8937 127.562C56.2422 127.392 56.5338 127.131 56.7687 126.778C57.0073 126.426 57.1266 125.977 57.1266 125.432ZM61.9444 117.364V129H60.6035V117.364H61.9444ZM67.3759 129.182C66.6486 129.182 66.0065 128.998 65.4497 128.631C64.8929 128.259 64.4573 127.737 64.1429 127.062C63.8285 126.384 63.6713 125.583 63.6713 124.659C63.6713 123.742 63.8285 122.947 64.1429 122.273C64.4573 121.598 64.8948 121.078 65.4554 120.71C66.016 120.343 66.6637 120.159 67.3986 120.159C67.9668 120.159 68.4156 120.254 68.7452 120.443C69.0785 120.629 69.3323 120.841 69.5065 121.08C69.6846 121.314 69.8228 121.508 69.9213 121.659H70.0349V117.364H71.3759V129H70.0804V127.659H69.9213C69.8228 127.818 69.6827 128.019 69.5009 128.261C69.319 128.5 69.0596 128.714 68.7224 128.903C68.3853 129.089 67.9365 129.182 67.3759 129.182ZM67.5577 127.977C68.0956 127.977 68.5501 127.837 68.9213 127.557C69.2925 127.273 69.5747 126.881 69.7679 126.381C69.9611 125.877 70.0577 125.295 70.0577 124.636C70.0577 123.985 69.963 123.415 69.7736 122.926C69.5842 122.434 69.3039 122.051 68.9327 121.778C68.5615 121.502 68.1031 121.364 67.5577 121.364C66.9895 121.364 66.516 121.509 66.1372 121.801C65.7622 122.089 65.48 122.481 65.2906 122.977C65.105 123.47 65.0122 124.023 65.0122 124.636C65.0122 125.258 65.1069 125.822 65.2963 126.33C65.4895 126.833 65.7736 127.235 66.1486 127.534C66.5274 127.83 66.9971 127.977 67.5577 127.977ZM79.4688 117.364V129H78.0597V117.364H79.4688ZM88.5405 129.205C87.9874 129.205 87.4855 129.1 87.0348 128.892C86.584 128.68 86.2261 128.375 85.9609 127.977C85.6958 127.576 85.5632 127.091 85.5632 126.523C85.5632 126.023 85.6617 125.617 85.8586 125.307C86.0556 124.992 86.3189 124.746 86.6484 124.568C86.978 124.39 87.3416 124.258 87.7393 124.17C88.1408 124.08 88.5442 124.008 88.9495 123.955C89.4798 123.886 89.9098 123.835 90.2393 123.801C90.5727 123.763 90.8151 123.701 90.9666 123.614C91.1219 123.527 91.1995 123.375 91.1995 123.159V123.114C91.1995 122.553 91.0461 122.117 90.7393 121.807C90.4363 121.496 89.9761 121.341 89.3586 121.341C88.7185 121.341 88.2166 121.481 87.853 121.761C87.4893 122.042 87.2336 122.341 87.0859 122.659L85.8132 122.205C86.0405 121.674 86.3435 121.261 86.7223 120.966C87.1048 120.667 87.5215 120.458 87.9723 120.341C88.4268 120.22 88.8738 120.159 89.3132 120.159C89.5935 120.159 89.9155 120.193 90.2791 120.261C90.6465 120.326 91.0007 120.46 91.3416 120.665C91.6863 120.869 91.9723 121.178 92.1995 121.591C92.4268 122.004 92.5405 122.557 92.5405 123.25V129H91.1995V127.818H91.1314C91.0405 128.008 90.8889 128.21 90.6768 128.426C90.4647 128.642 90.1825 128.826 89.8302 128.977C89.478 129.129 89.048 129.205 88.5405 129.205ZM88.745 128C89.2753 128 89.7223 127.896 90.0859 127.688C90.4533 127.479 90.7298 127.21 90.9155 126.881C91.1048 126.551 91.1995 126.205 91.1995 125.841V124.614C91.1427 124.682 91.0177 124.744 90.8245 124.801C90.6352 124.854 90.4155 124.902 90.1655 124.943C89.9192 124.981 89.6787 125.015 89.4439 125.045C89.2128 125.072 89.0253 125.095 88.8814 125.114C88.5329 125.159 88.2071 125.233 87.9041 125.335C87.6048 125.434 87.3624 125.583 87.1768 125.784C86.995 125.981 86.9041 126.25 86.9041 126.591C86.9041 127.057 87.0764 127.409 87.4211 127.648C87.7696 127.883 88.2109 128 88.745 128ZM97.9634 129.182C97.2361 129.182 96.594 128.998 96.0372 128.631C95.4804 128.259 95.0448 127.737 94.7304 127.062C94.416 126.384 94.2588 125.583 94.2588 124.659C94.2588 123.742 94.416 122.947 94.7304 122.273C95.0448 121.598 95.4823 121.078 96.0429 120.71C96.6035 120.343 97.2512 120.159 97.9861 120.159C98.5543 120.159 99.0031 120.254 99.3327 120.443C99.666 120.629 99.9198 120.841 100.094 121.08C100.272 121.314 100.41 121.508 100.509 121.659H100.622V117.364H101.963V129H100.668V127.659H100.509C100.41 127.818 100.27 128.019 100.088 128.261C99.9065 128.5 99.6471 128.714 99.3099 128.903C98.9728 129.089 98.524 129.182 97.9634 129.182ZM98.1452 127.977C98.6831 127.977 99.1376 127.837 99.5088 127.557C99.88 127.273 100.162 126.881 100.355 126.381C100.549 125.877 100.645 125.295 100.645 124.636C100.645 123.985 100.55 123.415 100.361 122.926C100.172 122.434 99.8914 122.051 99.5202 121.778C99.149 121.502 98.6906 121.364 98.1452 121.364C97.577 121.364 97.1035 121.509 96.7247 121.801C96.3497 122.089 96.0675 122.481 95.8781 122.977C95.6925 123.47 95.5997 124.023 95.5997 124.636C95.5997 125.258 95.6944 125.822 95.8838 126.33C96.077 126.833 96.3611 127.235 96.7361 127.534C97.1149 127.83 97.5846 127.977 98.1452 127.977ZM107.581 129.182C106.854 129.182 106.212 128.998 105.655 128.631C105.098 128.259 104.662 127.737 104.348 127.062C104.034 126.384 103.876 125.583 103.876 124.659C103.876 123.742 104.034 122.947 104.348 122.273C104.662 121.598 105.1 121.078 105.66 120.71C106.221 120.343 106.869 120.159 107.604 120.159C108.172 120.159 108.621 120.254 108.95 120.443C109.284 120.629 109.537 120.841 109.712 121.08C109.89 121.314 110.028 121.508 110.126 121.659H110.24V117.364H111.581V129H110.285V127.659H110.126C110.028 127.818 109.888 128.019 109.706 128.261C109.524 128.5 109.265 128.714 108.927 128.903C108.59 129.089 108.141 129.182 107.581 129.182ZM107.763 127.977C108.301 127.977 108.755 127.837 109.126 127.557C109.498 127.273 109.78 126.881 109.973 126.381C110.166 125.877 110.263 125.295 110.263 124.636C110.263 123.985 110.168 123.415 109.979 122.926C109.789 122.434 109.509 122.051 109.138 121.778C108.766 121.502 108.308 121.364 107.763 121.364C107.194 121.364 106.721 121.509 106.342 121.801C105.967 122.089 105.685 122.481 105.496 122.977C105.31 123.47 105.217 124.023 105.217 124.636C105.217 125.258 105.312 125.822 105.501 126.33C105.694 126.833 105.979 127.235 106.354 127.534C106.732 127.83 107.202 127.977 107.763 127.977ZM121.878 120.273V121.409H117.356V120.273H121.878ZM118.674 118.182H120.015V126.5C120.015 126.879 120.07 127.163 120.179 127.352C120.293 127.538 120.437 127.663 120.611 127.727C120.789 127.788 120.977 127.818 121.174 127.818C121.322 127.818 121.443 127.811 121.537 127.795C121.632 127.777 121.708 127.761 121.765 127.75L122.037 128.955C121.947 128.989 121.82 129.023 121.657 129.057C121.494 129.095 121.287 129.114 121.037 129.114C120.659 129.114 120.287 129.032 119.924 128.869C119.564 128.706 119.265 128.458 119.026 128.125C118.791 127.792 118.674 127.371 118.674 126.864V118.182ZM127.027 129.182C126.239 129.182 125.548 128.994 124.953 128.619C124.362 128.244 123.9 127.72 123.567 127.045C123.237 126.371 123.073 125.583 123.073 124.682C123.073 123.773 123.237 122.979 123.567 122.301C123.9 121.623 124.362 121.097 124.953 120.722C125.548 120.347 126.239 120.159 127.027 120.159C127.815 120.159 128.504 120.347 129.095 120.722C129.69 121.097 130.152 121.623 130.482 122.301C130.815 122.979 130.982 123.773 130.982 124.682C130.982 125.583 130.815 126.371 130.482 127.045C130.152 127.72 129.69 128.244 129.095 128.619C128.504 128.994 127.815 129.182 127.027 129.182ZM127.027 127.977C127.626 127.977 128.118 127.824 128.504 127.517C128.891 127.21 129.177 126.807 129.362 126.307C129.548 125.807 129.641 125.265 129.641 124.682C129.641 124.098 129.548 123.555 129.362 123.051C129.177 122.547 128.891 122.14 128.504 121.83C128.118 121.519 127.626 121.364 127.027 121.364C126.429 121.364 125.936 121.519 125.55 121.83C125.163 122.14 124.877 122.547 124.692 123.051C124.506 123.555 124.413 124.098 124.413 124.682C124.413 125.265 124.506 125.807 124.692 126.307C124.877 126.807 125.163 127.21 125.55 127.517C125.936 127.824 126.429 127.977 127.027 127.977ZM136.889 129V120.273H138.184V121.636H138.298C138.479 121.17 138.773 120.809 139.178 120.551C139.584 120.29 140.07 120.159 140.639 120.159C141.214 120.159 141.693 120.29 142.076 120.551C142.462 120.809 142.764 121.17 142.979 121.636H143.07C143.294 121.186 143.629 120.828 144.076 120.562C144.523 120.294 145.059 120.159 145.684 120.159C146.464 120.159 147.103 120.403 147.599 120.892C148.095 121.377 148.343 122.133 148.343 123.159V129H147.002V123.159C147.002 122.515 146.826 122.055 146.474 121.778C146.121 121.502 145.707 121.364 145.229 121.364C144.616 121.364 144.14 121.549 143.803 121.92C143.466 122.288 143.298 122.754 143.298 123.318V129H141.934V123.023C141.934 122.527 141.773 122.127 141.451 121.824C141.129 121.517 140.714 121.364 140.207 121.364C139.858 121.364 139.532 121.456 139.229 121.642C138.93 121.828 138.688 122.085 138.502 122.415C138.32 122.741 138.229 123.117 138.229 123.545V129H136.889ZM151.026 132.273C150.799 132.273 150.596 132.254 150.418 132.216C150.24 132.182 150.117 132.148 150.049 132.114L150.39 130.932C150.715 131.015 151.003 131.045 151.253 131.023C151.503 131 151.725 130.888 151.918 130.688C152.115 130.491 152.295 130.17 152.458 129.727L152.708 129.045L149.48 120.273H150.935L153.344 127.227H153.435L155.844 120.273H157.299L153.594 130.273C153.427 130.723 153.221 131.097 152.975 131.392C152.729 131.691 152.443 131.913 152.117 132.057C151.795 132.201 151.431 132.273 151.026 132.273ZM166.224 129.182C165.497 129.182 164.855 128.998 164.298 128.631C163.741 128.259 163.305 127.737 162.991 127.062C162.677 126.384 162.519 125.583 162.519 124.659C162.519 123.742 162.677 122.947 162.991 122.273C163.305 121.598 163.743 121.078 164.304 120.71C164.864 120.343 165.512 120.159 166.247 120.159C166.815 120.159 167.264 120.254 167.593 120.443C167.927 120.629 168.18 120.841 168.355 121.08C168.533 121.314 168.671 121.508 168.769 121.659H168.883V117.364H170.224V129H168.929V127.659H168.769C168.671 127.818 168.531 128.019 168.349 128.261C168.167 128.5 167.908 128.714 167.571 128.903C167.233 129.089 166.785 129.182 166.224 129.182ZM166.406 127.977C166.944 127.977 167.398 127.837 167.769 127.557C168.141 127.273 168.423 126.881 168.616 126.381C168.809 125.877 168.906 125.295 168.906 124.636C168.906 123.985 168.811 123.415 168.622 122.926C168.432 122.434 168.152 122.051 167.781 121.778C167.41 121.502 166.951 121.364 166.406 121.364C165.838 121.364 165.364 121.509 164.985 121.801C164.61 122.089 164.328 122.481 164.139 122.977C163.953 123.47 163.86 124.023 163.86 124.636C163.86 125.258 163.955 125.822 164.144 126.33C164.338 126.833 164.622 127.235 164.997 127.534C165.375 127.83 165.845 127.977 166.406 127.977ZM172.546 129V120.273H173.887V129H172.546ZM173.228 118.818C172.966 118.818 172.741 118.729 172.552 118.551C172.366 118.373 172.273 118.159 172.273 117.909C172.273 117.659 172.366 117.445 172.552 117.267C172.741 117.089 172.966 117 173.228 117C173.489 117 173.713 117.089 173.898 117.267C174.088 117.445 174.182 117.659 174.182 117.909C174.182 118.159 174.088 118.373 173.898 118.551C173.713 118.729 173.489 118.818 173.228 118.818ZM179.682 129.182C178.841 129.182 178.116 128.996 177.506 128.625C176.9 128.25 176.432 127.727 176.102 127.057C175.777 126.383 175.614 125.598 175.614 124.705C175.614 123.811 175.777 123.023 176.102 122.341C176.432 121.655 176.89 121.121 177.477 120.739C178.068 120.352 178.758 120.159 179.546 120.159C180 120.159 180.449 120.235 180.892 120.386C181.335 120.538 181.739 120.784 182.102 121.125C182.466 121.462 182.756 121.909 182.972 122.466C183.188 123.023 183.296 123.708 183.296 124.523V125.091H176.568V123.932H181.932C181.932 123.439 181.834 123 181.637 122.614C181.443 122.227 181.167 121.922 180.807 121.699C180.451 121.475 180.03 121.364 179.546 121.364C179.012 121.364 178.549 121.496 178.159 121.761C177.773 122.023 177.476 122.364 177.267 122.784C177.059 123.205 176.955 123.655 176.955 124.136V124.909C176.955 125.568 177.068 126.127 177.296 126.585C177.527 127.04 177.847 127.386 178.256 127.625C178.665 127.86 179.14 127.977 179.682 127.977C180.034 127.977 180.352 127.928 180.637 127.83C180.924 127.727 181.173 127.576 181.381 127.375C181.589 127.17 181.75 126.917 181.864 126.614L183.159 126.977C183.023 127.417 182.794 127.803 182.472 128.136C182.15 128.466 181.752 128.723 181.279 128.909C180.805 129.091 180.273 129.182 179.682 129.182ZM188.811 120.273V121.409H184.288V120.273H188.811ZM185.606 118.182H186.947V126.5C186.947 126.879 187.002 127.163 187.112 127.352C187.226 127.538 187.37 127.663 187.544 127.727C187.722 127.788 187.909 127.818 188.106 127.818C188.254 127.818 188.375 127.811 188.47 127.795C188.565 127.777 188.64 127.761 188.697 127.75L188.97 128.955C188.879 128.989 188.752 129.023 188.589 129.057C188.426 129.095 188.22 129.114 187.97 129.114C187.591 129.114 187.22 129.032 186.856 128.869C186.496 128.706 186.197 128.458 185.959 128.125C185.724 127.792 185.606 127.371 185.606 126.864V118.182ZM29.0227 146.273V147.409H24.5V146.273H29.0227ZM25.8182 144.182H27.1591V152.5C27.1591 152.879 27.214 153.163 27.3239 153.352C27.4375 153.538 27.5814 153.663 27.7557 153.727C27.9337 153.788 28.1212 153.818 28.3182 153.818C28.4659 153.818 28.5871 153.811 28.6818 153.795C28.7765 153.777 28.8523 153.761 28.9091 153.75L29.1818 154.955C29.0909 154.989 28.964 155.023 28.8011 155.057C28.6383 155.095 28.4318 155.114 28.1818 155.114C27.803 155.114 27.4318 155.032 27.0682 154.869C26.7083 154.706 26.4091 154.458 26.1705 154.125C25.9356 153.792 25.8182 153.371 25.8182 152.864V144.182ZM34.1715 155.182C33.3836 155.182 32.6923 154.994 32.0976 154.619C31.5067 154.244 31.0446 153.72 30.7112 153.045C30.3817 152.371 30.2169 151.583 30.2169 150.682C30.2169 149.773 30.3817 148.979 30.7112 148.301C31.0446 147.623 31.5067 147.097 32.0976 146.722C32.6923 146.347 33.3836 146.159 34.1715 146.159C34.9594 146.159 35.6487 146.347 36.2397 146.722C36.8344 147.097 37.2965 147.623 37.626 148.301C37.9594 148.979 38.126 149.773 38.126 150.682C38.126 151.583 37.9594 152.371 37.626 153.045C37.2965 153.72 36.8344 154.244 36.2397 154.619C35.6487 154.994 34.9594 155.182 34.1715 155.182ZM34.1715 153.977C34.77 153.977 35.2624 153.824 35.6487 153.517C36.0351 153.21 36.3211 152.807 36.5067 152.307C36.6923 151.807 36.7851 151.265 36.7851 150.682C36.7851 150.098 36.6923 149.555 36.5067 149.051C36.3211 148.547 36.0351 148.14 35.6487 147.83C35.2624 147.519 34.77 147.364 34.1715 147.364C33.573 147.364 33.0806 147.519 32.6942 147.83C32.3078 148.14 32.0219 148.547 31.8362 149.051C31.6506 149.555 31.5578 150.098 31.5578 150.682C31.5578 151.265 31.6506 151.807 31.8362 152.307C32.0219 152.807 32.3078 153.21 32.6942 153.517C33.0806 153.824 33.573 153.977 34.1715 153.977ZM46.6011 155.205C46.0481 155.205 45.5462 155.1 45.0954 154.892C44.6446 154.68 44.2867 154.375 44.0215 153.977C43.7564 153.576 43.6238 153.091 43.6238 152.523C43.6238 152.023 43.7223 151.617 43.9193 151.307C44.1162 150.992 44.3795 150.746 44.709 150.568C45.0386 150.39 45.4022 150.258 45.7999 150.17C46.2015 150.08 46.6049 150.008 47.0102 149.955C47.5405 149.886 47.9704 149.835 48.2999 149.801C48.6333 149.763 48.8757 149.701 49.0272 149.614C49.1825 149.527 49.2602 149.375 49.2602 149.159V149.114C49.2602 148.553 49.1068 148.117 48.7999 147.807C48.4969 147.496 48.0367 147.341 47.4193 147.341C46.7791 147.341 46.2772 147.481 45.9136 147.761C45.5499 148.042 45.2943 148.341 45.1465 148.659L43.8738 148.205C44.1011 147.674 44.4041 147.261 44.7829 146.966C45.1655 146.667 45.5821 146.458 46.0329 146.341C46.4874 146.22 46.9344 146.159 47.3738 146.159C47.6541 146.159 47.9761 146.193 48.3397 146.261C48.7071 146.326 49.0613 146.46 49.4022 146.665C49.7469 146.869 50.0329 147.178 50.2602 147.591C50.4874 148.004 50.6011 148.557 50.6011 149.25V155H49.2602V153.818H49.192C49.1011 154.008 48.9496 154.21 48.7374 154.426C48.5253 154.642 48.2431 154.826 47.8909 154.977C47.5386 155.129 47.1087 155.205 46.6011 155.205ZM46.8056 154C47.3359 154 47.7829 153.896 48.1465 153.688C48.514 153.479 48.7905 153.21 48.9761 152.881C49.1655 152.551 49.2602 152.205 49.2602 151.841V150.614C49.2034 150.682 49.0784 150.744 48.8852 150.801C48.6958 150.854 48.4761 150.902 48.2261 150.943C47.9799 150.981 47.7393 151.015 47.5045 151.045C47.2734 151.072 47.0859 151.095 46.942 151.114C46.5935 151.159 46.2677 151.233 45.9647 151.335C45.6655 151.434 45.4231 151.583 45.2374 151.784C45.0556 151.981 44.9647 152.25 44.9647 152.591C44.9647 153.057 45.1371 153.409 45.4818 153.648C45.8302 153.883 46.2715 154 46.8056 154ZM56.274 155.182C55.4558 155.182 54.7512 154.989 54.1603 154.602C53.5694 154.216 53.1149 153.684 52.7967 153.006C52.4785 152.328 52.3194 151.553 52.3194 150.682C52.3194 149.795 52.4823 149.013 52.8081 148.335C53.1376 147.653 53.5959 147.121 54.1831 146.739C54.774 146.352 55.4634 146.159 56.2512 146.159C56.8649 146.159 57.4179 146.273 57.9103 146.5C58.4028 146.727 58.8062 147.045 59.1206 147.455C59.435 147.864 59.63 148.341 59.7058 148.886H58.3649C58.2626 148.489 58.0353 148.136 57.6831 147.83C57.3346 147.519 56.8649 147.364 56.274 147.364C55.7512 147.364 55.2929 147.5 54.899 147.773C54.5088 148.042 54.2039 148.422 53.9842 148.915C53.7683 149.403 53.6603 149.977 53.6603 150.636C53.6603 151.311 53.7664 151.898 53.9785 152.398C54.1944 152.898 54.4975 153.286 54.8876 153.562C55.2816 153.839 55.7437 153.977 56.274 153.977C56.6225 153.977 56.9387 153.917 57.2228 153.795C57.5069 153.674 57.7475 153.5 57.9444 153.273C58.1414 153.045 58.2816 152.773 58.3649 152.455H59.7058C59.63 152.97 59.4425 153.434 59.1433 153.847C58.8478 154.256 58.4558 154.581 57.9672 154.824C57.4823 155.062 56.9179 155.182 56.274 155.182ZM62.6869 149.75V155H61.346V143.364H62.6869V147.636H62.8006C63.0051 147.186 63.3119 146.828 63.721 146.562C64.1339 146.294 64.6831 146.159 65.3688 146.159C65.9634 146.159 66.4843 146.278 66.9313 146.517C67.3782 146.752 67.7248 147.114 67.971 147.602C68.221 148.087 68.346 148.705 68.346 149.455V155H67.0051V149.545C67.0051 148.852 66.8252 148.316 66.4653 147.938C66.1093 147.555 65.615 147.364 64.9824 147.364C64.543 147.364 64.1491 147.456 63.8006 147.642C63.4559 147.828 63.1831 148.098 62.9824 148.455C62.7854 148.811 62.6869 149.242 62.6869 149.75ZM70.4791 155V146.273H71.8201V155H70.4791ZM71.161 144.818C70.8996 144.818 70.6742 144.729 70.4848 144.551C70.2992 144.373 70.2064 144.159 70.2064 143.909C70.2064 143.659 70.2992 143.445 70.4848 143.267C70.6742 143.089 70.8996 143 71.161 143C71.4223 143 71.6458 143.089 71.8314 143.267C72.0208 143.445 72.1155 143.659 72.1155 143.909C72.1155 144.159 72.0208 144.373 71.8314 144.551C71.6458 144.729 71.4223 144.818 71.161 144.818ZM77.6151 155.182C76.7742 155.182 76.0488 154.996 75.439 154.625C74.8329 154.25 74.3651 153.727 74.0356 153.057C73.7098 152.383 73.5469 151.598 73.5469 150.705C73.5469 149.811 73.7098 149.023 74.0356 148.341C74.3651 147.655 74.8234 147.121 75.4106 146.739C76.0015 146.352 76.6909 146.159 77.4787 146.159C77.9333 146.159 78.3822 146.235 78.8253 146.386C79.2685 146.538 79.6719 146.784 80.0356 147.125C80.3992 147.462 80.689 147.909 80.9049 148.466C81.1208 149.023 81.2287 149.708 81.2287 150.523V151.091H74.5015V149.932H79.8651C79.8651 149.439 79.7666 149 79.5697 148.614C79.3765 148.227 79.1 147.922 78.7401 147.699C78.3841 147.475 77.9636 147.364 77.4787 147.364C76.9447 147.364 76.4825 147.496 76.0924 147.761C75.706 148.023 75.4087 148.364 75.2003 148.784C74.992 149.205 74.8878 149.655 74.8878 150.136V150.909C74.8878 151.568 75.0015 152.127 75.2287 152.585C75.4598 153.04 75.7799 153.386 76.189 153.625C76.5981 153.86 77.0734 153.977 77.6151 153.977C77.9674 153.977 78.2856 153.928 78.5697 153.83C78.8575 153.727 79.1056 153.576 79.314 153.375C79.5223 153.17 79.6833 152.917 79.7969 152.614L81.0924 152.977C80.956 153.417 80.7269 153.803 80.4049 154.136C80.0829 154.466 79.6852 154.723 79.2117 154.909C78.7382 155.091 78.206 155.182 77.6151 155.182ZM89.8193 146.273L86.592 155H85.2284L82.0011 146.273H83.4556L85.8647 153.227H85.9556L88.3647 146.273H89.8193ZM94.6157 155.182C93.7748 155.182 93.0495 154.996 92.4396 154.625C91.8335 154.25 91.3657 153.727 91.0362 153.057C90.7104 152.383 90.5476 151.598 90.5476 150.705C90.5476 149.811 90.7104 149.023 91.0362 148.341C91.3657 147.655 91.8241 147.121 92.4112 146.739C93.0021 146.352 93.6915 146.159 94.4794 146.159C94.9339 146.159 95.3828 146.235 95.826 146.386C96.2692 146.538 96.6726 146.784 97.0362 147.125C97.3998 147.462 97.6896 147.909 97.9055 148.466C98.1214 149.023 98.2294 149.708 98.2294 150.523V151.091H91.5021V149.932H96.8657C96.8657 149.439 96.7673 149 96.5703 148.614C96.3771 148.227 96.1006 147.922 95.7407 147.699C95.3847 147.475 94.9642 147.364 94.4794 147.364C93.9453 147.364 93.4832 147.496 93.093 147.761C92.7067 148.023 92.4093 148.364 92.201 148.784C91.9926 149.205 91.8885 149.655 91.8885 150.136V150.909C91.8885 151.568 92.0021 152.127 92.2294 152.585C92.4604 153.04 92.7805 153.386 93.1896 153.625C93.5987 153.86 94.0741 153.977 94.6157 153.977C94.968 153.977 95.2862 153.928 95.5703 153.83C95.8582 153.727 96.1063 153.576 96.3146 153.375C96.5229 153.17 96.6839 152.917 96.7976 152.614L98.093 152.977C97.9567 153.417 97.7275 153.803 97.4055 154.136C97.0835 154.466 96.6858 154.723 96.2123 154.909C95.7388 155.091 95.2067 155.182 94.6157 155.182ZM104.129 155V146.273H105.425V147.636H105.538C105.72 147.17 106.014 146.809 106.419 146.551C106.824 146.29 107.311 146.159 107.879 146.159C108.455 146.159 108.934 146.29 109.317 146.551C109.703 146.809 110.004 147.17 110.22 147.636H110.311C110.534 147.186 110.87 146.828 111.317 146.562C111.764 146.294 112.3 146.159 112.925 146.159C113.705 146.159 114.343 146.403 114.839 146.892C115.336 147.377 115.584 148.133 115.584 149.159V155H114.243V149.159C114.243 148.515 114.067 148.055 113.714 147.778C113.362 147.502 112.947 147.364 112.47 147.364C111.856 147.364 111.381 147.549 111.044 147.92C110.707 148.288 110.538 148.754 110.538 149.318V155H109.175V149.023C109.175 148.527 109.014 148.127 108.692 147.824C108.37 147.517 107.955 147.364 107.447 147.364C107.099 147.364 106.773 147.456 106.47 147.642C106.171 147.828 105.928 148.085 105.743 148.415C105.561 148.741 105.47 149.117 105.47 149.545V155H104.129ZM118.267 158.273C118.039 158.273 117.837 158.254 117.659 158.216C117.481 158.182 117.357 158.148 117.289 158.114L117.63 156.932C117.956 157.015 118.244 157.045 118.494 157.023C118.744 157 118.965 156.888 119.159 156.688C119.356 156.491 119.535 156.17 119.698 155.727L119.948 155.045L116.721 146.273H118.176L120.585 153.227H120.676L123.085 146.273H124.539L120.835 156.273C120.668 156.723 120.462 157.097 120.215 157.392C119.969 157.691 119.683 157.913 119.357 158.057C119.035 158.201 118.672 158.273 118.267 158.273ZM133.692 158.455C133.044 158.455 132.487 158.371 132.021 158.205C131.556 158.042 131.167 157.826 130.857 157.557C130.55 157.292 130.306 157.008 130.124 156.705L131.192 155.955C131.313 156.114 131.466 156.295 131.652 156.5C131.838 156.708 132.091 156.888 132.413 157.04C132.739 157.195 133.165 157.273 133.692 157.273C134.396 157.273 134.978 157.102 135.436 156.761C135.895 156.42 136.124 155.886 136.124 155.159V153.386H136.01C135.912 153.545 135.771 153.742 135.59 153.977C135.412 154.208 135.154 154.415 134.817 154.597C134.484 154.775 134.033 154.864 133.465 154.864C132.76 154.864 132.127 154.697 131.567 154.364C131.01 154.03 130.569 153.545 130.243 152.909C129.921 152.273 129.76 151.5 129.76 150.591C129.76 149.697 129.917 148.919 130.232 148.256C130.546 147.589 130.984 147.074 131.544 146.71C132.105 146.343 132.752 146.159 133.487 146.159C134.056 146.159 134.506 146.254 134.84 146.443C135.177 146.629 135.434 146.841 135.612 147.08C135.794 147.314 135.934 147.508 136.033 147.659H136.169V146.273H137.465V155.25C137.465 156 137.294 156.61 136.953 157.08C136.616 157.553 136.162 157.9 135.59 158.119C135.021 158.343 134.389 158.455 133.692 158.455ZM133.646 153.659C134.184 153.659 134.639 153.536 135.01 153.29C135.381 153.044 135.663 152.689 135.857 152.227C136.05 151.765 136.146 151.212 136.146 150.568C136.146 149.939 136.052 149.384 135.862 148.903C135.673 148.422 135.393 148.045 135.021 147.773C134.65 147.5 134.192 147.364 133.646 147.364C133.078 147.364 132.605 147.508 132.226 147.795C131.851 148.083 131.569 148.47 131.379 148.955C131.194 149.439 131.101 149.977 131.101 150.568C131.101 151.174 131.196 151.71 131.385 152.176C131.578 152.638 131.862 153.002 132.237 153.267C132.616 153.528 133.086 153.659 133.646 153.659ZM143.145 155.182C142.357 155.182 141.665 154.994 141.071 154.619C140.48 154.244 140.018 153.72 139.684 153.045C139.355 152.371 139.19 151.583 139.19 150.682C139.19 149.773 139.355 148.979 139.684 148.301C140.018 147.623 140.48 147.097 141.071 146.722C141.665 146.347 142.357 146.159 143.145 146.159C143.932 146.159 144.622 146.347 145.213 146.722C145.807 147.097 146.27 147.623 146.599 148.301C146.932 148.979 147.099 149.773 147.099 150.682C147.099 151.583 146.932 152.371 146.599 153.045C146.27 153.72 145.807 154.244 145.213 154.619C144.622 154.994 143.932 155.182 143.145 155.182ZM143.145 153.977C143.743 153.977 144.236 153.824 144.622 153.517C145.008 153.21 145.294 152.807 145.48 152.307C145.665 151.807 145.758 151.265 145.758 150.682C145.758 150.098 145.665 149.555 145.48 149.051C145.294 148.547 145.008 148.14 144.622 147.83C144.236 147.519 143.743 147.364 143.145 147.364C142.546 147.364 142.054 147.519 141.667 147.83C141.281 148.14 140.995 148.547 140.809 149.051C140.624 149.555 140.531 150.098 140.531 150.682C140.531 151.265 140.624 151.807 140.809 152.307C140.995 152.807 141.281 153.21 141.667 153.517C142.054 153.824 142.546 153.977 143.145 153.977ZM151.394 155.205C150.841 155.205 150.339 155.1 149.889 154.892C149.438 154.68 149.08 154.375 148.815 153.977C148.55 153.576 148.417 153.091 148.417 152.523C148.417 152.023 148.515 151.617 148.712 151.307C148.909 150.992 149.173 150.746 149.502 150.568C149.832 150.39 150.195 150.258 150.593 150.17C150.995 150.08 151.398 150.008 151.803 149.955C152.334 149.886 152.764 149.835 153.093 149.801C153.426 149.763 153.669 149.701 153.82 149.614C153.976 149.527 154.053 149.375 154.053 149.159V149.114C154.053 148.553 153.9 148.117 153.593 147.807C153.29 147.496 152.83 147.341 152.212 147.341C151.572 147.341 151.07 147.481 150.707 147.761C150.343 148.042 150.087 148.341 149.94 148.659L148.667 148.205C148.894 147.674 149.197 147.261 149.576 146.966C149.959 146.667 150.375 146.458 150.826 146.341C151.281 146.22 151.728 146.159 152.167 146.159C152.447 146.159 152.769 146.193 153.133 146.261C153.5 146.326 153.854 146.46 154.195 146.665C154.54 146.869 154.826 147.178 155.053 147.591C155.281 148.004 155.394 148.557 155.394 149.25V155H154.053V153.818H153.985C153.894 154.008 153.743 154.21 153.531 154.426C153.318 154.642 153.036 154.826 152.684 154.977C152.332 155.129 151.902 155.205 151.394 155.205ZM151.599 154C152.129 154 152.576 153.896 152.94 153.688C153.307 153.479 153.584 153.21 153.769 152.881C153.959 152.551 154.053 152.205 154.053 151.841V150.614C153.996 150.682 153.871 150.744 153.678 150.801C153.489 150.854 153.269 150.902 153.019 150.943C152.773 150.981 152.532 151.015 152.298 151.045C152.067 151.072 151.879 151.095 151.735 151.114C151.387 151.159 151.061 151.233 150.758 151.335C150.459 151.434 150.216 151.583 150.031 151.784C149.849 151.981 149.758 152.25 149.758 152.591C149.758 153.057 149.93 153.409 150.275 153.648C150.623 153.883 151.065 154 151.599 154ZM158.863 143.364V155H157.522V143.364H158.863ZM167.18 148.227L165.976 148.568C165.9 148.367 165.788 148.172 165.641 147.983C165.497 147.79 165.3 147.631 165.05 147.506C164.8 147.381 164.48 147.318 164.089 147.318C163.555 147.318 163.11 147.441 162.754 147.688C162.402 147.93 162.226 148.239 162.226 148.614C162.226 148.947 162.347 149.21 162.589 149.403C162.832 149.597 163.211 149.758 163.726 149.886L165.021 150.205C165.802 150.394 166.383 150.684 166.766 151.074C167.148 151.46 167.339 151.958 167.339 152.568C167.339 153.068 167.195 153.515 166.908 153.909C166.624 154.303 166.226 154.614 165.714 154.841C165.203 155.068 164.608 155.182 163.93 155.182C163.04 155.182 162.303 154.989 161.72 154.602C161.137 154.216 160.767 153.652 160.612 152.909L161.885 152.591C162.006 153.061 162.235 153.413 162.572 153.648C162.913 153.883 163.358 154 163.908 154C164.533 154 165.029 153.867 165.396 153.602C165.767 153.333 165.953 153.011 165.953 152.636C165.953 152.333 165.847 152.08 165.635 151.875C165.423 151.667 165.097 151.511 164.658 151.409L163.203 151.068C162.404 150.879 161.817 150.585 161.442 150.188C161.07 149.786 160.885 149.284 160.885 148.682C160.885 148.189 161.023 147.754 161.3 147.375C161.58 146.996 161.961 146.699 162.442 146.483C162.927 146.267 163.476 146.159 164.089 146.159C164.953 146.159 165.631 146.348 166.124 146.727C166.62 147.106 166.972 147.606 167.18 148.227ZM170.788 151.727V151.659C170.795 150.936 170.871 150.36 171.015 149.932C171.159 149.504 171.364 149.157 171.629 148.892C171.894 148.627 172.212 148.383 172.583 148.159C172.807 148.023 173.008 147.862 173.186 147.676C173.364 147.487 173.504 147.269 173.606 147.023C173.712 146.777 173.765 146.504 173.765 146.205C173.765 145.833 173.678 145.511 173.504 145.239C173.33 144.966 173.097 144.756 172.805 144.608C172.513 144.46 172.189 144.386 171.833 144.386C171.523 144.386 171.224 144.451 170.936 144.58C170.648 144.708 170.407 144.911 170.214 145.188C170.021 145.464 169.909 145.826 169.879 146.273H168.447C168.477 145.629 168.644 145.078 168.947 144.619C169.254 144.161 169.657 143.811 170.157 143.568C170.661 143.326 171.22 143.205 171.833 143.205C172.5 143.205 173.08 143.337 173.572 143.602C174.068 143.867 174.451 144.231 174.72 144.693C174.992 145.155 175.129 145.682 175.129 146.273C175.129 146.689 175.064 147.066 174.936 147.403C174.811 147.741 174.629 148.042 174.39 148.307C174.155 148.572 173.871 148.807 173.538 149.011C173.205 149.22 172.938 149.439 172.737 149.67C172.536 149.898 172.39 150.169 172.299 150.483C172.208 150.797 172.159 151.189 172.152 151.659V151.727H170.788ZM171.515 155.091C171.235 155.091 170.994 154.991 170.794 154.79C170.593 154.589 170.492 154.348 170.492 154.068C170.492 153.788 170.593 153.547 170.794 153.347C170.994 153.146 171.235 153.045 171.515 153.045C171.795 153.045 172.036 153.146 172.237 153.347C172.438 153.547 172.538 153.788 172.538 154.068C172.538 154.254 172.491 154.424 172.396 154.58C172.305 154.735 172.182 154.86 172.027 154.955C171.875 155.045 171.705 155.091 171.515 155.091Z" fill="white"/>
<defs>
<radialGradient id="paint0_angular_97_1704" cx="0" cy="0" r="1" gradientUnits="userSpaceOnUse" gradientTransform="translate(107.011 135.882) rotate(-12.9855) scale(139.661 115.245)">
<stop offset="0.157704" stop-opacity="0"/>
<stop offset="0.723846" stop-color="white" stop-opacity="0"/>
<stop offset="0.887134" stop-color="white"/>
</radialGradient>
</defs>
</svg>
