<svg width="221" height="220" viewBox="0 0 221 220" fill="none" xmlns="http://www.w3.org/2000/svg">
<rect width="221" height="220" rx="12" fill="white" fill-opacity="0.08"/>
<rect x="0.5" y="0.5" width="220" height="219" rx="11.5" stroke="white" stroke-opacity="0.2"/>
<rect x="0.5" y="0.5" width="220" height="219" rx="11.5" stroke="url(#paint0_angular_167_25)" stroke-opacity="0.4"/>
<path d="M25.2912 40V26.9091H27.6626V32.451H33.7287V26.9091H36.1065V40H33.7287V34.4389H27.6626V40H25.2912ZM42.21 40.1918C41.2257 40.1918 40.3755 39.9872 39.6596 39.5781C38.948 39.1648 38.4004 38.581 38.0169 37.8267C37.6333 37.0682 37.4416 36.1754 37.4416 35.1484C37.4416 34.1385 37.6333 33.2521 38.0169 32.4893C38.4046 31.7223 38.9458 31.1257 39.6404 30.6996C40.335 30.2692 41.1511 30.054 42.0886 30.054C42.6937 30.054 43.2647 30.152 43.8017 30.348C44.3429 30.5398 44.8201 30.8381 45.2335 31.2429C45.6511 31.6477 45.9792 32.1634 46.2179 32.7898C46.4565 33.4119 46.5758 34.1534 46.5758 35.0142V35.7237H38.5282V34.1641H44.3578C44.3535 33.7209 44.2576 33.3267 44.0701 32.9815C43.8826 32.6321 43.6206 32.3572 43.2839 32.157C42.9515 31.9567 42.5637 31.8565 42.1206 31.8565C41.6475 31.8565 41.2321 31.9716 40.8741 32.2017C40.5162 32.4276 40.237 32.7259 40.0367 33.0966C39.8407 33.4631 39.7406 33.8658 39.7363 34.3047V35.6662C39.7363 36.2372 39.8407 36.7273 40.0495 37.1364C40.2583 37.5412 40.5502 37.8523 40.9252 38.0696C41.3002 38.2827 41.7392 38.3892 42.242 38.3892C42.5787 38.3892 42.8833 38.3423 43.1561 38.2486C43.4288 38.1506 43.6653 38.0078 43.8656 37.8203C44.0659 37.6328 44.2171 37.4006 44.3194 37.1236L46.4799 37.3665C46.3436 37.9375 46.0836 38.4361 45.7001 38.8622C45.3208 39.2841 44.835 39.6122 44.2427 39.8466C43.6504 40.0767 42.9728 40.1918 42.21 40.1918ZM50.6387 40.1982C50.0165 40.1982 49.4561 40.0874 48.9575 39.8658C48.4632 39.6399 48.0712 39.3075 47.7814 38.8686C47.4959 38.4297 47.3531 37.8885 47.3531 37.245C47.3531 36.6911 47.4554 36.233 47.66 35.8707C47.8645 35.5085 48.1436 35.2188 48.4973 35.0014C48.851 34.7841 49.2495 34.62 49.6926 34.5092C50.1401 34.3942 50.6024 34.3111 51.0797 34.2599C51.655 34.2003 52.1216 34.147 52.4796 34.1001C52.8375 34.049 53.0975 33.9723 53.2594 33.87C53.4256 33.7635 53.5087 33.5994 53.5087 33.3778V33.3395C53.5087 32.858 53.3659 32.4851 53.0804 32.2209C52.7949 31.9567 52.3837 31.8246 51.8468 31.8246C51.28 31.8246 50.8304 31.9482 50.498 32.1953C50.1699 32.4425 49.9483 32.7344 49.8333 33.071L47.6727 32.7642C47.8432 32.1676 48.1245 31.669 48.5165 31.2685C48.9085 30.8636 49.3879 30.5611 49.9547 30.3608C50.5215 30.1562 51.1479 30.054 51.834 30.054C52.307 30.054 52.7779 30.1094 53.2466 30.2202C53.7154 30.331 54.1436 30.5142 54.5314 30.7699C54.9192 31.0213 55.2303 31.3643 55.4647 31.799C55.7033 32.2337 55.8226 32.777 55.8226 33.429V40H53.5982V38.6513H53.5215C53.3808 38.924 53.1827 39.1797 52.927 39.4183C52.6756 39.6527 52.3581 39.8423 51.9746 39.9872C51.5953 40.1278 51.15 40.1982 50.6387 40.1982ZM51.2395 38.4979C51.704 38.4979 52.1067 38.4062 52.4476 38.223C52.7885 38.0355 53.0506 37.7884 53.2338 37.4815C53.4213 37.1747 53.5151 36.8402 53.5151 36.478V35.321C53.4426 35.3807 53.3191 35.4361 53.1443 35.4872C52.9739 35.5384 52.7821 35.5831 52.5691 35.6214C52.356 35.6598 52.145 35.6939 51.9362 35.7237C51.7274 35.7536 51.5463 35.7791 51.3929 35.8004C51.0477 35.8473 50.7388 35.924 50.4661 36.0305C50.1933 36.1371 49.9781 36.2862 49.8205 36.478C49.6628 36.6655 49.584 36.9084 49.584 37.2067C49.584 37.6328 49.7395 37.9545 50.0506 38.1719C50.3617 38.3892 50.758 38.4979 51.2395 38.4979ZM59.7432 26.9091V40H57.4293V26.9091H59.7432ZM66.3054 30.1818V31.9716H60.6612V30.1818H66.3054ZM62.0547 27.8295H64.3686V37.0469C64.3686 37.358 64.4155 37.5966 64.5092 37.7628C64.6072 37.9247 64.7351 38.0355 64.8927 38.0952C65.0504 38.1548 65.2251 38.1847 65.4169 38.1847C65.5618 38.1847 65.6939 38.174 65.8132 38.1527C65.9368 38.1314 66.0305 38.1122 66.0944 38.0952L66.4843 39.9041C66.3608 39.9467 66.1839 39.9936 65.9538 40.0447C65.728 40.0959 65.451 40.1257 65.1228 40.1342C64.5433 40.1513 64.0213 40.0639 63.5568 39.8722C63.0923 39.6761 62.7237 39.3736 62.451 38.9645C62.1825 38.5554 62.0504 38.044 62.0547 37.4304V27.8295ZM70.0454 34.2472V40H67.7315V26.9091H69.9943V31.8501H70.1093C70.3395 31.2962 70.6953 30.8594 71.1768 30.5398C71.6626 30.2159 72.2805 30.054 73.0305 30.054C73.7123 30.054 74.3068 30.1967 74.8139 30.4822C75.321 30.7678 75.713 31.1854 75.99 31.7351C76.2713 32.2848 76.4119 32.956 76.4119 33.7486V40H74.098V34.1065C74.098 33.446 73.9275 32.9325 73.5866 32.5661C73.25 32.1953 72.777 32.0099 72.1676 32.0099C71.7585 32.0099 71.392 32.0994 71.0681 32.2784C70.7485 32.4531 70.4971 32.7067 70.3139 33.0391C70.1349 33.3714 70.0454 33.7741 70.0454 34.2472Z" fill="white"/>
<path opacity="0.6" d="M25.8864 77H24.4091L28.6818 65.3636H30.1364L34.4091 77H32.9318L29.4545 67.2045H29.3636L25.8864 77ZM26.4318 72.4545H32.3864V73.7045H26.4318V72.4545ZM41.9016 70.2273L40.697 70.5682C40.6213 70.3674 40.5095 70.1723 40.3618 69.983C40.2179 69.7898 40.0209 69.6307 39.7709 69.5057C39.5209 69.3807 39.2008 69.3182 38.8107 69.3182C38.2766 69.3182 37.8315 69.4413 37.4755 69.6875C37.1232 69.9299 36.947 70.2386 36.947 70.6136C36.947 70.947 37.0683 71.2102 37.3107 71.4034C37.5531 71.5966 37.9319 71.7576 38.447 71.8864L39.7425 72.2045C40.5228 72.3939 41.1042 72.6837 41.4868 73.0739C41.8694 73.4602 42.0607 73.9583 42.0607 74.5682C42.0607 75.0682 41.9167 75.5152 41.6289 75.9091C41.3448 76.303 40.947 76.6136 40.4357 76.8409C39.9243 77.0682 39.3296 77.1818 38.6516 77.1818C37.7614 77.1818 37.0247 76.9886 36.4414 76.6023C35.858 76.2159 35.4887 75.6515 35.3334 74.9091L36.6061 74.5909C36.7273 75.0606 36.9565 75.4129 37.2936 75.6477C37.6345 75.8826 38.0796 76 38.6289 76C39.2539 76 39.7501 75.8674 40.1175 75.6023C40.4887 75.3333 40.6743 75.0114 40.6743 74.6364C40.6743 74.3333 40.5683 74.0795 40.3561 73.875C40.144 73.6667 39.8183 73.5114 39.3789 73.4091L37.9243 73.0682C37.1251 72.8788 36.538 72.5852 36.163 72.1875C35.7917 71.786 35.6061 71.2841 35.6061 70.6818C35.6061 70.1894 35.7444 69.7538 36.0209 69.375C36.3012 68.9962 36.6819 68.6989 37.163 68.483C37.6478 68.267 38.197 68.1591 38.8107 68.1591C39.6743 68.1591 40.3523 68.3485 40.8448 68.7273C41.341 69.1061 41.6933 69.6061 41.9016 70.2273ZM45.0091 73.8182L44.9864 72.1591H45.2591L49.0773 68.2727H50.7364L46.6682 72.3864H46.5546L45.0091 73.8182ZM43.7591 77V65.3636H45.1001V77H43.7591ZM49.3046 77L45.8955 72.6818L46.8501 71.75L51.0091 77H49.3046ZM62.2768 80.2727V75.6591H62.1632C62.0647 75.8182 61.9245 76.0189 61.7427 76.2614C61.5609 76.5 61.3014 76.714 60.9643 76.9034C60.6272 77.089 60.1783 77.1818 59.6177 77.1818C58.8905 77.1818 58.2484 76.9981 57.6916 76.6307C57.1348 76.2595 56.6992 75.7367 56.3848 75.0625C56.0704 74.3845 55.9132 73.5833 55.9132 72.6591C55.9132 71.7424 56.0704 70.947 56.3848 70.2727C56.6992 69.5985 57.1367 69.0777 57.6973 68.7102C58.2579 68.3428 58.9056 68.1591 59.6405 68.1591C60.2086 68.1591 60.6575 68.2538 60.987 68.4432C61.3204 68.6288 61.5742 68.8409 61.7484 69.0795C61.9264 69.3144 62.0647 69.5076 62.1632 69.6591H62.3223V68.2727H63.6177V80.2727H62.2768ZM59.7995 75.9773C60.3374 75.9773 60.792 75.8371 61.1632 75.5568C61.5344 75.2727 61.8166 74.8807 62.0098 74.3807C62.203 73.8769 62.2995 73.2955 62.2995 72.6364C62.2995 71.9848 62.2048 71.4148 62.0155 70.9261C61.8261 70.4337 61.5458 70.0511 61.1745 69.7784C60.8033 69.5019 60.345 69.3636 59.7995 69.3636C59.2314 69.3636 58.7579 69.5095 58.3791 69.8011C58.0041 70.089 57.7219 70.4811 57.5325 70.9773C57.3469 71.4697 57.2541 72.0227 57.2541 72.6364C57.2541 73.2576 57.3488 73.822 57.5382 74.3295C57.7314 74.8333 58.0155 75.2348 58.3905 75.5341C58.7692 75.8295 59.2389 75.9773 59.7995 75.9773ZM71.2523 73.4318V68.2727H72.5932V77H71.2523V75.5227H71.1614C70.9568 75.9659 70.6386 76.3428 70.2068 76.6534C69.775 76.9602 69.2295 77.1136 68.5705 77.1136C68.025 77.1136 67.5402 76.9943 67.1159 76.7557C66.6917 76.5133 66.3583 76.1496 66.1159 75.6648C65.8735 75.1761 65.7523 74.5606 65.7523 73.8182V68.2727H67.0932V73.7273C67.0932 74.3636 67.2712 74.8712 67.6273 75.25C67.9871 75.6288 68.4455 75.8182 69.0023 75.8182C69.3356 75.8182 69.6746 75.733 70.0193 75.5625C70.3678 75.392 70.6595 75.1307 70.8943 74.7784C71.133 74.4261 71.2523 73.9773 71.2523 73.4318ZM78.3882 77.1818C77.5473 77.1818 76.822 76.9962 76.2121 76.625C75.606 76.25 75.1382 75.7273 74.8087 75.0568C74.4829 74.3826 74.3201 73.5985 74.3201 72.7045C74.3201 71.8106 74.4829 71.0227 74.8087 70.3409C75.1382 69.6553 75.5966 69.1212 76.1837 68.7386C76.7746 68.3523 77.464 68.1591 78.2519 68.1591C78.7064 68.1591 79.1553 68.2348 79.5985 68.3864C80.0416 68.5379 80.4451 68.7841 80.8087 69.125C81.1723 69.4621 81.4621 69.9091 81.678 70.4659C81.8939 71.0227 82.0019 71.7083 82.0019 72.5227V73.0909H75.2746V71.9318H80.6382C80.6382 71.4394 80.5398 71 80.3428 70.6136C80.1496 70.2273 79.8731 69.9223 79.5132 69.6989C79.1572 69.4754 78.7367 69.3636 78.2519 69.3636C77.7178 69.3636 77.2557 69.4962 76.8655 69.7614C76.4791 70.0227 76.1818 70.3636 75.9735 70.7841C75.7651 71.2045 75.661 71.6553 75.661 72.1364V72.9091C75.661 73.5682 75.7746 74.1269 76.0019 74.5852C76.2329 75.0398 76.553 75.3864 76.9621 75.625C77.3712 75.8598 77.8466 75.9773 78.3882 75.9773C78.7405 75.9773 79.0587 75.928 79.3428 75.8295C79.6307 75.7273 79.8788 75.5758 80.0871 75.375C80.2954 75.1705 80.4564 74.9167 80.5701 74.6136L81.8655 74.9773C81.7291 75.4167 81.5 75.803 81.178 76.1364C80.856 76.4659 80.4583 76.7235 79.9848 76.9091C79.5113 77.0909 78.9791 77.1818 78.3882 77.1818ZM89.9035 70.2273L88.6989 70.5682C88.6232 70.3674 88.5114 70.1723 88.3637 69.983C88.2198 69.7898 88.0228 69.6307 87.7728 69.5057C87.5228 69.3807 87.2027 69.3182 86.8126 69.3182C86.2785 69.3182 85.8334 69.4413 85.4773 69.6875C85.1251 69.9299 84.9489 70.2386 84.9489 70.6136C84.9489 70.947 85.0701 71.2102 85.3126 71.4034C85.555 71.5966 85.9338 71.7576 86.4489 71.8864L87.7444 72.2045C88.5247 72.3939 89.1061 72.6837 89.4887 73.0739C89.8713 73.4602 90.0626 73.9583 90.0626 74.5682C90.0626 75.0682 89.9186 75.5152 89.6307 75.9091C89.3466 76.303 88.9489 76.6136 88.4376 76.8409C87.9262 77.0682 87.3315 77.1818 86.6535 77.1818C85.7633 77.1818 85.0266 76.9886 84.4432 76.6023C83.8599 76.2159 83.4906 75.6515 83.3353 74.9091L84.608 74.5909C84.7292 75.0606 84.9584 75.4129 85.2955 75.6477C85.6364 75.8826 86.0815 76 86.6307 76C87.2557 76 87.7519 75.8674 88.1194 75.6023C88.4906 75.3333 88.6762 75.0114 88.6762 74.6364C88.6762 74.3333 88.5701 74.0795 88.358 73.875C88.1459 73.6667 87.8201 73.5114 87.3807 73.4091L85.9262 73.0682C85.1269 72.8788 84.5398 72.5852 84.1648 72.1875C83.7936 71.786 83.608 71.2841 83.608 70.6818C83.608 70.1894 83.7463 69.7538 84.0228 69.375C84.3031 68.9962 84.6838 68.6989 85.1648 68.483C85.6497 68.267 86.1989 68.1591 86.8126 68.1591C87.6762 68.1591 88.3542 68.3485 88.8466 68.7273C89.3429 69.1061 89.6951 69.6061 89.9035 70.2273ZM95.5565 68.2727V69.4091H91.0338V68.2727H95.5565ZM92.3519 66.1818H93.6928V74.5C93.6928 74.8788 93.7478 75.1629 93.8576 75.3523C93.9713 75.5379 94.1152 75.6629 94.2894 75.7273C94.4675 75.7879 94.655 75.8182 94.8519 75.8182C94.9997 75.8182 95.1209 75.8106 95.2156 75.7955C95.3103 75.7765 95.386 75.7614 95.4428 75.75L95.7156 76.9545C95.6247 76.9886 95.4978 77.0227 95.3349 77.0568C95.172 77.0947 94.9656 77.1136 94.7156 77.1136C94.3368 77.1136 93.9656 77.0322 93.6019 76.8693C93.2421 76.7064 92.9428 76.4583 92.7042 76.125C92.4694 75.7917 92.3519 75.3712 92.3519 74.8636V66.1818ZM97.2535 77V68.2727H98.5944V77H97.2535ZM97.9353 66.8182C97.674 66.8182 97.4486 66.7292 97.2592 66.5511C97.0736 66.3731 96.9808 66.1591 96.9808 65.9091C96.9808 65.6591 97.0736 65.4451 97.2592 65.267C97.4486 65.089 97.674 65 97.9353 65C98.1967 65 98.4202 65.089 98.6058 65.267C98.7952 65.4451 98.8899 65.6591 98.8899 65.9091C98.8899 66.1591 98.7952 66.3731 98.6058 66.5511C98.4202 66.7292 98.1967 66.8182 97.9353 66.8182ZM104.276 77.1818C103.488 77.1818 102.797 76.9943 102.202 76.6193C101.611 76.2443 101.149 75.7197 100.816 75.0455C100.486 74.3712 100.321 73.5833 100.321 72.6818C100.321 71.7727 100.486 70.9792 100.816 70.3011C101.149 69.6231 101.611 69.0966 102.202 68.7216C102.797 68.3466 103.488 68.1591 104.276 68.1591C105.064 68.1591 105.753 68.3466 106.344 68.7216C106.939 69.0966 107.401 69.6231 107.73 70.3011C108.064 70.9792 108.23 71.7727 108.23 72.6818C108.23 73.5833 108.064 74.3712 107.73 75.0455C107.401 75.7197 106.939 76.2443 106.344 76.6193C105.753 76.9943 105.064 77.1818 104.276 77.1818ZM104.276 75.9773C104.874 75.9773 105.367 75.8239 105.753 75.517C106.139 75.2102 106.425 74.8068 106.611 74.3068C106.797 73.8068 106.889 73.2652 106.889 72.6818C106.889 72.0985 106.797 71.5549 106.611 71.0511C106.425 70.5473 106.139 70.1402 105.753 69.8295C105.367 69.5189 104.874 69.3636 104.276 69.3636C103.677 69.3636 103.185 69.5189 102.799 69.8295C102.412 70.1402 102.126 70.5473 101.941 71.0511C101.755 71.5549 101.662 72.0985 101.662 72.6818C101.662 73.2652 101.755 73.8068 101.941 74.3068C102.126 74.8068 102.412 75.2102 102.799 75.517C103.185 75.8239 103.677 75.9773 104.276 75.9773ZM111.298 71.75V77H109.957V68.2727H111.253V69.6364H111.366C111.571 69.1932 111.882 68.8371 112.298 68.5682C112.715 68.2955 113.253 68.1591 113.912 68.1591C114.503 68.1591 115.02 68.2803 115.463 68.5227C115.906 68.7614 116.251 69.125 116.497 69.6136C116.743 70.0985 116.866 70.7121 116.866 71.4545V77H115.525V71.5455C115.525 70.8598 115.347 70.3258 114.991 69.9432C114.635 69.5568 114.147 69.3636 113.525 69.3636C113.097 69.3636 112.715 69.4564 112.378 69.642C112.044 69.8277 111.781 70.0985 111.588 70.4545C111.395 70.8106 111.298 71.2424 111.298 71.75ZM125.178 70.2273L123.974 70.5682C123.898 70.3674 123.786 70.1723 123.639 69.983C123.495 69.7898 123.298 69.6307 123.048 69.5057C122.798 69.3807 122.478 69.3182 122.088 69.3182C121.553 69.3182 121.108 69.4413 120.752 69.6875C120.4 69.9299 120.224 70.2386 120.224 70.6136C120.224 70.947 120.345 71.2102 120.588 71.4034C120.83 71.5966 121.209 71.7576 121.724 71.8864L123.019 72.2045C123.8 72.3939 124.381 72.6837 124.764 73.0739C125.146 73.4602 125.338 73.9583 125.338 74.5682C125.338 75.0682 125.194 75.5152 124.906 75.9091C124.622 76.303 124.224 76.6136 123.713 76.8409C123.201 77.0682 122.606 77.1818 121.928 77.1818C121.038 77.1818 120.302 76.9886 119.718 76.6023C119.135 76.2159 118.766 75.6515 118.61 74.9091L119.883 74.5909C120.004 75.0606 120.233 75.4129 120.571 75.6477C120.911 75.8826 121.356 76 121.906 76C122.531 76 123.027 75.8674 123.394 75.6023C123.766 75.3333 123.951 75.0114 123.951 74.6364C123.951 74.3333 123.845 74.0795 123.633 73.875C123.421 73.6667 123.095 73.5114 122.656 73.4091L121.201 73.0682C120.402 72.8788 119.815 72.5852 119.44 72.1875C119.069 71.786 118.883 71.2841 118.883 70.6818C118.883 70.1894 119.021 69.7538 119.298 69.375C119.578 68.9962 119.959 68.6989 120.44 68.483C120.925 68.267 121.474 68.1591 122.088 68.1591C122.951 68.1591 123.629 68.3485 124.122 68.7273C124.618 69.1061 124.97 69.6061 125.178 70.2273ZM132.557 65.3636V77H131.216V65.3636H132.557ZM134.693 77V68.2727H136.034V77H134.693ZM135.375 66.8182C135.113 66.8182 134.888 66.7292 134.699 66.5511C134.513 66.3731 134.42 66.1591 134.42 65.9091C134.42 65.6591 134.513 65.4451 134.699 65.267C134.888 65.089 135.113 65 135.375 65C135.636 65 135.86 65.089 136.045 65.267C136.235 65.4451 136.329 65.6591 136.329 65.9091C136.329 66.1591 136.235 66.3731 136.045 66.5511C135.86 66.7292 135.636 66.8182 135.375 66.8182ZM139.42 73.8182L139.397 72.1591H139.67L143.488 68.2727H145.147L141.079 72.3864H140.965L139.42 73.8182ZM138.17 77V65.3636H139.511V77H138.17ZM143.715 77L140.306 72.6818L141.261 71.75L145.42 77H143.715ZM149.853 77.1818C149.012 77.1818 148.286 76.9962 147.676 76.625C147.07 76.25 146.603 75.7273 146.273 75.0568C145.947 74.3826 145.784 73.5985 145.784 72.7045C145.784 71.8106 145.947 71.0227 146.273 70.3409C146.603 69.6553 147.061 69.1212 147.648 68.7386C148.239 68.3523 148.928 68.1591 149.716 68.1591C150.171 68.1591 150.62 68.2348 151.063 68.3864C151.506 68.5379 151.909 68.7841 152.273 69.125C152.637 69.4621 152.926 69.9091 153.142 70.4659C153.358 71.0227 153.466 71.7083 153.466 72.5227V73.0909H146.739V71.9318H152.103C152.103 71.4394 152.004 71 151.807 70.6136C151.614 70.2273 151.337 69.9223 150.978 69.6989C150.622 69.4754 150.201 69.3636 149.716 69.3636C149.182 69.3636 148.72 69.4962 148.33 69.7614C147.944 70.0227 147.646 70.3636 147.438 70.7841C147.23 71.2045 147.125 71.6553 147.125 72.1364V72.9091C147.125 73.5682 147.239 74.1269 147.466 74.5852C147.697 75.0398 148.017 75.3864 148.426 75.625C148.836 75.8598 149.311 75.9773 149.853 75.9773C150.205 75.9773 150.523 75.928 150.807 75.8295C151.095 75.7273 151.343 75.5758 151.551 75.375C151.76 75.1705 151.921 74.9167 152.034 74.6136L153.33 74.9773C153.194 75.4167 152.964 75.803 152.642 76.1364C152.32 76.4659 151.923 76.7235 151.449 76.9091C150.976 77.0909 150.444 77.1818 149.853 77.1818ZM156.163 77.0909C155.883 77.0909 155.642 76.9905 155.442 76.7898C155.241 76.589 155.141 76.3485 155.141 76.0682C155.141 75.7879 155.241 75.5473 155.442 75.3466C155.642 75.1458 155.883 75.0455 156.163 75.0455C156.444 75.0455 156.684 75.1458 156.885 75.3466C157.086 75.5473 157.186 75.7879 157.186 76.0682C157.186 76.2538 157.139 76.4242 157.044 76.5795C156.953 76.7348 156.83 76.8598 156.675 76.9545C156.523 77.0455 156.353 77.0909 156.163 77.0909ZM160.25 77.0909C159.969 77.0909 159.729 76.9905 159.528 76.7898C159.327 76.589 159.227 76.3485 159.227 76.0682C159.227 75.7879 159.327 75.5473 159.528 75.3466C159.729 75.1458 159.969 75.0455 160.25 75.0455C160.53 75.0455 160.77 75.1458 160.971 75.3466C161.172 75.5473 161.272 75.7879 161.272 76.0682C161.272 76.2538 161.225 76.4242 161.13 76.5795C161.039 76.7348 160.916 76.8598 160.761 76.9545C160.609 77.0455 160.439 77.0909 160.25 77.0909ZM164.336 77.0909C164.055 77.0909 163.815 76.9905 163.614 76.7898C163.413 76.589 163.313 76.3485 163.313 76.0682C163.313 75.7879 163.413 75.5473 163.614 75.3466C163.815 75.1458 164.055 75.0455 164.336 75.0455C164.616 75.0455 164.857 75.1458 165.057 75.3466C165.258 75.5473 165.359 75.7879 165.359 76.0682C165.359 76.2538 165.311 76.4242 165.216 76.5795C165.126 76.7348 165.002 76.8598 164.847 76.9545C164.696 77.0455 164.525 77.0909 164.336 77.0909ZM26.8182 91.3636V103H25.4091V91.3636H26.8182ZM35.3235 96.2273L34.1189 96.5682C34.0432 96.3674 33.9314 96.1723 33.7837 95.983C33.6398 95.7898 33.4428 95.6307 33.1928 95.5057C32.9428 95.3807 32.6227 95.3182 32.2326 95.3182C31.6985 95.3182 31.2534 95.4413 30.8973 95.6875C30.5451 95.9299 30.3689 96.2386 30.3689 96.6136C30.3689 96.947 30.4901 97.2102 30.7326 97.4034C30.975 97.5966 31.3538 97.7576 31.8689 97.8864L33.1644 98.2045C33.9447 98.3939 34.5261 98.6837 34.9087 99.0739C35.2913 99.4602 35.4826 99.9583 35.4826 100.568C35.4826 101.068 35.3386 101.515 35.0507 101.909C34.7666 102.303 34.3689 102.614 33.8576 102.841C33.3462 103.068 32.7515 103.182 32.0735 103.182C31.1833 103.182 30.4466 102.989 29.8632 102.602C29.2799 102.216 28.9106 101.652 28.7553 100.909L30.028 100.591C30.1492 101.061 30.3784 101.413 30.7155 101.648C31.0564 101.883 31.5015 102 32.0507 102C32.6757 102 33.172 101.867 33.5394 101.602C33.9106 101.333 34.0962 101.011 34.0962 100.636C34.0962 100.333 33.9901 100.08 33.778 99.875C33.5659 99.6667 33.2401 99.5114 32.8007 99.4091L31.3462 99.0682C30.547 98.8788 29.9598 98.5852 29.5848 98.1875C29.2136 97.786 29.028 97.2841 29.028 96.6818C29.028 96.1894 29.1663 95.7538 29.4428 95.375C29.7231 94.9962 30.1038 94.6989 30.5848 94.483C31.0697 94.267 31.6189 94.1591 32.2326 94.1591C33.0962 94.1591 33.7742 94.3485 34.2666 94.7273C34.7629 95.1061 35.1151 95.6061 35.3235 96.2273ZM45.1565 94.2727V95.4091H40.6338V94.2727H45.1565ZM41.9519 92.1818H43.2928V100.5C43.2928 100.879 43.3478 101.163 43.4576 101.352C43.5713 101.538 43.7152 101.663 43.8894 101.727C44.0675 101.788 44.255 101.818 44.4519 101.818C44.5997 101.818 44.7209 101.811 44.8156 101.795C44.9103 101.777 44.986 101.761 45.0428 101.75L45.3156 102.955C45.2247 102.989 45.0978 103.023 44.9349 103.057C44.772 103.095 44.5656 103.114 44.3156 103.114C43.9368 103.114 43.5656 103.032 43.2019 102.869C42.8421 102.706 42.5428 102.458 42.3042 102.125C42.0694 101.792 41.9519 101.371 41.9519 100.864V92.1818ZM48.3819 97.75V103H47.041V91.3636H48.3819V95.6364H48.4956C48.7001 95.1856 49.0069 94.8277 49.416 94.5625C49.8289 94.2936 50.3781 94.1591 51.0637 94.1591C51.6584 94.1591 52.1793 94.2784 52.6262 94.517C53.0732 94.7519 53.4198 95.1136 53.666 95.6023C53.916 96.0871 54.041 96.7045 54.041 97.4545V103H52.7001V97.5455C52.7001 96.8523 52.5202 96.3163 52.1603 95.9375C51.8043 95.5549 51.31 95.3636 50.6774 95.3636C50.238 95.3636 49.8441 95.4564 49.4956 95.642C49.1509 95.8277 48.8781 96.0985 48.6774 96.4545C48.4804 96.8106 48.3819 97.2424 48.3819 97.75ZM59.8332 103.182C58.9923 103.182 58.267 102.996 57.6571 102.625C57.051 102.25 56.5832 101.727 56.2537 101.057C55.9279 100.383 55.7651 99.5985 55.7651 98.7045C55.7651 97.8106 55.9279 97.0227 56.2537 96.3409C56.5832 95.6553 57.0416 95.1212 57.6287 94.7386C58.2196 94.3523 58.909 94.1591 59.6969 94.1591C60.1514 94.1591 60.6003 94.2348 61.0435 94.3864C61.4866 94.5379 61.8901 94.7841 62.2537 95.125C62.6173 95.4621 62.9071 95.9091 63.123 96.4659C63.3389 97.0227 63.4469 97.7083 63.4469 98.5227V99.0909H56.7196V97.9318H62.0832C62.0832 97.4394 61.9848 97 61.7878 96.6136C61.5946 96.2273 61.3181 95.9223 60.9582 95.6989C60.6022 95.4754 60.1817 95.3636 59.6969 95.3636C59.1628 95.3636 58.7007 95.4962 58.3105 95.7614C57.9241 96.0227 57.6268 96.3636 57.4185 96.7841C57.2101 97.2045 57.106 97.6553 57.106 98.1364V98.9091C57.106 99.5682 57.2196 100.127 57.4469 100.585C57.6779 101.04 57.998 101.386 58.4071 101.625C58.8162 101.86 59.2916 101.977 59.8332 101.977C60.1855 101.977 60.5037 101.928 60.7878 101.83C61.0757 101.727 61.3238 101.576 61.5321 101.375C61.7404 101.17 61.9014 100.917 62.0151 100.614L63.3105 100.977C63.1741 101.417 62.945 101.803 62.623 102.136C62.301 102.466 61.9033 102.723 61.4298 102.909C60.9563 103.091 60.4241 103.182 59.8332 103.182ZM65.1666 103V94.2727H66.4621V95.5909H66.553C66.7121 95.1591 67 94.8087 67.4166 94.5398C67.8333 94.2708 68.303 94.1364 68.8257 94.1364C68.9242 94.1364 69.0473 94.1383 69.1951 94.142C69.3428 94.1458 69.4545 94.1515 69.5303 94.1591V95.5227C69.4848 95.5114 69.3807 95.4943 69.2178 95.4716C69.0587 95.4451 68.8901 95.4318 68.7121 95.4318C68.2879 95.4318 67.9091 95.5208 67.5757 95.6989C67.2462 95.8731 66.9848 96.1155 66.7916 96.4261C66.6023 96.733 66.5076 97.0833 66.5076 97.4773V103H65.1666ZM74.1932 103.182C73.3523 103.182 72.6269 102.996 72.0171 102.625C71.411 102.25 70.9432 101.727 70.6137 101.057C70.2879 100.383 70.1251 99.5985 70.1251 98.7045C70.1251 97.8106 70.2879 97.0227 70.6137 96.3409C70.9432 95.6553 71.4016 95.1212 71.9887 94.7386C72.5796 94.3523 73.269 94.1591 74.0569 94.1591C74.5114 94.1591 74.9603 94.2348 75.4035 94.3864C75.8466 94.5379 76.2501 94.7841 76.6137 95.125C76.9773 95.4621 77.2671 95.9091 77.483 96.4659C77.6989 97.0227 77.8069 97.7083 77.8069 98.5227V99.0909H71.0796V97.9318H76.4432C76.4432 97.4394 76.3448 97 76.1478 96.6136C75.9546 96.2273 75.6781 95.9223 75.3182 95.6989C74.9622 95.4754 74.5417 95.3636 74.0569 95.3636C73.5228 95.3636 73.0607 95.4962 72.6705 95.7614C72.2841 96.0227 71.9868 96.3636 71.7785 96.7841C71.5701 97.2045 71.466 97.6553 71.466 98.1364V98.9091C71.466 99.5682 71.5796 100.127 71.8069 100.585C72.0379 101.04 72.358 101.386 72.7671 101.625C73.1762 101.86 73.6516 101.977 74.1932 101.977C74.5455 101.977 74.8637 101.928 75.1478 101.83C75.4357 101.727 75.6838 101.576 75.8921 101.375C76.1004 101.17 76.2614 100.917 76.3751 100.614L77.6705 100.977C77.5341 101.417 77.305 101.803 76.983 102.136C76.661 102.466 76.2633 102.723 75.7898 102.909C75.3163 103.091 74.7841 103.182 74.1932 103.182ZM83.8885 103V91.3636H85.2294V95.6591H85.343C85.4415 95.5076 85.5779 95.3144 85.7521 95.0795C85.9301 94.8409 86.1839 94.6288 86.5135 94.4432C86.8468 94.2538 87.2976 94.1591 87.8657 94.1591C88.6006 94.1591 89.2483 94.3428 89.8089 94.7102C90.3695 95.0777 90.807 95.5985 91.1214 96.2727C91.4358 96.947 91.593 97.7424 91.593 98.6591C91.593 99.5833 91.4358 100.384 91.1214 101.062C90.807 101.737 90.3714 102.259 89.8146 102.631C89.2578 102.998 88.6157 103.182 87.8885 103.182C87.3279 103.182 86.879 103.089 86.5419 102.903C86.2048 102.714 85.9453 102.5 85.7635 102.261C85.5816 102.019 85.4415 101.818 85.343 101.659H85.1839V103H83.8885ZM85.2066 98.6364C85.2066 99.2955 85.3032 99.8769 85.4964 100.381C85.6896 100.881 85.9718 101.273 86.343 101.557C86.7142 101.837 87.1688 101.977 87.7066 101.977C88.2673 101.977 88.7351 101.83 89.1101 101.534C89.4888 101.235 89.7729 100.833 89.9623 100.33C90.1555 99.822 90.2521 99.2576 90.2521 98.6364C90.2521 98.0227 90.1574 97.4697 89.968 96.9773C89.7824 96.4811 89.5002 96.089 89.1214 95.8011C88.7464 95.5095 88.2748 95.3636 87.7066 95.3636C87.1612 95.3636 86.7029 95.5019 86.3316 95.7784C85.9604 96.0511 85.6801 96.4337 85.4907 96.9261C85.3013 97.4148 85.2066 97.9848 85.2066 98.6364ZM95.8923 103.205C95.3393 103.205 94.8374 103.1 94.3867 102.892C93.9359 102.68 93.5779 102.375 93.3128 101.977C93.0476 101.576 92.9151 101.091 92.9151 100.523C92.9151 100.023 93.0135 99.6174 93.2105 99.3068C93.4075 98.9924 93.6707 98.7462 94.0003 98.5682C94.3298 98.3902 94.6935 98.2576 95.0912 98.1705C95.4927 98.0795 95.8961 98.0076 96.3014 97.9545C96.8317 97.8864 97.2617 97.8352 97.5912 97.8011C97.9245 97.7633 98.167 97.7008 98.3185 97.6136C98.4738 97.5265 98.5514 97.375 98.5514 97.1591V97.1136C98.5514 96.553 98.398 96.1174 98.0912 95.8068C97.7882 95.4962 97.3279 95.3409 96.7105 95.3409C96.0704 95.3409 95.5685 95.4811 95.2048 95.7614C94.8412 96.0417 94.5855 96.3409 94.4378 96.6591L93.1651 96.2045C93.3923 95.6742 93.6954 95.2614 94.0742 94.9659C94.4567 94.6667 94.8734 94.4583 95.3242 94.3409C95.7787 94.2197 96.2257 94.1591 96.6651 94.1591C96.9454 94.1591 97.2673 94.1932 97.631 94.2614C97.9984 94.3258 98.3526 94.4602 98.6935 94.6648C99.0382 94.8693 99.3242 95.178 99.5514 95.5909C99.7787 96.0038 99.8923 96.5568 99.8923 97.25V103H98.5514V101.818H98.4832C98.3923 102.008 98.2408 102.21 98.0287 102.426C97.8166 102.642 97.5344 102.826 97.1821 102.977C96.8298 103.129 96.3999 103.205 95.8923 103.205ZM96.0969 102C96.6272 102 97.0742 101.896 97.4378 101.688C97.8052 101.479 98.0817 101.21 98.2673 100.881C98.4567 100.551 98.5514 100.205 98.5514 99.8409V98.6136C98.4946 98.6818 98.3696 98.7443 98.1764 98.8011C97.987 98.8542 97.7673 98.9015 97.5173 98.9432C97.2711 98.9811 97.0306 99.0152 96.7957 99.0455C96.5647 99.072 96.3772 99.0947 96.2332 99.1136C95.8848 99.1591 95.559 99.233 95.256 99.3352C94.9567 99.4337 94.7143 99.5833 94.5287 99.7841C94.3469 99.9811 94.256 100.25 94.256 100.591C94.256 101.057 94.4283 101.409 94.773 101.648C95.1215 101.883 95.5628 102 96.0969 102ZM105.315 103.182C104.588 103.182 103.946 102.998 103.389 102.631C102.832 102.259 102.397 101.737 102.082 101.062C101.768 100.384 101.611 99.5833 101.611 98.6591C101.611 97.7424 101.768 96.947 102.082 96.2727C102.397 95.5985 102.834 95.0777 103.395 94.7102C103.955 94.3428 104.603 94.1591 105.338 94.1591C105.906 94.1591 106.355 94.2538 106.685 94.4432C107.018 94.6288 107.272 94.8409 107.446 95.0795C107.624 95.3144 107.762 95.5076 107.861 95.6591H107.974V91.3636H109.315V103H108.02V101.659H107.861C107.762 101.818 107.622 102.019 107.44 102.261C107.258 102.5 106.999 102.714 106.662 102.903C106.325 103.089 105.876 103.182 105.315 103.182ZM105.497 101.977C106.035 101.977 106.489 101.837 106.861 101.557C107.232 101.273 107.514 100.881 107.707 100.381C107.9 99.8769 107.997 99.2955 107.997 98.6364C107.997 97.9848 107.902 97.4148 107.713 96.9261C107.524 96.4337 107.243 96.0511 106.872 95.7784C106.501 95.5019 106.043 95.3636 105.497 95.3636C104.929 95.3636 104.455 95.5095 104.077 95.8011C103.702 96.089 103.419 96.4811 103.23 96.9773C103.044 97.4697 102.952 98.0227 102.952 98.6364C102.952 99.2576 103.046 99.822 103.236 100.33C103.429 100.833 103.713 101.235 104.088 101.534C104.467 101.83 104.936 101.977 105.497 101.977ZM118.385 103.205C117.832 103.205 117.331 103.1 116.88 102.892C116.429 102.68 116.071 102.375 115.806 101.977C115.541 101.576 115.408 101.091 115.408 100.523C115.408 100.023 115.507 99.6174 115.704 99.3068C115.901 98.9924 116.164 98.7462 116.493 98.5682C116.823 98.3902 117.187 98.2576 117.584 98.1705C117.986 98.0795 118.389 98.0076 118.795 97.9545C119.325 97.8864 119.755 97.8352 120.084 97.8011C120.418 97.7633 120.66 97.7008 120.812 97.6136C120.967 97.5265 121.045 97.375 121.045 97.1591V97.1136C121.045 96.553 120.891 96.1174 120.584 95.8068C120.281 95.4962 119.821 95.3409 119.204 95.3409C118.563 95.3409 118.062 95.4811 117.698 95.7614C117.334 96.0417 117.079 96.3409 116.931 96.6591L115.658 96.2045C115.885 95.6742 116.188 95.2614 116.567 94.9659C116.95 94.6667 117.367 94.4583 117.817 94.3409C118.272 94.2197 118.719 94.1591 119.158 94.1591C119.438 94.1591 119.76 94.1932 120.124 94.2614C120.492 94.3258 120.846 94.4602 121.187 94.6648C121.531 94.8693 121.817 95.178 122.045 95.5909C122.272 96.0038 122.385 96.5568 122.385 97.25V103H121.045V101.818H120.976C120.885 102.008 120.734 102.21 120.522 102.426C120.31 102.642 120.027 102.826 119.675 102.977C119.323 103.129 118.893 103.205 118.385 103.205ZM118.59 102C119.12 102 119.567 101.896 119.931 101.688C120.298 101.479 120.575 101.21 120.76 100.881C120.95 100.551 121.045 100.205 121.045 99.8409V98.6136C120.988 98.6818 120.863 98.7443 120.67 98.8011C120.48 98.8542 120.26 98.9015 120.01 98.9432C119.764 98.9811 119.524 99.0152 119.289 99.0455C119.058 99.072 118.87 99.0947 118.726 99.1136C118.378 99.1591 118.052 99.233 117.749 99.3352C117.45 99.4337 117.207 99.5833 117.022 99.7841C116.84 99.9811 116.749 100.25 116.749 100.591C116.749 101.057 116.921 101.409 117.266 101.648C117.615 101.883 118.056 102 118.59 102ZM125.854 97.75V103H124.513V94.2727H125.808V95.6364H125.922C126.127 95.1932 126.437 94.8371 126.854 94.5682C127.27 94.2955 127.808 94.1591 128.467 94.1591C129.058 94.1591 129.575 94.2803 130.019 94.5227C130.462 94.7614 130.806 95.125 131.053 95.6136C131.299 96.0985 131.422 96.7121 131.422 97.4545V103H130.081V97.5455C130.081 96.8598 129.903 96.3258 129.547 95.9432C129.191 95.5568 128.702 95.3636 128.081 95.3636C127.653 95.3636 127.27 95.4564 126.933 95.642C126.6 95.8277 126.337 96.0985 126.144 96.4545C125.95 96.8106 125.854 97.2424 125.854 97.75ZM136.848 103.182C136.12 103.182 135.478 102.998 134.922 102.631C134.365 102.259 133.929 101.737 133.615 101.062C133.3 100.384 133.143 99.5833 133.143 98.6591C133.143 97.7424 133.3 96.947 133.615 96.2727C133.929 95.5985 134.367 95.0777 134.927 94.7102C135.488 94.3428 136.136 94.1591 136.87 94.1591C137.439 94.1591 137.887 94.2538 138.217 94.4432C138.55 94.6288 138.804 94.8409 138.978 95.0795C139.156 95.3144 139.295 95.5076 139.393 95.6591H139.507V91.3636H140.848V103H139.552V101.659H139.393C139.295 101.818 139.155 102.019 138.973 102.261C138.791 102.5 138.531 102.714 138.194 102.903C137.857 103.089 137.408 103.182 136.848 103.182ZM137.03 101.977C137.567 101.977 138.022 101.837 138.393 101.557C138.764 101.273 139.047 100.881 139.24 100.381C139.433 99.8769 139.53 99.2955 139.53 98.6364C139.53 97.9848 139.435 97.4148 139.245 96.9261C139.056 96.4337 138.776 96.0511 138.405 95.7784C138.033 95.5019 137.575 95.3636 137.03 95.3636C136.461 95.3636 135.988 95.5095 135.609 95.8011C135.234 96.089 134.952 96.4811 134.762 96.9773C134.577 97.4697 134.484 98.0227 134.484 98.6364C134.484 99.2576 134.579 99.822 134.768 100.33C134.961 100.833 135.245 101.235 135.62 101.534C135.999 101.83 136.469 101.977 137.03 101.977ZM150.872 106.455C150.225 106.455 149.668 106.371 149.202 106.205C148.736 106.042 148.348 105.826 148.037 105.557C147.73 105.292 147.486 105.008 147.304 104.705L148.372 103.955C148.494 104.114 148.647 104.295 148.833 104.5C149.018 104.708 149.272 104.888 149.594 105.04C149.92 105.195 150.346 105.273 150.872 105.273C151.577 105.273 152.158 105.102 152.617 104.761C153.075 104.42 153.304 103.886 153.304 103.159V101.386H153.191C153.092 101.545 152.952 101.742 152.77 101.977C152.592 102.208 152.335 102.415 151.997 102.597C151.664 102.775 151.213 102.864 150.645 102.864C149.941 102.864 149.308 102.697 148.747 102.364C148.191 102.03 147.749 101.545 147.424 100.909C147.102 100.273 146.941 99.5 146.941 98.5909C146.941 97.697 147.098 96.9186 147.412 96.2557C147.727 95.589 148.164 95.0739 148.725 94.7102C149.285 94.3428 149.933 94.1591 150.668 94.1591C151.236 94.1591 151.687 94.2538 152.02 94.4432C152.357 94.6288 152.615 94.8409 152.793 95.0795C152.975 95.3144 153.115 95.5076 153.213 95.6591H153.35V94.2727H154.645V103.25C154.645 104 154.475 104.61 154.134 105.08C153.797 105.553 153.342 105.9 152.77 106.119C152.202 106.343 151.569 106.455 150.872 106.455ZM150.827 101.659C151.365 101.659 151.819 101.536 152.191 101.29C152.562 101.044 152.844 100.689 153.037 100.227C153.23 99.7652 153.327 99.2121 153.327 98.5682C153.327 97.9394 153.232 97.3845 153.043 96.9034C152.854 96.4223 152.573 96.0455 152.202 95.7727C151.831 95.5 151.372 95.3636 150.827 95.3636C150.259 95.3636 149.785 95.5076 149.407 95.7955C149.032 96.0833 148.749 96.4697 148.56 96.9545C148.374 97.4394 148.282 97.9773 148.282 98.5682C148.282 99.1742 148.376 99.7102 148.566 100.176C148.759 100.638 149.043 101.002 149.418 101.267C149.797 101.528 150.266 101.659 150.827 101.659ZM160.325 103.182C159.537 103.182 158.846 102.994 158.251 102.619C157.66 102.244 157.198 101.72 156.865 101.045C156.535 100.371 156.371 99.5833 156.371 98.6818C156.371 97.7727 156.535 96.9792 156.865 96.3011C157.198 95.6231 157.66 95.0966 158.251 94.7216C158.846 94.3466 159.537 94.1591 160.325 94.1591C161.113 94.1591 161.803 94.3466 162.393 94.7216C162.988 95.0966 163.45 95.6231 163.78 96.3011C164.113 96.9792 164.28 97.7727 164.28 98.6818C164.28 99.5833 164.113 100.371 163.78 101.045C163.45 101.72 162.988 102.244 162.393 102.619C161.803 102.994 161.113 103.182 160.325 103.182ZM160.325 101.977C160.924 101.977 161.416 101.824 161.803 101.517C162.189 101.21 162.475 100.807 162.66 100.307C162.846 99.8068 162.939 99.2652 162.939 98.6818C162.939 98.0985 162.846 97.5549 162.66 97.0511C162.475 96.5473 162.189 96.1402 161.803 95.8295C161.416 95.5189 160.924 95.3636 160.325 95.3636C159.727 95.3636 159.234 95.5189 158.848 95.8295C158.462 96.1402 158.176 96.5473 157.99 97.0511C157.804 97.5549 157.712 98.0985 157.712 98.6818C157.712 99.2652 157.804 99.8068 157.99 100.307C158.176 100.807 158.462 101.21 158.848 101.517C159.234 101.824 159.727 101.977 160.325 101.977ZM169.552 103.182C168.764 103.182 168.073 102.994 167.478 102.619C166.887 102.244 166.425 101.72 166.092 101.045C165.762 100.371 165.598 99.5833 165.598 98.6818C165.598 97.7727 165.762 96.9792 166.092 96.3011C166.425 95.6231 166.887 95.0966 167.478 94.7216C168.073 94.3466 168.764 94.1591 169.552 94.1591C170.34 94.1591 171.029 94.3466 171.62 94.7216C172.215 95.0966 172.677 95.6231 173.007 96.3011C173.34 96.9792 173.507 97.7727 173.507 98.6818C173.507 99.5833 173.34 100.371 173.007 101.045C172.677 101.72 172.215 102.244 171.62 102.619C171.029 102.994 170.34 103.182 169.552 103.182ZM169.552 101.977C170.151 101.977 170.643 101.824 171.029 101.517C171.416 101.21 171.702 100.807 171.887 100.307C172.073 99.8068 172.166 99.2652 172.166 98.6818C172.166 98.0985 172.073 97.5549 171.887 97.0511C171.702 96.5473 171.416 96.1402 171.029 95.8295C170.643 95.5189 170.151 95.3636 169.552 95.3636C168.954 95.3636 168.461 95.5189 168.075 95.8295C167.688 96.1402 167.402 96.5473 167.217 97.0511C167.031 97.5549 166.938 98.0985 166.938 98.6818C166.938 99.2652 167.031 99.8068 167.217 100.307C167.402 100.807 167.688 101.21 168.075 101.517C168.461 101.824 168.954 101.977 169.552 101.977ZM178.529 103.182C177.802 103.182 177.16 102.998 176.603 102.631C176.046 102.259 175.61 101.737 175.296 101.062C174.982 100.384 174.824 99.5833 174.824 98.6591C174.824 97.7424 174.982 96.947 175.296 96.2727C175.61 95.5985 176.048 95.0777 176.609 94.7102C177.169 94.3428 177.817 94.1591 178.552 94.1591C179.12 94.1591 179.569 94.2538 179.898 94.4432C180.232 94.6288 180.485 94.8409 180.66 95.0795C180.838 95.3144 180.976 95.5076 181.074 95.6591H181.188V91.3636H182.529V103H181.234V101.659H181.074C180.976 101.818 180.836 102.019 180.654 102.261C180.472 102.5 180.213 102.714 179.876 102.903C179.538 103.089 179.09 103.182 178.529 103.182ZM178.711 101.977C179.249 101.977 179.703 101.837 180.074 101.557C180.446 101.273 180.728 100.881 180.921 100.381C181.114 99.8769 181.211 99.2955 181.211 98.6364C181.211 97.9848 181.116 97.4148 180.927 96.9261C180.737 96.4337 180.457 96.0511 180.086 95.7784C179.715 95.5019 179.256 95.3636 178.711 95.3636C178.143 95.3636 177.669 95.5095 177.29 95.8011C176.915 96.089 176.633 96.4811 176.444 96.9773C176.258 97.4697 176.165 98.0227 176.165 98.6364C176.165 99.2576 176.26 99.822 176.449 100.33C176.643 100.833 176.927 101.235 177.302 101.534C177.68 101.83 178.15 101.977 178.711 101.977ZM28.7727 129.182C27.9545 129.182 27.25 128.989 26.6591 128.602C26.0682 128.216 25.6136 127.684 25.2955 127.006C24.9773 126.328 24.8182 125.553 24.8182 124.682C24.8182 123.795 24.9811 123.013 25.3068 122.335C25.6364 121.653 26.0947 121.121 26.6818 120.739C27.2727 120.352 27.9621 120.159 28.75 120.159C29.3636 120.159 29.9167 120.273 30.4091 120.5C30.9015 120.727 31.3049 121.045 31.6193 121.455C31.9337 121.864 32.1288 122.341 32.2045 122.886H30.8636C30.7614 122.489 30.5341 122.136 30.1818 121.83C29.8333 121.519 29.3636 121.364 28.7727 121.364C28.25 121.364 27.7917 121.5 27.3977 121.773C27.0076 122.042 26.7027 122.422 26.483 122.915C26.267 123.403 26.1591 123.977 26.1591 124.636C26.1591 125.311 26.2652 125.898 26.4773 126.398C26.6932 126.898 26.9962 127.286 27.3864 127.562C27.7803 127.839 28.2424 127.977 28.7727 127.977C29.1212 127.977 29.4375 127.917 29.7216 127.795C30.0057 127.674 30.2462 127.5 30.4432 127.273C30.6402 127.045 30.7803 126.773 30.8636 126.455H32.2045C32.1288 126.97 31.9413 127.434 31.642 127.847C31.3466 128.256 30.9545 128.581 30.4659 128.824C29.9811 129.062 29.4167 129.182 28.7727 129.182ZM35.1857 123.75V129H33.8448V117.364H35.1857V121.636H35.2993C35.5039 121.186 35.8107 120.828 36.2198 120.562C36.6327 120.294 37.1819 120.159 37.8675 120.159C38.4622 120.159 38.983 120.278 39.43 120.517C39.877 120.752 40.2236 121.114 40.4698 121.602C40.7198 122.087 40.8448 122.705 40.8448 123.455V129H39.5039V123.545C39.5039 122.852 39.3239 122.316 38.9641 121.938C38.608 121.555 38.1137 121.364 37.4811 121.364C37.0417 121.364 36.6478 121.456 36.2993 121.642C35.9546 121.828 35.6819 122.098 35.4811 122.455C35.2842 122.811 35.1857 123.242 35.1857 123.75ZM46.5234 129.182C45.7355 129.182 45.0442 128.994 44.4495 128.619C43.8586 128.244 43.3965 127.72 43.0631 127.045C42.7336 126.371 42.5688 125.583 42.5688 124.682C42.5688 123.773 42.7336 122.979 43.0631 122.301C43.3965 121.623 43.8586 121.097 44.4495 120.722C45.0442 120.347 45.7355 120.159 46.5234 120.159C47.3112 120.159 48.0006 120.347 48.5915 120.722C49.1862 121.097 49.6484 121.623 49.9779 122.301C50.3112 122.979 50.4779 123.773 50.4779 124.682C50.4779 125.583 50.3112 126.371 49.9779 127.045C49.6484 127.72 49.1862 128.244 48.5915 128.619C48.0006 128.994 47.3112 129.182 46.5234 129.182ZM46.5234 127.977C47.1218 127.977 47.6143 127.824 48.0006 127.517C48.387 127.21 48.673 126.807 48.8586 126.307C49.0442 125.807 49.137 125.265 49.137 124.682C49.137 124.098 49.0442 123.555 48.8586 123.051C48.673 122.547 48.387 122.14 48.0006 121.83C47.6143 121.519 47.1218 121.364 46.5234 121.364C45.9249 121.364 45.4324 121.519 45.0461 121.83C44.6597 122.14 44.3737 122.547 44.1881 123.051C44.0025 123.555 43.9097 124.098 43.9097 124.682C43.9097 125.265 44.0025 125.807 44.1881 126.307C44.3737 126.807 44.6597 127.21 45.0461 127.517C45.4324 127.824 45.9249 127.977 46.5234 127.977ZM53.5457 117.364V129H52.2048V117.364H53.5457ZM59.3407 129.182C58.4998 129.182 57.7745 128.996 57.1646 128.625C56.5585 128.25 56.0907 127.727 55.7612 127.057C55.4354 126.383 55.2726 125.598 55.2726 124.705C55.2726 123.811 55.4354 123.023 55.7612 122.341C56.0907 121.655 56.5491 121.121 57.1362 120.739C57.7271 120.352 58.4165 120.159 59.2044 120.159C59.6589 120.159 60.1078 120.235 60.551 120.386C60.9941 120.538 61.3976 120.784 61.7612 121.125C62.1248 121.462 62.4146 121.909 62.6305 122.466C62.8464 123.023 62.9544 123.708 62.9544 124.523V125.091H56.2271V123.932H61.5907C61.5907 123.439 61.4923 123 61.2953 122.614C61.1021 122.227 60.8256 121.922 60.4657 121.699C60.1097 121.475 59.6892 121.364 59.2044 121.364C58.6703 121.364 58.2082 121.496 57.818 121.761C57.4316 122.023 57.1343 122.364 56.926 122.784C56.7176 123.205 56.6135 123.655 56.6135 124.136V124.909C56.6135 125.568 56.7271 126.127 56.9544 126.585C57.1854 127.04 57.5055 127.386 57.9146 127.625C58.3237 127.86 58.7991 127.977 59.3407 127.977C59.693 127.977 60.0112 127.928 60.2953 127.83C60.5832 127.727 60.8313 127.576 61.0396 127.375C61.2479 127.17 61.4089 126.917 61.5226 126.614L62.818 126.977C62.6816 127.417 62.4525 127.803 62.1305 128.136C61.8085 128.466 61.4108 128.723 60.9373 128.909C60.4638 129.091 59.9316 129.182 59.3407 129.182ZM70.856 122.227L69.6514 122.568C69.5757 122.367 69.4639 122.172 69.3162 121.983C69.1723 121.79 68.9753 121.631 68.7253 121.506C68.4753 121.381 68.1552 121.318 67.7651 121.318C67.231 121.318 66.7859 121.441 66.4298 121.688C66.0776 121.93 65.9014 122.239 65.9014 122.614C65.9014 122.947 66.0226 123.21 66.2651 123.403C66.5075 123.597 66.8863 123.758 67.4014 123.886L68.6969 124.205C69.4772 124.394 70.0586 124.684 70.4412 125.074C70.8238 125.46 71.0151 125.958 71.0151 126.568C71.0151 127.068 70.8711 127.515 70.5832 127.909C70.2991 128.303 69.9014 128.614 69.3901 128.841C68.8787 129.068 68.284 129.182 67.606 129.182C66.7158 129.182 65.9791 128.989 65.3957 128.602C64.8124 128.216 64.4431 127.652 64.2878 126.909L65.5605 126.591C65.6817 127.061 65.9109 127.413 66.248 127.648C66.5889 127.883 67.034 128 67.5832 128C68.2082 128 68.7045 127.867 69.0719 127.602C69.4431 127.333 69.6287 127.011 69.6287 126.636C69.6287 126.333 69.5226 126.08 69.3105 125.875C69.0984 125.667 68.7726 125.511 68.3332 125.409L66.8787 125.068C66.0795 124.879 65.4923 124.585 65.1173 124.188C64.7461 123.786 64.5605 123.284 64.5605 122.682C64.5605 122.189 64.6988 121.754 64.9753 121.375C65.2556 120.996 65.6363 120.699 66.1173 120.483C66.6022 120.267 67.1514 120.159 67.7651 120.159C68.6287 120.159 69.3067 120.348 69.7991 120.727C70.2954 121.106 70.6476 121.606 70.856 122.227ZM76.509 120.273V121.409H71.9863V120.273H76.509ZM73.3044 118.182H74.6453V126.5C74.6453 126.879 74.7003 127.163 74.8101 127.352C74.9238 127.538 75.0677 127.663 75.2419 127.727C75.42 127.788 75.6075 127.818 75.8044 127.818C75.9522 127.818 76.0734 127.811 76.1681 127.795C76.2628 127.777 76.3385 127.761 76.3953 127.75L76.6681 128.955C76.5772 128.989 76.4503 129.023 76.2874 129.057C76.1245 129.095 75.9181 129.114 75.6681 129.114C75.2893 129.114 74.9181 129.032 74.5544 128.869C74.1946 128.706 73.8953 128.458 73.6567 128.125C73.4219 127.792 73.3044 127.371 73.3044 126.864V118.182ZM81.7714 129.182C80.9305 129.182 80.2051 128.996 79.5952 128.625C78.9892 128.25 78.5214 127.727 78.1918 127.057C77.8661 126.383 77.7032 125.598 77.7032 124.705C77.7032 123.811 77.8661 123.023 78.1918 122.341C78.5214 121.655 78.9797 121.121 79.5668 120.739C80.1577 120.352 80.8471 120.159 81.635 120.159C82.0895 120.159 82.5384 120.235 82.9816 120.386C83.4248 120.538 83.8282 120.784 84.1918 121.125C84.5555 121.462 84.8452 121.909 85.0611 122.466C85.277 123.023 85.385 123.708 85.385 124.523V125.091H78.6577V123.932H84.0214C84.0214 123.439 83.9229 123 83.7259 122.614C83.5327 122.227 83.2562 121.922 82.8964 121.699C82.5403 121.475 82.1198 121.364 81.635 121.364C81.1009 121.364 80.6388 121.496 80.2486 121.761C79.8623 122.023 79.5649 122.364 79.3566 122.784C79.1483 123.205 79.0441 123.655 79.0441 124.136V124.909C79.0441 125.568 79.1577 126.127 79.385 126.585C79.6161 127.04 79.9361 127.386 80.3452 127.625C80.7543 127.86 81.2297 127.977 81.7714 127.977C82.1236 127.977 82.4418 127.928 82.7259 127.83C83.0138 127.727 83.2619 127.576 83.4702 127.375C83.6786 127.17 83.8395 126.917 83.9532 126.614L85.2486 126.977C85.1123 127.417 84.8831 127.803 84.5611 128.136C84.2392 128.466 83.8414 128.723 83.368 128.909C82.8945 129.091 82.3623 129.182 81.7714 129.182ZM87.1048 129V120.273H88.4002V121.591H88.4911C88.6502 121.159 88.9381 120.809 89.3548 120.54C89.7714 120.271 90.2411 120.136 90.7639 120.136C90.8623 120.136 90.9855 120.138 91.1332 120.142C91.2809 120.146 91.3927 120.152 91.4684 120.159V121.523C91.423 121.511 91.3188 121.494 91.1559 121.472C90.9968 121.445 90.8283 121.432 90.6502 121.432C90.226 121.432 89.8472 121.521 89.5139 121.699C89.1843 121.873 88.923 122.116 88.7298 122.426C88.5404 122.733 88.4457 123.083 88.4457 123.477V129H87.1048ZM96.0177 129.182C95.2299 129.182 94.5386 128.994 93.9439 128.619C93.353 128.244 92.8908 127.72 92.5575 127.045C92.228 126.371 92.0632 125.583 92.0632 124.682C92.0632 123.773 92.228 122.979 92.5575 122.301C92.8908 121.623 93.353 121.097 93.9439 120.722C94.5386 120.347 95.2299 120.159 96.0177 120.159C96.8056 120.159 97.495 120.347 98.0859 120.722C98.6806 121.097 99.1427 121.623 99.4723 122.301C99.8056 122.979 99.9723 123.773 99.9723 124.682C99.9723 125.583 99.8056 126.371 99.4723 127.045C99.1427 127.72 98.6806 128.244 98.0859 128.619C97.495 128.994 96.8056 129.182 96.0177 129.182ZM96.0177 127.977C96.6162 127.977 97.1086 127.824 97.495 127.517C97.8814 127.21 98.1674 126.807 98.353 126.307C98.5386 125.807 98.6314 125.265 98.6314 124.682C98.6314 124.098 98.5386 123.555 98.353 123.051C98.1674 122.547 97.8814 122.14 97.495 121.83C97.1086 121.519 96.6162 121.364 96.0177 121.364C95.4192 121.364 94.9268 121.519 94.5405 121.83C94.1541 122.14 93.8681 122.547 93.6825 123.051C93.4969 123.555 93.4041 124.098 93.4041 124.682C93.4041 125.265 93.4969 125.807 93.6825 126.307C93.8681 126.807 94.1541 127.21 94.5405 127.517C94.9268 127.824 95.4192 127.977 96.0177 127.977ZM103.04 117.364V129H101.699V117.364H103.04ZM106.926 125.727V125.659C106.934 124.936 107.009 124.36 107.153 123.932C107.297 123.504 107.502 123.157 107.767 122.892C108.032 122.627 108.35 122.383 108.721 122.159C108.945 122.023 109.146 121.862 109.324 121.676C109.502 121.487 109.642 121.269 109.744 121.023C109.85 120.777 109.903 120.504 109.903 120.205C109.903 119.833 109.816 119.511 109.642 119.239C109.468 118.966 109.235 118.756 108.943 118.608C108.651 118.46 108.328 118.386 107.971 118.386C107.661 118.386 107.362 118.451 107.074 118.58C106.786 118.708 106.545 118.911 106.352 119.188C106.159 119.464 106.047 119.826 106.017 120.273H104.585C104.615 119.629 104.782 119.078 105.085 118.619C105.392 118.161 105.795 117.811 106.295 117.568C106.799 117.326 107.358 117.205 107.971 117.205C108.638 117.205 109.218 117.337 109.71 117.602C110.206 117.867 110.589 118.231 110.858 118.693C111.131 119.155 111.267 119.682 111.267 120.273C111.267 120.689 111.203 121.066 111.074 121.403C110.949 121.741 110.767 122.042 110.528 122.307C110.293 122.572 110.009 122.807 109.676 123.011C109.343 123.22 109.076 123.439 108.875 123.67C108.674 123.898 108.528 124.169 108.437 124.483C108.346 124.797 108.297 125.189 108.29 125.659V125.727H106.926ZM107.653 129.091C107.373 129.091 107.132 128.991 106.932 128.79C106.731 128.589 106.631 128.348 106.631 128.068C106.631 127.788 106.731 127.547 106.932 127.347C107.132 127.146 107.373 127.045 107.653 127.045C107.934 127.045 108.174 127.146 108.375 127.347C108.576 127.547 108.676 127.788 108.676 128.068C108.676 128.254 108.629 128.424 108.534 128.58C108.443 128.735 108.32 128.86 108.165 128.955C108.013 129.045 107.843 129.091 107.653 129.091Z" fill="white"/>
<defs>
<radialGradient id="paint0_angular_167_25" cx="0" cy="0" r="1" gradientUnits="userSpaceOnUse" gradientTransform="translate(107.011 135.882) rotate(-12.9855) scale(139.661 115.245)">
<stop offset="0.157704" stop-opacity="0"/>
<stop offset="0.723846" stop-color="white" stop-opacity="0"/>
<stop offset="0.887134" stop-color="white"/>
</radialGradient>
</defs>
</svg>
