<svg width="221" height="220" viewBox="0 0 221 220" fill="none" xmlns="http://www.w3.org/2000/svg">
<rect width="221" height="220" rx="12" fill="white" fill-opacity="0.08"/>
<rect x="0.5" y="0.5" width="220" height="219" rx="11.5" stroke="white" stroke-opacity="0.2"/>
<rect x="0.5" y="0.5" width="220" height="219" rx="11.5" stroke="url(#paint0_angular_97_1878)" stroke-opacity="0.4"/>
<path d="M36.049 26.9091V40H33.9396L27.7713 31.0831H27.6626V40H25.2912V26.9091H27.4134L33.5753 35.8324H33.6903V26.9091H36.049ZM44.0685 35.8707V30.1818H46.3825V40H44.1388V38.255H44.0366C43.815 38.8047 43.4506 39.2543 42.9435 39.6037C42.4407 39.9531 41.8207 40.1278 41.0834 40.1278C40.44 40.1278 39.8711 39.9851 39.3768 39.6996C38.8867 39.4098 38.5032 38.9901 38.2262 38.4403C37.9492 37.8864 37.8107 37.2173 37.8107 36.4332V30.1818H40.1246V36.0753C40.1246 36.6974 40.2951 37.1918 40.636 37.5582C40.9769 37.9247 41.4244 38.108 41.9783 38.108C42.3192 38.108 42.6495 38.0249 42.9691 37.8587C43.2887 37.6925 43.5508 37.4453 43.7553 37.1172C43.9641 36.7848 44.0685 36.3693 44.0685 35.8707ZM52.9446 30.1818V31.9716H47.3004V30.1818H52.9446ZM48.6939 27.8295H51.0078V37.0469C51.0078 37.358 51.0547 37.5966 51.1484 37.7628C51.2464 37.9247 51.3743 38.0355 51.5319 38.0952C51.6896 38.1548 51.8643 38.1847 52.0561 38.1847C52.201 38.1847 52.3331 38.174 52.4524 38.1527C52.576 38.1314 52.6697 38.1122 52.7337 38.0952L53.1236 39.9041C53 39.9467 52.8231 39.9936 52.593 40.0447C52.3672 40.0959 52.0902 40.1257 51.7621 40.1342C51.1825 40.1513 50.6605 40.0639 50.196 39.8722C49.7315 39.6761 49.3629 39.3736 49.0902 38.9645C48.8217 38.5554 48.6896 38.044 48.6939 37.4304V27.8295ZM54.1598 40V30.1818H56.4034V31.8182H56.5057C56.6846 31.2514 56.9915 30.8146 57.4261 30.5078C57.865 30.1967 58.3657 30.0412 58.9282 30.0412C59.0561 30.0412 59.1988 30.0476 59.3565 30.0604C59.5184 30.0689 59.6527 30.0838 59.7592 30.1051V32.2337C59.6612 32.1996 59.5057 32.1697 59.2926 32.1442C59.0838 32.1143 58.8814 32.0994 58.6853 32.0994C58.2635 32.0994 57.8842 32.1911 57.5476 32.3743C57.2152 32.5533 56.9531 32.8026 56.7613 33.1222C56.5696 33.4418 56.4737 33.8104 56.4737 34.228V40H54.1598ZM60.5765 40V30.1818H62.8904V40H60.5765ZM61.7398 28.7884C61.3734 28.7884 61.058 28.6669 60.7938 28.424C60.5296 28.1768 60.3975 27.8807 60.3975 27.5355C60.3975 27.1861 60.5296 26.8899 60.7938 26.647C61.058 26.3999 61.3734 26.2763 61.7398 26.2763C62.1106 26.2763 62.4259 26.3999 62.6859 26.647C62.9501 26.8899 63.0822 27.1861 63.0822 27.5355C63.0822 27.8807 62.9501 28.1768 62.6859 28.424C62.4259 28.6669 62.1106 28.7884 61.7398 28.7884ZM69.4526 30.1818V31.9716H63.8084V30.1818H69.4526ZM65.2018 27.8295H67.5158V37.0469C67.5158 37.358 67.5626 37.5966 67.6564 37.7628C67.7544 37.9247 67.8822 38.0355 68.0399 38.0952C68.1976 38.1548 68.3723 38.1847 68.5641 38.1847C68.709 38.1847 68.8411 38.174 68.9604 38.1527C69.084 38.1314 69.1777 38.1122 69.2416 38.0952L69.6315 39.9041C69.508 39.9467 69.3311 39.9936 69.101 40.0447C68.8751 40.0959 68.5982 40.1257 68.27 40.1342C67.6905 40.1513 67.1685 40.0639 66.704 39.8722C66.2395 39.6761 65.8709 39.3736 65.5982 38.9645C65.3297 38.5554 65.1976 38.044 65.2018 37.4304V27.8295ZM70.6677 40V30.1818H72.9817V40H70.6677ZM71.8311 28.7884C71.4646 28.7884 71.1493 28.6669 70.8851 28.424C70.6209 28.1768 70.4888 27.8807 70.4888 27.5355C70.4888 27.1861 70.6209 26.8899 70.8851 26.647C71.1493 26.3999 71.4646 26.2763 71.8311 26.2763C72.2018 26.2763 72.5172 26.3999 72.7771 26.647C73.0413 26.8899 73.1734 27.1861 73.1734 27.5355C73.1734 27.8807 73.0413 28.1768 72.7771 28.424C72.5172 28.6669 72.2018 28.7884 71.8311 28.7884ZM78.9238 40.1918C77.965 40.1918 77.134 39.9808 76.4309 39.5589C75.7278 39.1371 75.1823 38.5469 74.7945 37.7884C74.411 37.0298 74.2192 36.1435 74.2192 35.1293C74.2192 34.1151 74.411 33.2266 74.7945 32.4638C75.1823 31.701 75.7278 31.1087 76.4309 30.6868C77.134 30.2649 77.965 30.054 78.9238 30.054C79.8826 30.054 80.7136 30.2649 81.4167 30.6868C82.1198 31.1087 82.6631 31.701 83.0466 32.4638C83.4344 33.2266 83.6283 34.1151 83.6283 35.1293C83.6283 36.1435 83.4344 37.0298 83.0466 37.7884C82.6631 38.5469 82.1198 39.1371 81.4167 39.5589C80.7136 39.9808 79.8826 40.1918 78.9238 40.1918ZM78.9366 38.3381C79.4564 38.3381 79.8911 38.1953 80.2405 37.9098C80.59 37.62 80.8499 37.2322 81.0204 36.7464C81.1951 36.2607 81.2824 35.7195 81.2824 35.1229C81.2824 34.522 81.1951 33.9787 81.0204 33.4929C80.8499 33.0028 80.59 32.6129 80.2405 32.3232C79.8911 32.0334 79.4564 31.8885 78.9366 31.8885C78.4039 31.8885 77.9607 32.0334 77.607 32.3232C77.2576 32.6129 76.9955 33.0028 76.8208 33.4929C76.6503 33.9787 76.5651 34.522 76.5651 35.1229C76.5651 35.7195 76.6503 36.2607 76.8208 36.7464C76.9955 37.2322 77.2576 37.62 77.607 37.9098C77.9607 38.1953 78.4039 38.3381 78.9366 38.3381ZM87.1862 34.2472V40H84.8723V30.1818H87.0839V31.8501H87.199C87.4248 31.3004 87.7849 30.8636 88.2792 30.5398C88.7778 30.2159 89.3936 30.054 90.1265 30.054C90.8041 30.054 91.3943 30.1989 91.8971 30.4886C92.4042 30.7784 92.7963 31.1982 93.0733 31.7479C93.3545 32.2976 93.493 32.9645 93.4888 33.7486V40H91.1748V34.1065C91.1748 33.4503 91.0044 32.9368 90.6635 32.5661C90.3268 32.1953 89.8602 32.0099 89.2636 32.0099C88.8588 32.0099 88.4987 32.0994 88.1834 32.2784C87.8723 32.4531 87.6272 32.7067 87.4483 33.0391C87.2736 33.3714 87.1862 33.7741 87.1862 34.2472Z" fill="white"/>
<path opacity="0.6" d="M25.8864 77H24.4091L28.6818 65.3636H30.1364L34.4091 77H32.9318L29.4545 67.2045H29.3636L25.8864 77ZM26.4318 72.4545H32.3864V73.7045H26.4318V72.4545ZM41.9016 70.2273L40.697 70.5682C40.6213 70.3674 40.5095 70.1723 40.3618 69.983C40.2179 69.7898 40.0209 69.6307 39.7709 69.5057C39.5209 69.3807 39.2008 69.3182 38.8107 69.3182C38.2766 69.3182 37.8315 69.4413 37.4755 69.6875C37.1232 69.9299 36.947 70.2386 36.947 70.6136C36.947 70.947 37.0683 71.2102 37.3107 71.4034C37.5531 71.5966 37.9319 71.7576 38.447 71.8864L39.7425 72.2045C40.5228 72.3939 41.1042 72.6837 41.4868 73.0739C41.8694 73.4602 42.0607 73.9583 42.0607 74.5682C42.0607 75.0682 41.9167 75.5152 41.6289 75.9091C41.3448 76.303 40.947 76.6136 40.4357 76.8409C39.9243 77.0682 39.3296 77.1818 38.6516 77.1818C37.7614 77.1818 37.0247 76.9886 36.4414 76.6023C35.858 76.2159 35.4887 75.6515 35.3334 74.9091L36.6061 74.5909C36.7273 75.0606 36.9565 75.4129 37.2936 75.6477C37.6345 75.8826 38.0796 76 38.6289 76C39.2539 76 39.7501 75.8674 40.1175 75.6023C40.4887 75.3333 40.6743 75.0114 40.6743 74.6364C40.6743 74.3333 40.5683 74.0795 40.3561 73.875C40.144 73.6667 39.8183 73.5114 39.3789 73.4091L37.9243 73.0682C37.1251 72.8788 36.538 72.5852 36.163 72.1875C35.7917 71.786 35.6061 71.2841 35.6061 70.6818C35.6061 70.1894 35.7444 69.7538 36.0209 69.375C36.3012 68.9962 36.6819 68.6989 37.163 68.483C37.6478 68.267 38.197 68.1591 38.8107 68.1591C39.6743 68.1591 40.3523 68.3485 40.8448 68.7273C41.341 69.1061 41.6933 69.6061 41.9016 70.2273ZM45.0091 73.8182L44.9864 72.1591H45.2591L49.0773 68.2727H50.7364L46.6682 72.3864H46.5546L45.0091 73.8182ZM43.7591 77V65.3636H45.1001V77H43.7591ZM49.3046 77L45.8955 72.6818L46.8501 71.75L51.0091 77H49.3046ZM62.2768 80.2727V75.6591H62.1632C62.0647 75.8182 61.9245 76.0189 61.7427 76.2614C61.5609 76.5 61.3014 76.714 60.9643 76.9034C60.6272 77.089 60.1783 77.1818 59.6177 77.1818C58.8905 77.1818 58.2484 76.9981 57.6916 76.6307C57.1348 76.2595 56.6992 75.7367 56.3848 75.0625C56.0704 74.3845 55.9132 73.5833 55.9132 72.6591C55.9132 71.7424 56.0704 70.947 56.3848 70.2727C56.6992 69.5985 57.1367 69.0777 57.6973 68.7102C58.2579 68.3428 58.9056 68.1591 59.6405 68.1591C60.2086 68.1591 60.6575 68.2538 60.987 68.4432C61.3204 68.6288 61.5742 68.8409 61.7484 69.0795C61.9264 69.3144 62.0647 69.5076 62.1632 69.6591H62.3223V68.2727H63.6177V80.2727H62.2768ZM59.7995 75.9773C60.3374 75.9773 60.792 75.8371 61.1632 75.5568C61.5344 75.2727 61.8166 74.8807 62.0098 74.3807C62.203 73.8769 62.2995 73.2955 62.2995 72.6364C62.2995 71.9848 62.2048 71.4148 62.0155 70.9261C61.8261 70.4337 61.5458 70.0511 61.1745 69.7784C60.8033 69.5019 60.345 69.3636 59.7995 69.3636C59.2314 69.3636 58.7579 69.5095 58.3791 69.8011C58.0041 70.089 57.7219 70.4811 57.5325 70.9773C57.3469 71.4697 57.2541 72.0227 57.2541 72.6364C57.2541 73.2576 57.3488 73.822 57.5382 74.3295C57.7314 74.8333 58.0155 75.2348 58.3905 75.5341C58.7692 75.8295 59.2389 75.9773 59.7995 75.9773ZM71.2523 73.4318V68.2727H72.5932V77H71.2523V75.5227H71.1614C70.9568 75.9659 70.6386 76.3428 70.2068 76.6534C69.775 76.9602 69.2295 77.1136 68.5705 77.1136C68.025 77.1136 67.5402 76.9943 67.1159 76.7557C66.6917 76.5133 66.3583 76.1496 66.1159 75.6648C65.8735 75.1761 65.7523 74.5606 65.7523 73.8182V68.2727H67.0932V73.7273C67.0932 74.3636 67.2712 74.8712 67.6273 75.25C67.9871 75.6288 68.4455 75.8182 69.0023 75.8182C69.3356 75.8182 69.6746 75.733 70.0193 75.5625C70.3678 75.392 70.6595 75.1307 70.8943 74.7784C71.133 74.4261 71.2523 73.9773 71.2523 73.4318ZM78.3882 77.1818C77.5473 77.1818 76.822 76.9962 76.2121 76.625C75.606 76.25 75.1382 75.7273 74.8087 75.0568C74.4829 74.3826 74.3201 73.5985 74.3201 72.7045C74.3201 71.8106 74.4829 71.0227 74.8087 70.3409C75.1382 69.6553 75.5966 69.1212 76.1837 68.7386C76.7746 68.3523 77.464 68.1591 78.2519 68.1591C78.7064 68.1591 79.1553 68.2348 79.5985 68.3864C80.0416 68.5379 80.4451 68.7841 80.8087 69.125C81.1723 69.4621 81.4621 69.9091 81.678 70.4659C81.8939 71.0227 82.0019 71.7083 82.0019 72.5227V73.0909H75.2746V71.9318H80.6382C80.6382 71.4394 80.5398 71 80.3428 70.6136C80.1496 70.2273 79.8731 69.9223 79.5132 69.6989C79.1572 69.4754 78.7367 69.3636 78.2519 69.3636C77.7178 69.3636 77.2557 69.4962 76.8655 69.7614C76.4791 70.0227 76.1818 70.3636 75.9735 70.7841C75.7651 71.2045 75.661 71.6553 75.661 72.1364V72.9091C75.661 73.5682 75.7746 74.1269 76.0019 74.5852C76.2329 75.0398 76.553 75.3864 76.9621 75.625C77.3712 75.8598 77.8466 75.9773 78.3882 75.9773C78.7405 75.9773 79.0587 75.928 79.3428 75.8295C79.6307 75.7273 79.8788 75.5758 80.0871 75.375C80.2954 75.1705 80.4564 74.9167 80.5701 74.6136L81.8655 74.9773C81.7291 75.4167 81.5 75.803 81.178 76.1364C80.856 76.4659 80.4583 76.7235 79.9848 76.9091C79.5113 77.0909 78.9791 77.1818 78.3882 77.1818ZM89.9035 70.2273L88.6989 70.5682C88.6232 70.3674 88.5114 70.1723 88.3637 69.983C88.2198 69.7898 88.0228 69.6307 87.7728 69.5057C87.5228 69.3807 87.2027 69.3182 86.8126 69.3182C86.2785 69.3182 85.8334 69.4413 85.4773 69.6875C85.1251 69.9299 84.9489 70.2386 84.9489 70.6136C84.9489 70.947 85.0701 71.2102 85.3126 71.4034C85.555 71.5966 85.9338 71.7576 86.4489 71.8864L87.7444 72.2045C88.5247 72.3939 89.1061 72.6837 89.4887 73.0739C89.8713 73.4602 90.0626 73.9583 90.0626 74.5682C90.0626 75.0682 89.9186 75.5152 89.6307 75.9091C89.3466 76.303 88.9489 76.6136 88.4376 76.8409C87.9262 77.0682 87.3315 77.1818 86.6535 77.1818C85.7633 77.1818 85.0266 76.9886 84.4432 76.6023C83.8599 76.2159 83.4906 75.6515 83.3353 74.9091L84.608 74.5909C84.7292 75.0606 84.9584 75.4129 85.2955 75.6477C85.6364 75.8826 86.0815 76 86.6307 76C87.2557 76 87.7519 75.8674 88.1194 75.6023C88.4906 75.3333 88.6762 75.0114 88.6762 74.6364C88.6762 74.3333 88.5701 74.0795 88.358 73.875C88.1459 73.6667 87.8201 73.5114 87.3807 73.4091L85.9262 73.0682C85.1269 72.8788 84.5398 72.5852 84.1648 72.1875C83.7936 71.786 83.608 71.2841 83.608 70.6818C83.608 70.1894 83.7463 69.7538 84.0228 69.375C84.3031 68.9962 84.6838 68.6989 85.1648 68.483C85.6497 68.267 86.1989 68.1591 86.8126 68.1591C87.6762 68.1591 88.3542 68.3485 88.8466 68.7273C89.3429 69.1061 89.6951 69.6061 89.9035 70.2273ZM95.5565 68.2727V69.4091H91.0338V68.2727H95.5565ZM92.3519 66.1818H93.6928V74.5C93.6928 74.8788 93.7478 75.1629 93.8576 75.3523C93.9713 75.5379 94.1152 75.6629 94.2894 75.7273C94.4675 75.7879 94.655 75.8182 94.8519 75.8182C94.9997 75.8182 95.1209 75.8106 95.2156 75.7955C95.3103 75.7765 95.386 75.7614 95.4428 75.75L95.7156 76.9545C95.6247 76.9886 95.4978 77.0227 95.3349 77.0568C95.172 77.0947 94.9656 77.1136 94.7156 77.1136C94.3368 77.1136 93.9656 77.0322 93.6019 76.8693C93.2421 76.7064 92.9428 76.4583 92.7042 76.125C92.4694 75.7917 92.3519 75.3712 92.3519 74.8636V66.1818ZM97.2535 77V68.2727H98.5944V77H97.2535ZM97.9353 66.8182C97.674 66.8182 97.4486 66.7292 97.2592 66.5511C97.0736 66.3731 96.9808 66.1591 96.9808 65.9091C96.9808 65.6591 97.0736 65.4451 97.2592 65.267C97.4486 65.089 97.674 65 97.9353 65C98.1967 65 98.4202 65.089 98.6058 65.267C98.7952 65.4451 98.8899 65.6591 98.8899 65.9091C98.8899 66.1591 98.7952 66.3731 98.6058 66.5511C98.4202 66.7292 98.1967 66.8182 97.9353 66.8182ZM104.276 77.1818C103.488 77.1818 102.797 76.9943 102.202 76.6193C101.611 76.2443 101.149 75.7197 100.816 75.0455C100.486 74.3712 100.321 73.5833 100.321 72.6818C100.321 71.7727 100.486 70.9792 100.816 70.3011C101.149 69.6231 101.611 69.0966 102.202 68.7216C102.797 68.3466 103.488 68.1591 104.276 68.1591C105.064 68.1591 105.753 68.3466 106.344 68.7216C106.939 69.0966 107.401 69.6231 107.73 70.3011C108.064 70.9792 108.23 71.7727 108.23 72.6818C108.23 73.5833 108.064 74.3712 107.73 75.0455C107.401 75.7197 106.939 76.2443 106.344 76.6193C105.753 76.9943 105.064 77.1818 104.276 77.1818ZM104.276 75.9773C104.874 75.9773 105.367 75.8239 105.753 75.517C106.139 75.2102 106.425 74.8068 106.611 74.3068C106.797 73.8068 106.889 73.2652 106.889 72.6818C106.889 72.0985 106.797 71.5549 106.611 71.0511C106.425 70.5473 106.139 70.1402 105.753 69.8295C105.367 69.5189 104.874 69.3636 104.276 69.3636C103.677 69.3636 103.185 69.5189 102.799 69.8295C102.412 70.1402 102.126 70.5473 101.941 71.0511C101.755 71.5549 101.662 72.0985 101.662 72.6818C101.662 73.2652 101.755 73.8068 101.941 74.3068C102.126 74.8068 102.412 75.2102 102.799 75.517C103.185 75.8239 103.677 75.9773 104.276 75.9773ZM111.298 71.75V77H109.957V68.2727H111.253V69.6364H111.366C111.571 69.1932 111.882 68.8371 112.298 68.5682C112.715 68.2955 113.253 68.1591 113.912 68.1591C114.503 68.1591 115.02 68.2803 115.463 68.5227C115.906 68.7614 116.251 69.125 116.497 69.6136C116.743 70.0985 116.866 70.7121 116.866 71.4545V77H115.525V71.5455C115.525 70.8598 115.347 70.3258 114.991 69.9432C114.635 69.5568 114.147 69.3636 113.525 69.3636C113.097 69.3636 112.715 69.4564 112.378 69.642C112.044 69.8277 111.781 70.0985 111.588 70.4545C111.395 70.8106 111.298 71.2424 111.298 71.75ZM125.178 70.2273L123.974 70.5682C123.898 70.3674 123.786 70.1723 123.639 69.983C123.495 69.7898 123.298 69.6307 123.048 69.5057C122.798 69.3807 122.478 69.3182 122.088 69.3182C121.553 69.3182 121.108 69.4413 120.752 69.6875C120.4 69.9299 120.224 70.2386 120.224 70.6136C120.224 70.947 120.345 71.2102 120.588 71.4034C120.83 71.5966 121.209 71.7576 121.724 71.8864L123.019 72.2045C123.8 72.3939 124.381 72.6837 124.764 73.0739C125.146 73.4602 125.338 73.9583 125.338 74.5682C125.338 75.0682 125.194 75.5152 124.906 75.9091C124.622 76.303 124.224 76.6136 123.713 76.8409C123.201 77.0682 122.606 77.1818 121.928 77.1818C121.038 77.1818 120.302 76.9886 119.718 76.6023C119.135 76.2159 118.766 75.6515 118.61 74.9091L119.883 74.5909C120.004 75.0606 120.233 75.4129 120.571 75.6477C120.911 75.8826 121.356 76 121.906 76C122.531 76 123.027 75.8674 123.394 75.6023C123.766 75.3333 123.951 75.0114 123.951 74.6364C123.951 74.3333 123.845 74.0795 123.633 73.875C123.421 73.6667 123.095 73.5114 122.656 73.4091L121.201 73.0682C120.402 72.8788 119.815 72.5852 119.44 72.1875C119.069 71.786 118.883 71.2841 118.883 70.6818C118.883 70.1894 119.021 69.7538 119.298 69.375C119.578 68.9962 119.959 68.6989 120.44 68.483C120.925 68.267 121.474 68.1591 122.088 68.1591C122.951 68.1591 123.629 68.3485 124.122 68.7273C124.618 69.1061 124.97 69.6061 125.178 70.2273ZM132.557 65.3636V77H131.216V65.3636H132.557ZM134.693 77V68.2727H136.034V77H134.693ZM135.375 66.8182C135.113 66.8182 134.888 66.7292 134.699 66.5511C134.513 66.3731 134.42 66.1591 134.42 65.9091C134.42 65.6591 134.513 65.4451 134.699 65.267C134.888 65.089 135.113 65 135.375 65C135.636 65 135.86 65.089 136.045 65.267C136.235 65.4451 136.329 65.6591 136.329 65.9091C136.329 66.1591 136.235 66.3731 136.045 66.5511C135.86 66.7292 135.636 66.8182 135.375 66.8182ZM139.42 73.8182L139.397 72.1591H139.67L143.488 68.2727H145.147L141.079 72.3864H140.965L139.42 73.8182ZM138.17 77V65.3636H139.511V77H138.17ZM143.715 77L140.306 72.6818L141.261 71.75L145.42 77H143.715ZM149.853 77.1818C149.012 77.1818 148.286 76.9962 147.676 76.625C147.07 76.25 146.603 75.7273 146.273 75.0568C145.947 74.3826 145.784 73.5985 145.784 72.7045C145.784 71.8106 145.947 71.0227 146.273 70.3409C146.603 69.6553 147.061 69.1212 147.648 68.7386C148.239 68.3523 148.928 68.1591 149.716 68.1591C150.171 68.1591 150.62 68.2348 151.063 68.3864C151.506 68.5379 151.909 68.7841 152.273 69.125C152.637 69.4621 152.926 69.9091 153.142 70.4659C153.358 71.0227 153.466 71.7083 153.466 72.5227V73.0909H146.739V71.9318H152.103C152.103 71.4394 152.004 71 151.807 70.6136C151.614 70.2273 151.337 69.9223 150.978 69.6989C150.622 69.4754 150.201 69.3636 149.716 69.3636C149.182 69.3636 148.72 69.4962 148.33 69.7614C147.944 70.0227 147.646 70.3636 147.438 70.7841C147.23 71.2045 147.125 71.6553 147.125 72.1364V72.9091C147.125 73.5682 147.239 74.1269 147.466 74.5852C147.697 75.0398 148.017 75.3864 148.426 75.625C148.836 75.8598 149.311 75.9773 149.853 75.9773C150.205 75.9773 150.523 75.928 150.807 75.8295C151.095 75.7273 151.343 75.5758 151.551 75.375C151.76 75.1705 151.921 74.9167 152.034 74.6136L153.33 74.9773C153.194 75.4167 152.964 75.803 152.642 76.1364C152.32 76.4659 151.923 76.7235 151.449 76.9091C150.976 77.0909 150.444 77.1818 149.853 77.1818ZM156.163 77.0909C155.883 77.0909 155.642 76.9905 155.442 76.7898C155.241 76.589 155.141 76.3485 155.141 76.0682C155.141 75.7879 155.241 75.5473 155.442 75.3466C155.642 75.1458 155.883 75.0455 156.163 75.0455C156.444 75.0455 156.684 75.1458 156.885 75.3466C157.086 75.5473 157.186 75.7879 157.186 76.0682C157.186 76.2538 157.139 76.4242 157.044 76.5795C156.953 76.7348 156.83 76.8598 156.675 76.9545C156.523 77.0455 156.353 77.0909 156.163 77.0909ZM160.25 77.0909C159.969 77.0909 159.729 76.9905 159.528 76.7898C159.327 76.589 159.227 76.3485 159.227 76.0682C159.227 75.7879 159.327 75.5473 159.528 75.3466C159.729 75.1458 159.969 75.0455 160.25 75.0455C160.53 75.0455 160.77 75.1458 160.971 75.3466C161.172 75.5473 161.272 75.7879 161.272 76.0682C161.272 76.2538 161.225 76.4242 161.13 76.5795C161.039 76.7348 160.916 76.8598 160.761 76.9545C160.609 77.0455 160.439 77.0909 160.25 77.0909ZM164.336 77.0909C164.055 77.0909 163.815 76.9905 163.614 76.7898C163.413 76.589 163.313 76.3485 163.313 76.0682C163.313 75.7879 163.413 75.5473 163.614 75.3466C163.815 75.1458 164.055 75.0455 164.336 75.0455C164.616 75.0455 164.857 75.1458 165.057 75.3466C165.258 75.5473 165.359 75.7879 165.359 76.0682C165.359 76.2538 165.311 76.4242 165.216 76.5795C165.126 76.7348 165.002 76.8598 164.847 76.9545C164.696 77.0455 164.525 77.0909 164.336 77.0909ZM27.5227 103L24.3409 91.3636H25.7727L28.2045 100.841H28.3182L30.7955 91.3636H32.3864L34.8636 100.841H34.9773L37.4091 91.3636H38.8409L35.6591 103H34.2045L31.6364 93.7273H31.5455L28.9773 103H27.5227ZM41.4357 97.75V103H40.0948V91.3636H41.4357V95.6364H41.5493C41.7539 95.1856 42.0607 94.8277 42.4698 94.5625C42.8827 94.2936 43.4319 94.1591 44.1175 94.1591C44.7122 94.1591 45.233 94.2784 45.68 94.517C46.127 94.7519 46.4736 95.1136 46.7198 95.6023C46.9698 96.0871 47.0948 96.7045 47.0948 97.4545V103H45.7539V97.5455C45.7539 96.8523 45.5739 96.3163 45.2141 95.9375C44.858 95.5549 44.3637 95.3636 43.7311 95.3636C43.2917 95.3636 42.8978 95.4564 42.5493 95.642C42.2046 95.8277 41.9319 96.0985 41.7311 96.4545C41.5342 96.8106 41.4357 97.2424 41.4357 97.75ZM51.7961 103.205C51.2431 103.205 50.7412 103.1 50.2904 102.892C49.8396 102.68 49.4817 102.375 49.2165 101.977C48.9514 101.576 48.8188 101.091 48.8188 100.523C48.8188 100.023 48.9173 99.6174 49.1143 99.3068C49.3112 98.9924 49.5745 98.7462 49.904 98.5682C50.2336 98.3902 50.5972 98.2576 50.9949 98.1705C51.3965 98.0795 51.7999 98.0076 52.2052 97.9545C52.7355 97.8864 53.1654 97.8352 53.4949 97.8011C53.8283 97.7633 54.0707 97.7008 54.2222 97.6136C54.3775 97.5265 54.4552 97.375 54.4552 97.1591V97.1136C54.4552 96.553 54.3018 96.1174 53.9949 95.8068C53.6919 95.4962 53.2317 95.3409 52.6143 95.3409C51.9741 95.3409 51.4722 95.4811 51.1086 95.7614C50.7449 96.0417 50.4893 96.3409 50.3415 96.6591L49.0688 96.2045C49.2961 95.6742 49.5991 95.2614 49.9779 94.9659C50.3605 94.6667 50.7771 94.4583 51.2279 94.3409C51.6824 94.2197 52.1294 94.1591 52.5688 94.1591C52.8491 94.1591 53.1711 94.1932 53.5347 94.2614C53.9021 94.3258 54.2563 94.4602 54.5972 94.6648C54.9419 94.8693 55.2279 95.178 55.4552 95.5909C55.6824 96.0038 55.7961 96.5568 55.7961 97.25V103H54.4552V101.818H54.387C54.2961 102.008 54.1446 102.21 53.9324 102.426C53.7203 102.642 53.4381 102.826 53.0859 102.977C52.7336 103.129 52.3037 103.205 51.7961 103.205ZM52.0006 102C52.5309 102 52.9779 101.896 53.3415 101.688C53.709 101.479 53.9855 101.21 54.1711 100.881C54.3605 100.551 54.4552 100.205 54.4552 99.8409V98.6136C54.3984 98.6818 54.2734 98.7443 54.0802 98.8011C53.8908 98.8542 53.6711 98.9015 53.4211 98.9432C53.1749 98.9811 52.9343 99.0152 52.6995 99.0455C52.4684 99.072 52.2809 99.0947 52.137 99.1136C51.7885 99.1591 51.4627 99.233 51.1597 99.3352C50.8605 99.4337 50.618 99.5833 50.4324 99.7841C50.2506 99.9811 50.1597 100.25 50.1597 100.591C50.1597 101.057 50.3321 101.409 50.6768 101.648C51.0252 101.883 51.4665 102 52.0006 102ZM61.719 94.2727V95.4091H57.1963V94.2727H61.719ZM58.5144 92.1818H59.8553V100.5C59.8553 100.879 59.9103 101.163 60.0201 101.352C60.1338 101.538 60.2777 101.663 60.4519 101.727C60.63 101.788 60.8175 101.818 61.0144 101.818C61.1622 101.818 61.2834 101.811 61.3781 101.795C61.4728 101.777 61.5485 101.761 61.6053 101.75L61.8781 102.955C61.7872 102.989 61.6603 103.023 61.4974 103.057C61.3345 103.095 61.1281 103.114 60.8781 103.114C60.4993 103.114 60.1281 103.032 59.7644 102.869C59.4046 102.706 59.1053 102.458 58.8667 102.125C58.6319 101.792 58.5144 101.371 58.5144 100.864V92.1818ZM67.596 103V94.2727H68.9369V103H67.596ZM68.2778 92.8182C68.0165 92.8182 67.7911 92.7292 67.6017 92.5511C67.4161 92.3731 67.3233 92.1591 67.3233 91.9091C67.3233 91.6591 67.4161 91.4451 67.6017 91.267C67.7911 91.089 68.0165 91 68.2778 91C68.5392 91 68.7627 91.089 68.9483 91.267C69.1377 91.4451 69.2324 91.6591 69.2324 91.9091C69.2324 92.1591 69.1377 92.3731 68.9483 92.5511C68.7627 92.7292 68.5392 92.8182 68.2778 92.8182ZM77.2547 96.2273L76.0502 96.5682C75.9744 96.3674 75.8627 96.1723 75.7149 95.983C75.571 95.7898 75.374 95.6307 75.124 95.5057C74.874 95.3807 74.554 95.3182 74.1638 95.3182C73.6297 95.3182 73.1846 95.4413 72.8286 95.6875C72.4763 95.9299 72.3002 96.2386 72.3002 96.6136C72.3002 96.947 72.4214 97.2102 72.6638 97.4034C72.9062 97.5966 73.285 97.7576 73.8002 97.8864L75.0956 98.2045C75.8759 98.3939 76.4574 98.6837 76.8399 99.0739C77.2225 99.4602 77.4138 99.9583 77.4138 100.568C77.4138 101.068 77.2699 101.515 76.982 101.909C76.6979 102.303 76.3002 102.614 75.7888 102.841C75.2774 103.068 74.6827 103.182 74.0047 103.182C73.1146 103.182 72.3778 102.989 71.7945 102.602C71.2112 102.216 70.8418 101.652 70.6865 100.909L71.9593 100.591C72.0805 101.061 72.3096 101.413 72.6468 101.648C72.9877 101.883 73.4327 102 73.982 102C74.607 102 75.1032 101.867 75.4706 101.602C75.8418 101.333 76.0274 101.011 76.0274 100.636C76.0274 100.333 75.9214 100.08 75.7093 99.875C75.4971 99.6667 75.1714 99.5114 74.732 99.4091L73.2774 99.0682C72.4782 98.8788 71.8911 98.5852 71.5161 98.1875C71.1449 97.786 70.9593 97.2841 70.9593 96.6818C70.9593 96.1894 71.0975 95.7538 71.374 95.375C71.6543 94.9962 72.035 94.6989 72.5161 94.483C73.0009 94.267 73.5502 94.1591 74.1638 94.1591C75.0274 94.1591 75.7055 94.3485 76.1979 94.7273C76.6941 95.1061 77.0464 95.6061 77.2547 96.2273ZM84.6332 97.75V103H83.2923V94.2727H84.5877V95.6364H84.7014C84.9059 95.1932 85.2165 94.8371 85.6332 94.5682C86.0498 94.2955 86.5877 94.1591 87.2468 94.1591C87.8377 94.1591 88.3548 94.2803 88.798 94.5227C89.2411 94.7614 89.5858 95.125 89.832 95.6136C90.0783 96.0985 90.2014 96.7121 90.2014 97.4545V103H88.8605V97.5455C88.8605 96.8598 88.6824 96.3258 88.3264 95.9432C87.9703 95.5568 87.4817 95.3636 86.8605 95.3636C86.4324 95.3636 86.0498 95.4564 85.7127 95.642C85.3794 95.8277 85.1161 96.0985 84.923 96.4545C84.7298 96.8106 84.6332 97.2424 84.6332 97.75ZM97.8317 99.4318V94.2727H99.1726V103H97.8317V101.523H97.7407C97.5362 101.966 97.218 102.343 96.7862 102.653C96.3544 102.96 95.8089 103.114 95.1498 103.114C94.6044 103.114 94.1195 102.994 93.6953 102.756C93.271 102.513 92.9377 102.15 92.6953 101.665C92.4529 101.176 92.3317 100.561 92.3317 99.8182V94.2727H93.6726V99.7273C93.6726 100.364 93.8506 100.871 94.2067 101.25C94.5665 101.629 95.0248 101.818 95.5817 101.818C95.915 101.818 96.254 101.733 96.5987 101.562C96.9472 101.392 97.2388 101.131 97.4737 100.778C97.7123 100.426 97.8317 99.9773 97.8317 99.4318ZM105.104 94.2727V95.4091H100.581V94.2727H105.104ZM101.899 92.1818H103.24V100.5C103.24 100.879 103.295 101.163 103.405 101.352C103.519 101.538 103.663 101.663 103.837 101.727C104.015 101.788 104.202 101.818 104.399 101.818C104.547 101.818 104.668 101.811 104.763 101.795C104.858 101.777 104.934 101.761 104.99 101.75L105.263 102.955C105.172 102.989 105.045 103.023 104.882 103.057C104.72 103.095 104.513 103.114 104.263 103.114C103.884 103.114 103.513 103.032 103.149 102.869C102.79 102.706 102.49 102.458 102.252 102.125C102.017 101.792 101.899 101.371 101.899 100.864V92.1818ZM106.801 103V94.2727H108.096V95.5909H108.187C108.346 95.1591 108.634 94.8087 109.051 94.5398C109.468 94.2708 109.937 94.1364 110.46 94.1364C110.559 94.1364 110.682 94.1383 110.829 94.142C110.977 94.1458 111.089 94.1515 111.165 94.1591V95.5227C111.119 95.5114 111.015 95.4943 110.852 95.4716C110.693 95.4451 110.525 95.4318 110.346 95.4318C109.922 95.4318 109.543 95.5208 109.21 95.6989C108.881 95.8731 108.619 96.1155 108.426 96.4261C108.237 96.733 108.142 97.0833 108.142 97.4773V103H106.801ZM112.434 103V94.2727H113.775V103H112.434ZM113.116 92.8182C112.855 92.8182 112.629 92.7292 112.44 92.5511C112.254 92.3731 112.161 92.1591 112.161 91.9091C112.161 91.6591 112.254 91.4451 112.44 91.267C112.629 91.089 112.855 91 113.116 91C113.377 91 113.601 91.089 113.786 91.267C113.976 91.4451 114.071 91.6591 114.071 91.9091C114.071 92.1591 113.976 92.3731 113.786 92.5511C113.601 92.7292 113.377 92.8182 113.116 92.8182ZM119.706 94.2727V95.4091H115.184V94.2727H119.706ZM116.502 92.1818H117.843V100.5C117.843 100.879 117.898 101.163 118.008 101.352C118.121 101.538 118.265 101.663 118.439 101.727C118.617 101.788 118.805 101.818 119.002 101.818C119.15 101.818 119.271 101.811 119.366 101.795C119.46 101.777 119.536 101.761 119.593 101.75L119.866 102.955C119.775 102.989 119.648 103.023 119.485 103.057C119.322 103.095 119.116 103.114 118.866 103.114C118.487 103.114 118.116 103.032 117.752 102.869C117.392 102.706 117.093 102.458 116.854 102.125C116.619 101.792 116.502 101.371 116.502 100.864V92.1818ZM121.404 103V94.2727H122.744V103H121.404ZM122.085 92.8182C121.824 92.8182 121.599 92.7292 121.409 92.5511C121.224 92.3731 121.131 92.1591 121.131 91.9091C121.131 91.6591 121.224 91.4451 121.409 91.267C121.599 91.089 121.824 91 122.085 91C122.347 91 122.57 91.089 122.756 91.267C122.945 91.4451 123.04 91.6591 123.04 91.9091C123.04 92.1591 122.945 92.3731 122.756 92.5511C122.57 92.7292 122.347 92.8182 122.085 92.8182ZM128.426 103.182C127.638 103.182 126.947 102.994 126.352 102.619C125.761 102.244 125.299 101.72 124.966 101.045C124.636 100.371 124.471 99.5833 124.471 98.6818C124.471 97.7727 124.636 96.9792 124.966 96.3011C125.299 95.6231 125.761 95.0966 126.352 94.7216C126.947 94.3466 127.638 94.1591 128.426 94.1591C129.214 94.1591 129.903 94.3466 130.494 94.7216C131.089 95.0966 131.551 95.6231 131.88 96.3011C132.214 96.9792 132.38 97.7727 132.38 98.6818C132.38 99.5833 132.214 100.371 131.88 101.045C131.551 101.72 131.089 102.244 130.494 102.619C129.903 102.994 129.214 103.182 128.426 103.182ZM128.426 101.977C129.024 101.977 129.517 101.824 129.903 101.517C130.289 101.21 130.575 100.807 130.761 100.307C130.947 99.8068 131.039 99.2652 131.039 98.6818C131.039 98.0985 130.947 97.5549 130.761 97.0511C130.575 96.5473 130.289 96.1402 129.903 95.8295C129.517 95.5189 129.024 95.3636 128.426 95.3636C127.827 95.3636 127.335 95.5189 126.949 95.8295C126.562 96.1402 126.276 96.5473 126.091 97.0511C125.905 97.5549 125.812 98.0985 125.812 98.6818C125.812 99.2652 125.905 99.8068 126.091 100.307C126.276 100.807 126.562 101.21 126.949 101.517C127.335 101.824 127.827 101.977 128.426 101.977ZM135.448 97.75V103H134.107V94.2727H135.403V95.6364H135.516C135.721 95.1932 136.032 94.8371 136.448 94.5682C136.865 94.2955 137.403 94.1591 138.062 94.1591C138.653 94.1591 139.17 94.2803 139.613 94.5227C140.056 94.7614 140.401 95.125 140.647 95.6136C140.893 96.0985 141.016 96.7121 141.016 97.4545V103H139.675V97.5455C139.675 96.8598 139.497 96.3258 139.141 95.9432C138.785 95.5568 138.297 95.3636 137.675 95.3636C137.247 95.3636 136.865 95.4564 136.528 95.642C136.194 95.8277 135.931 96.0985 135.738 96.4545C135.545 96.8106 135.448 97.2424 135.448 97.75ZM145.715 103.205C145.162 103.205 144.66 103.1 144.209 102.892C143.758 102.68 143.4 102.375 143.135 101.977C142.87 101.576 142.738 101.091 142.738 100.523C142.738 100.023 142.836 99.6174 143.033 99.3068C143.23 98.9924 143.493 98.7462 143.823 98.5682C144.152 98.3902 144.516 98.2576 144.914 98.1705C145.315 98.0795 145.719 98.0076 146.124 97.9545C146.654 97.8864 147.084 97.8352 147.414 97.8011C147.747 97.7633 147.989 97.7008 148.141 97.6136C148.296 97.5265 148.374 97.375 148.374 97.1591V97.1136C148.374 96.553 148.221 96.1174 147.914 95.8068C147.611 95.4962 147.15 95.3409 146.533 95.3409C145.893 95.3409 145.391 95.4811 145.027 95.7614C144.664 96.0417 144.408 96.3409 144.26 96.6591L142.988 96.2045C143.215 95.6742 143.518 95.2614 143.897 94.9659C144.279 94.6667 144.696 94.4583 145.147 94.3409C145.601 94.2197 146.048 94.1591 146.488 94.1591C146.768 94.1591 147.09 94.1932 147.453 94.2614C147.821 94.3258 148.175 94.4602 148.516 94.6648C148.861 94.8693 149.147 95.178 149.374 95.5909C149.601 96.0038 149.715 96.5568 149.715 97.25V103H148.374V101.818H148.306C148.215 102.008 148.063 102.21 147.851 102.426C147.639 102.642 147.357 102.826 147.005 102.977C146.652 103.129 146.222 103.205 145.715 103.205ZM145.919 102C146.45 102 146.897 101.896 147.26 101.688C147.628 101.479 147.904 101.21 148.09 100.881C148.279 100.551 148.374 100.205 148.374 99.8409V98.6136C148.317 98.6818 148.192 98.7443 147.999 98.8011C147.81 98.8542 147.59 98.9015 147.34 98.9432C147.094 98.9811 146.853 99.0152 146.618 99.0455C146.387 99.072 146.2 99.0947 146.056 99.1136C145.707 99.1591 145.381 99.233 145.078 99.3352C144.779 99.4337 144.537 99.5833 144.351 99.7841C144.169 99.9811 144.078 100.25 144.078 100.591C144.078 101.057 144.251 101.409 144.596 101.648C144.944 101.883 145.385 102 145.919 102ZM153.183 91.3636V103H151.842V91.3636H153.183ZM32.3636 120.273L29.1364 129H27.7727L24.5455 120.273H26L28.4091 127.227H28.5L30.9091 120.273H32.3636ZM36.1161 129.205C35.563 129.205 35.0612 129.1 34.6104 128.892C34.1596 128.68 33.8017 128.375 33.5365 127.977C33.2714 127.576 33.1388 127.091 33.1388 126.523C33.1388 126.023 33.2373 125.617 33.4343 125.307C33.6312 124.992 33.8945 124.746 34.224 124.568C34.5536 124.39 34.9172 124.258 35.3149 124.17C35.7165 124.08 36.1199 124.008 36.5252 123.955C37.0555 123.886 37.4854 123.835 37.8149 123.801C38.1483 123.763 38.3907 123.701 38.5422 123.614C38.6975 123.527 38.7752 123.375 38.7752 123.159V123.114C38.7752 122.553 38.6218 122.117 38.3149 121.807C38.0119 121.496 37.5517 121.341 36.9343 121.341C36.2941 121.341 35.7922 121.481 35.4286 121.761C35.0649 122.042 34.8093 122.341 34.6615 122.659L33.3888 122.205C33.6161 121.674 33.9191 121.261 34.2979 120.966C34.6805 120.667 35.0971 120.458 35.5479 120.341C36.0024 120.22 36.4494 120.159 36.8888 120.159C37.1691 120.159 37.4911 120.193 37.8547 120.261C38.2221 120.326 38.5763 120.46 38.9172 120.665C39.2619 120.869 39.5479 121.178 39.7752 121.591C40.0024 122.004 40.1161 122.557 40.1161 123.25V129H38.7752V127.818H38.707C38.6161 128.008 38.4646 128.21 38.2524 128.426C38.0403 128.642 37.7581 128.826 37.4059 128.977C37.0536 129.129 36.6237 129.205 36.1161 129.205ZM36.3206 128C36.8509 128 37.2979 127.896 37.6615 127.688C38.029 127.479 38.3055 127.21 38.4911 126.881C38.6805 126.551 38.7752 126.205 38.7752 125.841V124.614C38.7184 124.682 38.5934 124.744 38.4002 124.801C38.2108 124.854 37.9911 124.902 37.7411 124.943C37.4949 124.981 37.2543 125.015 37.0195 125.045C36.7884 125.072 36.6009 125.095 36.457 125.114C36.1085 125.159 35.7827 125.233 35.4797 125.335C35.1805 125.434 34.938 125.583 34.7524 125.784C34.5706 125.981 34.4797 126.25 34.4797 126.591C34.4797 127.057 34.6521 127.409 34.9968 127.648C35.3452 127.883 35.7865 128 36.3206 128ZM43.5844 117.364V129H42.2435V117.364H43.5844ZM51.2204 125.432V120.273H52.5613V129H51.2204V127.523H51.1295C50.9249 127.966 50.6068 128.343 50.1749 128.653C49.7431 128.96 49.1977 129.114 48.5386 129.114C47.9931 129.114 47.5083 128.994 47.084 128.756C46.6598 128.513 46.3265 128.15 46.084 127.665C45.8416 127.176 45.7204 126.561 45.7204 125.818V120.273H47.0613V125.727C47.0613 126.364 47.2393 126.871 47.5954 127.25C47.9552 127.629 48.4136 127.818 48.9704 127.818C49.3037 127.818 49.6427 127.733 49.9874 127.562C50.3359 127.392 50.6276 127.131 50.8624 126.778C51.1011 126.426 51.2204 125.977 51.2204 125.432ZM58.3564 129.182C57.5155 129.182 56.7901 128.996 56.1802 128.625C55.5742 128.25 55.1064 127.727 54.7768 127.057C54.4511 126.383 54.2882 125.598 54.2882 124.705C54.2882 123.811 54.4511 123.023 54.7768 122.341C55.1064 121.655 55.5647 121.121 56.1518 120.739C56.7427 120.352 57.4321 120.159 58.22 120.159C58.6745 120.159 59.1234 120.235 59.5666 120.386C60.0098 120.538 60.4132 120.784 60.7768 121.125C61.1405 121.462 61.4302 121.909 61.6461 122.466C61.862 123.023 61.97 123.708 61.97 124.523V125.091H55.2427V123.932H60.6064C60.6064 123.439 60.5079 123 60.3109 122.614C60.1177 122.227 59.8412 121.922 59.4814 121.699C59.1253 121.475 58.7048 121.364 58.22 121.364C57.6859 121.364 57.2238 121.496 56.8336 121.761C56.4473 122.023 56.1499 122.364 55.9416 122.784C55.7333 123.205 55.6291 123.655 55.6291 124.136V124.909C55.6291 125.568 55.7427 126.127 55.97 126.585C56.2011 127.04 56.5211 127.386 56.9302 127.625C57.3393 127.86 57.8147 127.977 58.3564 127.977C58.7086 127.977 59.0268 127.928 59.3109 127.83C59.5988 127.727 59.8469 127.576 60.0552 127.375C60.2636 127.17 60.4245 126.917 60.5382 126.614L61.8336 126.977C61.6973 127.417 61.4681 127.803 61.1461 128.136C60.8242 128.466 60.4264 128.723 59.953 128.909C59.4795 129.091 58.9473 129.182 58.3564 129.182ZM71.4152 129.182C70.6274 129.182 69.9361 128.994 69.3414 128.619C68.7505 128.244 68.2883 127.72 67.955 127.045C67.6255 126.371 67.4607 125.583 67.4607 124.682C67.4607 123.773 67.6255 122.979 67.955 122.301C68.2883 121.623 68.7505 121.097 69.3414 120.722C69.9361 120.347 70.6274 120.159 71.4152 120.159C72.2031 120.159 72.8925 120.347 73.4834 120.722C74.0781 121.097 74.5402 121.623 74.8698 122.301C75.2031 122.979 75.3698 123.773 75.3698 124.682C75.3698 125.583 75.2031 126.371 74.8698 127.045C74.5402 127.72 74.0781 128.244 73.4834 128.619C72.8925 128.994 72.2031 129.182 71.4152 129.182ZM71.4152 127.977C72.0137 127.977 72.5061 127.824 72.8925 127.517C73.2789 127.21 73.5649 126.807 73.7505 126.307C73.9361 125.807 74.0289 125.265 74.0289 124.682C74.0289 124.098 73.9361 123.555 73.7505 123.051C73.5649 122.547 73.2789 122.14 72.8925 121.83C72.5061 121.519 72.0137 121.364 71.4152 121.364C70.8167 121.364 70.3243 121.519 69.938 121.83C69.5516 122.14 69.2656 122.547 69.08 123.051C68.8944 123.555 68.8016 124.098 68.8016 124.682C68.8016 125.265 68.8944 125.807 69.08 126.307C69.2656 126.807 69.5516 127.21 69.938 127.517C70.3243 127.824 70.8167 127.977 71.4152 127.977ZM80.983 120.273V121.409H76.2785V120.273H80.983ZM77.6876 129V119.068C77.6876 118.568 77.805 118.152 78.0398 117.818C78.2747 117.485 78.5796 117.235 78.9546 117.068C79.3296 116.902 79.7254 116.818 80.1421 116.818C80.4716 116.818 80.7406 116.845 80.9489 116.898C81.1573 116.951 81.3126 117 81.4148 117.045L81.0285 118.205C80.9603 118.182 80.8656 118.153 80.7444 118.119C80.6269 118.085 80.4716 118.068 80.2785 118.068C79.8353 118.068 79.5152 118.18 79.3182 118.403C79.1251 118.627 79.0285 118.955 79.0285 119.386V129H77.6876ZM90.5177 120.273V121.409H85.995V120.273H90.5177ZM87.3132 118.182H88.6541V126.5C88.6541 126.879 88.709 127.163 88.8189 127.352C88.9325 127.538 89.0764 127.663 89.2507 127.727C89.4287 127.788 89.6162 127.818 89.8132 127.818C89.9609 127.818 90.0821 127.811 90.1768 127.795C90.2715 127.777 90.3473 127.761 90.4041 127.75L90.6768 128.955C90.5859 128.989 90.459 129.023 90.2961 129.057C90.1333 129.095 89.9268 129.114 89.6768 129.114C89.298 129.114 88.9268 129.032 88.5632 128.869C88.2033 128.706 87.9041 128.458 87.6655 128.125C87.4306 127.792 87.3132 127.371 87.3132 126.864V118.182ZM93.7432 123.75V129H92.4023V117.364H93.7432V121.636H93.8568C94.0614 121.186 94.3682 120.828 94.7773 120.562C95.1902 120.294 95.7394 120.159 96.425 120.159C97.0197 120.159 97.5405 120.278 97.9875 120.517C98.4345 120.752 98.7811 121.114 99.0273 121.602C99.2773 122.087 99.4023 122.705 99.4023 123.455V129H98.0614V123.545C98.0614 122.852 97.8814 122.316 97.5216 121.938C97.1655 121.555 96.6712 121.364 96.0386 121.364C95.5992 121.364 95.2053 121.456 94.8568 121.642C94.5121 121.828 94.2394 122.098 94.0386 122.455C93.8417 122.811 93.7432 123.242 93.7432 123.75ZM101.535 129V120.273H102.876V129H101.535ZM102.217 118.818C101.956 118.818 101.73 118.729 101.541 118.551C101.355 118.373 101.263 118.159 101.263 117.909C101.263 117.659 101.355 117.445 101.541 117.267C101.73 117.089 101.956 117 102.217 117C102.479 117 102.702 117.089 102.888 117.267C103.077 117.445 103.172 117.659 103.172 117.909C103.172 118.159 103.077 118.373 102.888 118.551C102.702 118.729 102.479 118.818 102.217 118.818ZM111.194 122.227L109.99 122.568C109.914 122.367 109.802 122.172 109.654 121.983C109.51 121.79 109.313 121.631 109.063 121.506C108.813 121.381 108.493 121.318 108.103 121.318C107.569 121.318 107.124 121.441 106.768 121.688C106.416 121.93 106.24 122.239 106.24 122.614C106.24 122.947 106.361 123.21 106.603 123.403C106.846 123.597 107.224 123.758 107.74 123.886L109.035 124.205C109.815 124.394 110.397 124.684 110.779 125.074C111.162 125.46 111.353 125.958 111.353 126.568C111.353 127.068 111.209 127.515 110.921 127.909C110.637 128.303 110.24 128.614 109.728 128.841C109.217 129.068 108.622 129.182 107.944 129.182C107.054 129.182 106.317 128.989 105.734 128.602C105.151 128.216 104.781 127.652 104.626 126.909L105.899 126.591C106.02 127.061 106.249 127.413 106.586 127.648C106.927 127.883 107.372 128 107.921 128C108.546 128 109.043 127.867 109.41 127.602C109.781 127.333 109.967 127.011 109.967 126.636C109.967 126.333 109.861 126.08 109.649 125.875C109.437 125.667 109.111 125.511 108.671 125.409L107.217 125.068C106.418 124.879 105.83 124.585 105.455 124.188C105.084 123.786 104.899 123.284 104.899 122.682C104.899 122.189 105.037 121.754 105.313 121.375C105.594 120.996 105.974 120.699 106.455 120.483C106.94 120.267 107.49 120.159 108.103 120.159C108.967 120.159 109.645 120.348 110.137 120.727C110.633 121.106 110.986 121.606 111.194 122.227ZM117.232 129V120.273H118.573V129H117.232ZM117.913 118.818C117.652 118.818 117.427 118.729 117.237 118.551C117.052 118.373 116.959 118.159 116.959 117.909C116.959 117.659 117.052 117.445 117.237 117.267C117.427 117.089 117.652 117 117.913 117C118.175 117 118.398 117.089 118.584 117.267C118.773 117.445 118.868 117.659 118.868 117.909C118.868 118.159 118.773 118.373 118.584 118.551C118.398 118.729 118.175 118.818 117.913 118.818ZM124.504 120.273V121.409H119.981V120.273H124.504ZM121.299 118.182H122.64V126.5C122.64 126.879 122.695 127.163 122.805 127.352C122.919 127.538 123.063 127.663 123.237 127.727C123.415 127.788 123.602 127.818 123.799 127.818C123.947 127.818 124.068 127.811 124.163 127.795C124.258 127.777 124.334 127.761 124.39 127.75L124.663 128.955C124.572 128.989 124.445 129.023 124.282 129.057C124.12 129.095 123.913 129.114 123.663 129.114C123.284 129.114 122.913 129.032 122.549 128.869C122.19 128.706 121.89 128.458 121.652 128.125C121.417 127.792 121.299 127.371 121.299 126.864V118.182ZM129.766 129.182C128.925 129.182 128.2 128.996 127.59 128.625C126.984 128.25 126.516 127.727 126.187 127.057C125.861 126.383 125.698 125.598 125.698 124.705C125.698 123.811 125.861 123.023 126.187 122.341C126.516 121.655 126.975 121.121 127.562 120.739C128.153 120.352 128.842 120.159 129.63 120.159C130.085 120.159 130.533 120.235 130.977 120.386C131.42 120.538 131.823 120.784 132.187 121.125C132.55 121.462 132.84 121.909 133.056 122.466C133.272 123.023 133.38 123.708 133.38 124.523V125.091H126.653V123.932H132.016C132.016 123.439 131.918 123 131.721 122.614C131.528 122.227 131.251 121.922 130.891 121.699C130.535 121.475 130.115 121.364 129.63 121.364C129.096 121.364 128.634 121.496 128.244 121.761C127.857 122.023 127.56 122.364 127.352 122.784C127.143 123.205 127.039 123.655 127.039 124.136V124.909C127.039 125.568 127.153 126.127 127.38 126.585C127.611 127.04 127.931 127.386 128.34 127.625C128.749 127.86 129.225 127.977 129.766 127.977C130.119 127.977 130.437 127.928 130.721 127.83C131.009 127.727 131.257 127.576 131.465 127.375C131.674 127.17 131.835 126.917 131.948 126.614L133.244 126.977C133.107 127.417 132.878 127.803 132.556 128.136C132.234 128.466 131.836 128.723 131.363 128.909C130.889 129.091 130.357 129.182 129.766 129.182ZM135.1 129V120.273H136.395V121.636H136.509C136.691 121.17 136.984 120.809 137.39 120.551C137.795 120.29 138.282 120.159 138.85 120.159C139.426 120.159 139.905 120.29 140.287 120.551C140.674 120.809 140.975 121.17 141.191 121.636H141.282C141.505 121.186 141.84 120.828 142.287 120.562C142.734 120.294 143.27 120.159 143.895 120.159C144.676 120.159 145.314 120.403 145.81 120.892C146.306 121.377 146.554 122.133 146.554 123.159V129H145.213V123.159C145.213 122.515 145.037 122.055 144.685 121.778C144.333 121.502 143.918 121.364 143.441 121.364C142.827 121.364 142.352 121.549 142.015 121.92C141.677 122.288 141.509 122.754 141.509 123.318V129H140.145V123.023C140.145 122.527 139.984 122.127 139.662 121.824C139.34 121.517 138.926 121.364 138.418 121.364C138.069 121.364 137.744 121.456 137.441 121.642C137.141 121.828 136.899 122.085 136.713 122.415C136.532 122.741 136.441 123.117 136.441 123.545V129H135.1ZM150.436 125.727V125.659C150.444 124.936 150.519 124.36 150.663 123.932C150.807 123.504 151.012 123.157 151.277 122.892C151.542 122.627 151.86 122.383 152.231 122.159C152.455 122.023 152.656 121.862 152.834 121.676C153.012 121.487 153.152 121.269 153.254 121.023C153.36 120.777 153.413 120.504 153.413 120.205C153.413 119.833 153.326 119.511 153.152 119.239C152.978 118.966 152.745 118.756 152.453 118.608C152.161 118.46 151.838 118.386 151.481 118.386C151.171 118.386 150.872 118.451 150.584 118.58C150.296 118.708 150.055 118.911 149.862 119.188C149.669 119.464 149.557 119.826 149.527 120.273H148.095C148.125 119.629 148.292 119.078 148.595 118.619C148.902 118.161 149.305 117.811 149.805 117.568C150.309 117.326 150.868 117.205 151.481 117.205C152.148 117.205 152.728 117.337 153.22 117.602C153.716 117.867 154.099 118.231 154.368 118.693C154.641 119.155 154.777 119.682 154.777 120.273C154.777 120.689 154.713 121.066 154.584 121.403C154.459 121.741 154.277 122.042 154.038 122.307C153.803 122.572 153.519 122.807 153.186 123.011C152.853 123.22 152.586 123.439 152.385 123.67C152.184 123.898 152.038 124.169 151.947 124.483C151.856 124.797 151.807 125.189 151.8 125.659V125.727H150.436ZM151.163 129.091C150.883 129.091 150.642 128.991 150.442 128.79C150.241 128.589 150.141 128.348 150.141 128.068C150.141 127.788 150.241 127.547 150.442 127.347C150.642 127.146 150.883 127.045 151.163 127.045C151.444 127.045 151.684 127.146 151.885 127.347C152.086 127.547 152.186 127.788 152.186 128.068C152.186 128.254 152.139 128.424 152.044 128.58C151.953 128.735 151.83 128.86 151.675 128.955C151.523 129.045 151.353 129.091 151.163 129.091Z" fill="white"/>
<defs>
<radialGradient id="paint0_angular_97_1878" cx="0" cy="0" r="1" gradientUnits="userSpaceOnUse" gradientTransform="translate(107.011 135.882) rotate(-12.9855) scale(139.661 115.245)">
<stop offset="0.157704" stop-opacity="0"/>
<stop offset="0.723846" stop-color="white" stop-opacity="0"/>
<stop offset="0.887134" stop-color="white"/>
</radialGradient>
</defs>
</svg>
