<svg width="221" height="220" viewBox="0 0 221 220" fill="none" xmlns="http://www.w3.org/2000/svg">
<rect width="221" height="220" rx="12" fill="white" fill-opacity="0.08"/>
<rect x="0.5" y="0.5" width="220" height="219" rx="11.5" stroke="white" stroke-opacity="0.2"/>
<rect x="0.5" y="0.5" width="220" height="219" rx="11.5" stroke="url(#paint0_angular_97_1884)" stroke-opacity="0.4"/>
<path d="M25.2912 40V26.9091H30.2003C31.206 26.9091 32.0497 27.0838 32.7315 27.4332C33.4176 27.7827 33.9354 28.2727 34.2848 28.9034C34.6385 29.5298 34.8153 30.2607 34.8153 31.0959C34.8153 31.9354 34.6364 32.6641 34.2784 33.282C33.9247 33.8956 33.4027 34.3707 32.7124 34.7074C32.022 35.0398 31.174 35.206 30.1683 35.206H26.6719V33.2372H29.8487C30.4368 33.2372 30.9183 33.1562 31.2933 32.9943C31.6683 32.8281 31.9453 32.5874 32.1243 32.272C32.3075 31.9524 32.3991 31.5604 32.3991 31.0959C32.3991 30.6314 32.3075 30.2351 32.1243 29.907C31.9411 29.5746 31.6619 29.3232 31.2869 29.1527C30.9119 28.978 30.4283 28.8906 29.8359 28.8906H27.6626V40H25.2912ZM32.054 34.0682L35.2947 40H32.6484L29.4652 34.0682H32.054ZM40.3819 40.1918C39.3975 40.1918 38.5474 39.9872 37.8315 39.5781C37.1198 39.1648 36.5723 38.581 36.1887 37.8267C35.8052 37.0682 35.6135 36.1754 35.6135 35.1484C35.6135 34.1385 35.8052 33.2521 36.1887 32.4893C36.5765 31.7223 37.1177 31.1257 37.8123 30.6996C38.5069 30.2692 39.323 30.054 40.2605 30.054C40.8656 30.054 41.4366 30.152 41.9735 30.348C42.5147 30.5398 42.992 30.8381 43.4054 31.2429C43.823 31.6477 44.1511 32.1634 44.3897 32.7898C44.6284 33.4119 44.7477 34.1534 44.7477 35.0142V35.7237H36.7001V34.1641H42.5296C42.5254 33.7209 42.4295 33.3267 42.242 32.9815C42.0545 32.6321 41.7924 32.3572 41.4558 32.157C41.1234 31.9567 40.7356 31.8565 40.2924 31.8565C39.8194 31.8565 39.4039 31.9716 39.046 32.2017C38.688 32.4276 38.4089 32.7259 38.2086 33.0966C38.0126 33.4631 37.9125 33.8658 37.9082 34.3047V35.6662C37.9082 36.2372 38.0126 36.7273 38.2214 37.1364C38.4302 37.5412 38.7221 37.8523 39.0971 38.0696C39.4721 38.2827 39.911 38.3892 40.4139 38.3892C40.7505 38.3892 41.0552 38.3423 41.3279 38.2486C41.6007 38.1506 41.8372 38.0078 42.0375 37.8203C42.2377 37.6328 42.389 37.4006 42.4913 37.1236L44.6518 37.3665C44.5154 37.9375 44.2555 38.4361 43.872 38.8622C43.4927 39.2841 43.0069 39.6122 42.4146 39.8466C41.8223 40.0767 41.1447 40.1918 40.3819 40.1918ZM50.2679 40.1918C49.2878 40.1918 48.4462 39.9766 47.7431 39.5462C47.0442 39.1158 46.5051 38.5213 46.1259 37.7628C45.7509 37 45.5634 36.1222 45.5634 35.1293C45.5634 34.1321 45.7551 33.2521 46.1387 32.4893C46.5222 31.7223 47.0634 31.1257 47.7622 30.6996C48.4654 30.2692 49.2963 30.054 50.2551 30.054C51.052 30.054 51.7573 30.201 52.3709 30.495C52.9888 30.7848 53.481 31.196 53.8475 31.7287C54.2139 32.2571 54.4227 32.875 54.4739 33.5824H52.2622C52.1727 33.1094 51.9597 32.7152 51.623 32.3999C51.2906 32.0803 50.8453 31.9205 50.2871 31.9205C49.8141 31.9205 49.3986 32.0483 49.0406 32.304C48.6827 32.5554 48.4036 32.9176 48.2033 33.3906C48.0073 33.8636 47.9093 34.4304 47.9093 35.0909C47.9093 35.7599 48.0073 36.3352 48.2033 36.8168C48.3993 37.294 48.6742 37.6626 49.0279 37.9226C49.3858 38.1783 49.8056 38.3061 50.2871 38.3061C50.628 38.3061 50.9327 38.2422 51.2012 38.1143C51.4739 37.9822 51.7019 37.7926 51.8851 37.5455C52.0683 37.2983 52.1941 36.9979 52.2622 36.6442H54.4739C54.4185 37.3388 54.2139 37.9545 53.8602 38.4915C53.5066 39.0241 53.025 39.4418 52.4156 39.7443C51.8063 40.0426 51.0904 40.1918 50.2679 40.1918ZM55.6539 40V30.1818H57.9678V40H55.6539ZM56.8173 28.7884C56.4508 28.7884 56.1355 28.6669 55.8713 28.424C55.607 28.1768 55.4749 27.8807 55.4749 27.5355C55.4749 27.1861 55.607 26.8899 55.8713 26.647C56.1355 26.3999 56.4508 26.2763 56.8173 26.2763C57.188 26.2763 57.5034 26.3999 57.7633 26.647C58.0275 26.8899 58.1596 27.1861 58.1596 27.5355C58.1596 27.8807 58.0275 28.1768 57.7633 28.424C57.5034 28.6669 57.188 28.7884 56.8173 28.7884ZM59.6273 43.6818V30.1818H61.9028V31.8054H62.0371C62.1564 31.5668 62.3247 31.3132 62.5421 31.0447C62.7594 30.772 63.0534 30.5398 63.4242 30.348C63.7949 30.152 64.2679 30.054 64.8432 30.054C65.6017 30.054 66.2857 30.2479 66.895 30.6357C67.5087 31.0192 67.9945 31.5881 68.3524 32.3423C68.7146 33.0923 68.8957 34.0128 68.8957 35.1037C68.8957 36.1818 68.7189 37.098 68.3652 37.8523C68.0115 38.6065 67.53 39.1818 66.9206 39.5781C66.3112 39.9744 65.6209 40.1726 64.8496 40.1726C64.2871 40.1726 63.8205 40.0788 63.4497 39.8913C63.079 39.7038 62.7807 39.478 62.5548 39.2138C62.3332 38.9453 62.1607 38.6918 62.0371 38.4531H61.9412V43.6818H59.6273ZM61.8965 35.0909C61.8965 35.7259 61.9859 36.282 62.1649 36.7592C62.3482 37.2365 62.6102 37.6094 62.9511 37.8778C63.2963 38.142 63.7139 38.2741 64.204 38.2741C64.7153 38.2741 65.1436 38.1378 65.4888 37.8651C65.834 37.5881 66.0939 37.2109 66.2686 36.7337C66.4476 36.2521 66.5371 35.7045 66.5371 35.0909C66.5371 34.4815 66.4497 33.9403 66.275 33.4673C66.1003 32.9943 65.8403 32.6236 65.4952 32.3551C65.15 32.0866 64.7196 31.9524 64.204 31.9524C63.7097 31.9524 63.2899 32.0824 62.9448 32.3423C62.5996 32.6023 62.3375 32.9666 62.1585 33.4354C61.9838 33.9041 61.8965 34.456 61.8965 35.0909ZM74.5039 40.1918C73.5195 40.1918 72.6694 39.9872 71.9534 39.5781C71.2418 39.1648 70.6942 38.581 70.3107 37.8267C69.9272 37.0682 69.7354 36.1754 69.7354 35.1484C69.7354 34.1385 69.9272 33.2521 70.3107 32.4893C70.6985 31.7223 71.2397 31.1257 71.9343 30.6996C72.6289 30.2692 73.4449 30.054 74.3824 30.054C74.9875 30.054 75.5586 30.152 76.0955 30.348C76.6367 30.5398 77.114 30.8381 77.5273 31.2429C77.9449 31.6477 78.273 32.1634 78.5117 32.7898C78.7503 33.4119 78.8696 34.1534 78.8696 35.0142V35.7237H70.8221V34.1641H76.6516C76.6473 33.7209 76.5515 33.3267 76.364 32.9815C76.1765 32.6321 75.9144 32.3572 75.5777 32.157C75.2453 31.9567 74.8576 31.8565 74.4144 31.8565C73.9414 31.8565 73.5259 31.9716 73.1679 32.2017C72.81 32.4276 72.5309 32.7259 72.3306 33.0966C72.1346 33.4631 72.0344 33.8658 72.0302 34.3047V35.6662C72.0302 36.2372 72.1346 36.7273 72.3434 37.1364C72.5522 37.5412 72.8441 37.8523 73.2191 38.0696C73.5941 38.2827 74.033 38.3892 74.5358 38.3892C74.8725 38.3892 75.1772 38.3423 75.4499 38.2486C75.7226 38.1506 75.9591 38.0078 76.1594 37.8203C76.3597 37.6328 76.511 37.4006 76.6132 37.1236L78.7738 37.3665C78.6374 37.9375 78.3775 38.4361 77.9939 38.8622C77.6147 39.2841 77.1289 39.6122 76.5365 39.8466C75.9442 40.0767 75.2667 40.1918 74.5039 40.1918ZM87.8671 32.777L85.7578 33.0071C85.6981 32.794 85.5937 32.5938 85.4446 32.4062C85.2997 32.2188 85.1037 32.0675 84.8565 31.9524C84.6093 31.8374 84.3068 31.7798 83.9488 31.7798C83.4673 31.7798 83.0625 31.8842 82.7343 32.093C82.4105 32.3018 82.2507 32.5724 82.2549 32.9048C82.2507 33.1903 82.3551 33.4226 82.5681 33.6016C82.7855 33.7805 83.1434 33.9276 83.642 34.0426L85.3167 34.4006C86.2457 34.6009 86.936 34.9183 87.3877 35.353C87.8437 35.7876 88.0738 36.3565 88.0781 37.0597C88.0738 37.6776 87.8927 38.223 87.5348 38.696C87.1811 39.1648 86.6889 39.5312 86.0582 39.7955C85.4275 40.0597 84.7031 40.1918 83.8849 40.1918C82.6832 40.1918 81.7159 39.9403 80.9829 39.4375C80.25 38.9304 79.8132 38.2251 79.6725 37.3217L81.9289 37.1044C82.0312 37.5476 82.2485 37.8821 82.5809 38.108C82.9133 38.3338 83.3458 38.4467 83.8785 38.4467C84.4282 38.4467 84.8693 38.3338 85.2017 38.108C85.5383 37.8821 85.7066 37.603 85.7066 37.2706C85.7066 36.9893 85.598 36.7571 85.3806 36.5739C85.1676 36.3906 84.8352 36.25 84.3835 36.152L82.7088 35.8004C81.767 35.6044 81.0703 35.2741 80.6186 34.8097C80.1669 34.3409 79.9431 33.7486 79.9474 33.0327C79.9431 32.4276 80.1072 31.9034 80.4396 31.4602C80.7762 31.0128 81.2429 30.6676 81.8394 30.4247C82.4403 30.1776 83.1328 30.054 83.9169 30.054C85.0674 30.054 85.973 30.299 86.6335 30.7891C87.2983 31.2791 87.7095 31.9418 87.8671 32.777Z" fill="white"/>
<path opacity="0.6" d="M25.8864 77H24.4091L28.6818 65.3636H30.1364L34.4091 77H32.9318L29.4545 67.2045H29.3636L25.8864 77ZM26.4318 72.4545H32.3864V73.7045H26.4318V72.4545ZM41.9016 70.2273L40.697 70.5682C40.6213 70.3674 40.5095 70.1723 40.3618 69.983C40.2179 69.7898 40.0209 69.6307 39.7709 69.5057C39.5209 69.3807 39.2008 69.3182 38.8107 69.3182C38.2766 69.3182 37.8315 69.4413 37.4755 69.6875C37.1232 69.9299 36.947 70.2386 36.947 70.6136C36.947 70.947 37.0683 71.2102 37.3107 71.4034C37.5531 71.5966 37.9319 71.7576 38.447 71.8864L39.7425 72.2045C40.5228 72.3939 41.1042 72.6837 41.4868 73.0739C41.8694 73.4602 42.0607 73.9583 42.0607 74.5682C42.0607 75.0682 41.9167 75.5152 41.6289 75.9091C41.3448 76.303 40.947 76.6136 40.4357 76.8409C39.9243 77.0682 39.3296 77.1818 38.6516 77.1818C37.7614 77.1818 37.0247 76.9886 36.4414 76.6023C35.858 76.2159 35.4887 75.6515 35.3334 74.9091L36.6061 74.5909C36.7273 75.0606 36.9565 75.4129 37.2936 75.6477C37.6345 75.8826 38.0796 76 38.6289 76C39.2539 76 39.7501 75.8674 40.1175 75.6023C40.4887 75.3333 40.6743 75.0114 40.6743 74.6364C40.6743 74.3333 40.5683 74.0795 40.3561 73.875C40.144 73.6667 39.8183 73.5114 39.3789 73.4091L37.9243 73.0682C37.1251 72.8788 36.538 72.5852 36.163 72.1875C35.7917 71.786 35.6061 71.2841 35.6061 70.6818C35.6061 70.1894 35.7444 69.7538 36.0209 69.375C36.3012 68.9962 36.6819 68.6989 37.163 68.483C37.6478 68.267 38.197 68.1591 38.8107 68.1591C39.6743 68.1591 40.3523 68.3485 40.8448 68.7273C41.341 69.1061 41.6933 69.6061 41.9016 70.2273ZM45.0091 73.8182L44.9864 72.1591H45.2591L49.0773 68.2727H50.7364L46.6682 72.3864H46.5546L45.0091 73.8182ZM43.7591 77V65.3636H45.1001V77H43.7591ZM49.3046 77L45.8955 72.6818L46.8501 71.75L51.0091 77H49.3046ZM62.2768 80.2727V75.6591H62.1632C62.0647 75.8182 61.9245 76.0189 61.7427 76.2614C61.5609 76.5 61.3014 76.714 60.9643 76.9034C60.6272 77.089 60.1783 77.1818 59.6177 77.1818C58.8905 77.1818 58.2484 76.9981 57.6916 76.6307C57.1348 76.2595 56.6992 75.7367 56.3848 75.0625C56.0704 74.3845 55.9132 73.5833 55.9132 72.6591C55.9132 71.7424 56.0704 70.947 56.3848 70.2727C56.6992 69.5985 57.1367 69.0777 57.6973 68.7102C58.2579 68.3428 58.9056 68.1591 59.6405 68.1591C60.2086 68.1591 60.6575 68.2538 60.987 68.4432C61.3204 68.6288 61.5742 68.8409 61.7484 69.0795C61.9264 69.3144 62.0647 69.5076 62.1632 69.6591H62.3223V68.2727H63.6177V80.2727H62.2768ZM59.7995 75.9773C60.3374 75.9773 60.792 75.8371 61.1632 75.5568C61.5344 75.2727 61.8166 74.8807 62.0098 74.3807C62.203 73.8769 62.2995 73.2955 62.2995 72.6364C62.2995 71.9848 62.2048 71.4148 62.0155 70.9261C61.8261 70.4337 61.5458 70.0511 61.1745 69.7784C60.8033 69.5019 60.345 69.3636 59.7995 69.3636C59.2314 69.3636 58.7579 69.5095 58.3791 69.8011C58.0041 70.089 57.7219 70.4811 57.5325 70.9773C57.3469 71.4697 57.2541 72.0227 57.2541 72.6364C57.2541 73.2576 57.3488 73.822 57.5382 74.3295C57.7314 74.8333 58.0155 75.2348 58.3905 75.5341C58.7692 75.8295 59.2389 75.9773 59.7995 75.9773ZM71.2523 73.4318V68.2727H72.5932V77H71.2523V75.5227H71.1614C70.9568 75.9659 70.6386 76.3428 70.2068 76.6534C69.775 76.9602 69.2295 77.1136 68.5705 77.1136C68.025 77.1136 67.5402 76.9943 67.1159 76.7557C66.6917 76.5133 66.3583 76.1496 66.1159 75.6648C65.8735 75.1761 65.7523 74.5606 65.7523 73.8182V68.2727H67.0932V73.7273C67.0932 74.3636 67.2712 74.8712 67.6273 75.25C67.9871 75.6288 68.4455 75.8182 69.0023 75.8182C69.3356 75.8182 69.6746 75.733 70.0193 75.5625C70.3678 75.392 70.6595 75.1307 70.8943 74.7784C71.133 74.4261 71.2523 73.9773 71.2523 73.4318ZM78.3882 77.1818C77.5473 77.1818 76.822 76.9962 76.2121 76.625C75.606 76.25 75.1382 75.7273 74.8087 75.0568C74.4829 74.3826 74.3201 73.5985 74.3201 72.7045C74.3201 71.8106 74.4829 71.0227 74.8087 70.3409C75.1382 69.6553 75.5966 69.1212 76.1837 68.7386C76.7746 68.3523 77.464 68.1591 78.2519 68.1591C78.7064 68.1591 79.1553 68.2348 79.5985 68.3864C80.0416 68.5379 80.4451 68.7841 80.8087 69.125C81.1723 69.4621 81.4621 69.9091 81.678 70.4659C81.8939 71.0227 82.0019 71.7083 82.0019 72.5227V73.0909H75.2746V71.9318H80.6382C80.6382 71.4394 80.5398 71 80.3428 70.6136C80.1496 70.2273 79.8731 69.9223 79.5132 69.6989C79.1572 69.4754 78.7367 69.3636 78.2519 69.3636C77.7178 69.3636 77.2557 69.4962 76.8655 69.7614C76.4791 70.0227 76.1818 70.3636 75.9735 70.7841C75.7651 71.2045 75.661 71.6553 75.661 72.1364V72.9091C75.661 73.5682 75.7746 74.1269 76.0019 74.5852C76.2329 75.0398 76.553 75.3864 76.9621 75.625C77.3712 75.8598 77.8466 75.9773 78.3882 75.9773C78.7405 75.9773 79.0587 75.928 79.3428 75.8295C79.6307 75.7273 79.8788 75.5758 80.0871 75.375C80.2954 75.1705 80.4564 74.9167 80.5701 74.6136L81.8655 74.9773C81.7291 75.4167 81.5 75.803 81.178 76.1364C80.856 76.4659 80.4583 76.7235 79.9848 76.9091C79.5113 77.0909 78.9791 77.1818 78.3882 77.1818ZM89.9035 70.2273L88.6989 70.5682C88.6232 70.3674 88.5114 70.1723 88.3637 69.983C88.2198 69.7898 88.0228 69.6307 87.7728 69.5057C87.5228 69.3807 87.2027 69.3182 86.8126 69.3182C86.2785 69.3182 85.8334 69.4413 85.4773 69.6875C85.1251 69.9299 84.9489 70.2386 84.9489 70.6136C84.9489 70.947 85.0701 71.2102 85.3126 71.4034C85.555 71.5966 85.9338 71.7576 86.4489 71.8864L87.7444 72.2045C88.5247 72.3939 89.1061 72.6837 89.4887 73.0739C89.8713 73.4602 90.0626 73.9583 90.0626 74.5682C90.0626 75.0682 89.9186 75.5152 89.6307 75.9091C89.3466 76.303 88.9489 76.6136 88.4376 76.8409C87.9262 77.0682 87.3315 77.1818 86.6535 77.1818C85.7633 77.1818 85.0266 76.9886 84.4432 76.6023C83.8599 76.2159 83.4906 75.6515 83.3353 74.9091L84.608 74.5909C84.7292 75.0606 84.9584 75.4129 85.2955 75.6477C85.6364 75.8826 86.0815 76 86.6307 76C87.2557 76 87.7519 75.8674 88.1194 75.6023C88.4906 75.3333 88.6762 75.0114 88.6762 74.6364C88.6762 74.3333 88.5701 74.0795 88.358 73.875C88.1459 73.6667 87.8201 73.5114 87.3807 73.4091L85.9262 73.0682C85.1269 72.8788 84.5398 72.5852 84.1648 72.1875C83.7936 71.786 83.608 71.2841 83.608 70.6818C83.608 70.1894 83.7463 69.7538 84.0228 69.375C84.3031 68.9962 84.6838 68.6989 85.1648 68.483C85.6497 68.267 86.1989 68.1591 86.8126 68.1591C87.6762 68.1591 88.3542 68.3485 88.8466 68.7273C89.3429 69.1061 89.6951 69.6061 89.9035 70.2273ZM95.5565 68.2727V69.4091H91.0338V68.2727H95.5565ZM92.3519 66.1818H93.6928V74.5C93.6928 74.8788 93.7478 75.1629 93.8576 75.3523C93.9713 75.5379 94.1152 75.6629 94.2894 75.7273C94.4675 75.7879 94.655 75.8182 94.8519 75.8182C94.9997 75.8182 95.1209 75.8106 95.2156 75.7955C95.3103 75.7765 95.386 75.7614 95.4428 75.75L95.7156 76.9545C95.6247 76.9886 95.4978 77.0227 95.3349 77.0568C95.172 77.0947 94.9656 77.1136 94.7156 77.1136C94.3368 77.1136 93.9656 77.0322 93.6019 76.8693C93.2421 76.7064 92.9428 76.4583 92.7042 76.125C92.4694 75.7917 92.3519 75.3712 92.3519 74.8636V66.1818ZM97.2535 77V68.2727H98.5944V77H97.2535ZM97.9353 66.8182C97.674 66.8182 97.4486 66.7292 97.2592 66.5511C97.0736 66.3731 96.9808 66.1591 96.9808 65.9091C96.9808 65.6591 97.0736 65.4451 97.2592 65.267C97.4486 65.089 97.674 65 97.9353 65C98.1967 65 98.4202 65.089 98.6058 65.267C98.7952 65.4451 98.8899 65.6591 98.8899 65.9091C98.8899 66.1591 98.7952 66.3731 98.6058 66.5511C98.4202 66.7292 98.1967 66.8182 97.9353 66.8182ZM104.276 77.1818C103.488 77.1818 102.797 76.9943 102.202 76.6193C101.611 76.2443 101.149 75.7197 100.816 75.0455C100.486 74.3712 100.321 73.5833 100.321 72.6818C100.321 71.7727 100.486 70.9792 100.816 70.3011C101.149 69.6231 101.611 69.0966 102.202 68.7216C102.797 68.3466 103.488 68.1591 104.276 68.1591C105.064 68.1591 105.753 68.3466 106.344 68.7216C106.939 69.0966 107.401 69.6231 107.73 70.3011C108.064 70.9792 108.23 71.7727 108.23 72.6818C108.23 73.5833 108.064 74.3712 107.73 75.0455C107.401 75.7197 106.939 76.2443 106.344 76.6193C105.753 76.9943 105.064 77.1818 104.276 77.1818ZM104.276 75.9773C104.874 75.9773 105.367 75.8239 105.753 75.517C106.139 75.2102 106.425 74.8068 106.611 74.3068C106.797 73.8068 106.889 73.2652 106.889 72.6818C106.889 72.0985 106.797 71.5549 106.611 71.0511C106.425 70.5473 106.139 70.1402 105.753 69.8295C105.367 69.5189 104.874 69.3636 104.276 69.3636C103.677 69.3636 103.185 69.5189 102.799 69.8295C102.412 70.1402 102.126 70.5473 101.941 71.0511C101.755 71.5549 101.662 72.0985 101.662 72.6818C101.662 73.2652 101.755 73.8068 101.941 74.3068C102.126 74.8068 102.412 75.2102 102.799 75.517C103.185 75.8239 103.677 75.9773 104.276 75.9773ZM111.298 71.75V77H109.957V68.2727H111.253V69.6364H111.366C111.571 69.1932 111.882 68.8371 112.298 68.5682C112.715 68.2955 113.253 68.1591 113.912 68.1591C114.503 68.1591 115.02 68.2803 115.463 68.5227C115.906 68.7614 116.251 69.125 116.497 69.6136C116.743 70.0985 116.866 70.7121 116.866 71.4545V77H115.525V71.5455C115.525 70.8598 115.347 70.3258 114.991 69.9432C114.635 69.5568 114.147 69.3636 113.525 69.3636C113.097 69.3636 112.715 69.4564 112.378 69.642C112.044 69.8277 111.781 70.0985 111.588 70.4545C111.395 70.8106 111.298 71.2424 111.298 71.75ZM125.178 70.2273L123.974 70.5682C123.898 70.3674 123.786 70.1723 123.639 69.983C123.495 69.7898 123.298 69.6307 123.048 69.5057C122.798 69.3807 122.478 69.3182 122.088 69.3182C121.553 69.3182 121.108 69.4413 120.752 69.6875C120.4 69.9299 120.224 70.2386 120.224 70.6136C120.224 70.947 120.345 71.2102 120.588 71.4034C120.83 71.5966 121.209 71.7576 121.724 71.8864L123.019 72.2045C123.8 72.3939 124.381 72.6837 124.764 73.0739C125.146 73.4602 125.338 73.9583 125.338 74.5682C125.338 75.0682 125.194 75.5152 124.906 75.9091C124.622 76.303 124.224 76.6136 123.713 76.8409C123.201 77.0682 122.606 77.1818 121.928 77.1818C121.038 77.1818 120.302 76.9886 119.718 76.6023C119.135 76.2159 118.766 75.6515 118.61 74.9091L119.883 74.5909C120.004 75.0606 120.233 75.4129 120.571 75.6477C120.911 75.8826 121.356 76 121.906 76C122.531 76 123.027 75.8674 123.394 75.6023C123.766 75.3333 123.951 75.0114 123.951 74.6364C123.951 74.3333 123.845 74.0795 123.633 73.875C123.421 73.6667 123.095 73.5114 122.656 73.4091L121.201 73.0682C120.402 72.8788 119.815 72.5852 119.44 72.1875C119.069 71.786 118.883 71.2841 118.883 70.6818C118.883 70.1894 119.021 69.7538 119.298 69.375C119.578 68.9962 119.959 68.6989 120.44 68.483C120.925 68.267 121.474 68.1591 122.088 68.1591C122.951 68.1591 123.629 68.3485 124.122 68.7273C124.618 69.1061 124.97 69.6061 125.178 70.2273ZM132.557 65.3636V77H131.216V65.3636H132.557ZM134.693 77V68.2727H136.034V77H134.693ZM135.375 66.8182C135.113 66.8182 134.888 66.7292 134.699 66.5511C134.513 66.3731 134.42 66.1591 134.42 65.9091C134.42 65.6591 134.513 65.4451 134.699 65.267C134.888 65.089 135.113 65 135.375 65C135.636 65 135.86 65.089 136.045 65.267C136.235 65.4451 136.329 65.6591 136.329 65.9091C136.329 66.1591 136.235 66.3731 136.045 66.5511C135.86 66.7292 135.636 66.8182 135.375 66.8182ZM139.42 73.8182L139.397 72.1591H139.67L143.488 68.2727H145.147L141.079 72.3864H140.965L139.42 73.8182ZM138.17 77V65.3636H139.511V77H138.17ZM143.715 77L140.306 72.6818L141.261 71.75L145.42 77H143.715ZM149.853 77.1818C149.012 77.1818 148.286 76.9962 147.676 76.625C147.07 76.25 146.603 75.7273 146.273 75.0568C145.947 74.3826 145.784 73.5985 145.784 72.7045C145.784 71.8106 145.947 71.0227 146.273 70.3409C146.603 69.6553 147.061 69.1212 147.648 68.7386C148.239 68.3523 148.928 68.1591 149.716 68.1591C150.171 68.1591 150.62 68.2348 151.063 68.3864C151.506 68.5379 151.909 68.7841 152.273 69.125C152.637 69.4621 152.926 69.9091 153.142 70.4659C153.358 71.0227 153.466 71.7083 153.466 72.5227V73.0909H146.739V71.9318H152.103C152.103 71.4394 152.004 71 151.807 70.6136C151.614 70.2273 151.337 69.9223 150.978 69.6989C150.622 69.4754 150.201 69.3636 149.716 69.3636C149.182 69.3636 148.72 69.4962 148.33 69.7614C147.944 70.0227 147.646 70.3636 147.438 70.7841C147.23 71.2045 147.125 71.6553 147.125 72.1364V72.9091C147.125 73.5682 147.239 74.1269 147.466 74.5852C147.697 75.0398 148.017 75.3864 148.426 75.625C148.836 75.8598 149.311 75.9773 149.853 75.9773C150.205 75.9773 150.523 75.928 150.807 75.8295C151.095 75.7273 151.343 75.5758 151.551 75.375C151.76 75.1705 151.921 74.9167 152.034 74.6136L153.33 74.9773C153.194 75.4167 152.964 75.803 152.642 76.1364C152.32 76.4659 151.923 76.7235 151.449 76.9091C150.976 77.0909 150.444 77.1818 149.853 77.1818ZM156.163 77.0909C155.883 77.0909 155.642 76.9905 155.442 76.7898C155.241 76.589 155.141 76.3485 155.141 76.0682C155.141 75.7879 155.241 75.5473 155.442 75.3466C155.642 75.1458 155.883 75.0455 156.163 75.0455C156.444 75.0455 156.684 75.1458 156.885 75.3466C157.086 75.5473 157.186 75.7879 157.186 76.0682C157.186 76.2538 157.139 76.4242 157.044 76.5795C156.953 76.7348 156.83 76.8598 156.675 76.9545C156.523 77.0455 156.353 77.0909 156.163 77.0909ZM160.25 77.0909C159.969 77.0909 159.729 76.9905 159.528 76.7898C159.327 76.589 159.227 76.3485 159.227 76.0682C159.227 75.7879 159.327 75.5473 159.528 75.3466C159.729 75.1458 159.969 75.0455 160.25 75.0455C160.53 75.0455 160.77 75.1458 160.971 75.3466C161.172 75.5473 161.272 75.7879 161.272 76.0682C161.272 76.2538 161.225 76.4242 161.13 76.5795C161.039 76.7348 160.916 76.8598 160.761 76.9545C160.609 77.0455 160.439 77.0909 160.25 77.0909ZM164.336 77.0909C164.055 77.0909 163.815 76.9905 163.614 76.7898C163.413 76.589 163.313 76.3485 163.313 76.0682C163.313 75.7879 163.413 75.5473 163.614 75.3466C163.815 75.1458 164.055 75.0455 164.336 75.0455C164.616 75.0455 164.857 75.1458 165.057 75.3466C165.258 75.5473 165.359 75.7879 165.359 76.0682C165.359 76.2538 165.311 76.4242 165.216 76.5795C165.126 76.7348 165.002 76.8598 164.847 76.9545C164.696 77.0455 164.525 77.0909 164.336 77.0909ZM27.5227 103L24.3409 91.3636H25.7727L28.2045 100.841H28.3182L30.7955 91.3636H32.3864L34.8636 100.841H34.9773L37.4091 91.3636H38.8409L35.6591 103H34.2045L31.6364 93.7273H31.5455L28.9773 103H27.5227ZM41.4357 97.75V103H40.0948V91.3636H41.4357V95.6364H41.5493C41.7539 95.1856 42.0607 94.8277 42.4698 94.5625C42.8827 94.2936 43.4319 94.1591 44.1175 94.1591C44.7122 94.1591 45.233 94.2784 45.68 94.517C46.127 94.7519 46.4736 95.1136 46.7198 95.6023C46.9698 96.0871 47.0948 96.7045 47.0948 97.4545V103H45.7539V97.5455C45.7539 96.8523 45.5739 96.3163 45.2141 95.9375C44.858 95.5549 44.3637 95.3636 43.7311 95.3636C43.2917 95.3636 42.8978 95.4564 42.5493 95.642C42.2046 95.8277 41.9319 96.0985 41.7311 96.4545C41.5342 96.8106 41.4357 97.2424 41.4357 97.75ZM51.7961 103.205C51.2431 103.205 50.7412 103.1 50.2904 102.892C49.8396 102.68 49.4817 102.375 49.2165 101.977C48.9514 101.576 48.8188 101.091 48.8188 100.523C48.8188 100.023 48.9173 99.6174 49.1143 99.3068C49.3112 98.9924 49.5745 98.7462 49.904 98.5682C50.2336 98.3902 50.5972 98.2576 50.9949 98.1705C51.3965 98.0795 51.7999 98.0076 52.2052 97.9545C52.7355 97.8864 53.1654 97.8352 53.4949 97.8011C53.8283 97.7633 54.0707 97.7008 54.2222 97.6136C54.3775 97.5265 54.4552 97.375 54.4552 97.1591V97.1136C54.4552 96.553 54.3018 96.1174 53.9949 95.8068C53.6919 95.4962 53.2317 95.3409 52.6143 95.3409C51.9741 95.3409 51.4722 95.4811 51.1086 95.7614C50.7449 96.0417 50.4893 96.3409 50.3415 96.6591L49.0688 96.2045C49.2961 95.6742 49.5991 95.2614 49.9779 94.9659C50.3605 94.6667 50.7771 94.4583 51.2279 94.3409C51.6824 94.2197 52.1294 94.1591 52.5688 94.1591C52.8491 94.1591 53.1711 94.1932 53.5347 94.2614C53.9021 94.3258 54.2563 94.4602 54.5972 94.6648C54.9419 94.8693 55.2279 95.178 55.4552 95.5909C55.6824 96.0038 55.7961 96.5568 55.7961 97.25V103H54.4552V101.818H54.387C54.2961 102.008 54.1446 102.21 53.9324 102.426C53.7203 102.642 53.4381 102.826 53.0859 102.977C52.7336 103.129 52.3037 103.205 51.7961 103.205ZM52.0006 102C52.5309 102 52.9779 101.896 53.3415 101.688C53.709 101.479 53.9855 101.21 54.1711 100.881C54.3605 100.551 54.4552 100.205 54.4552 99.8409V98.6136C54.3984 98.6818 54.2734 98.7443 54.0802 98.8011C53.8908 98.8542 53.6711 98.9015 53.4211 98.9432C53.1749 98.9811 52.9343 99.0152 52.6995 99.0455C52.4684 99.072 52.2809 99.0947 52.137 99.1136C51.7885 99.1591 51.4627 99.233 51.1597 99.3352C50.8605 99.4337 50.618 99.5833 50.4324 99.7841C50.2506 99.9811 50.1597 100.25 50.1597 100.591C50.1597 101.057 50.3321 101.409 50.6768 101.648C51.0252 101.883 51.4665 102 52.0006 102ZM61.719 94.2727V95.4091H57.1963V94.2727H61.719ZM58.5144 92.1818H59.8553V100.5C59.8553 100.879 59.9103 101.163 60.0201 101.352C60.1338 101.538 60.2777 101.663 60.4519 101.727C60.63 101.788 60.8175 101.818 61.0144 101.818C61.1622 101.818 61.2834 101.811 61.3781 101.795C61.4728 101.777 61.5485 101.761 61.6053 101.75L61.8781 102.955C61.7872 102.989 61.6603 103.023 61.4974 103.057C61.3345 103.095 61.1281 103.114 60.8781 103.114C60.4993 103.114 60.1281 103.032 59.7644 102.869C59.4046 102.706 59.1053 102.458 58.8667 102.125C58.6319 101.792 58.5144 101.371 58.5144 100.864V92.1818ZM71.1415 103.182C70.3233 103.182 69.6188 102.989 69.0278 102.602C68.4369 102.216 67.9824 101.684 67.6642 101.006C67.346 100.328 67.1869 99.553 67.1869 98.6818C67.1869 97.7955 67.3498 97.0133 67.6756 96.3352C68.0051 95.6534 68.4634 95.1212 69.0506 94.7386C69.6415 94.3523 70.3309 94.1591 71.1188 94.1591C71.7324 94.1591 72.2854 94.2727 72.7778 94.5C73.2703 94.7273 73.6737 95.0455 73.9881 95.4545C74.3025 95.8636 74.4975 96.3409 74.5733 96.8864H73.2324C73.1301 96.4886 72.9028 96.1364 72.5506 95.8295C72.2021 95.5189 71.7324 95.3636 71.1415 95.3636C70.6188 95.3636 70.1604 95.5 69.7665 95.7727C69.3763 96.0417 69.0714 96.4223 68.8517 96.9148C68.6358 97.4034 68.5278 97.9773 68.5278 98.6364C68.5278 99.3106 68.6339 99.8977 68.846 100.398C69.0619 100.898 69.365 101.286 69.7551 101.562C70.1491 101.839 70.6112 101.977 71.1415 101.977C71.49 101.977 71.8063 101.917 72.0903 101.795C72.3744 101.674 72.615 101.5 72.8119 101.273C73.0089 101.045 73.1491 100.773 73.2324 100.455H74.5733C74.4975 100.97 74.31 101.434 74.0108 101.847C73.7153 102.256 73.3233 102.581 72.8347 102.824C72.3498 103.062 71.7854 103.182 71.1415 103.182ZM78.7817 103.205C78.2287 103.205 77.7268 103.1 77.276 102.892C76.8253 102.68 76.4673 102.375 76.2022 101.977C75.937 101.576 75.8044 101.091 75.8044 100.523C75.8044 100.023 75.9029 99.6174 76.0999 99.3068C76.2969 98.9924 76.5601 98.7462 76.8897 98.5682C77.2192 98.3902 77.5828 98.2576 77.9806 98.1705C78.3821 98.0795 78.7855 98.0076 79.1908 97.9545C79.7211 97.8864 80.151 97.8352 80.4806 97.8011C80.8139 97.7633 81.0563 97.7008 81.2078 97.6136C81.3631 97.5265 81.4408 97.375 81.4408 97.1591V97.1136C81.4408 96.553 81.2874 96.1174 80.9806 95.8068C80.6775 95.4962 80.2173 95.3409 79.5999 95.3409C78.9597 95.3409 78.4578 95.4811 78.0942 95.7614C77.7306 96.0417 77.4749 96.3409 77.3272 96.6591L76.0544 96.2045C76.2817 95.6742 76.5847 95.2614 76.9635 94.9659C77.3461 94.6667 77.7628 94.4583 78.2135 94.3409C78.6681 94.2197 79.115 94.1591 79.5544 94.1591C79.8347 94.1591 80.1567 94.1932 80.5203 94.2614C80.8878 94.3258 81.2419 94.4602 81.5828 94.6648C81.9275 94.8693 82.2135 95.178 82.4408 95.5909C82.6681 96.0038 82.7817 96.5568 82.7817 97.25V103H81.4408V101.818H81.3726C81.2817 102.008 81.1302 102.21 80.9181 102.426C80.7059 102.642 80.4238 102.826 80.0715 102.977C79.7192 103.129 79.2893 103.205 78.7817 103.205ZM78.9863 102C79.5166 102 79.9635 101.896 80.3272 101.688C80.6946 101.479 80.9711 101.21 81.1567 100.881C81.3461 100.551 81.4408 100.205 81.4408 99.8409V98.6136C81.384 98.6818 81.259 98.7443 81.0658 98.8011C80.8764 98.8542 80.6567 98.9015 80.4067 98.9432C80.1605 98.9811 79.92 99.0152 79.6851 99.0455C79.4541 99.072 79.2666 99.0947 79.1226 99.1136C78.7741 99.1591 78.4484 99.233 78.1453 99.3352C77.8461 99.4337 77.6037 99.5833 77.4181 99.7841C77.2363 99.9811 77.1453 100.25 77.1453 100.591C77.1453 101.057 77.3177 101.409 77.6624 101.648C78.0109 101.883 78.4522 102 78.9863 102ZM86.2501 97.75V103H84.9091V94.2727H86.2046V95.6364H86.3182C86.5228 95.1932 86.8334 94.8371 87.2501 94.5682C87.6667 94.2955 88.2046 94.1591 88.8637 94.1591C89.4546 94.1591 89.9716 94.2803 90.4148 94.5227C90.858 94.7614 91.2027 95.125 91.4489 95.6136C91.6951 96.0985 91.8182 96.7121 91.8182 97.4545V103H90.4773V97.5455C90.4773 96.8598 90.2993 96.3258 89.9432 95.9432C89.5872 95.5568 89.0985 95.3636 88.4773 95.3636C88.0493 95.3636 87.6667 95.4564 87.3296 95.642C86.9963 95.8277 86.733 96.0985 86.5398 96.4545C86.3466 96.8106 86.2501 97.2424 86.2501 97.75ZM99.7194 91.3636V103H98.3103V91.3636H99.7194ZM106.223 103V94.2727H107.518V95.6364H107.632C107.814 95.1705 108.107 94.8087 108.513 94.5511C108.918 94.2898 109.405 94.1591 109.973 94.1591C110.549 94.1591 111.028 94.2898 111.41 94.5511C111.797 94.8087 112.098 95.1705 112.314 95.6364H112.405C112.628 95.1856 112.963 94.8277 113.41 94.5625C113.857 94.2936 114.393 94.1591 115.018 94.1591C115.799 94.1591 116.437 94.4034 116.933 94.892C117.429 95.3769 117.677 96.1326 117.677 97.1591V103H116.337V97.1591C116.337 96.5152 116.16 96.0549 115.808 95.7784C115.456 95.5019 115.041 95.3636 114.564 95.3636C113.95 95.3636 113.475 95.5492 113.138 95.9205C112.801 96.2879 112.632 96.7538 112.632 97.3182V103H111.268V97.0227C111.268 96.5265 111.107 96.1269 110.785 95.8239C110.463 95.517 110.049 95.3636 109.541 95.3636C109.193 95.3636 108.867 95.4564 108.564 95.642C108.265 95.8277 108.022 96.0852 107.837 96.4148C107.655 96.7405 107.564 97.1174 107.564 97.5455V103H106.223ZM122.377 103.205C121.824 103.205 121.322 103.1 120.872 102.892C120.421 102.68 120.063 102.375 119.798 101.977C119.533 101.576 119.4 101.091 119.4 100.523C119.4 100.023 119.499 99.6174 119.696 99.3068C119.892 98.9924 120.156 98.7462 120.485 98.5682C120.815 98.3902 121.178 98.2576 121.576 98.1705C121.978 98.0795 122.381 98.0076 122.786 97.9545C123.317 97.8864 123.747 97.8352 124.076 97.8011C124.41 97.7633 124.652 97.7008 124.803 97.6136C124.959 97.5265 125.036 97.375 125.036 97.1591V97.1136C125.036 96.553 124.883 96.1174 124.576 95.8068C124.273 95.4962 123.813 95.3409 123.196 95.3409C122.555 95.3409 122.053 95.4811 121.69 95.7614C121.326 96.0417 121.071 96.3409 120.923 96.6591L119.65 96.2045C119.877 95.6742 120.18 95.2614 120.559 94.9659C120.942 94.6667 121.358 94.4583 121.809 94.3409C122.264 94.2197 122.711 94.1591 123.15 94.1591C123.43 94.1591 123.752 94.1932 124.116 94.2614C124.483 94.3258 124.838 94.4602 125.178 94.6648C125.523 94.8693 125.809 95.178 126.036 95.5909C126.264 96.0038 126.377 96.5568 126.377 97.25V103H125.036V101.818H124.968C124.877 102.008 124.726 102.21 124.514 102.426C124.302 102.642 124.019 102.826 123.667 102.977C123.315 103.129 122.885 103.205 122.377 103.205ZM122.582 102C123.112 102 123.559 101.896 123.923 101.688C124.29 101.479 124.567 101.21 124.752 100.881C124.942 100.551 125.036 100.205 125.036 99.8409V98.6136C124.98 98.6818 124.855 98.7443 124.661 98.8011C124.472 98.8542 124.252 98.9015 124.002 98.9432C123.756 98.9811 123.516 99.0152 123.281 99.0455C123.05 99.072 122.862 99.0947 122.718 99.1136C122.37 99.1591 122.044 99.233 121.741 99.3352C121.442 99.4337 121.199 99.5833 121.014 99.7841C120.832 99.9811 120.741 100.25 120.741 100.591C120.741 101.057 120.913 101.409 121.258 101.648C121.606 101.883 122.048 102 122.582 102ZM129.755 99.8182L129.732 98.1591H130.005L133.823 94.2727H135.482L131.414 98.3864H131.3L129.755 99.8182ZM128.505 103V91.3636H129.846V103H128.505ZM134.05 103L130.641 98.6818L131.596 97.75L135.755 103H134.05ZM140.188 103.182C139.347 103.182 138.621 102.996 138.011 102.625C137.405 102.25 136.938 101.727 136.608 101.057C136.282 100.383 136.119 99.5985 136.119 98.7045C136.119 97.8106 136.282 97.0227 136.608 96.3409C136.938 95.6553 137.396 95.1212 137.983 94.7386C138.574 94.3523 139.263 94.1591 140.051 94.1591C140.506 94.1591 140.955 94.2348 141.398 94.3864C141.841 94.5379 142.244 94.7841 142.608 95.125C142.972 95.4621 143.261 95.9091 143.477 96.4659C143.693 97.0227 143.801 97.7083 143.801 98.5227V99.0909H137.074V97.9318H142.438C142.438 97.4394 142.339 97 142.142 96.6136C141.949 96.2273 141.672 95.9223 141.313 95.6989C140.957 95.4754 140.536 95.3636 140.051 95.3636C139.517 95.3636 139.055 95.4962 138.665 95.7614C138.279 96.0227 137.981 96.3636 137.773 96.7841C137.565 97.2045 137.46 97.6553 137.46 98.1364V98.9091C137.46 99.5682 137.574 100.127 137.801 100.585C138.032 101.04 138.352 101.386 138.761 101.625C139.171 101.86 139.646 101.977 140.188 101.977C140.54 101.977 140.858 101.928 141.142 101.83C141.43 101.727 141.678 101.576 141.886 101.375C142.095 101.17 142.256 100.917 142.369 100.614L143.665 100.977C143.529 101.417 143.299 101.803 142.977 102.136C142.655 102.466 142.258 102.723 141.784 102.909C141.311 103.091 140.779 103.182 140.188 103.182ZM153.587 94.2727V95.4091H148.883V94.2727H153.587ZM150.292 103V93.0682C150.292 92.5682 150.409 92.1515 150.644 91.8182C150.879 91.4848 151.184 91.2348 151.559 91.0682C151.934 90.9015 152.33 90.8182 152.746 90.8182C153.076 90.8182 153.345 90.8447 153.553 90.8977C153.762 90.9508 153.917 91 154.019 91.0455L153.633 92.2045C153.565 92.1818 153.47 92.1534 153.349 92.1193C153.231 92.0852 153.076 92.0682 152.883 92.0682C152.44 92.0682 152.12 92.1799 151.923 92.4034C151.729 92.6269 151.633 92.9545 151.633 93.3864V103H150.292ZM155.147 103V94.2727H156.442V95.5909H156.533C156.692 95.1591 156.98 94.8087 157.397 94.5398C157.813 94.2708 158.283 94.1364 158.806 94.1364C158.904 94.1364 159.027 94.1383 159.175 94.142C159.323 94.1458 159.435 94.1515 159.51 94.1591V95.5227C159.465 95.5114 159.361 95.4943 159.198 95.4716C159.039 95.4451 158.87 95.4318 158.692 95.4318C158.268 95.4318 157.889 95.5208 157.556 95.6989C157.226 95.8731 156.965 96.1155 156.772 96.4261C156.582 96.733 156.488 97.0833 156.488 97.4773V103H155.147ZM164.06 103.182C163.272 103.182 162.58 102.994 161.986 102.619C161.395 102.244 160.933 101.72 160.599 101.045C160.27 100.371 160.105 99.5833 160.105 98.6818C160.105 97.7727 160.27 96.9792 160.599 96.3011C160.933 95.6231 161.395 95.0966 161.986 94.7216C162.58 94.3466 163.272 94.1591 164.06 94.1591C164.847 94.1591 165.537 94.3466 166.128 94.7216C166.722 95.0966 167.185 95.6231 167.514 96.3011C167.847 96.9792 168.014 97.7727 168.014 98.6818C168.014 99.5833 167.847 100.371 167.514 101.045C167.185 101.72 166.722 102.244 166.128 102.619C165.537 102.994 164.847 103.182 164.06 103.182ZM164.06 101.977C164.658 101.977 165.151 101.824 165.537 101.517C165.923 101.21 166.209 100.807 166.395 100.307C166.58 99.8068 166.673 99.2652 166.673 98.6818C166.673 98.0985 166.58 97.5549 166.395 97.0511C166.209 96.5473 165.923 96.1402 165.537 95.8295C165.151 95.5189 164.658 95.3636 164.06 95.3636C163.461 95.3636 162.969 95.5189 162.582 95.8295C162.196 96.1402 161.91 96.5473 161.724 97.0511C161.539 97.5549 161.446 98.0985 161.446 98.6818C161.446 99.2652 161.539 99.8068 161.724 100.307C161.91 100.807 162.196 101.21 162.582 101.517C162.969 101.824 163.461 101.977 164.06 101.977ZM169.741 103V94.2727H171.036V95.6364H171.15C171.332 95.1705 171.625 94.8087 172.031 94.5511C172.436 94.2898 172.923 94.1591 173.491 94.1591C174.067 94.1591 174.546 94.2898 174.929 94.5511C175.315 94.8087 175.616 95.1705 175.832 95.6364H175.923C176.146 95.1856 176.482 94.8277 176.929 94.5625C177.375 94.2936 177.911 94.1591 178.536 94.1591C179.317 94.1591 179.955 94.4034 180.451 94.892C180.947 95.3769 181.196 96.1326 181.196 97.1591V103H179.855V97.1591C179.855 96.5152 179.679 96.0549 179.326 95.7784C178.974 95.5019 178.559 95.3636 178.082 95.3636C177.468 95.3636 176.993 95.5492 176.656 95.9205C176.319 96.2879 176.15 96.7538 176.15 97.3182V103H174.786V97.0227C174.786 96.5265 174.625 96.1269 174.304 95.8239C173.982 95.517 173.567 95.3636 173.059 95.3636C172.711 95.3636 172.385 95.4564 172.082 95.642C171.783 95.8277 171.54 96.0852 171.355 96.4148C171.173 96.7405 171.082 97.1174 171.082 97.5455V103H169.741ZM25.2273 129V120.273H26.5227V121.636H26.6364C26.8182 121.17 27.1117 120.809 27.517 120.551C27.9223 120.29 28.4091 120.159 28.9773 120.159C29.553 120.159 30.0322 120.29 30.4148 120.551C30.8011 120.809 31.1023 121.17 31.3182 121.636H31.4091C31.6326 121.186 31.9678 120.828 32.4148 120.562C32.8617 120.294 33.3977 120.159 34.0227 120.159C34.803 120.159 35.4413 120.403 35.9375 120.892C36.4337 121.377 36.6818 122.133 36.6818 123.159V129H35.3409V123.159C35.3409 122.515 35.1648 122.055 34.8125 121.778C34.4602 121.502 34.0455 121.364 33.5682 121.364C32.9545 121.364 32.4792 121.549 32.142 121.92C31.8049 122.288 31.6364 122.754 31.6364 123.318V129H30.2727V123.023C30.2727 122.527 30.1117 122.127 29.7898 121.824C29.4678 121.517 29.053 121.364 28.5455 121.364C28.197 121.364 27.8712 121.456 27.5682 121.642C27.2689 121.828 27.0265 122.085 26.8409 122.415C26.6591 122.741 26.5682 123.117 26.5682 123.545V129H25.2273ZM39.3647 132.273C39.1374 132.273 38.9347 132.254 38.7567 132.216C38.5787 132.182 38.4556 132.148 38.3874 132.114L38.7283 130.932C39.0541 131.015 39.3419 131.045 39.5919 131.023C39.8419 131 40.0635 130.888 40.2567 130.688C40.4537 130.491 40.6336 130.17 40.7965 129.727L41.0465 129.045L37.8192 120.273H39.2738L41.6828 127.227H41.7738L44.1828 120.273H45.6374L41.9328 130.273C41.7662 130.723 41.5597 131.097 41.3135 131.392C41.0673 131.691 40.7813 131.913 40.4556 132.057C40.1336 132.201 39.77 132.273 39.3647 132.273ZM53.8355 129.205C53.2824 129.205 52.7805 129.1 52.3298 128.892C51.879 128.68 51.5211 128.375 51.2559 127.977C50.9908 127.576 50.8582 127.091 50.8582 126.523C50.8582 126.023 50.9567 125.617 51.1536 125.307C51.3506 124.992 51.6139 124.746 51.9434 124.568C52.273 124.39 52.6366 124.258 53.0343 124.17C53.4358 124.08 53.8392 124.008 54.2445 123.955C54.7748 123.886 55.2048 123.835 55.5343 123.801C55.8677 123.763 56.1101 123.701 56.2616 123.614C56.4169 123.527 56.4945 123.375 56.4945 123.159V123.114C56.4945 122.553 56.3411 122.117 56.0343 121.807C55.7313 121.496 55.2711 121.341 54.6536 121.341C54.0135 121.341 53.5116 121.481 53.148 121.761C52.7843 122.042 52.5286 122.341 52.3809 122.659L51.1082 122.205C51.3355 121.674 51.6385 121.261 52.0173 120.966C52.3998 120.667 52.8165 120.458 53.2673 120.341C53.7218 120.22 54.1688 120.159 54.6082 120.159C54.8885 120.159 55.2105 120.193 55.5741 120.261C55.9415 120.326 56.2957 120.46 56.6366 120.665C56.9813 120.869 57.2673 121.178 57.4945 121.591C57.7218 122.004 57.8355 122.557 57.8355 123.25V129H56.4945V127.818H56.4264C56.3355 128.008 56.1839 128.21 55.9718 128.426C55.7597 128.642 55.4775 128.826 55.1252 128.977C54.773 129.129 54.343 129.205 53.8355 129.205ZM54.04 128C54.5703 128 55.0173 127.896 55.3809 127.688C55.7483 127.479 56.0248 127.21 56.2105 126.881C56.3998 126.551 56.4945 126.205 56.4945 125.841V124.614C56.4377 124.682 56.3127 124.744 56.1195 124.801C55.9302 124.854 55.7105 124.902 55.4605 124.943C55.2142 124.981 54.9737 125.015 54.7389 125.045C54.5078 125.072 54.3203 125.095 54.1764 125.114C53.8279 125.159 53.5021 125.233 53.1991 125.335C52.8998 125.434 52.6574 125.583 52.4718 125.784C52.29 125.981 52.1991 126.25 52.1991 126.591C52.1991 127.057 52.3714 127.409 52.7161 127.648C53.0646 127.883 53.5059 128 54.04 128ZM66.7868 120.273L63.5595 129H62.1959L58.9686 120.273H60.4231L62.8322 127.227H62.9231L65.3322 120.273H66.7868ZM70.5392 129.205C69.9862 129.205 69.4843 129.1 69.0335 128.892C68.5828 128.68 68.2248 128.375 67.9597 127.977C67.6945 127.576 67.5619 127.091 67.5619 126.523C67.5619 126.023 67.6604 125.617 67.8574 125.307C68.0544 124.992 68.3176 124.746 68.6472 124.568C68.9767 124.39 69.3403 124.258 69.7381 124.17C70.1396 124.08 70.543 124.008 70.9483 123.955C71.4786 123.886 71.9085 123.835 72.2381 123.801C72.5714 123.763 72.8138 123.701 72.9653 123.614C73.1206 123.527 73.1983 123.375 73.1983 123.159V123.114C73.1983 122.553 73.0449 122.117 72.7381 121.807C72.435 121.496 71.9748 121.341 71.3574 121.341C70.7172 121.341 70.2153 121.481 69.8517 121.761C69.4881 122.042 69.2324 122.341 69.0847 122.659L67.8119 122.205C68.0392 121.674 68.3422 121.261 68.721 120.966C69.1036 120.667 69.5203 120.458 69.971 120.341C70.4256 120.22 70.8725 120.159 71.3119 120.159C71.5922 120.159 71.9142 120.193 72.2778 120.261C72.6453 120.326 72.9994 120.46 73.3403 120.665C73.685 120.869 73.971 121.178 74.1983 121.591C74.4256 122.004 74.5392 122.557 74.5392 123.25V129H73.1983V127.818H73.1301C73.0392 128.008 72.8877 128.21 72.6756 128.426C72.4634 128.642 72.1813 128.826 71.829 128.977C71.4767 129.129 71.0468 129.205 70.5392 129.205ZM70.7438 128C71.2741 128 71.721 127.896 72.0847 127.688C72.4521 127.479 72.7286 127.21 72.9142 126.881C73.1036 126.551 73.1983 126.205 73.1983 125.841V124.614C73.1415 124.682 73.0165 124.744 72.8233 124.801C72.6339 124.854 72.4142 124.902 72.1642 124.943C71.918 124.981 71.6775 125.015 71.4426 125.045C71.2116 125.072 71.0241 125.095 70.8801 125.114C70.5316 125.159 70.2059 125.233 69.9028 125.335C69.6036 125.434 69.3612 125.583 69.1756 125.784C68.9938 125.981 68.9028 126.25 68.9028 126.591C68.9028 127.057 69.0752 127.409 69.4199 127.648C69.7684 127.883 70.2097 128 70.7438 128ZM76.6666 129V120.273H78.0076V129H76.6666ZM77.3485 118.818C77.0871 118.818 76.8617 118.729 76.6723 118.551C76.4867 118.373 76.3939 118.159 76.3939 117.909C76.3939 117.659 76.4867 117.445 76.6723 117.267C76.8617 117.089 77.0871 117 77.3485 117C77.6098 117 77.8333 117.089 78.0189 117.267C78.2083 117.445 78.303 117.659 78.303 117.909C78.303 118.159 78.2083 118.373 78.0189 118.551C77.8333 118.729 77.6098 118.818 77.3485 118.818ZM81.4844 117.364V129H80.1435V117.364H81.4844ZM86.1886 129.205C85.6355 129.205 85.1337 129.1 84.6829 128.892C84.2321 128.68 83.8742 128.375 83.609 127.977C83.3439 127.576 83.2113 127.091 83.2113 126.523C83.2113 126.023 83.3098 125.617 83.5068 125.307C83.7037 124.992 83.967 124.746 84.2965 124.568C84.6261 124.39 84.9897 124.258 85.3874 124.17C85.789 124.08 86.1924 124.008 86.5977 123.955C87.128 123.886 87.5579 123.835 87.8874 123.801C88.2208 123.763 88.4632 123.701 88.6147 123.614C88.77 123.527 88.8477 123.375 88.8477 123.159V123.114C88.8477 122.553 88.6943 122.117 88.3874 121.807C88.0844 121.496 87.6242 121.341 87.0068 121.341C86.3666 121.341 85.8647 121.481 85.5011 121.761C85.1374 122.042 84.8818 122.341 84.734 122.659L83.4613 122.205C83.6886 121.674 83.9916 121.261 84.3704 120.966C84.753 120.667 85.1696 120.458 85.6204 120.341C86.0749 120.22 86.5219 120.159 86.9613 120.159C87.2416 120.159 87.5636 120.193 87.9272 120.261C88.2946 120.326 88.6488 120.46 88.9897 120.665C89.3344 120.869 89.6204 121.178 89.8477 121.591C90.0749 122.004 90.1886 122.557 90.1886 123.25V129H88.8477V127.818H88.7795C88.6886 128.008 88.5371 128.21 88.3249 128.426C88.1128 128.642 87.8306 128.826 87.4784 128.977C87.1261 129.129 86.6962 129.205 86.1886 129.205ZM86.3931 128C86.9234 128 87.3704 127.896 87.734 127.688C88.1015 127.479 88.378 127.21 88.5636 126.881C88.753 126.551 88.8477 126.205 88.8477 125.841V124.614C88.7909 124.682 88.6659 124.744 88.4727 124.801C88.2833 124.854 88.0636 124.902 87.8136 124.943C87.5674 124.981 87.3268 125.015 87.092 125.045C86.8609 125.072 86.6734 125.095 86.5295 125.114C86.181 125.159 85.8552 125.233 85.5522 125.335C85.253 125.434 85.0105 125.583 84.8249 125.784C84.6431 125.981 84.5522 126.25 84.5522 126.591C84.5522 127.057 84.7246 127.409 85.0693 127.648C85.4177 127.883 85.859 128 86.3931 128ZM92.4978 129V117.364H93.8388V121.659H93.9524C94.0509 121.508 94.1872 121.314 94.3615 121.08C94.5395 120.841 94.7933 120.629 95.1228 120.443C95.4562 120.254 95.9069 120.159 96.4751 120.159C97.21 120.159 97.8577 120.343 98.4183 120.71C98.9789 121.078 99.4164 121.598 99.7308 122.273C100.045 122.947 100.202 123.742 100.202 124.659C100.202 125.583 100.045 126.384 99.7308 127.062C99.4164 127.737 98.9808 128.259 98.424 128.631C97.8672 128.998 97.2251 129.182 96.4978 129.182C95.9372 129.182 95.4884 129.089 95.1513 128.903C94.8141 128.714 94.5547 128.5 94.3728 128.261C94.191 128.019 94.0509 127.818 93.9524 127.659H93.7933V129H92.4978ZM93.816 124.636C93.816 125.295 93.9126 125.877 94.1058 126.381C94.299 126.881 94.5812 127.273 94.9524 127.557C95.3236 127.837 95.7781 127.977 96.316 127.977C96.8766 127.977 97.3444 127.83 97.7194 127.534C98.0982 127.235 98.3823 126.833 98.5717 126.33C98.7649 125.822 98.8615 125.258 98.8615 124.636C98.8615 124.023 98.7668 123.47 98.5774 122.977C98.3918 122.481 98.1096 122.089 97.7308 121.801C97.3558 121.509 96.8842 121.364 96.316 121.364C95.7706 121.364 95.3122 121.502 94.941 121.778C94.5698 122.051 94.2895 122.434 94.1001 122.926C93.9107 123.415 93.816 123.985 93.816 124.636ZM103.274 117.364V129H101.934V117.364H103.274ZM109.069 129.182C108.229 129.182 107.503 128.996 106.893 128.625C106.287 128.25 105.819 127.727 105.49 127.057C105.164 126.383 105.001 125.598 105.001 124.705C105.001 123.811 105.164 123.023 105.49 122.341C105.819 121.655 106.278 121.121 106.865 120.739C107.456 120.352 108.145 120.159 108.933 120.159C109.388 120.159 109.837 120.235 110.28 120.386C110.723 120.538 111.126 120.784 111.49 121.125C111.854 121.462 112.143 121.909 112.359 122.466C112.575 123.023 112.683 123.708 112.683 124.523V125.091H105.956V123.932H111.319C111.319 123.439 111.221 123 111.024 122.614C110.831 122.227 110.554 121.922 110.194 121.699C109.838 121.475 109.418 121.364 108.933 121.364C108.399 121.364 107.937 121.496 107.547 121.761C107.16 122.023 106.863 122.364 106.655 122.784C106.446 123.205 106.342 123.655 106.342 124.136V124.909C106.342 125.568 106.456 126.127 106.683 126.585C106.914 127.04 107.234 127.386 107.643 127.625C108.052 127.86 108.528 127.977 109.069 127.977C109.422 127.977 109.74 127.928 110.024 127.83C110.312 127.727 110.56 127.576 110.768 127.375C110.977 127.17 111.138 126.917 111.251 126.614L112.547 126.977C112.41 127.417 112.181 127.803 111.859 128.136C111.537 128.466 111.14 128.723 110.666 128.909C110.193 129.091 109.66 129.182 109.069 129.182ZM118.583 129V120.273H119.924V129H118.583ZM119.265 118.818C119.003 118.818 118.778 118.729 118.589 118.551C118.403 118.373 118.31 118.159 118.31 117.909C118.31 117.659 118.403 117.445 118.589 117.267C118.778 117.089 119.003 117 119.265 117C119.526 117 119.75 117.089 119.935 117.267C120.125 117.445 120.219 117.659 120.219 117.909C120.219 118.159 120.125 118.373 119.935 118.551C119.75 118.729 119.526 118.818 119.265 118.818ZM123.401 123.75V129H122.06V120.273H123.355V121.636H123.469C123.673 121.193 123.984 120.837 124.401 120.568C124.817 120.295 125.355 120.159 126.014 120.159C126.605 120.159 127.122 120.28 127.565 120.523C128.009 120.761 128.353 121.125 128.6 121.614C128.846 122.098 128.969 122.712 128.969 123.455V129H127.628V123.545C127.628 122.86 127.45 122.326 127.094 121.943C126.738 121.557 126.249 121.364 125.628 121.364C125.2 121.364 124.817 121.456 124.48 121.642C124.147 121.828 123.884 122.098 123.69 122.455C123.497 122.811 123.401 123.242 123.401 123.75ZM137.923 120.273L134.696 129H133.332L130.105 120.273H131.559L133.968 127.227H134.059L136.468 120.273H137.923ZM142.719 129.182C141.879 129.182 141.153 128.996 140.543 128.625C139.937 128.25 139.469 127.727 139.14 127.057C138.814 126.383 138.651 125.598 138.651 124.705C138.651 123.811 138.814 123.023 139.14 122.341C139.469 121.655 139.928 121.121 140.515 120.739C141.106 120.352 141.795 120.159 142.583 120.159C143.038 120.159 143.487 120.235 143.93 120.386C144.373 120.538 144.776 120.784 145.14 121.125C145.504 121.462 145.793 121.909 146.009 122.466C146.225 123.023 146.333 123.708 146.333 124.523V125.091H139.606V123.932H144.969C144.969 123.439 144.871 123 144.674 122.614C144.481 122.227 144.204 121.922 143.844 121.699C143.488 121.475 143.068 121.364 142.583 121.364C142.049 121.364 141.587 121.496 141.197 121.761C140.81 122.023 140.513 122.364 140.305 122.784C140.096 123.205 139.992 123.655 139.992 124.136V124.909C139.992 125.568 140.106 126.127 140.333 126.585C140.564 127.04 140.884 127.386 141.293 127.625C141.702 127.86 142.178 127.977 142.719 127.977C143.072 127.977 143.39 127.928 143.674 127.83C143.962 127.727 144.21 127.576 144.418 127.375C144.627 127.17 144.788 126.917 144.901 126.614L146.197 126.977C146.06 127.417 145.831 127.803 145.509 128.136C145.187 128.466 144.79 128.723 144.316 128.909C143.843 129.091 143.31 129.182 142.719 129.182ZM149.394 123.75V129H148.053V120.273H149.348V121.636H149.462C149.667 121.193 149.977 120.837 150.394 120.568C150.81 120.295 151.348 120.159 152.007 120.159C152.598 120.159 153.115 120.28 153.559 120.523C154.002 120.761 154.346 121.125 154.593 121.614C154.839 122.098 154.962 122.712 154.962 123.455V129H153.621V123.545C153.621 122.86 153.443 122.326 153.087 121.943C152.731 121.557 152.242 121.364 151.621 121.364C151.193 121.364 150.81 121.456 150.473 121.642C150.14 121.828 149.877 122.098 149.684 122.455C149.49 122.811 149.394 123.242 149.394 123.75ZM160.888 120.273V121.409H156.365V120.273H160.888ZM157.683 118.182H159.024V126.5C159.024 126.879 159.079 127.163 159.189 127.352C159.303 127.538 159.446 127.663 159.621 127.727C159.799 127.788 159.986 127.818 160.183 127.818C160.331 127.818 160.452 127.811 160.547 127.795C160.642 127.777 160.717 127.761 160.774 127.75L161.047 128.955C160.956 128.989 160.829 129.023 160.666 129.057C160.503 129.095 160.297 129.114 160.047 129.114C159.668 129.114 159.297 129.032 158.933 128.869C158.573 128.706 158.274 128.458 158.035 128.125C157.801 127.792 157.683 127.371 157.683 126.864V118.182ZM166.036 129.182C165.249 129.182 164.557 128.994 163.963 128.619C163.372 128.244 162.91 127.72 162.576 127.045C162.247 126.371 162.082 125.583 162.082 124.682C162.082 123.773 162.247 122.979 162.576 122.301C162.91 121.623 163.372 121.097 163.963 120.722C164.557 120.347 165.249 120.159 166.036 120.159C166.824 120.159 167.514 120.347 168.105 120.722C168.699 121.097 169.161 121.623 169.491 122.301C169.824 122.979 169.991 123.773 169.991 124.682C169.991 125.583 169.824 126.371 169.491 127.045C169.161 127.72 168.699 128.244 168.105 128.619C167.514 128.994 166.824 129.182 166.036 129.182ZM166.036 127.977C166.635 127.977 167.127 127.824 167.514 127.517C167.9 127.21 168.186 126.807 168.372 126.307C168.557 125.807 168.65 125.265 168.65 124.682C168.65 124.098 168.557 123.555 168.372 123.051C168.186 122.547 167.9 122.14 167.514 121.83C167.127 121.519 166.635 121.364 166.036 121.364C165.438 121.364 164.946 121.519 164.559 121.83C164.173 122.14 163.887 122.547 163.701 123.051C163.516 123.555 163.423 124.098 163.423 124.682C163.423 125.265 163.516 125.807 163.701 126.307C163.887 126.807 164.173 127.21 164.559 127.517C164.946 127.824 165.438 127.977 166.036 127.977ZM171.718 129V120.273H173.013V121.591H173.104C173.263 121.159 173.551 120.809 173.968 120.54C174.385 120.271 174.854 120.136 175.377 120.136C175.475 120.136 175.599 120.138 175.746 120.142C175.894 120.146 176.006 120.152 176.082 120.159V121.523C176.036 121.511 175.932 121.494 175.769 121.472C175.61 121.445 175.441 121.432 175.263 121.432C174.839 121.432 174.46 121.521 174.127 121.699C173.797 121.873 173.536 122.116 173.343 122.426C173.154 122.733 173.059 123.083 173.059 123.477V129H171.718ZM178.48 132.273C178.253 132.273 178.05 132.254 177.872 132.216C177.694 132.182 177.571 132.148 177.503 132.114L177.844 130.932C178.17 131.015 178.458 131.045 178.708 131.023C178.958 131 179.179 130.888 179.372 130.688C179.569 130.491 179.749 130.17 179.912 129.727L180.162 129.045L176.935 120.273H178.389L180.798 127.227H180.889L183.298 120.273H184.753L181.048 130.273C180.882 130.723 180.675 131.097 180.429 131.392C180.183 131.691 179.897 131.913 179.571 132.057C179.249 132.201 178.886 132.273 178.48 132.273ZM27.7955 155.205C27.2424 155.205 26.7405 155.1 26.2898 154.892C25.839 154.68 25.4811 154.375 25.2159 153.977C24.9508 153.576 24.8182 153.091 24.8182 152.523C24.8182 152.023 24.9167 151.617 25.1136 151.307C25.3106 150.992 25.5739 150.746 25.9034 150.568C26.233 150.39 26.5966 150.258 26.9943 150.17C27.3958 150.08 27.7992 150.008 28.2045 149.955C28.7348 149.886 29.1648 149.835 29.4943 149.801C29.8277 149.763 30.0701 149.701 30.2216 149.614C30.3769 149.527 30.4545 149.375 30.4545 149.159V149.114C30.4545 148.553 30.3011 148.117 29.9943 147.807C29.6913 147.496 29.2311 147.341 28.6136 147.341C27.9735 147.341 27.4716 147.481 27.108 147.761C26.7443 148.042 26.4886 148.341 26.3409 148.659L25.0682 148.205C25.2955 147.674 25.5985 147.261 25.9773 146.966C26.3598 146.667 26.7765 146.458 27.2273 146.341C27.6818 146.22 28.1288 146.159 28.5682 146.159C28.8485 146.159 29.1705 146.193 29.5341 146.261C29.9015 146.326 30.2557 146.46 30.5966 146.665C30.9413 146.869 31.2273 147.178 31.4545 147.591C31.6818 148.004 31.7955 148.557 31.7955 149.25V155H30.4545V153.818H30.3864C30.2955 154.008 30.1439 154.21 29.9318 154.426C29.7197 154.642 29.4375 154.826 29.0852 154.977C28.733 155.129 28.303 155.205 27.7955 155.205ZM28 154C28.5303 154 28.9773 153.896 29.3409 153.688C29.7083 153.479 29.9848 153.21 30.1705 152.881C30.3598 152.551 30.4545 152.205 30.4545 151.841V150.614C30.3977 150.682 30.2727 150.744 30.0795 150.801C29.8902 150.854 29.6705 150.902 29.4205 150.943C29.1742 150.981 28.9337 151.015 28.6989 151.045C28.4678 151.072 28.2803 151.095 28.1364 151.114C27.7879 151.159 27.4621 151.233 27.1591 151.335C26.8598 151.434 26.6174 151.583 26.4318 151.784C26.25 151.981 26.1591 152.25 26.1591 152.591C26.1591 153.057 26.3314 153.409 26.6761 153.648C27.0246 153.883 27.4659 154 28 154ZM35.2638 149.75V155H33.9229V146.273H35.2184V147.636H35.332C35.5365 147.193 35.8471 146.837 36.2638 146.568C36.6805 146.295 37.2184 146.159 37.8774 146.159C38.4684 146.159 38.9854 146.28 39.4286 146.523C39.8718 146.761 40.2165 147.125 40.4627 147.614C40.7089 148.098 40.832 148.712 40.832 149.455V155H39.4911V149.545C39.4911 148.86 39.313 148.326 38.957 147.943C38.6009 147.557 38.1123 147.364 37.4911 147.364C37.063 147.364 36.6805 147.456 36.3434 147.642C36.01 147.828 35.7468 148.098 35.5536 148.455C35.3604 148.811 35.2638 149.242 35.2638 149.75ZM46.2577 155.182C45.5305 155.182 44.8884 154.998 44.3316 154.631C43.7748 154.259 43.3392 153.737 43.0248 153.062C42.7104 152.384 42.5532 151.583 42.5532 150.659C42.5532 149.742 42.7104 148.947 43.0248 148.273C43.3392 147.598 43.7767 147.078 44.3373 146.71C44.8979 146.343 45.5456 146.159 46.2805 146.159C46.8486 146.159 47.2975 146.254 47.627 146.443C47.9604 146.629 48.2142 146.841 48.3884 147.08C48.5664 147.314 48.7047 147.508 48.8032 147.659H48.9168V143.364H50.2577V155H48.9623V153.659H48.8032C48.7047 153.818 48.5645 154.019 48.3827 154.261C48.2009 154.5 47.9414 154.714 47.6043 154.903C47.2672 155.089 46.8183 155.182 46.2577 155.182ZM46.4395 153.977C46.9774 153.977 47.432 153.837 47.8032 153.557C48.1744 153.273 48.4566 152.881 48.6498 152.381C48.843 151.877 48.9395 151.295 48.9395 150.636C48.9395 149.985 48.8448 149.415 48.6555 148.926C48.4661 148.434 48.1858 148.051 47.8145 147.778C47.4433 147.502 46.985 147.364 46.4395 147.364C45.8714 147.364 45.3979 147.509 45.0191 147.801C44.6441 148.089 44.3619 148.481 44.1725 148.977C43.9869 149.47 43.8941 150.023 43.8941 150.636C43.8941 151.258 43.9888 151.822 44.1782 152.33C44.3714 152.833 44.6555 153.235 45.0305 153.534C45.4092 153.83 45.8789 153.977 46.4395 153.977ZM59.328 155.205C58.7749 155.205 58.273 155.1 57.8223 154.892C57.3715 154.68 57.0136 154.375 56.7484 153.977C56.4833 153.576 56.3507 153.091 56.3507 152.523C56.3507 152.023 56.4492 151.617 56.6461 151.307C56.8431 150.992 57.1064 150.746 57.4359 150.568C57.7655 150.39 58.1291 150.258 58.5268 150.17C58.9283 150.08 59.3317 150.008 59.737 149.955C60.2673 149.886 60.6973 149.835 61.0268 149.801C61.3602 149.763 61.6026 149.701 61.7541 149.614C61.9094 149.527 61.987 149.375 61.987 149.159V149.114C61.987 148.553 61.8336 148.117 61.5268 147.807C61.2238 147.496 60.7636 147.341 60.1461 147.341C59.506 147.341 59.0041 147.481 58.6405 147.761C58.2768 148.042 58.0211 148.341 57.8734 148.659L56.6007 148.205C56.828 147.674 57.131 147.261 57.5098 146.966C57.8923 146.667 58.309 146.458 58.7598 146.341C59.2143 146.22 59.6613 146.159 60.1007 146.159C60.381 146.159 60.703 146.193 61.0666 146.261C61.434 146.326 61.7882 146.46 62.1291 146.665C62.4738 146.869 62.7598 147.178 62.987 147.591C63.2143 148.004 63.328 148.557 63.328 149.25V155H61.987V153.818H61.9189C61.828 154.008 61.6764 154.21 61.4643 154.426C61.2522 154.642 60.97 154.826 60.6177 154.977C60.2655 155.129 59.8355 155.205 59.328 155.205ZM59.5325 154C60.0628 154 60.5098 153.896 60.8734 153.688C61.2408 153.479 61.5173 153.21 61.703 152.881C61.8923 152.551 61.987 152.205 61.987 151.841V150.614C61.9302 150.682 61.8052 150.744 61.612 150.801C61.4227 150.854 61.203 150.902 60.953 150.943C60.7067 150.981 60.4662 151.015 60.2314 151.045C60.0003 151.072 59.8128 151.095 59.6689 151.114C59.3204 151.159 58.9946 151.233 58.6916 151.335C58.3923 151.434 58.1499 151.583 57.9643 151.784C57.7825 151.981 57.6916 152.25 57.6916 152.591C57.6916 153.057 57.8639 153.409 58.2086 153.648C58.5571 153.883 58.9984 154 59.5325 154ZM65.4554 158.273V146.273H66.7509V147.659H66.9099C67.0084 147.508 67.1448 147.314 67.319 147.08C67.4971 146.841 67.7509 146.629 68.0804 146.443C68.4137 146.254 68.8645 146.159 69.4327 146.159C70.1675 146.159 70.8152 146.343 71.3759 146.71C71.9365 147.078 72.374 147.598 72.6884 148.273C73.0027 148.947 73.1599 149.742 73.1599 150.659C73.1599 151.583 73.0027 152.384 72.6884 153.062C72.374 153.737 71.9384 154.259 71.3815 154.631C70.8247 154.998 70.1827 155.182 69.4554 155.182C68.8948 155.182 68.4459 155.089 68.1088 154.903C67.7717 154.714 67.5122 154.5 67.3304 154.261C67.1486 154.019 67.0084 153.818 66.9099 153.659H66.7963V158.273H65.4554ZM66.7736 150.636C66.7736 151.295 66.8702 151.877 67.0634 152.381C67.2565 152.881 67.5387 153.273 67.9099 153.557C68.2812 153.837 68.7357 153.977 69.2736 153.977C69.8342 153.977 70.302 153.83 70.677 153.534C71.0558 153.235 71.3399 152.833 71.5293 152.33C71.7224 151.822 71.819 151.258 71.819 150.636C71.819 150.023 71.7243 149.47 71.5349 148.977C71.3493 148.481 71.0671 148.089 70.6884 147.801C70.3134 147.509 69.8418 147.364 69.2736 147.364C68.7281 147.364 68.2698 147.502 67.8986 147.778C67.5274 148.051 67.2471 148.434 67.0577 148.926C66.8683 149.415 66.7736 149.985 66.7736 150.636ZM74.8854 158.273V146.273H76.1809V147.659H76.3399C76.4384 147.508 76.5748 147.314 76.749 147.08C76.9271 146.841 77.1809 146.629 77.5104 146.443C77.8437 146.254 78.2945 146.159 78.8627 146.159C79.5975 146.159 80.2452 146.343 80.8059 146.71C81.3665 147.078 81.804 147.598 82.1184 148.273C82.4327 148.947 82.5899 149.742 82.5899 150.659C82.5899 151.583 82.4327 152.384 82.1184 153.062C81.804 153.737 81.3684 154.259 80.8115 154.631C80.2547 154.998 79.6127 155.182 78.8854 155.182C78.3248 155.182 77.8759 155.089 77.5388 154.903C77.2017 154.714 76.9422 154.5 76.7604 154.261C76.5786 154.019 76.4384 153.818 76.3399 153.659H76.2263V158.273H74.8854ZM76.2036 150.636C76.2036 151.295 76.3002 151.877 76.4934 152.381C76.6865 152.881 76.9687 153.273 77.3399 153.557C77.7112 153.837 78.1657 153.977 78.7036 153.977C79.2642 153.977 79.732 153.83 80.107 153.534C80.4858 153.235 80.7699 152.833 80.9593 152.33C81.1524 151.822 81.249 151.258 81.249 150.636C81.249 150.023 81.1543 149.47 80.9649 148.977C80.7793 148.481 80.4971 148.089 80.1184 147.801C79.7434 147.509 79.2718 147.364 78.7036 147.364C78.1581 147.364 77.6998 147.502 77.3286 147.778C76.9574 148.051 76.6771 148.434 76.4877 148.926C76.2983 149.415 76.2036 149.985 76.2036 150.636ZM85.6563 143.364V155H84.3154V143.364H85.6563ZM87.7923 155V146.273H89.1332V155H87.7923ZM88.4741 144.818C88.2127 144.818 87.9873 144.729 87.798 144.551C87.6123 144.373 87.5195 144.159 87.5195 143.909C87.5195 143.659 87.6123 143.445 87.798 143.267C87.9873 143.089 88.2127 143 88.4741 143C88.7355 143 88.9589 143.089 89.1445 143.267C89.3339 143.445 89.4286 143.659 89.4286 143.909C89.4286 144.159 89.3339 144.373 89.1445 144.551C88.9589 144.729 88.7355 144.818 88.4741 144.818ZM93.8373 155.205C93.2843 155.205 92.7824 155.1 92.3317 154.892C91.8809 154.68 91.5229 154.375 91.2578 153.977C90.9926 153.576 90.8601 153.091 90.8601 152.523C90.8601 152.023 90.9585 151.617 91.1555 151.307C91.3525 150.992 91.6157 150.746 91.9453 150.568C92.2748 150.39 92.6385 150.258 93.0362 150.17C93.4377 150.08 93.8411 150.008 94.2464 149.955C94.7767 149.886 95.2067 149.835 95.5362 149.801C95.8695 149.763 96.112 149.701 96.2635 149.614C96.4188 149.527 96.4964 149.375 96.4964 149.159V149.114C96.4964 148.553 96.343 148.117 96.0362 147.807C95.7332 147.496 95.2729 147.341 94.6555 147.341C94.0154 147.341 93.5135 147.481 93.1498 147.761C92.7862 148.042 92.5305 148.341 92.3828 148.659L91.1101 148.205C91.3373 147.674 91.6404 147.261 92.0192 146.966C92.4017 146.667 92.8184 146.458 93.2692 146.341C93.7237 146.22 94.1707 146.159 94.6101 146.159C94.8904 146.159 95.2123 146.193 95.576 146.261C95.9434 146.326 96.2976 146.46 96.6385 146.665C96.9832 146.869 97.2692 147.178 97.4964 147.591C97.7237 148.004 97.8373 148.557 97.8373 149.25V155H96.4964V153.818H96.4282C96.3373 154.008 96.1858 154.21 95.9737 154.426C95.7616 154.642 95.4794 154.826 95.1271 154.977C94.7748 155.129 94.3449 155.205 93.8373 155.205ZM94.0419 154C94.5722 154 95.0192 153.896 95.3828 153.688C95.7502 153.479 96.0267 153.21 96.2123 152.881C96.4017 152.551 96.4964 152.205 96.4964 151.841V150.614C96.4396 150.682 96.3146 150.744 96.1214 150.801C95.932 150.854 95.7123 150.902 95.4623 150.943C95.2161 150.981 94.9756 151.015 94.7407 151.045C94.5097 151.072 94.3222 151.095 94.1782 151.114C93.8298 151.159 93.504 151.233 93.201 151.335C92.9017 151.434 92.6593 151.583 92.4737 151.784C92.2919 151.981 92.201 152.25 92.201 152.591C92.201 153.057 92.3733 153.409 92.718 153.648C93.0665 153.883 93.5078 154 94.0419 154ZM101.306 149.75V155H99.9648V146.273H101.26V147.636H101.374C101.578 147.193 101.889 146.837 102.306 146.568C102.722 146.295 103.26 146.159 103.919 146.159C104.51 146.159 105.027 146.28 105.47 146.523C105.914 146.761 106.258 147.125 106.505 147.614C106.751 148.098 106.874 148.712 106.874 149.455V155H105.533V149.545C105.533 148.86 105.355 148.326 104.999 147.943C104.643 147.557 104.154 147.364 103.533 147.364C103.105 147.364 102.722 147.456 102.385 147.642C102.052 147.828 101.789 148.098 101.595 148.455C101.402 148.811 101.306 149.242 101.306 149.75ZM112.55 155.182C111.731 155.182 111.027 154.989 110.436 154.602C109.845 154.216 109.391 153.684 109.072 153.006C108.754 152.328 108.595 151.553 108.595 150.682C108.595 149.795 108.758 149.013 109.084 148.335C109.413 147.653 109.872 147.121 110.459 146.739C111.05 146.352 111.739 146.159 112.527 146.159C113.141 146.159 113.694 146.273 114.186 146.5C114.678 146.727 115.082 147.045 115.396 147.455C115.711 147.864 115.906 148.341 115.981 148.886H114.641C114.538 148.489 114.311 148.136 113.959 147.83C113.61 147.519 113.141 147.364 112.55 147.364C112.027 147.364 111.569 147.5 111.175 147.773C110.784 148.042 110.48 148.422 110.26 148.915C110.044 149.403 109.936 149.977 109.936 150.636C109.936 151.311 110.042 151.898 110.254 152.398C110.47 152.898 110.773 153.286 111.163 153.562C111.557 153.839 112.019 153.977 112.55 153.977C112.898 153.977 113.214 153.917 113.498 153.795C113.783 153.674 114.023 153.5 114.22 153.273C114.417 153.045 114.557 152.773 114.641 152.455H115.981C115.906 152.97 115.718 153.434 115.419 153.847C115.123 154.256 114.731 154.581 114.243 154.824C113.758 155.062 113.194 155.182 112.55 155.182ZM121.281 155.182C120.44 155.182 119.714 154.996 119.105 154.625C118.499 154.25 118.031 153.727 117.701 153.057C117.375 152.383 117.213 151.598 117.213 150.705C117.213 149.811 117.375 149.023 117.701 148.341C118.031 147.655 118.489 147.121 119.076 146.739C119.667 146.352 120.356 146.159 121.144 146.159C121.599 146.159 122.048 146.235 122.491 146.386C122.934 146.538 123.338 146.784 123.701 147.125C124.065 147.462 124.355 147.909 124.571 148.466C124.786 149.023 124.894 149.708 124.894 150.523V151.091H118.167V149.932H123.531C123.531 149.439 123.432 149 123.235 148.614C123.042 148.227 122.766 147.922 122.406 147.699C122.05 147.475 121.629 147.364 121.144 147.364C120.61 147.364 120.148 147.496 119.758 147.761C119.372 148.023 119.074 148.364 118.866 148.784C118.658 149.205 118.553 149.655 118.553 150.136V150.909C118.553 151.568 118.667 152.127 118.894 152.585C119.125 153.04 119.446 153.386 119.855 153.625C120.264 153.86 120.739 153.977 121.281 153.977C121.633 153.977 121.951 153.928 122.235 153.83C122.523 153.727 122.771 153.576 122.98 153.375C123.188 153.17 123.349 152.917 123.463 152.614L124.758 152.977C124.622 153.417 124.392 153.803 124.071 154.136C123.749 154.466 123.351 154.723 122.877 154.909C122.404 155.091 121.872 155.182 121.281 155.182ZM132.796 148.227L131.591 148.568C131.516 148.367 131.404 148.172 131.256 147.983C131.112 147.79 130.915 147.631 130.665 147.506C130.415 147.381 130.095 147.318 129.705 147.318C129.171 147.318 128.726 147.441 128.37 147.688C128.018 147.93 127.841 148.239 127.841 148.614C127.841 148.947 127.963 149.21 128.205 149.403C128.447 149.597 128.826 149.758 129.341 149.886L130.637 150.205C131.417 150.394 131.999 150.684 132.381 151.074C132.764 151.46 132.955 151.958 132.955 152.568C132.955 153.068 132.811 153.515 132.523 153.909C132.239 154.303 131.841 154.614 131.33 154.841C130.819 155.068 130.224 155.182 129.546 155.182C128.656 155.182 127.919 154.989 127.336 154.602C126.752 154.216 126.383 153.652 126.228 152.909L127.501 152.591C127.622 153.061 127.851 153.413 128.188 153.648C128.529 153.883 128.974 154 129.523 154C130.148 154 130.644 153.867 131.012 153.602C131.383 153.333 131.569 153.011 131.569 152.636C131.569 152.333 131.463 152.08 131.251 151.875C131.038 151.667 130.713 151.511 130.273 151.409L128.819 151.068C128.019 150.879 127.432 150.585 127.057 150.188C126.686 149.786 126.501 149.284 126.501 148.682C126.501 148.189 126.639 147.754 126.915 147.375C127.196 146.996 127.576 146.699 128.057 146.483C128.542 146.267 129.091 146.159 129.705 146.159C130.569 146.159 131.247 146.348 131.739 146.727C132.235 147.106 132.588 147.606 132.796 148.227ZM136.404 151.727V151.659C136.411 150.936 136.487 150.36 136.631 149.932C136.775 149.504 136.979 149.157 137.244 148.892C137.51 148.627 137.828 148.383 138.199 148.159C138.422 148.023 138.623 147.862 138.801 147.676C138.979 147.487 139.119 147.269 139.222 147.023C139.328 146.777 139.381 146.504 139.381 146.205C139.381 145.833 139.294 145.511 139.119 145.239C138.945 144.966 138.712 144.756 138.421 144.608C138.129 144.46 137.805 144.386 137.449 144.386C137.138 144.386 136.839 144.451 136.551 144.58C136.263 144.708 136.023 144.911 135.83 145.188C135.636 145.464 135.525 145.826 135.494 146.273H134.063C134.093 145.629 134.26 145.078 134.563 144.619C134.869 144.161 135.273 143.811 135.773 143.568C136.277 143.326 136.835 143.205 137.449 143.205C138.116 143.205 138.695 143.337 139.188 143.602C139.684 143.867 140.066 144.231 140.335 144.693C140.608 145.155 140.744 145.682 140.744 146.273C140.744 146.689 140.68 147.066 140.551 147.403C140.426 147.741 140.244 148.042 140.006 148.307C139.771 148.572 139.487 148.807 139.154 149.011C138.82 149.22 138.553 149.439 138.352 149.67C138.152 149.898 138.006 150.169 137.915 150.483C137.824 150.797 137.775 151.189 137.767 151.659V151.727H136.404ZM137.131 155.091C136.85 155.091 136.61 154.991 136.409 154.79C136.208 154.589 136.108 154.348 136.108 154.068C136.108 153.788 136.208 153.547 136.409 153.347C136.61 153.146 136.85 153.045 137.131 153.045C137.411 153.045 137.652 153.146 137.852 153.347C138.053 153.547 138.154 153.788 138.154 154.068C138.154 154.254 138.106 154.424 138.011 154.58C137.921 154.735 137.797 154.86 137.642 154.955C137.491 155.045 137.32 155.091 137.131 155.091Z" fill="white"/>
<defs>
<radialGradient id="paint0_angular_97_1884" cx="0" cy="0" r="1" gradientUnits="userSpaceOnUse" gradientTransform="translate(107.011 135.882) rotate(-12.9855) scale(139.661 115.245)">
<stop offset="0.157704" stop-opacity="0"/>
<stop offset="0.723846" stop-color="white" stop-opacity="0"/>
<stop offset="0.887134" stop-color="white"/>
</radialGradient>
</defs>
</svg>
